<svg width="261" height="148" viewBox="0 0 261 148" fill="none" xmlns="http://www.w3.org/2000/svg">
<path d="M257.148 35.4341L259.975 40.7766L260.599 43.8297L257.148 35.4341ZM256.126 32.4938L258.97 37.8816L259.975 40.7766L256.126 32.4938ZM254.746 29.7425L257.611 35.1727L258.97 37.8816L254.746 29.7425ZM35.2403 141.873L41.4871 145.575L38.7782 144.216L35.2403 141.873ZM38.1806 142.894L44.3821 146.581L41.4871 145.575L38.1806 142.894ZM41.2815 143.527L47.4352 147.204L44.3821 146.581L41.2815 143.527ZM44.5146 143.745L50.6185 147.419L47.4352 147.204L44.5146 143.745ZM234.172 143.745L237.354 147.419H50.6185L234.172 143.745ZM237.406 143.527L240.537 147.204L237.354 147.419L237.406 143.527ZM240.506 142.894L243.591 146.581L240.537 147.204L240.506 142.894ZM243.447 141.873L246.486 145.575L243.591 146.581L243.447 141.873ZM246.198 140.492L249.195 144.216L246.486 145.575L246.198 140.492ZM248.732 138.78L251.689 142.531L249.195 144.216L248.732 138.78ZM251.02 136.766L253.942 140.548L251.689 142.531L251.02 136.766ZM253.034 134.478L255.925 138.295L253.942 140.548L253.034 134.478ZM254.746 131.944L257.611 135.8L255.925 138.295L254.746 131.944ZM256.126 129.193L258.97 133.091L257.611 135.8L256.126 129.193ZM257.148 126.253L259.975 130.196L258.97 133.091L257.148 126.253ZM257.781 123.152L260.599 127.143L259.975 130.196L257.781 123.152ZM257.999 119.919L260.813 123.959L260.599 127.143L257.999 119.919ZM257.999 41.7681L260.813 47.013V123.959L257.999 41.7681ZM257.781 38.535L260.599 43.8297L260.813 47.013L257.781 38.535ZM257.781 38.535L257.148 35.4341L260.599 43.8297L257.781 38.535ZM257.148 35.4341L256.126 32.4938L259.975 40.7766L257.148 35.4341ZM256.126 32.4938L254.746 29.7425L258.97 37.8816L256.126 32.4938ZM257.999 41.7681L257.781 38.535L260.813 47.013L257.999 41.7681ZM257.999 119.919V41.7681L260.813 123.959L257.999 119.919ZM32.489 140.492L35.2403 141.873L38.7782 144.216L32.489 140.492ZM35.2403 141.873L38.1806 142.894L41.4871 145.575L35.2403 141.873ZM38.1806 142.894L41.2815 143.527L44.3821 146.581L38.1806 142.894ZM41.2815 143.527L44.5146 143.745L47.4352 147.204L41.2815 143.527ZM44.5146 143.745H234.172L50.6185 147.419L44.5146 143.745ZM234.172 143.745L237.406 143.527L237.354 147.419L234.172 143.745ZM237.406 143.527L240.506 142.894L240.537 147.204L237.406 143.527ZM240.506 142.894L243.447 141.873L243.591 146.581L240.506 142.894ZM243.447 141.873L246.198 140.492L246.486 145.575L243.447 141.873ZM246.198 140.492L248.732 138.78L249.195 144.216L246.198 140.492ZM248.732 138.78L251.02 136.766L251.689 142.531L248.732 138.78ZM251.02 136.766L253.034 134.478L253.942 140.548L251.02 136.766ZM253.034 134.478L254.746 131.944L255.925 138.295L253.034 134.478ZM254.746 131.944L256.126 129.193L257.611 135.8L254.746 131.944ZM256.126 129.193L257.148 126.253L258.97 133.091L256.126 129.193ZM257.148 126.253L257.781 123.152L259.975 130.196L257.148 126.253ZM257.781 123.152L257.999 119.919L260.599 127.143L257.781 123.152ZM254.23 29.9218L257.148 35.4341L257.781 38.535L254.23 29.9218ZM253.192 26.9347L256.126 32.4938L257.148 35.4341L253.192 26.9347ZM251.79 24.1397L254.746 29.7425L256.126 32.4938L251.79 24.1397ZM28.7949 138.052L35.2403 141.873L32.489 140.492L28.7949 138.052ZM31.7819 139.09L38.1806 142.894L35.2403 141.873L31.7819 139.09ZM34.9321 139.733L41.2815 143.527L38.1806 142.894L34.9321 139.733ZM38.2166 139.954L44.5146 143.745L41.2815 143.527L38.2166 139.954ZM230.89 139.954L234.172 143.745H44.5146L230.89 139.954ZM234.174 139.733L237.406 143.527L234.172 143.745L234.174 139.733ZM237.324 139.09L240.506 142.894L237.406 143.527L237.324 139.09ZM240.311 138.052L243.447 141.873L240.506 142.894L240.311 138.052ZM243.106 136.65L246.198 140.492L243.447 141.873L243.106 136.65ZM245.681 134.911L248.732 138.78L246.198 140.492L245.681 134.911ZM248.005 132.865L251.02 136.766L248.732 138.78L248.005 132.865ZM250.051 130.54L253.034 134.478L251.02 136.766L250.051 130.54ZM251.79 127.966L254.746 131.944L253.034 134.478L251.79 127.966ZM253.192 125.171L256.126 129.193L254.746 131.944L253.192 125.171ZM254.23 122.184L257.148 126.253L256.126 129.193L254.23 122.184ZM254.874 119.034L257.781 123.152L257.148 126.253L254.874 119.034ZM255.095 115.749L257.999 119.919L257.781 123.152L255.095 115.749ZM255.095 36.3565L257.999 41.7681V119.919L255.095 36.3565ZM254.874 33.072L257.781 38.535L257.999 41.7681L254.874 33.072ZM254.874 33.072L254.23 29.9218L257.781 38.535L254.874 33.072ZM254.23 29.9218L253.192 26.9347L257.148 35.4341L254.23 29.9218ZM253.192 26.9347L251.79 24.1397L256.126 32.4938L253.192 26.9347ZM25.9998 136.65L28.7949 138.052L32.489 140.492L25.9998 136.65ZM28.7949 138.052L31.7819 139.09L35.2403 141.873L28.7949 138.052ZM31.7819 139.09L34.9321 139.733L38.1806 142.894L31.7819 139.09ZM34.9321 139.733L38.2166 139.954L41.2815 143.527L34.9321 139.733ZM38.2166 139.954H230.89L44.5146 143.745L38.2166 139.954ZM230.89 139.954L234.174 139.733L234.172 143.745L230.89 139.954ZM234.174 139.733L237.324 139.09L237.406 143.527L234.174 139.733ZM237.324 139.09L240.311 138.052L240.506 142.894L237.324 139.09ZM240.311 138.052L243.106 136.65L243.447 141.873L240.311 138.052ZM243.106 136.65L245.681 134.911L246.198 140.492L243.106 136.65ZM245.681 134.911L248.005 132.865L248.732 138.78L245.681 134.911ZM248.005 132.865L250.051 130.54L251.02 136.766L248.005 132.865ZM250.051 130.54L251.79 127.966L253.034 134.478L250.051 130.54ZM251.79 127.966L253.192 125.171L254.746 131.944L251.79 127.966ZM253.192 125.171L254.23 122.184L256.126 129.193L253.192 125.171ZM254.23 122.184L254.874 119.034L257.148 126.253L254.23 122.184ZM254.874 119.034L255.095 115.749L257.781 123.152L254.874 119.034ZM255.095 115.749V36.3565L257.999 119.919L255.095 115.749ZM255.095 36.3565L254.874 33.072L257.999 41.7681L255.095 36.3565ZM251.218 24.2314L254.23 29.9218L254.874 33.072L251.218 24.2314ZM250.164 21.1961L253.192 26.9347L254.23 29.9218L250.164 21.1961ZM248.739 18.3558L251.79 24.1397L253.192 26.9347L248.739 18.3558ZM252.097 30.77L255.095 36.3565V115.749L252.097 30.77ZM251.872 27.4324L254.874 33.072L255.095 36.3565L251.872 27.4324ZM22.1413 134.109L28.7949 138.052L25.9998 136.65L22.1413 134.109ZM25.1765 135.163L31.7819 139.09L28.7949 138.052L25.1765 135.163ZM28.3776 135.817L34.9321 139.733L31.7819 139.09L28.3776 135.817ZM31.7152 136.042L38.2166 139.954L34.9321 139.733L31.7152 136.042ZM227.501 136.042L230.89 139.954H38.2166L227.501 136.042ZM230.838 135.817L234.174 139.733L230.89 139.954L230.838 135.817ZM234.039 135.163L237.324 139.09L234.174 139.733L234.039 135.163ZM237.074 134.109L240.311 138.052L237.324 139.09L237.074 134.109ZM239.915 132.683L243.106 136.65L240.311 138.052L239.915 132.683ZM242.53 130.917L245.681 134.911L243.106 136.65L242.53 130.917ZM244.893 128.837L248.005 132.865L245.681 134.911L244.893 128.837ZM246.972 126.475L250.051 130.54L248.005 132.865L246.972 126.475ZM248.739 123.86L251.79 127.966L250.051 130.54L248.739 123.86ZM250.164 121.019L253.192 125.171L251.79 127.966L250.164 121.019ZM251.218 117.984L254.23 122.184L253.192 125.171L251.218 117.984ZM251.872 114.783L254.874 119.034L254.23 122.184L251.872 114.783ZM252.097 111.445L255.095 115.749L254.874 119.034L252.097 111.445ZM251.872 27.4324L251.218 24.2314L254.874 33.072L251.872 27.4324ZM251.218 24.2314L250.164 21.1961L254.23 29.9218L251.218 24.2314ZM250.164 21.1961L248.739 18.3558L253.192 26.9347L250.164 21.1961ZM252.097 30.77L251.872 27.4324L255.095 36.3565L252.097 30.77ZM252.097 111.445V30.77L255.095 115.749L252.097 111.445ZM19.301 132.683L22.1413 134.109L25.9998 136.65L19.301 132.683ZM22.1413 134.109L25.1765 135.163L28.7949 138.052L22.1413 134.109ZM25.1765 135.163L28.3776 135.817L31.7819 139.09L25.1765 135.163ZM28.3776 135.817L31.7152 136.042L34.9321 139.733L28.3776 135.817ZM31.7152 136.042H227.501L38.2166 139.954L31.7152 136.042ZM227.501 136.042L230.838 135.817L230.89 139.954L227.501 136.042ZM230.838 135.817L234.039 135.163L234.174 139.733L230.838 135.817ZM234.039 135.163L237.074 134.109L237.324 139.09L234.039 135.163ZM237.074 134.109L239.915 132.683L240.311 138.052L237.074 134.109ZM239.915 132.683L242.53 130.917L243.106 136.65L239.915 132.683ZM242.53 130.917L244.893 128.837L245.681 134.911L242.53 130.917ZM244.893 128.837L246.972 126.475L248.005 132.865L244.893 128.837ZM246.972 126.475L248.739 123.86L250.051 130.54L246.972 126.475ZM248.739 123.86L250.164 121.019L251.79 127.966L248.739 123.86ZM250.164 121.019L251.218 117.984L253.192 125.171L250.164 121.019ZM251.218 117.984L251.872 114.783L254.23 122.184L251.218 117.984ZM251.872 114.783L252.097 111.445L254.874 119.034L251.872 114.783ZM248.107 18.3541L251.218 24.2314L251.872 27.4324L248.107 18.3541ZM247.036 15.2689L250.164 21.1961L251.218 24.2314L247.036 15.2689ZM245.587 12.3821L248.739 18.3558L250.164 21.1961L245.587 12.3821ZM248.772 21.6077L251.872 27.4324L252.097 30.77L248.772 21.6077ZM249 25.0001L252.097 30.77V111.445L249 25.0001ZM15.2691 130.035L22.1413 134.109L19.301 132.683L15.2691 130.035ZM18.3542 131.107L25.1765 135.163L22.1413 134.109L18.3542 131.107ZM21.6079 131.772L28.3776 135.817L25.1765 135.163L21.6079 131.772ZM25.0002 132L31.7152 136.042L28.3776 135.817L25.0002 132ZM224 132L227.501 136.042H31.7152L224 132ZM227.393 131.772L230.838 135.817L227.501 136.042L227.393 131.772ZM230.646 131.107L234.039 135.163L230.838 135.817L230.646 131.107ZM233.731 130.035L237.074 134.109L234.039 135.163L233.731 130.035ZM236.618 128.587L239.915 132.683L237.074 134.109L236.618 128.587ZM239.277 126.791L242.53 130.917L239.915 132.683L239.277 126.791ZM241.678 124.678L244.893 128.837L242.53 130.917L241.678 124.678ZM243.791 122.277L246.972 126.475L244.893 128.837L243.791 122.277ZM245.587 119.618L248.739 123.86L246.972 126.475L245.587 119.618ZM247.036 116.731L250.164 121.019L248.739 123.86L247.036 116.731ZM248.107 113.646L251.218 117.984L250.164 121.019L248.107 113.646ZM248.772 110.392L251.872 114.783L251.218 117.984L248.772 110.392ZM249 107L252.097 111.445L251.872 114.783L249 107ZM248.772 21.6077L248.107 18.3541L251.872 27.4324L248.772 21.6077ZM248.107 18.3541L247.036 15.2689L251.218 24.2314L248.107 18.3541ZM247.036 15.2689L245.587 12.3821L250.164 21.1961L247.036 15.2689ZM249 25.0001L248.772 21.6077L252.097 30.77L249 25.0001ZM12.3822 128.587L15.2691 130.035L19.301 132.683L12.3822 128.587ZM15.2691 130.035L18.3542 131.107L22.1413 134.109L15.2691 130.035ZM18.3542 131.107L21.6079 131.772L25.1765 135.163L18.3542 131.107ZM21.6079 131.772L25.0002 132L28.3776 135.817L21.6079 131.772ZM25.0002 132H224L31.7152 136.042L25.0002 132ZM224 132L227.393 131.772L227.501 136.042L224 132ZM227.393 131.772L230.646 131.107L230.838 135.817L227.393 131.772ZM230.646 131.107L233.731 130.035L234.039 135.163L230.646 131.107ZM233.731 130.035L236.618 128.587L237.074 134.109L233.731 130.035ZM236.618 128.587L239.277 126.791L239.915 132.683L236.618 128.587ZM239.277 126.791L241.678 124.678L242.53 130.917L239.277 126.791ZM241.678 124.678L243.791 122.277L244.893 128.837L241.678 124.678ZM243.791 122.277L245.587 119.618L246.972 126.475L243.791 122.277ZM245.587 119.618L247.036 116.731L248.739 123.86L245.587 119.618ZM247.036 116.731L248.107 113.646L250.164 121.019L247.036 116.731ZM248.107 113.646L248.772 110.392L251.218 117.984L248.107 113.646ZM248.772 110.392L249 107L251.872 114.783L248.772 110.392ZM249 107V25.0001L252.097 111.445L249 107Z" fill="#B77513"/>
<path d="M248.772 21.6076L249 25V107L248.772 21.6076ZM247.035 15.2689L248.107 18.354L248.772 21.6076L247.035 15.2689ZM243.791 9.72324L245.587 12.382L247.035 15.2689L243.791 9.72324ZM239.277 5.20906L241.678 7.32233L243.791 9.72324L239.277 5.20906ZM233.731 1.96462L236.618 3.41323L239.277 5.20906L233.731 1.96462ZM227.392 0.228218L230.646 0.893021L233.731 1.96462L227.392 0.228218ZM25 0H224L227.392 0.228218L25 0ZM18.354 0.893021L21.6077 0.228218L25 0L18.354 0.893021ZM12.382 3.41323L15.2689 1.96462L18.354 0.893021L12.382 3.41323ZM7.32233 7.32233L9.72325 5.20906L12.382 3.41323L7.32233 7.32233ZM3.41324 12.382L5.20906 9.72324L7.32233 7.32233L3.41324 12.382ZM0.893021 18.354L1.96463 15.2689L3.41324 12.382L0.893021 18.354ZM0 25L0.228226 21.6076L0.893021 18.354L0 25ZM0.228226 110.392L0 107V25L0.228226 110.392ZM1.96463 116.731L0.893021 113.646L0.228226 110.392L1.96463 116.731ZM5.20906 122.277L3.41324 119.618L1.96463 116.731L5.20906 122.277ZM9.72325 126.791L7.32233 124.678L5.20906 122.277L9.72325 126.791ZM15.2689 130.035L12.382 128.587L9.72325 126.791L15.2689 130.035ZM21.6077 131.772L18.354 131.107L15.2689 130.035L21.6077 131.772ZM224 132H25L21.6077 131.772L224 132ZM230.646 131.107L227.392 131.772L224 132L230.646 131.107ZM236.618 128.587L233.731 130.035L230.646 131.107L236.618 128.587ZM241.678 124.678L239.277 126.791L236.618 128.587L241.678 124.678ZM245.587 119.618L243.791 122.277L241.678 124.678L245.587 119.618ZM248.107 113.646L247.035 116.731L245.587 119.618L248.107 113.646ZM249 107L248.772 110.392L248.107 113.646L249 107ZM247.035 15.2689L248.772 21.6076L249 107L247.035 15.2689ZM239.277 5.20906L243.791 9.72324L247.035 15.2689L239.277 5.20906ZM227.392 0.228218L233.731 1.96462L239.277 5.20906L227.392 0.228218ZM18.354 0.893021L25 0L227.392 0.228218L18.354 0.893021ZM7.32233 7.32233L12.382 3.41323L18.354 0.893021L7.32233 7.32233ZM0.893021 18.354L3.41324 12.382L7.32233 7.32233L0.893021 18.354ZM0.228226 110.392L0 25L0.893021 18.354L0.228226 110.392ZM5.20906 122.277L1.96463 116.731L0.228226 110.392L5.20906 122.277ZM15.2689 130.035L9.72325 126.791L5.20906 122.277L15.2689 130.035ZM224 132L21.6077 131.772L15.2689 130.035L224 132ZM236.618 128.587L230.646 131.107L224 132L236.618 128.587ZM245.587 119.618L241.678 124.678L236.618 128.587L245.587 119.618ZM249 107L248.107 113.646L245.587 119.618L249 107ZM239.277 5.20906L247.035 15.2689L249 107L239.277 5.20906ZM18.354 0.893021L227.392 0.228218L239.277 5.20906L18.354 0.893021ZM0.893021 18.354L7.32233 7.32233L18.354 0.893021L0.893021 18.354ZM5.20906 122.277L0.228226 110.392L0.893021 18.354L5.20906 122.277ZM224 132L15.2689 130.035L5.20906 122.277L224 132ZM245.587 119.618L236.618 128.587L224 132L245.587 119.618ZM239.277 5.20906L249 107L245.587 119.618L239.277 5.20906ZM0.893021 18.354L18.354 0.893021L239.277 5.20906L0.893021 18.354ZM224 132L5.20906 122.277L0.893021 18.354L224 132ZM239.277 5.20906L245.587 119.618L224 132L239.277 5.20906ZM224 132L0.893021 18.354L239.277 5.20906L224 132Z" fill="#FFA31A"/>
<path d="M105.063 49V34.4545H110.802C111.905 34.4545 112.845 34.6652 113.621 35.0866C114.398 35.5033 114.99 36.0833 115.397 36.8267C115.809 37.5653 116.015 38.4176 116.015 39.3835C116.015 40.3494 115.806 41.2017 115.39 41.9403C114.973 42.679 114.369 43.2543 113.579 43.6662C112.793 44.0781 111.841 44.2841 110.724 44.2841H107.066V41.8196H110.226C110.818 41.8196 111.306 41.7178 111.689 41.5142C112.078 41.3059 112.367 41.0194 112.556 40.6548C112.75 40.2855 112.847 39.8617 112.847 39.3835C112.847 38.9006 112.75 38.4792 112.556 38.1193C112.367 37.7547 112.078 37.473 111.689 37.2741C111.301 37.0705 110.809 36.9688 110.212 36.9688H108.138V49H105.063ZM129.177 49H126.109V36.9688H124.035C123.443 36.9688 122.951 37.0563 122.558 37.2315C122.169 37.402 121.878 37.6529 121.684 37.9844C121.49 38.3158 121.393 38.723 121.393 39.206C121.393 39.6842 121.49 40.0843 121.684 40.4062C121.878 40.7282 122.169 40.9697 122.558 41.1307C122.946 41.2917 123.434 41.3722 124.021 41.3722H127.359V43.8438H123.524C122.411 43.8438 121.459 43.6591 120.669 43.2898C119.878 42.9205 119.274 42.3902 118.857 41.6989C118.441 41.0028 118.232 40.1719 118.232 39.206C118.232 38.2448 118.436 37.4091 118.843 36.6989C119.255 35.9839 119.849 35.4323 120.626 35.044C121.407 34.651 122.347 34.4545 123.445 34.4545H129.177V49ZM121.329 42.3807H124.646L121.109 49H117.714L121.329 42.3807ZM130.915 52.5085V46.5497H131.903C132.239 46.3082 132.546 45.9673 132.826 45.527C133.105 45.0819 133.344 44.4688 133.543 43.6875C133.742 42.9015 133.884 41.8741 133.969 40.6051L134.381 34.4545H144.005V46.5497H145.596V52.4943H142.641V49H133.87V52.5085H130.915ZM135.454 46.5497H141.05V36.9901H137.151L136.924 40.6051C136.862 41.5663 136.76 42.4186 136.618 43.1619C136.481 43.9053 136.313 44.5563 136.114 45.1151C135.92 45.669 135.7 46.1473 135.454 46.5497ZM18.6763 73V58.4545H28.3283V60.9901H21.7516V63.831H24.1167C25.2672 63.831 26.2592 64.018 27.0925 64.392C27.9306 64.7614 28.5769 65.2846 29.0314 65.9616C29.486 66.6387 29.7132 67.4366 29.7132 68.3551C29.7132 69.2689 29.486 70.0762 29.0314 70.777C28.5769 71.473 27.9306 72.0175 27.0925 72.4105C26.2592 72.8035 25.2672 73 24.1167 73H18.6763ZM21.7516 70.5284H24.1167C24.6659 70.5284 25.1299 70.429 25.5087 70.2301C25.8875 70.0265 26.1739 69.759 26.3681 69.4276C26.5669 69.0914 26.6664 68.7244 26.6664 68.3267C26.6664 67.7491 26.4462 67.2614 26.0059 66.8636C25.5703 66.4612 24.9405 66.2599 24.1167 66.2599H21.7516V70.5284ZM34.7789 58.4545V73H31.7037V58.4545H34.7789ZM37.9039 64.7827V67.1832H33.2591V64.7827H37.9039ZM50.5673 65.7273C50.5673 67.3134 50.2666 68.6629 49.6653 69.7756C49.0687 70.8883 48.2543 71.7382 47.2221 72.3253C46.1947 72.9077 45.0394 73.1989 43.7562 73.1989C42.4636 73.1989 41.3036 72.9053 40.2761 72.3182C39.2486 71.7311 38.4366 70.8812 37.84 69.7685C37.2434 68.6558 36.9451 67.3087 36.9451 65.7273C36.9451 64.1411 37.2434 62.7917 37.84 61.679C38.4366 60.5663 39.2486 59.7187 40.2761 59.1364C41.3036 58.5492 42.4636 58.2557 43.7562 58.2557C45.0394 58.2557 46.1947 58.5492 47.2221 59.1364C48.2543 59.7187 49.0687 60.5663 49.6653 61.679C50.2666 62.7917 50.5673 64.1411 50.5673 65.7273ZM47.4494 65.7273C47.4494 64.6998 47.2955 63.8333 46.9877 63.1278C46.6847 62.4223 46.2562 61.8873 45.7022 61.5227C45.1483 61.1581 44.4996 60.9759 43.7562 60.9759C43.0128 60.9759 42.3642 61.1581 41.8102 61.5227C41.2562 61.8873 40.8253 62.4223 40.5176 63.1278C40.2145 63.8333 40.063 64.6998 40.063 65.7273C40.063 66.7547 40.2145 67.6212 40.5176 68.3267C40.8253 69.0322 41.2562 69.5672 41.8102 69.9318C42.3642 70.2964 43.0128 70.4787 43.7562 70.4787C44.4996 70.4787 45.1483 70.2964 45.7022 69.9318C46.2562 69.5672 46.6847 69.0322 46.9877 68.3267C47.2955 67.6212 47.4494 66.7547 47.4494 65.7273ZM52.8365 73V58.4545H58.5751C59.6783 58.4545 60.6182 58.6652 61.3947 59.0866C62.1712 59.5033 62.7631 60.0833 63.1703 60.8267C63.5822 61.5653 63.7882 62.4176 63.7882 63.3835C63.7882 64.3494 63.5798 65.2017 63.1632 65.9403C62.7465 66.679 62.1428 67.2543 61.3521 67.6662C60.5661 68.0781 59.6144 68.2841 58.497 68.2841H54.8393V65.8196H57.9998C58.5917 65.8196 59.0794 65.7178 59.4629 65.5142C59.8511 65.3059 60.14 65.0194 60.3294 64.6548C60.5235 64.2855 60.6206 63.8617 60.6206 63.3835C60.6206 62.9006 60.5235 62.4792 60.3294 62.1193C60.14 61.7547 59.8511 61.473 59.4629 61.2741C59.0746 61.0705 58.5822 60.9688 57.9856 60.9688H55.9118V73H52.8365ZM79.1522 65.7273C79.1522 67.3134 78.8515 68.6629 78.2502 69.7756C77.6536 70.8883 76.8392 71.7382 75.807 72.3253C74.7795 72.9077 73.6242 73.1989 72.3411 73.1989C71.0485 73.1989 69.8884 72.9053 68.861 72.3182C67.8335 71.7311 67.0215 70.8812 66.4249 69.7685C65.8283 68.6558 65.53 67.3087 65.53 65.7273C65.53 64.1411 65.8283 62.7917 66.4249 61.679C67.0215 60.5663 67.8335 59.7187 68.861 59.1364C69.8884 58.5492 71.0485 58.2557 72.3411 58.2557C73.6242 58.2557 74.7795 58.5492 75.807 59.1364C76.8392 59.7187 77.6536 60.5663 78.2502 61.679C78.8515 62.7917 79.1522 64.1411 79.1522 65.7273ZM76.0343 65.7273C76.0343 64.6998 75.8804 63.8333 75.5726 63.1278C75.2696 62.4223 74.8411 61.8873 74.2871 61.5227C73.7331 61.1581 73.0845 60.9759 72.3411 60.9759C71.5977 60.9759 70.949 61.1581 70.3951 61.5227C69.8411 61.8873 69.4102 62.4223 69.1025 63.1278C68.7994 63.8333 68.6479 64.6998 68.6479 65.7273C68.6479 66.7547 68.7994 67.6212 69.1025 68.3267C69.4102 69.0322 69.8411 69.5672 70.3951 69.9318C70.949 70.2964 71.5977 70.4787 72.3411 70.4787C73.0845 70.4787 73.7331 70.2964 74.2871 69.9318C74.8411 69.5672 75.2696 69.0322 75.5726 68.3267C75.8804 67.6212 76.0343 66.7547 76.0343 65.7273ZM90.2299 73L85.5566 66.7997H84.5055V73H81.4302V58.4545H84.5055V64.2642H85.1234L89.9529 58.4545H93.7811L88.1064 65.2017L94.0439 73H90.2299ZM95.5904 73V58.4545H101.329C102.432 58.4545 103.372 58.6652 104.149 59.0866C104.925 59.5033 105.517 60.0833 105.924 60.8267C106.336 61.5653 106.542 62.4176 106.542 63.3835C106.542 64.3494 106.334 65.2017 105.917 65.9403C105.5 66.679 104.897 67.2543 104.106 67.6662C103.32 68.0781 102.368 68.2841 101.251 68.2841H97.5932V65.8196H100.754C101.346 65.8196 101.833 65.7178 102.217 65.5142C102.605 65.3059 102.894 65.0194 103.083 64.6548C103.277 64.2855 103.374 63.8617 103.374 63.3835C103.374 62.9006 103.277 62.4792 103.083 62.1193C102.894 61.7547 102.605 61.473 102.217 61.2741C101.829 61.0705 101.336 60.9688 100.74 60.9688H98.6657V73H95.5904ZM109.367 73H106.072L111.093 58.4545H115.056L120.07 73H116.775L113.131 61.7784H113.018L109.367 73ZM109.161 67.2827H116.945V69.6832H109.161V67.2827ZM119.49 60.9901V58.4545H131.436V60.9901H126.982V73H123.943V60.9901H119.49ZM133.403 58.4545H136.471V67.6023H136.592L142.877 58.4545H145.569V73H142.494V63.8452H142.387L136.066 73H133.403V58.4545ZM148.699 58.4545H151.689V63.142C151.689 63.7008 151.787 64.1506 151.981 64.4915C152.175 64.8277 152.475 65.0715 152.883 65.223C153.295 65.3698 153.823 65.4432 154.466 65.4432C154.694 65.4432 154.961 65.4361 155.269 65.4219C155.577 65.4029 155.894 65.3769 156.221 65.3438C156.552 65.3106 156.865 65.2704 157.158 65.223C157.452 65.1757 157.696 65.1212 157.89 65.0597V67.4886C157.691 67.5549 157.442 67.6141 157.144 67.6662C156.85 67.7135 156.54 67.7562 156.214 67.794C155.887 67.8272 155.57 67.8532 155.262 67.8722C154.954 67.8911 154.689 67.9006 154.466 67.9006C153.297 67.9006 152.279 67.7348 151.412 67.4034C150.546 67.0672 149.876 66.5488 149.403 65.848C148.934 65.1473 148.699 64.2453 148.699 63.142V58.4545ZM157.357 58.4545H160.361V73H157.357V58.4545ZM163.403 73V58.4545H173.204V60.9901H166.478V64.456H172.7V66.9915H166.478V70.4645H173.232V73H163.403ZM188.483 63.5469H185.372C185.315 63.1444 185.199 62.7869 185.024 62.4744C184.849 62.1572 184.624 61.8873 184.349 61.6648C184.075 61.4422 183.757 61.2718 183.398 61.1534C183.042 61.035 182.657 60.9759 182.24 60.9759C181.487 60.9759 180.831 61.1629 180.273 61.5369C179.714 61.9062 179.281 62.446 178.973 63.1562C178.665 63.8617 178.511 64.7187 178.511 65.7273C178.511 66.7642 178.665 67.6354 178.973 68.3409C179.285 69.0464 179.721 69.5791 180.28 69.9389C180.838 70.2988 181.485 70.4787 182.219 70.4787C182.631 70.4787 183.012 70.4242 183.362 70.3153C183.717 70.2064 184.032 70.0478 184.307 69.8395C184.581 69.6264 184.809 69.3684 184.988 69.0653C185.173 68.7623 185.301 68.4167 185.372 68.0284L188.483 68.0426C188.402 68.7102 188.201 69.3542 187.879 69.9744C187.562 70.59 187.133 71.1416 186.594 71.6293C186.059 72.1122 185.419 72.4957 184.676 72.7798C183.937 73.0592 183.102 73.1989 182.169 73.1989C180.872 73.1989 179.711 72.9053 178.689 72.3182C177.671 71.7311 176.866 70.8812 176.274 69.7685C175.687 68.6558 175.393 67.3087 175.393 65.7273C175.393 64.1411 175.692 62.7917 176.288 61.679C176.885 60.5663 177.694 59.7187 178.717 59.1364C179.74 58.5492 180.89 58.2557 182.169 58.2557C183.012 58.2557 183.793 58.3741 184.513 58.6108C185.237 58.8475 185.879 59.1932 186.437 59.6477C186.996 60.0975 187.451 60.6491 187.801 61.3026C188.156 61.956 188.383 62.7041 188.483 63.5469ZM199.488 73L194.814 66.7997H193.763V73H190.688V58.4545H193.763V64.2642H194.381L199.211 58.4545H203.039L197.364 65.2017L203.302 73H199.488ZM204.848 58.4545H207.916V67.6023H208.037L214.323 58.4545H217.014V73H213.939V63.8452H213.833L207.512 73H204.848V58.4545ZM222.439 58.4545L225.372 63.4119H225.486L228.433 58.4545H231.906L227.467 65.7273L232.006 73H228.469L225.486 68.0355H225.372L222.389 73H218.866L223.419 65.7273L218.952 58.4545H222.439ZM67.9341 97V82.4545H73.758C74.8281 82.4545 75.7206 82.6132 76.4355 82.9304C77.1505 83.2476 77.6879 83.688 78.0478 84.2514C78.4076 84.8101 78.5875 85.4541 78.5875 86.1832C78.5875 86.7514 78.4739 87.2509 78.2466 87.6818C78.0194 88.108 77.7069 88.4583 77.3091 88.733C76.9161 89.0028 76.4663 89.1946 75.9597 89.3082V89.4503C76.5137 89.474 77.0321 89.6302 77.5151 89.919C78.0028 90.2079 78.3981 90.6127 78.7012 91.1335C79.0042 91.6496 79.1557 92.2652 79.1557 92.9801C79.1557 93.7519 78.964 94.4408 78.5804 95.0469C78.2016 95.6482 77.6406 96.1241 76.8972 96.4744C76.1538 96.8248 75.2376 97 74.1486 97H67.9341ZM71.0094 94.4858H73.5165C74.3735 94.4858 74.9985 94.3224 75.3915 93.9957C75.7845 93.6643 75.981 93.224 75.981 92.6747C75.981 92.2723 75.8839 91.9171 75.6898 91.6094C75.4957 91.3016 75.2187 91.0601 74.8588 90.8849C74.5037 90.7098 74.08 90.6222 73.5875 90.6222H71.0094V94.4858ZM71.0094 88.5412H73.2892C73.7106 88.5412 74.0847 88.4678 74.4114 88.321C74.7428 88.1695 75.0033 87.9564 75.1926 87.6818C75.3868 87.4072 75.4838 87.0781 75.4838 86.6946C75.4838 86.169 75.2968 85.7453 74.9228 85.4233C74.5534 85.1013 74.0279 84.9403 73.3461 84.9403H71.0094V88.5412ZM94.5233 89.7273C94.5233 91.3134 94.2226 92.6629 93.6213 93.7756C93.0247 94.8883 92.2103 95.7382 91.1781 96.3253C90.1506 96.9077 88.9953 97.1989 87.7122 97.1989C86.4196 97.1989 85.2595 96.9053 84.2321 96.3182C83.2046 95.7311 82.3926 94.8812 81.796 93.7685C81.1994 92.6558 80.9011 91.3087 80.9011 89.7273C80.9011 88.1411 81.1994 86.7917 81.796 85.679C82.3926 84.5663 83.2046 83.7187 84.2321 83.1364C85.2595 82.5492 86.4196 82.2557 87.7122 82.2557C88.9953 82.2557 90.1506 82.5492 91.1781 83.1364C92.2103 83.7187 93.0247 84.5663 93.6213 85.679C94.2226 86.7917 94.5233 88.1411 94.5233 89.7273ZM91.4054 89.7273C91.4054 88.6998 91.2515 87.8333 90.9437 87.1278C90.6407 86.4223 90.2122 85.8873 89.6582 85.5227C89.1042 85.1581 88.4556 84.9759 87.7122 84.9759C86.9688 84.9759 86.3201 85.1581 85.7662 85.5227C85.2122 85.8873 84.7813 86.4223 84.4735 87.1278C84.1705 87.8333 84.019 88.6998 84.019 89.7273C84.019 90.7547 84.1705 91.6212 84.4735 92.3267C84.7813 93.0322 85.2122 93.5672 85.7662 93.9318C86.3201 94.2964 86.9688 94.4787 87.7122 94.4787C88.4556 94.4787 89.1042 94.2964 89.6582 93.9318C90.2122 93.5672 90.6407 93.0322 90.9437 92.3267C91.2515 91.6212 91.4054 90.7547 91.4054 89.7273ZM109.166 82.4545V97H106.127V84.9545H100.246V97H97.2061V82.4545H109.166ZM112.094 97V82.4545H117.833C118.936 82.4545 119.876 82.6652 120.653 83.0866C121.429 83.5033 122.021 84.0833 122.428 84.8267C122.84 85.5653 123.046 86.4176 123.046 87.3835C123.046 88.3494 122.838 89.2017 122.421 89.9403C122.004 90.679 121.401 91.2543 120.61 91.6662C119.824 92.0781 118.872 92.2841 117.755 92.2841H114.097V89.8196H117.258C117.849 89.8196 118.337 89.7178 118.721 89.5142C119.109 89.3059 119.398 89.0194 119.587 88.6548C119.781 88.2855 119.878 87.8617 119.878 87.3835C119.878 86.9006 119.781 86.4792 119.587 86.1193C119.398 85.7547 119.109 85.473 118.721 85.2741C118.332 85.0705 117.84 84.9688 117.243 84.9688H115.17V97H112.094ZM138.41 89.7273C138.41 91.3134 138.109 92.6629 137.508 93.7756C136.911 94.8883 136.097 95.7382 135.065 96.3253C134.037 96.9077 132.882 97.1989 131.599 97.1989C130.306 97.1989 129.146 96.9053 128.119 96.3182C127.091 95.7311 126.279 94.8812 125.683 93.7685C125.086 92.6558 124.788 91.3087 124.788 89.7273C124.788 88.1411 125.086 86.7917 125.683 85.679C126.279 84.5663 127.091 83.7187 128.119 83.1364C129.146 82.5492 130.306 82.2557 131.599 82.2557C132.882 82.2557 134.037 82.5492 135.065 83.1364C136.097 83.7187 136.911 84.5663 137.508 85.679C138.109 86.7917 138.41 88.1411 138.41 89.7273ZM135.292 89.7273C135.292 88.6998 135.138 87.8333 134.83 87.1278C134.527 86.4223 134.099 85.8873 133.545 85.5227C132.991 85.1581 132.342 84.9759 131.599 84.9759C130.856 84.9759 130.207 85.1581 129.653 85.5227C129.099 85.8873 128.668 86.4223 128.36 87.1278C128.057 87.8333 127.906 88.6998 127.906 89.7273C127.906 90.7547 128.057 91.6212 128.36 92.3267C128.668 93.0322 129.099 93.5672 129.653 93.9318C130.207 94.2964 130.856 94.4787 131.599 94.4787C132.342 94.4787 132.991 94.2964 133.545 93.9318C134.099 93.5672 134.527 93.0322 134.83 92.3267C135.138 91.6212 135.292 90.7547 135.292 89.7273ZM153.522 87.5469H150.411C150.354 87.1444 150.238 86.7869 150.063 86.4744C149.888 86.1572 149.663 85.8873 149.388 85.6648C149.114 85.4422 148.796 85.2718 148.437 85.1534C148.081 85.035 147.696 84.9759 147.279 84.9759C146.526 84.9759 145.87 85.1629 145.312 85.5369C144.753 85.9062 144.32 86.446 144.012 87.1562C143.704 87.8617 143.55 88.7187 143.55 89.7273C143.55 90.7642 143.704 91.6354 144.012 92.3409C144.324 93.0464 144.76 93.5791 145.319 93.9389C145.877 94.2988 146.524 94.4787 147.258 94.4787C147.67 94.4787 148.051 94.4242 148.401 94.3153C148.756 94.2064 149.071 94.0478 149.346 93.8395C149.62 93.6264 149.848 93.3684 150.028 93.0653C150.212 92.7623 150.34 92.4167 150.411 92.0284L153.522 92.0426C153.441 92.7102 153.24 93.3542 152.918 93.9744C152.601 94.59 152.172 95.1416 151.633 95.6293C151.098 96.1122 150.458 96.4957 149.715 96.7798C148.976 97.0592 148.141 97.1989 147.208 97.1989C145.911 97.1989 144.751 96.9053 143.728 96.3182C142.71 95.7311 141.905 94.8812 141.313 93.7685C140.726 92.6558 140.432 91.3087 140.432 89.7273C140.432 88.1411 140.731 86.7917 141.327 85.679C141.924 84.5663 142.733 83.7187 143.756 83.1364C144.779 82.5492 145.93 82.2557 147.208 82.2557C148.051 82.2557 148.832 82.3741 149.552 82.6108C150.276 82.8475 150.918 83.1932 151.476 83.6477C152.035 84.0975 152.49 84.6491 152.84 85.3026C153.195 85.956 153.422 86.7041 153.522 87.5469ZM169.094 89.7273C169.094 91.3134 168.793 92.6629 168.192 93.7756C167.595 94.8883 166.781 95.7382 165.748 96.3253C164.721 96.9077 163.566 97.1989 162.282 97.1989C160.99 97.1989 159.83 96.9053 158.802 96.3182C157.775 95.7311 156.963 94.8812 156.366 93.7685C155.77 92.6558 155.471 91.3087 155.471 89.7273C155.471 88.1411 155.77 86.7917 156.366 85.679C156.963 84.5663 157.775 83.7187 158.802 83.1364C159.83 82.5492 160.99 82.2557 162.282 82.2557C163.566 82.2557 164.721 82.5492 165.748 83.1364C166.781 83.7187 167.595 84.5663 168.192 85.679C168.793 86.7917 169.094 88.1411 169.094 89.7273ZM165.976 89.7273C165.976 88.6998 165.822 87.8333 165.514 87.1278C165.211 86.4223 164.782 85.8873 164.229 85.5227C163.675 85.1581 163.026 84.9759 162.282 84.9759C161.539 84.9759 160.89 85.1581 160.336 85.5227C159.782 85.8873 159.352 86.4223 159.044 87.1278C158.741 87.8333 158.589 88.6998 158.589 89.7273C158.589 90.7547 158.741 91.6212 159.044 92.3267C159.352 93.0322 159.782 93.5672 160.336 93.9318C160.89 94.2964 161.539 94.4787 162.282 94.4787C163.026 94.4787 163.675 94.2964 164.229 93.9318C164.782 93.5672 165.211 93.0322 165.514 92.3267C165.822 91.6212 165.976 90.7547 165.976 89.7273ZM171.372 97V82.4545H177.195C178.266 82.4545 179.158 82.6132 179.873 82.9304C180.588 83.2476 181.125 83.688 181.485 84.2514C181.845 84.8101 182.025 85.4541 182.025 86.1832C182.025 86.7514 181.911 87.2509 181.684 87.6818C181.457 88.108 181.144 88.4583 180.747 88.733C180.354 89.0028 179.904 89.1946 179.397 89.3082V89.4503C179.951 89.474 180.47 89.6302 180.953 89.919C181.44 90.2079 181.836 90.6127 182.139 91.1335C182.442 91.6496 182.593 92.2652 182.593 92.9801C182.593 93.7519 182.401 94.4408 182.018 95.0469C181.639 95.6482 181.078 96.1241 180.335 96.4744C179.591 96.8248 178.675 97 177.586 97H171.372ZM174.447 94.4858H176.954C177.811 94.4858 178.436 94.3224 178.829 93.9957C179.222 93.6643 179.419 93.224 179.419 92.6747C179.419 92.2723 179.321 91.9171 179.127 91.6094C178.933 91.3016 178.656 91.0601 178.296 90.8849C177.941 90.7098 177.517 90.6222 177.025 90.6222H174.447V94.4858ZM174.447 88.5412H176.727C177.148 88.5412 177.522 88.4678 177.849 88.321C178.18 88.1695 178.441 87.9564 178.63 87.6818C178.824 87.4072 178.921 87.0781 178.921 86.6946C178.921 86.169 178.734 85.7453 178.36 85.4233C177.991 85.1013 177.465 84.9403 176.784 84.9403H174.447V88.5412Z" fill="black"/>
</svg>
