<svg width="261" height="148" viewBox="0 0 261 148" fill="none" xmlns="http://www.w3.org/2000/svg">
<path d="M3.66577 35.4341L0.837997 40.7766L0.214157 43.8297L3.66577 35.4341ZM4.68707 32.4938L1.84355 37.8816L0.837997 40.7766L4.68707 32.4938ZM6.06767 29.7425L3.20288 35.1727L1.84355 37.8816L6.06767 29.7425ZM225.573 141.873L219.326 145.575L222.035 144.216L225.573 141.873ZM222.633 142.894L216.431 146.581L219.326 145.575L222.633 142.894ZM219.532 143.527L213.378 147.204L216.431 146.581L219.532 143.527ZM216.299 143.745L210.195 147.419L213.378 147.204L216.299 143.745ZM26.641 143.745L23.4593 147.419H210.195L26.641 143.745ZM23.4079 143.527L20.276 147.204L23.4593 147.419L23.4079 143.527ZM20.307 142.894L17.2229 146.581L20.276 147.204L20.307 142.894ZM17.3667 141.873L14.3279 145.575L17.2229 146.581L17.3667 141.873ZM14.6154 140.492L11.6189 144.216L14.3279 145.575L14.6154 140.492ZM12.0815 138.78L9.12401 142.531L11.6189 144.216L12.0815 138.78ZM9.79325 136.766L6.87106 140.548L9.12401 142.531L9.79325 136.766ZM7.77919 134.478L4.88803 138.295L6.87106 140.548L7.77919 134.478ZM6.06767 131.944L3.20288 135.8L4.88803 138.295L6.06767 131.944ZM4.68706 129.193L1.84355 133.091L3.20288 135.8L4.68706 129.193ZM3.66577 126.253L0.837997 130.196L1.84355 133.091L3.66577 126.253ZM3.03218 123.152L0.214157 127.143L0.837997 130.196L3.03218 123.152ZM2.81467 119.919L0 123.959L0.214157 127.143L2.81467 119.919ZM2.81467 41.7681L0 47.013V123.959L2.81467 41.7681ZM3.03218 38.535L0.214157 43.8297L0 47.013L3.03218 38.535ZM3.03218 38.535L3.66577 35.4341L0.214157 43.8297L3.03218 38.535ZM3.66577 35.4341L4.68707 32.4938L0.837997 40.7766L3.66577 35.4341ZM4.68707 32.4938L6.06767 29.7425L1.84355 37.8816L4.68707 32.4938ZM2.81467 41.7681L3.03218 38.535L0 47.013L2.81467 41.7681ZM2.81467 119.919V41.7681L0 123.959L2.81467 119.919ZM228.324 140.492L225.573 141.873L222.035 144.216L228.324 140.492ZM225.573 141.873L222.633 142.894L219.326 145.575L225.573 141.873ZM222.633 142.894L219.532 143.527L216.431 146.581L222.633 142.894ZM219.532 143.527L216.299 143.745L213.378 147.204L219.532 143.527ZM216.299 143.745H26.641L210.195 147.419L216.299 143.745ZM26.641 143.745L23.4079 143.527L23.4593 147.419L26.641 143.745ZM23.4079 143.527L20.307 142.894L20.276 147.204L23.4079 143.527ZM20.307 142.894L17.3667 141.873L17.2229 146.581L20.307 142.894ZM17.3667 141.873L14.6154 140.492L14.3279 145.575L17.3667 141.873ZM14.6154 140.492L12.0815 138.78L11.6189 144.216L14.6154 140.492ZM12.0815 138.78L9.79325 136.766L9.12401 142.531L12.0815 138.78ZM9.79325 136.766L7.77919 134.478L6.87106 140.548L9.79325 136.766ZM7.77919 134.478L6.06767 131.944L4.88803 138.295L7.77919 134.478ZM6.06767 131.944L4.68706 129.193L3.20288 135.8L6.06767 131.944ZM4.68706 129.193L3.66577 126.253L1.84355 133.091L4.68706 129.193ZM3.66577 126.253L3.03218 123.152L0.837997 130.196L3.66577 126.253ZM3.03218 123.152L2.81467 119.919L0.214157 127.143L3.03218 123.152ZM6.58347 29.9218L3.66577 35.4341L3.03218 38.535L6.58347 29.9218ZM7.62099 26.9347L4.68707 32.4938L3.66577 35.4341L7.62099 26.9347ZM9.02354 24.1397L6.06767 29.7425L4.68707 32.4938L9.02354 24.1397ZM232.019 138.052L225.573 141.873L228.324 140.492L232.019 138.052ZM229.032 139.09L222.633 142.894L225.573 141.873L229.032 139.09ZM225.881 139.733L219.532 143.527L222.633 142.894L225.881 139.733ZM222.597 139.954L216.299 143.745L219.532 143.527L222.597 139.954ZM29.924 139.954L26.641 143.745H216.299L29.924 139.954ZM26.6395 139.733L23.4079 143.527L26.641 143.745L26.6395 139.733ZM23.4893 139.09L20.307 142.894L23.4079 143.527L23.4893 139.09ZM20.5022 138.052L17.3667 141.873L20.307 142.894L20.5022 138.052ZM17.7072 136.65L14.6154 140.492L17.3667 141.873L17.7072 136.65ZM15.1329 134.911L12.0815 138.78L14.6154 140.492L15.1329 134.911ZM12.8083 132.865L9.79325 136.766L12.0815 138.78L12.8083 132.865ZM10.7623 130.54L7.77919 134.478L9.79325 136.766L10.7623 130.54ZM9.02354 127.966L6.06767 131.944L7.77919 134.478L9.02354 127.966ZM7.62099 125.171L4.68706 129.193L6.06767 131.944L7.62099 125.171ZM6.58347 122.184L3.66577 126.253L4.68706 129.193L6.58347 122.184ZM5.93979 119.034L3.03218 123.152L3.66577 126.253L5.93979 119.034ZM5.71883 115.749L2.81467 119.919L3.03218 123.152L5.71883 115.749ZM5.71883 36.3565L2.81467 41.7681V119.919L5.71883 36.3565ZM5.93979 33.072L3.03218 38.535L2.81467 41.7681L5.93979 33.072ZM5.93979 33.072L6.58347 29.9218L3.03218 38.535L5.93979 33.072ZM6.58347 29.9218L7.62099 26.9347L3.66577 35.4341L6.58347 29.9218ZM7.62099 26.9347L9.02354 24.1397L4.68707 32.4938L7.62099 26.9347ZM234.814 136.65L232.019 138.052L228.324 140.492L234.814 136.65ZM232.019 138.052L229.032 139.09L225.573 141.873L232.019 138.052ZM229.032 139.09L225.881 139.733L222.633 142.894L229.032 139.09ZM225.881 139.733L222.597 139.954L219.532 143.527L225.881 139.733ZM222.597 139.954H29.924L216.299 143.745L222.597 139.954ZM29.924 139.954L26.6395 139.733L26.641 143.745L29.924 139.954ZM26.6395 139.733L23.4893 139.09L23.4079 143.527L26.6395 139.733ZM23.4893 139.09L20.5022 138.052L20.307 142.894L23.4893 139.09ZM20.5022 138.052L17.7072 136.65L17.3667 141.873L20.5022 138.052ZM17.7072 136.65L15.1329 134.911L14.6154 140.492L17.7072 136.65ZM15.1329 134.911L12.8083 132.865L12.0815 138.78L15.1329 134.911ZM12.8083 132.865L10.7623 130.54L9.79325 136.766L12.8083 132.865ZM10.7623 130.54L9.02354 127.966L7.77919 134.478L10.7623 130.54ZM9.02354 127.966L7.62099 125.171L6.06767 131.944L9.02354 127.966ZM7.62099 125.171L6.58347 122.184L4.68706 129.193L7.62099 125.171ZM6.58347 122.184L5.93979 119.034L3.66577 126.253L6.58347 122.184ZM5.93979 119.034L5.71883 115.749L3.03218 123.152L5.93979 119.034ZM5.71883 115.749V36.3565L2.81467 119.919L5.71883 115.749ZM5.71883 36.3565L5.93979 33.072L2.81467 41.7681L5.71883 36.3565ZM9.59541 24.2314L6.58347 29.9218L5.93979 33.072L9.59541 24.2314ZM10.6497 21.1961L7.62099 26.9347L6.58347 29.9218L10.6497 21.1961ZM12.0749 18.3558L9.02354 24.1397L7.62099 26.9347L12.0749 18.3558ZM8.71681 30.77L5.71883 36.3565V115.749L8.71681 30.77ZM8.94135 27.4324L5.93979 33.072L5.71883 36.3565L8.94135 27.4324ZM238.672 134.109L232.019 138.052L234.814 136.65L238.672 134.109ZM235.637 135.163L229.032 139.09L232.019 138.052L235.637 135.163ZM232.436 135.817L225.881 139.733L229.032 139.09L232.436 135.817ZM229.098 136.042L222.597 139.954L225.881 139.733L229.098 136.042ZM33.313 136.042L29.924 139.954H222.597L33.313 136.042ZM29.9754 135.817L26.6395 139.733L29.924 139.954L29.9754 135.817ZM26.7743 135.163L23.4893 139.09L26.6395 139.733L26.7743 135.163ZM23.739 134.109L20.5022 138.052L23.4893 139.09L23.739 134.109ZM20.8988 132.683L17.7072 136.65L20.5022 138.052L20.8988 132.683ZM18.283 130.917L15.1329 134.911L17.7072 136.65L18.283 130.917ZM15.9209 128.837L12.8083 132.865L15.1329 134.911L15.9209 128.837ZM13.8417 126.475L10.7623 130.54L12.8083 132.865L13.8417 126.475ZM12.0749 123.86L9.02354 127.966L10.7623 130.54L12.0749 123.86ZM10.6497 121.019L7.62099 125.171L9.02354 127.966L10.6497 121.019ZM9.59541 117.984L6.58347 122.184L7.62099 125.171L9.59541 117.984ZM8.94135 114.783L5.93979 119.034L6.58347 122.184L8.94135 114.783ZM8.71681 111.445L5.71883 115.749L5.93979 119.034L8.71681 111.445ZM8.94135 27.4324L9.59541 24.2314L5.93979 33.072L8.94135 27.4324ZM9.59541 24.2314L10.6497 21.1961L6.58347 29.9218L9.59541 24.2314ZM10.6497 21.1961L12.0749 18.3558L7.62099 26.9347L10.6497 21.1961ZM8.71681 30.77L8.94135 27.4324L5.71883 36.3565L8.71681 30.77ZM8.71681 111.445V30.77L5.71883 115.749L8.71681 111.445ZM241.512 132.683L238.672 134.109L234.814 136.65L241.512 132.683ZM238.672 134.109L235.637 135.163L232.019 138.052L238.672 134.109ZM235.637 135.163L232.436 135.817L229.032 139.09L235.637 135.163ZM232.436 135.817L229.098 136.042L225.881 139.733L232.436 135.817ZM229.098 136.042H33.313L222.597 139.954L229.098 136.042ZM33.313 136.042L29.9754 135.817L29.924 139.954L33.313 136.042ZM29.9754 135.817L26.7743 135.163L26.6395 139.733L29.9754 135.817ZM26.7743 135.163L23.739 134.109L23.4893 139.09L26.7743 135.163ZM23.739 134.109L20.8988 132.683L20.5022 138.052L23.739 134.109ZM20.8988 132.683L18.283 130.917L17.7072 136.65L20.8988 132.683ZM18.283 130.917L15.9209 128.837L15.1329 134.911L18.283 130.917ZM15.9209 128.837L13.8417 126.475L12.8083 132.865L15.9209 128.837ZM13.8417 126.475L12.0749 123.86L10.7623 130.54L13.8417 126.475ZM12.0749 123.86L10.6497 121.019L9.02354 127.966L12.0749 123.86ZM10.6497 121.019L9.59541 117.984L7.62099 125.171L10.6497 121.019ZM9.59541 117.984L8.94135 114.783L6.58347 122.184L9.59541 117.984ZM8.94135 114.783L8.71681 111.445L5.93979 119.034L8.94135 114.783ZM12.7063 18.3541L9.59541 24.2314L8.94135 27.4324L12.7063 18.3541ZM13.7779 15.2689L10.6497 21.1961L9.59541 24.2314L13.7779 15.2689ZM15.2265 12.3821L12.0749 18.3558L10.6497 21.1961L15.2265 12.3821ZM12.0415 21.6077L8.94135 27.4324L8.71681 30.77L12.0415 21.6077ZM11.8132 25.0001L8.71681 30.77V111.445L11.8132 25.0001ZM245.544 130.035L238.672 134.109L241.512 132.683L245.544 130.035ZM242.459 131.107L235.637 135.163L238.672 134.109L242.459 131.107ZM239.206 131.772L232.436 135.817L235.637 135.163L239.206 131.772ZM235.813 132L229.098 136.042L232.436 135.817L235.813 132ZM36.8132 132L33.313 136.042H229.098L36.8132 132ZM33.4209 131.772L29.9754 135.817L33.313 136.042L33.4209 131.772ZM30.1673 131.107L26.7743 135.163L29.9754 135.817L30.1673 131.107ZM27.0821 130.035L23.739 134.109L26.7743 135.163L27.0821 130.035ZM24.1953 128.587L20.8988 132.683L23.739 134.109L24.1953 128.587ZM21.5365 126.791L18.283 130.917L20.8988 132.683L21.5365 126.791ZM19.1356 124.678L15.9209 128.837L18.283 130.917L19.1356 124.678ZM17.0223 122.277L13.8417 126.475L15.9209 128.837L17.0223 122.277ZM15.2265 119.618L12.0749 123.86L13.8417 126.475L15.2265 119.618ZM13.7779 116.731L10.6497 121.019L12.0749 123.86L13.7779 116.731ZM12.7063 113.646L9.59541 117.984L10.6497 121.019L12.7063 113.646ZM12.0415 110.392L8.94135 114.783L9.59541 117.984L12.0415 110.392ZM11.8132 107L8.71681 111.445L8.94135 114.783L11.8132 107ZM12.0415 21.6077L12.7063 18.3541L8.94135 27.4324L12.0415 21.6077ZM12.7063 18.3541L13.7779 15.2689L9.59541 24.2314L12.7063 18.3541ZM13.7779 15.2689L15.2265 12.3821L10.6497 21.1961L13.7779 15.2689ZM11.8132 25.0001L12.0415 21.6077L8.71681 30.77L11.8132 25.0001ZM248.431 128.587L245.544 130.035L241.512 132.683L248.431 128.587ZM245.544 130.035L242.459 131.107L238.672 134.109L245.544 130.035ZM242.459 131.107L239.206 131.772L235.637 135.163L242.459 131.107ZM239.206 131.772L235.813 132L232.436 135.817L239.206 131.772ZM235.813 132H36.8132L229.098 136.042L235.813 132ZM36.8132 132L33.4209 131.772L33.313 136.042L36.8132 132ZM33.4209 131.772L30.1673 131.107L29.9754 135.817L33.4209 131.772ZM30.1673 131.107L27.0821 130.035L26.7743 135.163L30.1673 131.107ZM27.0821 130.035L24.1953 128.587L23.739 134.109L27.0821 130.035ZM24.1953 128.587L21.5365 126.791L20.8988 132.683L24.1953 128.587ZM21.5365 126.791L19.1356 124.678L18.283 130.917L21.5365 126.791ZM19.1356 124.678L17.0223 122.277L15.9209 128.837L19.1356 124.678ZM17.0223 122.277L15.2265 119.618L13.8417 126.475L17.0223 122.277ZM15.2265 119.618L13.7779 116.731L12.0749 123.86L15.2265 119.618ZM13.7779 116.731L12.7063 113.646L10.6497 121.019L13.7779 116.731ZM12.7063 113.646L12.0415 110.392L9.59541 117.984L12.7063 113.646ZM12.0415 110.392L11.8132 107L8.94135 114.783L12.0415 110.392ZM11.8132 107V25.0001L8.71681 111.445L11.8132 107Z" fill="#B77513"/>
<path d="M12.0417 21.6076L11.8135 25V107L12.0417 21.6076ZM13.7781 15.2689L12.7065 18.354L12.0417 21.6076L13.7781 15.2689ZM17.0225 9.72324L15.2267 12.382L13.7781 15.2689L17.0225 9.72324ZM21.5367 5.20906L19.1358 7.32233L17.0225 9.72324L21.5367 5.20906ZM27.0824 1.96462L24.1955 3.41323L21.5367 5.20906L27.0824 1.96462ZM33.4211 0.228218L30.1675 0.893021L27.0824 1.96462L33.4211 0.228218ZM235.813 0H36.8135L33.4211 0.228218L235.813 0ZM242.459 0.893021L239.206 0.228218L235.813 0L242.459 0.893021ZM248.431 3.41323L245.545 1.96462L242.459 0.893021L248.431 3.41323ZM253.491 7.32233L251.09 5.20906L248.431 3.41323L253.491 7.32233ZM257.4 12.382L255.604 9.72324L253.491 7.32233L257.4 12.382ZM259.92 18.354L258.849 15.2689L257.4 12.382L259.92 18.354ZM260.813 25L260.585 21.6076L259.92 18.354L260.813 25ZM260.585 110.392L260.813 107V25L260.585 110.392ZM258.849 116.731L259.92 113.646L260.585 110.392L258.849 116.731ZM255.604 122.277L257.4 119.618L258.849 116.731L255.604 122.277ZM251.09 126.791L253.491 124.678L255.604 122.277L251.09 126.791ZM245.545 130.035L248.431 128.587L251.09 126.791L245.545 130.035ZM239.206 131.772L242.459 131.107L245.545 130.035L239.206 131.772ZM36.8135 132H235.813L239.206 131.772L36.8135 132ZM30.1675 131.107L33.4211 131.772L36.8135 132L30.1675 131.107ZM24.1955 128.587L27.0823 130.035L30.1675 131.107L24.1955 128.587ZM19.1358 124.678L21.5367 126.791L24.1955 128.587L19.1358 124.678ZM15.2267 119.618L17.0225 122.277L19.1358 124.678L15.2267 119.618ZM12.7065 113.646L13.7781 116.731L15.2267 119.618L12.7065 113.646ZM11.8135 107L12.0417 110.392L12.7065 113.646L11.8135 107ZM13.7781 15.2689L12.0417 21.6076L11.8135 107L13.7781 15.2689ZM21.5367 5.20906L17.0225 9.72324L13.7781 15.2689L21.5367 5.20906ZM33.4211 0.228218L27.0824 1.96462L21.5367 5.20906L33.4211 0.228218ZM242.459 0.893021L235.813 0L33.4211 0.228218L242.459 0.893021ZM253.491 7.32233L248.431 3.41323L242.459 0.893021L253.491 7.32233ZM259.92 18.354L257.4 12.382L253.491 7.32233L259.92 18.354ZM260.585 110.392L260.813 25L259.92 18.354L260.585 110.392ZM255.604 122.277L258.849 116.731L260.585 110.392L255.604 122.277ZM245.545 130.035L251.09 126.791L255.604 122.277L245.545 130.035ZM36.8135 132L239.206 131.772L245.545 130.035L36.8135 132ZM24.1955 128.587L30.1675 131.107L36.8135 132L24.1955 128.587ZM15.2267 119.618L19.1358 124.678L24.1955 128.587L15.2267 119.618ZM11.8135 107L12.7065 113.646L15.2267 119.618L11.8135 107ZM21.5367 5.20906L13.7781 15.2689L11.8135 107L21.5367 5.20906ZM242.459 0.893021L33.4211 0.228218L21.5367 5.20906L242.459 0.893021ZM259.92 18.354L253.491 7.32233L242.459 0.893021L259.92 18.354ZM255.604 122.277L260.585 110.392L259.92 18.354L255.604 122.277ZM36.8135 132L245.545 130.035L255.604 122.277L36.8135 132ZM15.2267 119.618L24.1955 128.587L36.8135 132L15.2267 119.618ZM21.5367 5.20906L11.8135 107L15.2267 119.618L21.5367 5.20906ZM259.92 18.354L242.459 0.893021L21.5367 5.20906L259.92 18.354ZM36.8135 132L255.604 122.277L259.92 18.354L36.8135 132ZM21.5367 5.20906L15.2267 119.618L36.8135 132L21.5367 5.20906ZM36.8135 132L259.92 18.354L21.5367 5.20906L36.8135 132Z" fill="#FFA31A"/>
<path d="M71.4139 34.7273C71.4139 36.3134 71.1132 37.6629 70.5119 38.7756C69.9153 39.8883 69.1009 40.7382 68.0687 41.3253C67.0413 41.9077 65.8859 42.1989 64.6028 42.1989C63.3102 42.1989 62.1502 41.9053 61.1227 41.3182C60.0952 40.7311 59.2832 39.8812 58.6866 38.7685C58.09 37.6558 57.7917 36.3087 57.7917 34.7273C57.7917 33.1411 58.09 31.7917 58.6866 30.679C59.2832 29.5663 60.0952 28.7187 61.1227 28.1364C62.1502 27.5492 63.3102 27.2557 64.6028 27.2557C65.8859 27.2557 67.0413 27.5492 68.0687 28.1364C69.1009 28.7187 69.9153 29.5663 70.5119 30.679C71.1132 31.7917 71.4139 33.1411 71.4139 34.7273ZM68.296 34.7273C68.296 33.6998 68.1421 32.8333 67.8343 32.1278C67.5313 31.4223 67.1028 30.8873 66.5488 30.5227C65.9949 30.1581 65.3462 29.9759 64.6028 29.9759C63.8594 29.9759 63.2108 30.1581 62.6568 30.5227C62.1028 30.8873 61.6719 31.4223 61.3642 32.1278C61.0611 32.8333 60.9096 33.6998 60.9096 34.7273C60.9096 35.7547 61.0611 36.6212 61.3642 37.3267C61.6719 38.0322 62.1028 38.5672 62.6568 38.9318C63.2108 39.2964 63.8594 39.4787 64.6028 39.4787C65.3462 39.4787 65.9949 39.2964 66.5488 38.9318C67.1028 38.5672 67.5313 38.0322 67.8343 37.3267C68.1421 36.6212 68.296 35.7547 68.296 34.7273ZM86.057 27.4545V42H83.0172V29.9545H77.1365V42H74.0968V27.4545H86.057ZM88.4309 29.9901V27.4545H100.377V29.9901H95.9238V42H92.8841V29.9901H88.4309ZM102.344 27.4545H105.412V36.6023H105.533L111.819 27.4545H114.51V42H111.435V32.8452H111.329L105.008 42H102.344V27.4545ZM117.051 27.4545H120.844L124.85 37.2273H125.02L129.026 27.4545H132.818V42H129.835V32.5327H129.715L125.95 41.929H123.919L120.155 32.4972H120.034V42H117.051V27.4545ZM135.352 27.4545H138.42V36.6023H138.541L144.827 27.4545H147.518V42H144.443V32.8452H144.336L138.015 42H135.352V27.4545ZM155.35 42.1989C154.29 42.1989 153.345 42.0166 152.517 41.652C151.693 41.2827 151.042 40.776 150.563 40.1321C150.09 39.4834 149.846 38.7353 149.832 37.8878H152.928C152.947 38.2429 153.063 38.5554 153.276 38.8253C153.494 39.0904 153.783 39.2964 154.143 39.4432C154.503 39.59 154.908 39.6634 155.357 39.6634C155.826 39.6634 156.24 39.5805 156.6 39.4148C156.96 39.2491 157.242 39.0194 157.445 38.7259C157.649 38.4323 157.751 38.0937 157.751 37.7102C157.751 37.322 157.642 36.9787 157.424 36.6804C157.211 36.3774 156.903 36.1406 156.501 35.9702C156.103 35.7997 155.63 35.7145 155.08 35.7145H153.724V33.456H155.08C155.544 33.456 155.954 33.3755 156.309 33.2145C156.669 33.0535 156.948 32.831 157.147 32.5469C157.346 32.258 157.445 31.9219 157.445 31.5384C157.445 31.1738 157.358 30.8542 157.183 30.5795C157.012 30.3002 156.771 30.0824 156.458 29.9261C156.151 29.7699 155.791 29.6918 155.379 29.6918C154.962 29.6918 154.581 29.7675 154.235 29.919C153.89 30.0658 153.613 30.2765 153.404 30.5511C153.196 30.8258 153.085 31.1477 153.07 31.517H150.123C150.137 30.679 150.376 29.9403 150.84 29.3011C151.304 28.6619 151.929 28.1624 152.715 27.8026C153.506 27.438 154.399 27.2557 155.393 27.2557C156.397 27.2557 157.275 27.438 158.028 27.8026C158.781 28.1671 159.365 28.6596 159.782 29.2798C160.204 29.8954 160.412 30.5866 160.407 31.3537C160.412 32.1681 160.159 32.8475 159.647 33.392C159.141 33.9366 158.48 34.2822 157.666 34.429V34.5426C158.736 34.6799 159.55 35.0516 160.109 35.6577C160.672 36.259 160.952 37.0118 160.947 37.9162C160.952 38.7448 160.713 39.4811 160.23 40.125C159.751 40.7689 159.091 41.2756 158.248 41.6449C157.405 42.0142 156.439 42.1989 155.35 42.1989ZM165.75 42H162.454L167.476 27.4545H171.439L176.453 42H173.157L169.514 30.7784H169.4L165.75 42ZM165.544 36.2827H173.328V38.6832H165.544V36.2827ZM192.216 39.5426L192.039 45.4375H189.113V42H188.09V39.5426H192.216ZM178.204 42V27.4545H181.158V39.5284H187.209V27.4545H190.199V42H178.204ZM194.083 27.4545H197.151V36.6023H197.271L203.557 27.4545H206.249V42H203.173V32.8452H203.067L196.746 42H194.083V27.4545ZM219.954 42H216.886V29.9688H214.812C214.22 29.9688 213.728 30.0563 213.335 30.2315C212.947 30.402 212.656 30.6529 212.461 30.9844C212.267 31.3158 212.17 31.723 212.17 32.206C212.17 32.6842 212.267 33.0843 212.461 33.4062C212.656 33.7282 212.947 33.9697 213.335 34.1307C213.723 34.2917 214.211 34.3722 214.798 34.3722H218.136V36.8438H214.301C213.188 36.8438 212.237 36.6591 211.446 36.2898C210.655 35.9205 210.051 35.3902 209.635 34.6989C209.218 34.0028 209.01 33.1719 209.01 32.206C209.01 31.2448 209.213 30.4091 209.621 29.6989C210.032 28.9839 210.627 28.4323 211.403 28.044C212.184 27.651 213.124 27.4545 214.223 27.4545H219.954V42ZM212.106 35.3807H215.423L211.886 42H208.491L212.106 35.3807ZM45.6841 51.4545H48.7523V60.6023H48.873L55.1586 51.4545H57.8503V66H54.775V56.8452H54.6685L48.3475 66H45.6841V51.4545ZM73.225 56.5469H70.1142C70.0574 56.1444 69.9413 55.7869 69.7662 55.4744C69.591 55.1572 69.3661 54.8873 69.0914 54.6648C68.8168 54.4422 68.4996 54.2718 68.1397 54.1534C67.7846 54.035 67.3987 53.9759 66.9821 53.9759C66.2292 53.9759 65.5734 54.1629 65.0147 54.5369C64.456 54.9062 64.0228 55.446 63.715 56.1562C63.4073 56.8617 63.2534 57.7187 63.2534 58.7273C63.2534 59.7642 63.4073 60.6354 63.715 61.3409C64.0275 62.0464 64.4631 62.5791 65.0218 62.9389C65.5806 63.2988 66.2269 63.4787 66.9608 63.4787C67.3727 63.4787 67.7538 63.4242 68.1042 63.3153C68.4593 63.2064 68.7742 63.0478 69.0488 62.8395C69.3234 62.6264 69.5507 62.3684 69.7306 62.0653C69.9153 61.7623 70.0431 61.4167 70.1142 61.0284L73.225 61.0426C73.1445 61.7102 72.9432 62.3542 72.6213 62.9744C72.304 63.59 71.8755 64.1416 71.3358 64.6293C70.8007 65.1122 70.1615 65.4957 69.4181 65.7798C68.6795 66.0592 67.8438 66.1989 66.911 66.1989C65.6137 66.1989 64.4537 65.9053 63.4309 65.3182C62.4129 64.7311 61.608 63.8812 61.0162 62.7685C60.429 61.6558 60.1355 60.3087 60.1355 58.7273C60.1355 57.1411 60.4338 55.7917 61.0304 54.679C61.627 53.5663 62.4366 52.7187 63.4593 52.1364C64.4821 51.5492 65.6326 51.2557 66.911 51.2557C67.7538 51.2557 68.5351 51.3741 69.2548 51.6108C69.9792 51.8475 70.6208 52.1932 71.1795 52.6477C71.7382 53.0975 72.1928 53.6491 72.5431 54.3026C72.8983 54.956 73.1255 55.7041 73.225 56.5469ZM87.7953 51.4545V66H84.7555V53.9545H78.8748V66H75.835V51.4545H87.7953ZM104.09 58.7273C104.09 60.3134 103.789 61.6629 103.188 62.7756C102.591 63.8883 101.777 64.7382 100.744 65.3253C99.717 65.9077 98.5617 66.1989 97.2786 66.1989C95.986 66.1989 94.8259 65.9053 93.7985 65.3182C92.771 64.7311 91.959 63.8812 91.3624 62.7685C90.7658 61.6558 90.4675 60.3087 90.4675 58.7273C90.4675 57.1411 90.7658 55.7917 91.3624 54.679C91.959 53.5663 92.771 52.7187 93.7985 52.1364C94.8259 51.5492 95.986 51.2557 97.2786 51.2557C98.5617 51.2557 99.717 51.5492 100.744 52.1364C101.777 52.7187 102.591 53.5663 103.188 54.679C103.789 55.7917 104.09 57.1411 104.09 58.7273ZM100.972 58.7273C100.972 57.6998 100.818 56.8333 100.51 56.1278C100.207 55.4223 99.7786 54.8873 99.2246 54.5227C98.6706 54.1581 98.022 53.9759 97.2786 53.9759C96.5352 53.9759 95.8865 54.1581 95.3326 54.5227C94.7786 54.8873 94.3477 55.4223 94.04 56.1278C93.7369 56.8333 93.5854 57.6998 93.5854 58.7273C93.5854 59.7547 93.7369 60.6212 94.04 61.3267C94.3477 62.0322 94.7786 62.5672 95.3326 62.9318C95.8865 63.2964 96.5352 63.4787 97.2786 63.4787C98.022 63.4787 98.6706 63.2964 99.2246 62.9318C99.7786 62.5672 100.207 62.0322 100.51 61.3267C100.818 60.6212 100.972 59.7547 100.972 58.7273ZM105.579 66V63.5284L105.991 63.4929C106.522 63.4503 106.95 63.2491 107.277 62.8892C107.604 62.5246 107.847 61.9446 108.008 61.1491C108.174 60.349 108.281 59.2741 108.328 57.9247L108.569 51.4545H118.442V66H115.452V53.919H111.425L111.197 58.983C111.122 60.6117 110.927 61.9422 110.615 62.9744C110.307 64.0066 109.815 64.7689 109.138 65.2614C108.465 65.7538 107.544 66 106.375 66H105.579ZM123.001 56.831H126.467C127.622 56.831 128.617 57.018 129.45 57.392C130.288 57.7614 130.934 58.2846 131.389 58.9616C131.844 59.6387 132.068 60.4366 132.064 61.3551C132.068 62.2689 131.844 63.0762 131.389 63.777C130.934 64.473 130.288 65.0175 129.45 65.4105C128.617 65.8035 127.622 66 126.467 66H121.034V51.4545H124.102V63.5284H126.467C127.021 63.5284 127.488 63.429 127.866 63.2301C128.245 63.0265 128.532 62.759 128.726 62.4276C128.925 62.0914 129.022 61.7244 129.017 61.3267C129.022 60.7491 128.804 60.2614 128.363 59.8636C127.928 59.4612 127.296 59.2599 126.467 59.2599H123.001V56.831ZM139.803 66.1989C138.743 66.1989 137.798 66.0166 136.97 65.652C136.146 65.2827 135.495 64.776 135.017 64.1321C134.543 63.4834 134.299 62.7353 134.285 61.8878H137.382C137.401 62.2429 137.517 62.5554 137.73 62.8253C137.947 63.0904 138.236 63.2964 138.596 63.4432C138.956 63.59 139.361 63.6634 139.811 63.6634C140.279 63.6634 140.694 63.5805 141.053 63.4148C141.413 63.2491 141.695 63.0194 141.899 62.7259C142.102 62.4323 142.204 62.0937 142.204 61.7102C142.204 61.322 142.095 60.9787 141.877 60.6804C141.664 60.3774 141.356 60.1406 140.954 59.9702C140.556 59.7997 140.083 59.7145 139.534 59.7145H138.177V57.456H139.534C139.998 57.456 140.407 57.3755 140.762 57.2145C141.122 57.0535 141.401 56.831 141.6 56.5469C141.799 56.258 141.899 55.9219 141.899 55.5384C141.899 55.1738 141.811 54.8542 141.636 54.5795C141.465 54.3002 141.224 54.0824 140.911 53.9261C140.604 53.7699 140.244 53.6918 139.832 53.6918C139.415 53.6918 139.034 53.7675 138.688 53.919C138.343 54.0658 138.066 54.2765 137.857 54.5511C137.649 54.8258 137.538 55.1477 137.524 55.517H134.576C134.59 54.679 134.829 53.9403 135.294 53.3011C135.758 52.6619 136.383 52.1624 137.169 51.8026C137.959 51.438 138.852 51.2557 139.846 51.2557C140.85 51.2557 141.728 51.438 142.481 51.8026C143.234 52.1671 143.819 52.6596 144.235 53.2798C144.657 53.8954 144.865 54.5866 144.86 55.3537C144.865 56.1681 144.612 56.8475 144.1 57.392C143.594 57.9366 142.933 58.2822 142.119 58.429V58.5426C143.189 58.6799 144.003 59.0516 144.562 59.6577C145.125 60.259 145.405 61.0118 145.4 61.9162C145.405 62.7448 145.166 63.4811 144.683 64.125C144.204 64.7689 143.544 65.2756 142.701 65.6449C141.858 66.0142 140.892 66.1989 139.803 66.1989ZM161.062 58.7273C161.062 60.3134 160.762 61.6629 160.16 62.7756C159.564 63.8883 158.749 64.7382 157.717 65.3253C156.69 65.9077 155.534 66.1989 154.251 66.1989C152.959 66.1989 151.799 65.9053 150.771 65.3182C149.744 64.7311 148.932 63.8812 148.335 62.7685C147.738 61.6558 147.44 60.3087 147.44 58.7273C147.44 57.1411 147.738 55.7917 148.335 54.679C148.932 53.5663 149.744 52.7187 150.771 52.1364C151.799 51.5492 152.959 51.2557 154.251 51.2557C155.534 51.2557 156.69 51.5492 157.717 52.1364C158.749 52.7187 159.564 53.5663 160.16 54.679C160.762 55.7917 161.062 57.1411 161.062 58.7273ZM157.944 58.7273C157.944 57.6998 157.791 56.8333 157.483 56.1278C157.18 55.4223 156.751 54.8873 156.197 54.5227C155.643 54.1581 154.995 53.9759 154.251 53.9759C153.508 53.9759 152.859 54.1581 152.305 54.5227C151.751 54.8873 151.32 55.4223 151.013 56.1278C150.71 56.8333 150.558 57.6998 150.558 58.7273C150.558 59.7547 150.71 60.6212 151.013 61.3267C151.32 62.0322 151.751 62.5672 152.305 62.9318C152.859 63.2964 153.508 63.4787 154.251 63.4787C154.995 63.4787 155.643 63.2964 156.197 62.9318C156.751 62.5672 157.18 62.0322 157.483 61.3267C157.791 60.6212 157.944 59.7547 157.944 58.7273ZM163.34 66V51.4545H169.164C170.234 51.4545 171.127 51.6132 171.842 51.9304C172.557 52.2476 173.094 52.688 173.454 53.2514C173.814 53.8101 173.994 54.4541 173.994 55.1832C173.994 55.7514 173.88 56.2509 173.653 56.6818C173.426 57.108 173.113 57.4583 172.715 57.733C172.322 58.0028 171.873 58.1946 171.366 58.3082V58.4503C171.92 58.474 172.438 58.6302 172.921 58.919C173.409 59.2079 173.804 59.6127 174.107 60.1335C174.41 60.6496 174.562 61.2652 174.562 61.9801C174.562 62.7519 174.37 63.4408 173.987 64.0469C173.608 64.6482 173.047 65.1241 172.303 65.4744C171.56 65.8248 170.644 66 169.555 66H163.34ZM166.416 63.4858H168.923C169.78 63.4858 170.405 63.3224 170.798 62.9957C171.191 62.6643 171.387 62.224 171.387 61.6747C171.387 61.2723 171.29 60.9171 171.096 60.6094C170.902 60.3016 170.625 60.0601 170.265 59.8849C169.91 59.7098 169.486 59.6222 168.994 59.6222H166.416V63.4858ZM166.416 57.5412H168.695C169.117 57.5412 169.491 57.4678 169.818 57.321C170.149 57.1695 170.41 56.9564 170.599 56.6818C170.793 56.4072 170.89 56.0781 170.89 55.6946C170.89 55.169 170.703 54.7453 170.329 54.4233C169.96 54.1013 169.434 53.9403 168.752 53.9403H166.416V57.5412ZM179.07 66H175.775L180.796 51.4545H184.759L189.773 66H186.478L182.834 54.7784H182.721L179.07 66ZM178.864 60.2827H186.648V62.6832H178.864V60.2827ZM191.524 66V51.4545H194.599V57.456H200.842V51.4545H203.91V66H200.842V59.9915H194.599V66H191.524ZM206.446 51.4545H209.514V60.6023H209.635L215.92 51.4545H218.612V66H215.537V56.8452H215.43L209.109 66H206.446V51.4545ZM232.318 66H229.249V53.9688H227.176C226.584 53.9688 226.091 54.0563 225.698 54.2315C225.31 54.402 225.019 54.6529 224.825 54.9844C224.631 55.3158 224.534 55.723 224.534 56.206C224.534 56.6842 224.631 57.0843 224.825 57.4062C225.019 57.7282 225.31 57.9697 225.698 58.1307C226.087 58.2917 226.574 58.3722 227.161 58.3722H230.499V60.8438H226.664C225.552 60.8438 224.6 60.6591 223.809 60.2898C223.018 59.9205 222.415 59.3902 221.998 58.6989C221.581 58.0028 221.373 57.1719 221.373 56.206C221.373 55.2448 221.577 54.4091 221.984 53.6989C222.396 52.9839 222.99 52.4323 223.767 52.044C224.548 51.651 225.488 51.4545 226.586 51.4545H232.318V66ZM224.47 59.3807H227.786L224.249 66H220.855L224.47 59.3807ZM50.1408 75.4545H53.1309V80.142C53.1309 80.7008 53.2279 81.1506 53.4221 81.4915C53.6162 81.8277 53.9168 82.0715 54.324 82.223C54.736 82.3698 55.2639 82.4432 55.9078 82.4432C56.1351 82.4432 56.4026 82.4361 56.7104 82.4219C57.0182 82.4029 57.3354 82.3769 57.6621 82.3438C57.9935 82.3106 58.306 82.2704 58.5996 82.223C58.8932 82.1757 59.137 82.1212 59.3311 82.0597V84.4886C59.1323 84.5549 58.8837 84.6141 58.5854 84.6662C58.2918 84.7135 57.9817 84.7562 57.655 84.794C57.3283 84.8272 57.0111 84.8532 56.7033 84.8722C56.3955 84.8911 56.1304 84.9006 55.9078 84.9006C54.7383 84.9006 53.7203 84.7348 52.8539 84.4034C51.9874 84.0672 51.3174 83.5488 50.8439 82.848C50.3752 82.1473 50.1408 81.2453 50.1408 80.142V75.4545ZM58.7985 75.4545H61.8027V90H58.7985V75.4545ZM64.8443 90V75.4545H74.6454V77.9901H67.9196V81.456H74.1412V83.9915H67.9196V87.4645H74.6738V90H64.8443ZM76.302 90V87.5284L76.714 87.4929C77.2443 87.4503 77.6728 87.2491 77.9995 86.8892C78.3262 86.5246 78.57 85.9446 78.731 85.1491C78.8967 84.349 79.0033 83.2741 79.0506 81.9247L79.2921 75.4545H89.1642V90H86.1742V77.919H82.1472L81.9199 82.983C81.8442 84.6117 81.65 85.9422 81.3375 86.9744C81.0298 88.0066 80.5373 88.7689 79.8603 89.2614C79.1879 89.7538 78.267 90 77.0975 90H76.302ZM105.066 82.7273C105.066 84.3134 104.766 85.6629 104.164 86.7756C103.568 87.8883 102.753 88.7382 101.721 89.3253C100.694 89.9077 99.5383 90.1989 98.2551 90.1989C96.9625 90.1989 95.8025 89.9053 94.775 89.3182C93.7476 88.7311 92.9355 87.8812 92.339 86.7685C91.7424 85.6558 91.4441 84.3087 91.4441 82.7273C91.4441 81.1411 91.7424 79.7917 92.339 78.679C92.9355 77.5663 93.7476 76.7187 94.775 76.1364C95.8025 75.5492 96.9625 75.2557 98.2551 75.2557C99.5383 75.2557 100.694 75.5492 101.721 76.1364C102.753 76.7187 103.568 77.5663 104.164 78.679C104.766 79.7917 105.066 81.1411 105.066 82.7273ZM101.948 82.7273C101.948 81.6998 101.794 80.8333 101.487 80.1278C101.184 79.4223 100.755 78.8873 100.201 78.5227C99.6472 78.1581 98.9985 77.9759 98.2551 77.9759C97.5118 77.9759 96.8631 78.1581 96.3091 78.5227C95.7551 78.8873 95.3243 79.4223 95.0165 80.1278C94.7135 80.8333 94.562 81.6998 94.562 82.7273C94.562 83.7547 94.7135 84.6212 95.0165 85.3267C95.3243 86.0322 95.7551 86.5672 96.3091 86.9318C96.8631 87.2964 97.5118 87.4787 98.2551 87.4787C98.9985 87.4787 99.6472 87.2964 100.201 86.9318C100.755 86.5672 101.184 86.0322 101.487 85.3267C101.794 84.6212 101.948 83.7547 101.948 82.7273ZM107.344 90V75.4545H113.168C114.238 75.4545 115.131 75.6132 115.846 75.9304C116.561 76.2476 117.098 76.688 117.458 77.2514C117.818 77.8101 117.998 78.4541 117.998 79.1832C117.998 79.7514 117.884 80.2509 117.657 80.6818C117.43 81.108 117.117 81.4583 116.719 81.733C116.326 82.0028 115.876 82.1946 115.37 82.3082V82.4503C115.924 82.474 116.442 82.6302 116.925 82.919C117.413 83.2079 117.808 83.6127 118.111 84.1335C118.414 84.6496 118.566 85.2652 118.566 85.9801C118.566 86.7519 118.374 87.4408 117.991 88.0469C117.612 88.6482 117.051 89.1241 116.307 89.4744C115.564 89.8248 114.648 90 113.559 90H107.344ZM110.42 87.4858H112.927C113.784 87.4858 114.409 87.3224 114.802 86.9957C115.195 86.6643 115.391 86.224 115.391 85.6747C115.391 85.2723 115.294 84.9171 115.1 84.6094C114.906 84.3016 114.629 84.0601 114.269 83.8849C113.914 83.7098 113.49 83.6222 112.998 83.6222H110.42V87.4858ZM110.42 81.5412H112.699C113.121 81.5412 113.495 81.4678 113.822 81.321C114.153 81.1695 114.413 80.9564 114.603 80.6818C114.797 80.4072 114.894 80.0781 114.894 79.6946C114.894 79.169 114.707 78.7453 114.333 78.4233C113.964 78.1013 113.438 77.9403 112.756 77.9403H110.42V81.5412ZM120.567 90V75.4545H130.368V77.9901H123.642V81.456H129.864V83.9915H123.642V87.4645H130.396V90H120.567ZM133.403 75.4545H136.393V80.142C136.393 80.7008 136.49 81.1506 136.684 81.4915C136.878 81.8277 137.179 82.0715 137.586 82.223C137.998 82.3698 138.526 82.4432 139.17 82.4432C139.397 82.4432 139.664 82.4361 139.972 82.4219C140.28 82.4029 140.597 82.3769 140.924 82.3438C141.255 82.3106 141.568 82.2704 141.861 82.223C142.155 82.1757 142.399 82.1212 142.593 82.0597V84.4886C142.394 84.5549 142.145 84.6141 141.847 84.6662C141.554 84.7135 141.243 84.7562 140.917 84.794C140.59 84.8272 140.273 84.8532 139.965 84.8722C139.657 84.8911 139.392 84.9006 139.17 84.9006C138 84.9006 136.982 84.7348 136.116 84.4034C135.249 84.0672 134.579 83.5488 134.106 82.848C133.637 82.1473 133.403 81.2453 133.403 80.142V75.4545ZM142.06 75.4545H145.064V90H142.06V75.4545ZM148.106 90V75.4545H157.907V77.9901H151.181V81.456H157.403V83.9915H151.181V87.4645H157.936V90H148.106ZM173.186 80.5469H170.075C170.018 80.1444 169.902 79.7869 169.727 79.4744C169.552 79.1572 169.327 78.8873 169.052 78.6648C168.778 78.4422 168.461 78.2718 168.101 78.1534C167.746 78.035 167.36 77.9759 166.943 77.9759C166.19 77.9759 165.534 78.1629 164.976 78.5369C164.417 78.9062 163.984 79.446 163.676 80.1562C163.368 80.8617 163.214 81.7187 163.214 82.7273C163.214 83.7642 163.368 84.6354 163.676 85.3409C163.988 86.0464 164.424 86.5791 164.983 86.9389C165.541 87.2988 166.188 87.4787 166.922 87.4787C167.334 87.4787 167.715 87.4242 168.065 87.3153C168.42 87.2064 168.735 87.0478 169.01 86.8395C169.284 86.6264 169.512 86.3684 169.692 86.0653C169.876 85.7623 170.004 85.4167 170.075 85.0284L173.186 85.0426C173.105 85.7102 172.904 86.3542 172.582 86.9744C172.265 87.59 171.836 88.1416 171.297 88.6293C170.762 89.1122 170.122 89.4957 169.379 89.7798C168.64 90.0592 167.805 90.1989 166.872 90.1989C165.575 90.1989 164.415 89.9053 163.392 89.3182C162.374 88.7311 161.569 87.8812 160.977 86.7685C160.39 85.6558 160.096 84.3087 160.096 82.7273C160.096 81.1411 160.395 79.7917 160.991 78.679C161.588 77.5663 162.398 76.7187 163.42 76.1364C164.443 75.5492 165.594 75.2557 166.872 75.2557C167.715 75.2557 168.496 75.3741 169.216 75.6108C169.94 75.8475 170.582 76.1932 171.14 76.6477C171.699 77.0975 172.154 77.6491 172.504 78.3026C172.859 78.956 173.086 79.7041 173.186 80.5469ZM184.191 90L179.518 83.7997H178.466V90H175.391V75.4545H178.466V81.2642H179.084L183.914 75.4545H187.742L182.067 82.2017L188.005 90H184.191ZM202.097 82.7273C202.097 84.3134 201.797 85.6629 201.195 86.7756C200.599 87.8883 199.785 88.7382 198.752 89.3253C197.725 89.9077 196.57 90.1989 195.286 90.1989C193.994 90.1989 192.834 89.9053 191.806 89.3182C190.779 88.7311 189.967 87.8812 189.37 86.7685C188.774 85.6558 188.475 84.3087 188.475 82.7273C188.475 81.1411 188.774 79.7917 189.37 78.679C189.967 77.5663 190.779 76.7187 191.806 76.1364C192.834 75.5492 193.994 75.2557 195.286 75.2557C196.57 75.2557 197.725 75.5492 198.752 76.1364C199.785 76.7187 200.599 77.5663 201.195 78.679C201.797 79.7917 202.097 81.1411 202.097 82.7273ZM198.98 82.7273C198.98 81.6998 198.826 80.8333 198.518 80.1278C198.215 79.4223 197.786 78.8873 197.232 78.5227C196.678 78.1581 196.03 77.9759 195.286 77.9759C194.543 77.9759 193.894 78.1581 193.34 78.5227C192.786 78.8873 192.356 79.4223 192.048 80.1278C191.745 80.8333 191.593 81.6998 191.593 82.7273C191.593 83.7547 191.745 84.6212 192.048 85.3267C192.356 86.0322 192.786 86.5672 193.34 86.9318C193.894 87.2964 194.543 87.4787 195.286 87.4787C196.03 87.4787 196.678 87.2964 197.232 86.9318C197.786 86.5672 198.215 86.0322 198.518 85.3267C198.826 84.6212 198.98 83.7547 198.98 82.7273ZM214.028 75.4545V77.9901H207.451V90H204.376V75.4545H214.028ZM228.699 82.7273C228.699 84.3134 228.398 85.6629 227.797 86.7756C227.2 87.8883 226.386 88.7382 225.354 89.3253C224.326 89.9077 223.171 90.1989 221.888 90.1989C220.595 90.1989 219.435 89.9053 218.408 89.3182C217.38 88.7311 216.568 87.8812 215.972 86.7685C215.375 85.6558 215.077 84.3087 215.077 82.7273C215.077 81.1411 215.375 79.7917 215.972 78.679C216.568 77.5663 217.38 76.7187 218.408 76.1364C219.435 75.5492 220.595 75.2557 221.888 75.2557C223.171 75.2557 224.326 75.5492 225.354 76.1364C226.386 76.7187 227.2 77.5663 227.797 78.679C228.398 79.7917 228.699 81.1411 228.699 82.7273ZM225.581 82.7273C225.581 81.6998 225.427 80.8333 225.119 80.1278C224.816 79.4223 224.388 78.8873 223.834 78.5227C223.28 78.1581 222.631 77.9759 221.888 77.9759C221.145 77.9759 220.496 78.1581 219.942 78.5227C219.388 78.8873 218.957 79.4223 218.649 80.1278C218.346 80.8333 218.195 81.6998 218.195 82.7273C218.195 83.7547 218.346 84.6212 218.649 85.3267C218.957 86.0322 219.388 86.5672 219.942 86.9318C220.496 87.2964 221.145 87.4787 221.888 87.4787C222.631 87.4787 223.28 87.2964 223.834 86.9318C224.388 86.5672 224.816 86.0322 225.119 85.3267C225.427 84.6212 225.581 83.7547 225.581 82.7273ZM92.1001 114V99.4545H97.8388C98.942 99.4545 99.8819 99.6652 100.658 100.087C101.435 100.503 102.027 101.083 102.434 101.827C102.846 102.565 103.052 103.418 103.052 104.384C103.052 105.349 102.844 106.202 102.427 106.94C102.01 107.679 101.406 108.254 100.616 108.666C99.8298 109.078 98.8781 109.284 97.7607 109.284H94.103V106.82H97.2635C97.8554 106.82 98.343 106.718 98.7266 106.514C99.1148 106.306 99.4036 106.019 99.593 105.655C99.7872 105.286 99.8842 104.862 99.8842 104.384C99.8842 103.901 99.7872 103.479 99.593 103.119C99.4036 102.755 99.1148 102.473 98.7266 102.274C98.3383 102.071 97.8459 101.969 97.2493 101.969H95.1754V114H92.1001ZM105.049 114V99.4545H114.85V101.99H108.125V105.456H114.346V107.991H108.125V111.464H114.879V114H105.049ZM130.129 104.547H127.018C126.962 104.144 126.846 103.787 126.67 103.474C126.495 103.157 126.27 102.887 125.996 102.665C125.721 102.442 125.404 102.272 125.044 102.153C124.689 102.035 124.303 101.976 123.886 101.976C123.134 101.976 122.478 102.163 121.919 102.537C121.36 102.906 120.927 103.446 120.619 104.156C120.312 104.862 120.158 105.719 120.158 106.727C120.158 107.764 120.312 108.635 120.619 109.341C120.932 110.046 121.367 110.579 121.926 110.939C122.485 111.299 123.131 111.479 123.865 111.479C124.277 111.479 124.658 111.424 125.009 111.315C125.364 111.206 125.679 111.048 125.953 110.839C126.228 110.626 126.455 110.368 126.635 110.065C126.82 109.762 126.947 109.417 127.018 109.028L130.129 109.043C130.049 109.71 129.848 110.354 129.526 110.974C129.208 111.59 128.78 112.142 128.24 112.629C127.705 113.112 127.066 113.496 126.322 113.78C125.584 114.059 124.748 114.199 123.815 114.199C122.518 114.199 121.358 113.905 120.335 113.318C119.317 112.731 118.512 111.881 117.92 110.768C117.333 109.656 117.04 108.309 117.04 106.727C117.04 105.141 117.338 103.792 117.935 102.679C118.531 101.566 119.341 100.719 120.364 100.136C121.386 99.5492 122.537 99.2557 123.815 99.2557C124.658 99.2557 125.439 99.3741 126.159 99.6108C126.884 99.8475 127.525 100.193 128.084 100.648C128.643 101.098 129.097 101.649 129.447 102.303C129.803 102.956 130.03 103.704 130.129 104.547ZM133.904 114.199V111.699H134.692C135.085 111.699 135.403 111.652 135.644 111.557C135.886 111.457 136.077 111.313 136.219 111.124C136.366 110.929 136.489 110.688 136.589 110.399L136.766 109.923L131.482 99.4545H134.664L138.087 106.614L140.95 99.4545H144.089L139.075 111.145C138.833 111.685 138.547 112.187 138.215 112.651C137.888 113.115 137.469 113.489 136.958 113.773C136.447 114.057 135.793 114.199 134.998 114.199H133.904ZM145.752 114V99.4545H151.491C152.594 99.4545 153.534 99.6652 154.311 100.087C155.087 100.503 155.679 101.083 156.086 101.827C156.498 102.565 156.704 103.418 156.704 104.384C156.704 105.349 156.496 106.202 156.079 106.94C155.663 107.679 155.059 108.254 154.268 108.666C153.482 109.078 152.53 109.284 151.413 109.284H147.755V106.82H150.916C151.508 106.82 151.995 106.718 152.379 106.514C152.767 106.306 153.056 106.019 153.245 105.655C153.44 105.286 153.537 104.862 153.537 104.384C153.537 103.901 153.44 103.479 153.245 103.119C153.056 102.755 152.767 102.473 152.379 102.274C151.991 102.071 151.498 101.969 150.902 101.969H148.828V114H145.752ZM171.536 104.547H168.425C168.368 104.144 168.252 103.787 168.077 103.474C167.902 103.157 167.677 102.887 167.402 102.665C167.127 102.442 166.81 102.272 166.45 102.153C166.095 102.035 165.709 101.976 165.293 101.976C164.54 101.976 163.884 102.163 163.325 102.537C162.767 102.906 162.333 103.446 162.026 104.156C161.718 104.862 161.564 105.719 161.564 106.727C161.564 107.764 161.718 108.635 162.026 109.341C162.338 110.046 162.774 110.579 163.332 110.939C163.891 111.299 164.537 111.479 165.271 111.479C165.683 111.479 166.064 111.424 166.415 111.315C166.77 111.206 167.085 111.048 167.359 110.839C167.634 110.626 167.861 110.368 168.041 110.065C168.226 109.762 168.354 109.417 168.425 109.028L171.536 109.043C171.455 109.71 171.254 110.354 170.932 110.974C170.615 111.59 170.186 112.142 169.646 112.629C169.111 113.112 168.472 113.496 167.729 113.78C166.99 114.059 166.154 114.199 165.222 114.199C163.924 114.199 162.764 113.905 161.741 113.318C160.723 112.731 159.919 111.881 159.327 110.768C158.74 109.656 158.446 108.309 158.446 106.727C158.446 105.141 158.744 103.792 159.341 102.679C159.938 101.566 160.747 100.719 161.77 100.136C162.793 99.5492 163.943 99.2557 165.222 99.2557C166.064 99.2557 166.846 99.3741 167.565 99.6108C168.29 99.8475 168.931 100.193 169.49 100.648C170.049 101.098 170.503 101.649 170.854 102.303C171.209 102.956 171.436 103.704 171.536 104.547ZM175.974 114H172.679L177.7 99.4545H181.663L186.678 114H183.382L179.739 102.778H179.625L175.974 114ZM175.768 108.283H183.553V110.683H175.768V108.283Z" fill="black"/>
</svg>
