<svg width="261" height="148" viewBox="0 0 261 148" fill="none" xmlns="http://www.w3.org/2000/svg">
<path d="M3.66577 35.4341L0.837997 40.7766L0.214157 43.8297L3.66577 35.4341ZM4.68707 32.4938L1.84355 37.8816L0.837997 40.7766L4.68707 32.4938ZM6.06767 29.7425L3.20288 35.1727L1.84355 37.8816L6.06767 29.7425ZM225.573 141.873L219.326 145.575L222.035 144.216L225.573 141.873ZM222.633 142.894L216.431 146.581L219.326 145.575L222.633 142.894ZM219.532 143.527L213.378 147.204L216.431 146.581L219.532 143.527ZM216.299 143.745L210.195 147.419L213.378 147.204L216.299 143.745ZM26.641 143.745L23.4593 147.419H210.195L26.641 143.745ZM23.4079 143.527L20.276 147.204L23.4593 147.419L23.4079 143.527ZM20.307 142.894L17.2229 146.581L20.276 147.204L20.307 142.894ZM17.3667 141.873L14.3279 145.575L17.2229 146.581L17.3667 141.873ZM14.6154 140.492L11.6189 144.216L14.3279 145.575L14.6154 140.492ZM12.0815 138.78L9.12401 142.531L11.6189 144.216L12.0815 138.78ZM9.79325 136.766L6.87106 140.548L9.12401 142.531L9.79325 136.766ZM7.77919 134.478L4.88803 138.295L6.87106 140.548L7.77919 134.478ZM6.06767 131.944L3.20288 135.8L4.88803 138.295L6.06767 131.944ZM4.68706 129.193L1.84355 133.091L3.20288 135.8L4.68706 129.193ZM3.66577 126.253L0.837997 130.196L1.84355 133.091L3.66577 126.253ZM3.03218 123.152L0.214157 127.143L0.837997 130.196L3.03218 123.152ZM2.81467 119.919L0 123.959L0.214157 127.143L2.81467 119.919ZM2.81467 41.7681L0 47.013V123.959L2.81467 41.7681ZM3.03218 38.535L0.214157 43.8297L0 47.013L3.03218 38.535ZM3.03218 38.535L3.66577 35.4341L0.214157 43.8297L3.03218 38.535ZM3.66577 35.4341L4.68707 32.4938L0.837997 40.7766L3.66577 35.4341ZM4.68707 32.4938L6.06767 29.7425L1.84355 37.8816L4.68707 32.4938ZM2.81467 41.7681L3.03218 38.535L0 47.013L2.81467 41.7681ZM2.81467 119.919V41.7681L0 123.959L2.81467 119.919ZM228.324 140.492L225.573 141.873L222.035 144.216L228.324 140.492ZM225.573 141.873L222.633 142.894L219.326 145.575L225.573 141.873ZM222.633 142.894L219.532 143.527L216.431 146.581L222.633 142.894ZM219.532 143.527L216.299 143.745L213.378 147.204L219.532 143.527ZM216.299 143.745H26.641L210.195 147.419L216.299 143.745ZM26.641 143.745L23.4079 143.527L23.4593 147.419L26.641 143.745ZM23.4079 143.527L20.307 142.894L20.276 147.204L23.4079 143.527ZM20.307 142.894L17.3667 141.873L17.2229 146.581L20.307 142.894ZM17.3667 141.873L14.6154 140.492L14.3279 145.575L17.3667 141.873ZM14.6154 140.492L12.0815 138.78L11.6189 144.216L14.6154 140.492ZM12.0815 138.78L9.79325 136.766L9.12401 142.531L12.0815 138.78ZM9.79325 136.766L7.77919 134.478L6.87106 140.548L9.79325 136.766ZM7.77919 134.478L6.06767 131.944L4.88803 138.295L7.77919 134.478ZM6.06767 131.944L4.68706 129.193L3.20288 135.8L6.06767 131.944ZM4.68706 129.193L3.66577 126.253L1.84355 133.091L4.68706 129.193ZM3.66577 126.253L3.03218 123.152L0.837997 130.196L3.66577 126.253ZM3.03218 123.152L2.81467 119.919L0.214157 127.143L3.03218 123.152ZM6.58347 29.9218L3.66577 35.4341L3.03218 38.535L6.58347 29.9218ZM7.62099 26.9347L4.68707 32.4938L3.66577 35.4341L7.62099 26.9347ZM9.02354 24.1397L6.06767 29.7425L4.68707 32.4938L9.02354 24.1397ZM232.019 138.052L225.573 141.873L228.324 140.492L232.019 138.052ZM229.032 139.09L222.633 142.894L225.573 141.873L229.032 139.09ZM225.881 139.733L219.532 143.527L222.633 142.894L225.881 139.733ZM222.597 139.954L216.299 143.745L219.532 143.527L222.597 139.954ZM29.924 139.954L26.641 143.745H216.299L29.924 139.954ZM26.6395 139.733L23.4079 143.527L26.641 143.745L26.6395 139.733ZM23.4893 139.09L20.307 142.894L23.4079 143.527L23.4893 139.09ZM20.5022 138.052L17.3667 141.873L20.307 142.894L20.5022 138.052ZM17.7072 136.65L14.6154 140.492L17.3667 141.873L17.7072 136.65ZM15.1329 134.911L12.0815 138.78L14.6154 140.492L15.1329 134.911ZM12.8083 132.865L9.79325 136.766L12.0815 138.78L12.8083 132.865ZM10.7623 130.54L7.77919 134.478L9.79325 136.766L10.7623 130.54ZM9.02354 127.966L6.06767 131.944L7.77919 134.478L9.02354 127.966ZM7.62099 125.171L4.68706 129.193L6.06767 131.944L7.62099 125.171ZM6.58347 122.184L3.66577 126.253L4.68706 129.193L6.58347 122.184ZM5.93979 119.034L3.03218 123.152L3.66577 126.253L5.93979 119.034ZM5.71883 115.749L2.81467 119.919L3.03218 123.152L5.71883 115.749ZM5.71883 36.3565L2.81467 41.7681V119.919L5.71883 36.3565ZM5.93979 33.072L3.03218 38.535L2.81467 41.7681L5.93979 33.072ZM5.93979 33.072L6.58347 29.9218L3.03218 38.535L5.93979 33.072ZM6.58347 29.9218L7.62099 26.9347L3.66577 35.4341L6.58347 29.9218ZM7.62099 26.9347L9.02354 24.1397L4.68707 32.4938L7.62099 26.9347ZM234.814 136.65L232.019 138.052L228.324 140.492L234.814 136.65ZM232.019 138.052L229.032 139.09L225.573 141.873L232.019 138.052ZM229.032 139.09L225.881 139.733L222.633 142.894L229.032 139.09ZM225.881 139.733L222.597 139.954L219.532 143.527L225.881 139.733ZM222.597 139.954H29.924L216.299 143.745L222.597 139.954ZM29.924 139.954L26.6395 139.733L26.641 143.745L29.924 139.954ZM26.6395 139.733L23.4893 139.09L23.4079 143.527L26.6395 139.733ZM23.4893 139.09L20.5022 138.052L20.307 142.894L23.4893 139.09ZM20.5022 138.052L17.7072 136.65L17.3667 141.873L20.5022 138.052ZM17.7072 136.65L15.1329 134.911L14.6154 140.492L17.7072 136.65ZM15.1329 134.911L12.8083 132.865L12.0815 138.78L15.1329 134.911ZM12.8083 132.865L10.7623 130.54L9.79325 136.766L12.8083 132.865ZM10.7623 130.54L9.02354 127.966L7.77919 134.478L10.7623 130.54ZM9.02354 127.966L7.62099 125.171L6.06767 131.944L9.02354 127.966ZM7.62099 125.171L6.58347 122.184L4.68706 129.193L7.62099 125.171ZM6.58347 122.184L5.93979 119.034L3.66577 126.253L6.58347 122.184ZM5.93979 119.034L5.71883 115.749L3.03218 123.152L5.93979 119.034ZM5.71883 115.749V36.3565L2.81467 119.919L5.71883 115.749ZM5.71883 36.3565L5.93979 33.072L2.81467 41.7681L5.71883 36.3565ZM9.59541 24.2314L6.58347 29.9218L5.93979 33.072L9.59541 24.2314ZM10.6497 21.1961L7.62099 26.9347L6.58347 29.9218L10.6497 21.1961ZM12.0749 18.3558L9.02354 24.1397L7.62099 26.9347L12.0749 18.3558ZM8.71681 30.77L5.71883 36.3565V115.749L8.71681 30.77ZM8.94135 27.4324L5.93979 33.072L5.71883 36.3565L8.94135 27.4324ZM238.672 134.109L232.019 138.052L234.814 136.65L238.672 134.109ZM235.637 135.163L229.032 139.09L232.019 138.052L235.637 135.163ZM232.436 135.817L225.881 139.733L229.032 139.09L232.436 135.817ZM229.098 136.042L222.597 139.954L225.881 139.733L229.098 136.042ZM33.313 136.042L29.924 139.954H222.597L33.313 136.042ZM29.9754 135.817L26.6395 139.733L29.924 139.954L29.9754 135.817ZM26.7743 135.163L23.4893 139.09L26.6395 139.733L26.7743 135.163ZM23.739 134.109L20.5022 138.052L23.4893 139.09L23.739 134.109ZM20.8988 132.683L17.7072 136.65L20.5022 138.052L20.8988 132.683ZM18.283 130.917L15.1329 134.911L17.7072 136.65L18.283 130.917ZM15.9209 128.837L12.8083 132.865L15.1329 134.911L15.9209 128.837ZM13.8417 126.475L10.7623 130.54L12.8083 132.865L13.8417 126.475ZM12.0749 123.86L9.02354 127.966L10.7623 130.54L12.0749 123.86ZM10.6497 121.019L7.62099 125.171L9.02354 127.966L10.6497 121.019ZM9.59541 117.984L6.58347 122.184L7.62099 125.171L9.59541 117.984ZM8.94135 114.783L5.93979 119.034L6.58347 122.184L8.94135 114.783ZM8.71681 111.445L5.71883 115.749L5.93979 119.034L8.71681 111.445ZM8.94135 27.4324L9.59541 24.2314L5.93979 33.072L8.94135 27.4324ZM9.59541 24.2314L10.6497 21.1961L6.58347 29.9218L9.59541 24.2314ZM10.6497 21.1961L12.0749 18.3558L7.62099 26.9347L10.6497 21.1961ZM8.71681 30.77L8.94135 27.4324L5.71883 36.3565L8.71681 30.77ZM8.71681 111.445V30.77L5.71883 115.749L8.71681 111.445ZM241.512 132.683L238.672 134.109L234.814 136.65L241.512 132.683ZM238.672 134.109L235.637 135.163L232.019 138.052L238.672 134.109ZM235.637 135.163L232.436 135.817L229.032 139.09L235.637 135.163ZM232.436 135.817L229.098 136.042L225.881 139.733L232.436 135.817ZM229.098 136.042H33.313L222.597 139.954L229.098 136.042ZM33.313 136.042L29.9754 135.817L29.924 139.954L33.313 136.042ZM29.9754 135.817L26.7743 135.163L26.6395 139.733L29.9754 135.817ZM26.7743 135.163L23.739 134.109L23.4893 139.09L26.7743 135.163ZM23.739 134.109L20.8988 132.683L20.5022 138.052L23.739 134.109ZM20.8988 132.683L18.283 130.917L17.7072 136.65L20.8988 132.683ZM18.283 130.917L15.9209 128.837L15.1329 134.911L18.283 130.917ZM15.9209 128.837L13.8417 126.475L12.8083 132.865L15.9209 128.837ZM13.8417 126.475L12.0749 123.86L10.7623 130.54L13.8417 126.475ZM12.0749 123.86L10.6497 121.019L9.02354 127.966L12.0749 123.86ZM10.6497 121.019L9.59541 117.984L7.62099 125.171L10.6497 121.019ZM9.59541 117.984L8.94135 114.783L6.58347 122.184L9.59541 117.984ZM8.94135 114.783L8.71681 111.445L5.93979 119.034L8.94135 114.783ZM12.7063 18.3541L9.59541 24.2314L8.94135 27.4324L12.7063 18.3541ZM13.7779 15.2689L10.6497 21.1961L9.59541 24.2314L13.7779 15.2689ZM15.2265 12.3821L12.0749 18.3558L10.6497 21.1961L15.2265 12.3821ZM12.0415 21.6077L8.94135 27.4324L8.71681 30.77L12.0415 21.6077ZM11.8132 25.0001L8.71681 30.77V111.445L11.8132 25.0001ZM245.544 130.035L238.672 134.109L241.512 132.683L245.544 130.035ZM242.459 131.107L235.637 135.163L238.672 134.109L242.459 131.107ZM239.206 131.772L232.436 135.817L235.637 135.163L239.206 131.772ZM235.813 132L229.098 136.042L232.436 135.817L235.813 132ZM36.8132 132L33.313 136.042H229.098L36.8132 132ZM33.4209 131.772L29.9754 135.817L33.313 136.042L33.4209 131.772ZM30.1673 131.107L26.7743 135.163L29.9754 135.817L30.1673 131.107ZM27.0821 130.035L23.739 134.109L26.7743 135.163L27.0821 130.035ZM24.1953 128.587L20.8988 132.683L23.739 134.109L24.1953 128.587ZM21.5365 126.791L18.283 130.917L20.8988 132.683L21.5365 126.791ZM19.1356 124.678L15.9209 128.837L18.283 130.917L19.1356 124.678ZM17.0223 122.277L13.8417 126.475L15.9209 128.837L17.0223 122.277ZM15.2265 119.618L12.0749 123.86L13.8417 126.475L15.2265 119.618ZM13.7779 116.731L10.6497 121.019L12.0749 123.86L13.7779 116.731ZM12.7063 113.646L9.59541 117.984L10.6497 121.019L12.7063 113.646ZM12.0415 110.392L8.94135 114.783L9.59541 117.984L12.0415 110.392ZM11.8132 107L8.71681 111.445L8.94135 114.783L11.8132 107ZM12.0415 21.6077L12.7063 18.3541L8.94135 27.4324L12.0415 21.6077ZM12.7063 18.3541L13.7779 15.2689L9.59541 24.2314L12.7063 18.3541ZM13.7779 15.2689L15.2265 12.3821L10.6497 21.1961L13.7779 15.2689ZM11.8132 25.0001L12.0415 21.6077L8.71681 30.77L11.8132 25.0001ZM248.431 128.587L245.544 130.035L241.512 132.683L248.431 128.587ZM245.544 130.035L242.459 131.107L238.672 134.109L245.544 130.035ZM242.459 131.107L239.206 131.772L235.637 135.163L242.459 131.107ZM239.206 131.772L235.813 132L232.436 135.817L239.206 131.772ZM235.813 132H36.8132L229.098 136.042L235.813 132ZM36.8132 132L33.4209 131.772L33.313 136.042L36.8132 132ZM33.4209 131.772L30.1673 131.107L29.9754 135.817L33.4209 131.772ZM30.1673 131.107L27.0821 130.035L26.7743 135.163L30.1673 131.107ZM27.0821 130.035L24.1953 128.587L23.739 134.109L27.0821 130.035ZM24.1953 128.587L21.5365 126.791L20.8988 132.683L24.1953 128.587ZM21.5365 126.791L19.1356 124.678L18.283 130.917L21.5365 126.791ZM19.1356 124.678L17.0223 122.277L15.9209 128.837L19.1356 124.678ZM17.0223 122.277L15.2265 119.618L13.8417 126.475L17.0223 122.277ZM15.2265 119.618L13.7779 116.731L12.0749 123.86L15.2265 119.618ZM13.7779 116.731L12.7063 113.646L10.6497 121.019L13.7779 116.731ZM12.7063 113.646L12.0415 110.392L9.59541 117.984L12.7063 113.646ZM12.0415 110.392L11.8132 107L8.94135 114.783L12.0415 110.392ZM11.8132 107V25.0001L8.71681 111.445L11.8132 107Z" fill="#B77513"/>
<path d="M12.0415 21.6076L11.8132 25V107L12.0415 21.6076ZM13.7779 15.2689L12.7063 18.354L12.0415 21.6076L13.7779 15.2689ZM17.0223 9.72324L15.2265 12.382L13.7779 15.2689L17.0223 9.72324ZM21.5365 5.20906L19.1356 7.32233L17.0223 9.72324L21.5365 5.20906ZM27.0821 1.96462L24.1953 3.41323L21.5365 5.20906L27.0821 1.96462ZM33.4209 0.228218L30.1672 0.893021L27.0821 1.96462L33.4209 0.228218ZM235.813 0H36.8132L33.4209 0.228218L235.813 0ZM242.459 0.893021L239.206 0.228218L235.813 0L242.459 0.893021ZM248.431 3.41323L245.544 1.96462L242.459 0.893021L248.431 3.41323ZM253.491 7.32233L251.09 5.20906L248.431 3.41323L253.491 7.32233ZM257.4 12.382L255.604 9.72324L253.491 7.32233L257.4 12.382ZM259.92 18.354L258.849 15.2689L257.4 12.382L259.92 18.354ZM260.813 25L260.585 21.6076L259.92 18.354L260.813 25ZM260.585 110.392L260.813 107V25L260.585 110.392ZM258.849 116.731L259.92 113.646L260.585 110.392L258.849 116.731ZM255.604 122.277L257.4 119.618L258.849 116.731L255.604 122.277ZM251.09 126.791L253.491 124.678L255.604 122.277L251.09 126.791ZM245.544 130.035L248.431 128.587L251.09 126.791L245.544 130.035ZM239.206 131.772L242.459 131.107L245.544 130.035L239.206 131.772ZM36.8132 132H235.813L239.206 131.772L36.8132 132ZM30.1672 131.107L33.4209 131.772L36.8132 132L30.1672 131.107ZM24.1953 128.587L27.0821 130.035L30.1672 131.107L24.1953 128.587ZM19.1356 124.678L21.5365 126.791L24.1953 128.587L19.1356 124.678ZM15.2265 119.618L17.0223 122.277L19.1356 124.678L15.2265 119.618ZM12.7063 113.646L13.7779 116.731L15.2265 119.618L12.7063 113.646ZM11.8132 107L12.0415 110.392L12.7063 113.646L11.8132 107ZM13.7779 15.2689L12.0415 21.6076L11.8132 107L13.7779 15.2689ZM21.5365 5.20906L17.0223 9.72324L13.7779 15.2689L21.5365 5.20906ZM33.4209 0.228218L27.0821 1.96462L21.5365 5.20906L33.4209 0.228218ZM242.459 0.893021L235.813 0L33.4209 0.228218L242.459 0.893021ZM253.491 7.32233L248.431 3.41323L242.459 0.893021L253.491 7.32233ZM259.92 18.354L257.4 12.382L253.491 7.32233L259.92 18.354ZM260.585 110.392L260.813 25L259.92 18.354L260.585 110.392ZM255.604 122.277L258.849 116.731L260.585 110.392L255.604 122.277ZM245.544 130.035L251.09 126.791L255.604 122.277L245.544 130.035ZM36.8132 132L239.206 131.772L245.544 130.035L36.8132 132ZM24.1953 128.587L30.1672 131.107L36.8132 132L24.1953 128.587ZM15.2265 119.618L19.1356 124.678L24.1953 128.587L15.2265 119.618ZM11.8132 107L12.7063 113.646L15.2265 119.618L11.8132 107ZM21.5365 5.20906L13.7779 15.2689L11.8132 107L21.5365 5.20906ZM242.459 0.893021L33.4209 0.228218L21.5365 5.20906L242.459 0.893021ZM259.92 18.354L253.491 7.32233L242.459 0.893021L259.92 18.354ZM255.604 122.277L260.585 110.392L259.92 18.354L255.604 122.277ZM36.8132 132L245.544 130.035L255.604 122.277L36.8132 132ZM15.2265 119.618L24.1953 128.587L36.8132 132L15.2265 119.618ZM21.5365 5.20906L11.8132 107L15.2265 119.618L21.5365 5.20906ZM259.92 18.354L242.459 0.893021L21.5365 5.20906L259.92 18.354ZM36.8132 132L255.604 122.277L259.92 18.354L36.8132 132ZM21.5365 5.20906L15.2265 119.618L36.8132 132L21.5365 5.20906ZM36.8132 132L259.92 18.354L21.5365 5.20906L36.8132 132Z" fill="#FFA31A"/>
<path d="M43.4068 34.4545H46.475V43.6023H46.5957L52.8812 34.4545H55.573V49H52.4977V39.8452H52.3912L46.0701 49H43.4068V34.4545ZM70.9476 39.5469H67.8368C67.78 39.1444 67.664 38.7869 67.4888 38.4744C67.3136 38.1572 67.0887 37.8873 66.8141 37.6648C66.5395 37.4422 66.2222 37.2718 65.8624 37.1534C65.5073 37.035 65.1214 36.9759 64.7047 36.9759C63.9519 36.9759 63.2961 37.1629 62.7374 37.5369C62.1787 37.9062 61.7454 38.446 61.4377 39.1562C61.1299 39.8617 60.976 40.7187 60.976 41.7273C60.976 42.7642 61.1299 43.6354 61.4377 44.3409C61.7502 45.0464 62.1858 45.5791 62.7445 45.9389C63.3032 46.2988 63.9495 46.4787 64.6834 46.4787C65.0953 46.4787 65.4765 46.4242 65.8269 46.3153C66.182 46.2064 66.4969 46.0478 66.7715 45.8395C67.0461 45.6264 67.2734 45.3684 67.4533 45.0653C67.638 44.7623 67.7658 44.4167 67.8368 44.0284L70.9476 44.0426C70.8671 44.7102 70.6659 45.3542 70.3439 45.9744C70.0267 46.59 69.5982 47.1416 69.0584 47.6293C68.5234 48.1122 67.8842 48.4957 67.1408 48.7798C66.4022 49.0592 65.5665 49.1989 64.6337 49.1989C63.3364 49.1989 62.1763 48.9053 61.1536 48.3182C60.1356 47.7311 59.3307 46.8812 58.7388 45.7685C58.1517 44.6558 57.8581 43.3087 57.8581 41.7273C57.8581 40.1411 58.1564 38.7917 58.753 37.679C59.3496 36.5663 60.1593 35.7187 61.182 35.1364C62.2047 34.5492 63.3553 34.2557 64.6337 34.2557C65.4765 34.2557 66.2578 34.3741 66.9775 34.6108C67.7019 34.8475 68.3435 35.1932 68.9022 35.6477C69.4609 36.0975 69.9154 36.6491 70.2658 37.3026C70.6209 37.956 70.8482 38.7041 70.9476 39.5469ZM85.5179 34.4545V49H82.4782V36.9545H76.5975V49H73.5577V34.4545H85.5179ZM101.812 41.7273C101.812 43.3134 101.512 44.6629 100.91 45.7756C100.314 46.8883 99.4993 47.7382 98.4672 48.3253C97.4397 48.9077 96.2844 49.1989 95.0012 49.1989C93.7086 49.1989 92.5486 48.9053 91.5211 48.3182C90.4937 47.7311 89.6816 46.8812 89.085 45.7685C88.4885 44.6558 88.1902 43.3087 88.1902 41.7273C88.1902 40.1411 88.4885 38.7917 89.085 37.679C89.6816 36.5663 90.4937 35.7187 91.5211 35.1364C92.5486 34.5492 93.7086 34.2557 95.0012 34.2557C96.2844 34.2557 97.4397 34.5492 98.4672 35.1364C99.4993 35.7187 100.314 36.5663 100.91 37.679C101.512 38.7917 101.812 40.1411 101.812 41.7273ZM98.6944 41.7273C98.6944 40.6998 98.5405 39.8333 98.2328 39.1278C97.9297 38.4223 97.5012 37.8873 96.9473 37.5227C96.3933 37.1581 95.7446 36.9759 95.0012 36.9759C94.2579 36.9759 93.6092 37.1581 93.0552 37.5227C92.5012 37.8873 92.0704 38.4223 91.7626 39.1278C91.4596 39.8333 91.3081 40.6998 91.3081 41.7273C91.3081 42.7547 91.4596 43.6212 91.7626 44.3267C92.0704 45.0322 92.5012 45.5672 93.0552 45.9318C93.6092 46.2964 94.2579 46.4787 95.0012 46.4787C95.7446 46.4787 96.3933 46.2964 96.9473 45.9318C97.5012 45.5672 97.9297 45.0322 98.2328 44.3267C98.5405 43.6212 98.6944 42.7547 98.6944 41.7273ZM103.302 49V46.5284L103.714 46.4929C104.244 46.4503 104.673 46.2491 104.999 45.8892C105.326 45.5246 105.57 44.9446 105.731 44.1491C105.897 43.349 106.003 42.2741 106.051 40.9247L106.292 34.4545H116.164V49H113.174V36.919H109.147L108.92 41.983C108.844 43.6117 108.65 44.9422 108.338 45.9744C108.03 47.0066 107.537 47.7689 106.86 48.2614C106.188 48.7538 105.267 49 104.097 49H103.302ZM120.724 39.831H124.19C125.345 39.831 126.339 40.018 127.173 40.392C128.011 40.7614 128.657 41.2846 129.112 41.9616C129.566 42.6387 129.791 43.4366 129.786 44.3551C129.791 45.2689 129.566 46.0762 129.112 46.777C128.657 47.473 128.011 48.0175 127.173 48.4105C126.339 48.8035 125.345 49 124.19 49H118.757V34.4545H121.825V46.5284H124.19C124.744 46.5284 125.21 46.429 125.589 46.2301C125.968 46.0265 126.254 45.759 126.448 45.4276C126.647 45.0914 126.744 44.7244 126.74 44.3267C126.744 43.7491 126.526 43.2614 126.086 42.8636C125.651 42.4612 125.018 42.2599 124.19 42.2599H120.724V39.831ZM137.526 49.1989C136.465 49.1989 135.521 49.0166 134.692 48.652C133.868 48.2827 133.217 47.776 132.739 47.1321C132.266 46.4834 132.022 45.7353 132.008 44.8878H135.104C135.123 45.2429 135.239 45.5554 135.452 45.8253C135.67 46.0904 135.959 46.2964 136.319 46.4432C136.679 46.59 137.083 46.6634 137.533 46.6634C138.002 46.6634 138.416 46.5805 138.776 46.4148C139.136 46.2491 139.418 46.0194 139.621 45.7259C139.825 45.4323 139.927 45.0937 139.927 44.7102C139.927 44.322 139.818 43.9787 139.6 43.6804C139.387 43.3774 139.079 43.1406 138.677 42.9702C138.279 42.7997 137.805 42.7145 137.256 42.7145H135.9V40.456H137.256C137.72 40.456 138.13 40.3755 138.485 40.2145C138.845 40.0535 139.124 39.831 139.323 39.5469C139.522 39.258 139.621 38.9219 139.621 38.5384C139.621 38.1738 139.534 37.8542 139.358 37.5795C139.188 37.3002 138.947 37.0824 138.634 36.9261C138.326 36.7699 137.966 36.6918 137.555 36.6918C137.138 36.6918 136.757 36.7675 136.411 36.919C136.065 37.0658 135.788 37.2765 135.58 37.5511C135.372 37.8258 135.26 38.1477 135.246 38.517H132.299C132.313 37.679 132.552 36.9403 133.016 36.3011C133.48 35.6619 134.105 35.1624 134.891 34.8026C135.682 34.438 136.574 34.2557 137.569 34.2557C138.573 34.2557 139.451 34.438 140.204 34.8026C140.956 35.1671 141.541 35.6596 141.958 36.2798C142.379 36.8954 142.588 37.5866 142.583 38.3537C142.588 39.1681 142.334 39.8475 141.823 40.392C141.316 40.9366 140.656 41.2822 139.841 41.429V41.5426C140.912 41.6799 141.726 42.0516 142.285 42.6577C142.848 43.259 143.127 44.0118 143.123 44.9162C143.127 45.7448 142.888 46.4811 142.405 47.125C141.927 47.7689 141.267 48.2756 140.424 48.6449C139.581 49.0142 138.615 49.1989 137.526 49.1989ZM158.785 41.7273C158.785 43.3134 158.484 44.6629 157.883 45.7756C157.286 46.8883 156.472 47.7382 155.44 48.3253C154.412 48.9077 153.257 49.1989 151.974 49.1989C150.681 49.1989 149.521 48.9053 148.494 48.3182C147.466 47.7311 146.654 46.8812 146.058 45.7685C145.461 44.6558 145.163 43.3087 145.163 41.7273C145.163 40.1411 145.461 38.7917 146.058 37.679C146.654 36.5663 147.466 35.7187 148.494 35.1364C149.521 34.5492 150.681 34.2557 151.974 34.2557C153.257 34.2557 154.412 34.5492 155.44 35.1364C156.472 35.7187 157.286 36.5663 157.883 37.679C158.484 38.7917 158.785 40.1411 158.785 41.7273ZM155.667 41.7273C155.667 40.6998 155.513 39.8333 155.205 39.1278C154.902 38.4223 154.474 37.8873 153.92 37.5227C153.366 37.1581 152.717 36.9759 151.974 36.9759C151.231 36.9759 150.582 37.1581 150.028 37.5227C149.474 37.8873 149.043 38.4223 148.735 39.1278C148.432 39.8333 148.281 40.6998 148.281 41.7273C148.281 42.7547 148.432 43.6212 148.735 44.3267C149.043 45.0322 149.474 45.5672 150.028 45.9318C150.582 46.2964 151.231 46.4787 151.974 46.4787C152.717 46.4787 153.366 46.2964 153.92 45.9318C154.474 45.5672 154.902 45.0322 155.205 44.3267C155.513 43.6212 155.667 42.7547 155.667 41.7273ZM161.063 49V34.4545H166.887C167.957 34.4545 168.849 34.6132 169.564 34.9304C170.279 35.2476 170.817 35.688 171.177 36.2514C171.537 36.8101 171.716 37.4541 171.716 38.1832C171.716 38.7514 171.603 39.2509 171.376 39.6818C171.148 40.108 170.836 40.4583 170.438 40.733C170.045 41.0028 169.595 41.1946 169.089 41.3082V41.4503C169.643 41.474 170.161 41.6302 170.644 41.919C171.132 42.2079 171.527 42.6127 171.83 43.1335C172.133 43.6496 172.285 44.2652 172.285 44.9801C172.285 45.7519 172.093 46.4408 171.709 47.0469C171.331 47.6482 170.769 48.1241 170.026 48.4744C169.283 48.8248 168.367 49 167.278 49H161.063ZM164.138 46.4858H166.645C167.502 46.4858 168.127 46.3224 168.52 45.9957C168.913 45.6643 169.11 45.224 169.11 44.6747C169.11 44.2723 169.013 43.9171 168.819 43.6094C168.625 43.3016 168.348 43.0601 167.988 42.8849C167.633 42.7098 167.209 42.6222 166.716 42.6222H164.138V46.4858ZM164.138 40.5412H166.418C166.84 40.5412 167.214 40.4678 167.54 40.321C167.872 40.1695 168.132 39.9564 168.322 39.6818C168.516 39.4072 168.613 39.0781 168.613 38.6946C168.613 38.169 168.426 37.7453 168.052 37.4233C167.682 37.1013 167.157 36.9403 166.475 36.9403H164.138V40.5412ZM176.793 49H173.497L178.519 34.4545H182.482L187.496 49H184.2L180.557 37.7784H180.443L176.793 49ZM176.587 43.2827H184.371V45.6832H176.587V43.2827ZM189.247 49V34.4545H192.322V40.456H198.565V34.4545H201.633V49H198.565V42.9915H192.322V49H189.247ZM204.169 34.4545H207.237V43.6023H207.357L213.643 34.4545H216.335V49H213.259V39.8452H213.153L206.832 49H204.169V34.4545ZM218.876 49V34.4545H228.677V36.9901H221.951V40.456H228.172V42.9915H221.951V46.4645H228.705V49H218.876ZM73.0162 73V58.4545H82.6681V60.9901H76.0914V63.831H78.4565C79.6071 63.831 80.599 64.018 81.4324 64.392C82.2704 64.7614 82.9167 65.2846 83.3713 65.9616C83.8258 66.6387 84.0531 67.4366 84.0531 68.3551C84.0531 69.2689 83.8258 70.0762 83.3713 70.777C82.9167 71.473 82.2704 72.0175 81.4324 72.4105C80.599 72.8035 79.6071 73 78.4565 73H73.0162ZM76.0914 70.5284H78.4565C79.0057 70.5284 79.4698 70.429 79.8485 70.2301C80.2273 70.0265 80.5138 69.759 80.7079 69.4276C80.9068 69.0914 81.0062 68.7244 81.0062 68.3267C81.0062 67.7491 80.786 67.2614 80.3457 66.8636C79.9101 66.4612 79.2804 66.2599 78.4565 66.2599H76.0914V70.5284ZM87.6131 73.1989V70.6989H88.4015C88.7944 70.6989 89.1117 70.6515 89.3532 70.5568C89.5946 70.4574 89.7864 70.313 89.9284 70.1236C90.0752 69.9295 90.1983 69.688 90.2978 69.3991L90.4753 68.9233L85.1912 58.4545H88.373L91.7963 65.6136L94.6586 58.4545H97.7978L92.7836 70.1449C92.5421 70.6847 92.2556 71.1866 91.9242 71.6506C91.5975 72.1146 91.1784 72.4886 90.6671 72.7727C90.1557 73.0568 89.5023 73.1989 88.7069 73.1989H87.6131ZM99.4615 58.4545H103.254L107.26 68.2273H107.43L111.436 58.4545H115.229V73H112.246V63.5327H112.125L108.361 72.929H106.329L102.565 63.4972H102.444V73H99.4615V58.4545ZM120.269 73H116.974L121.995 58.4545H125.958L130.972 73H127.677L124.034 61.7784H123.92L120.269 73ZM120.063 67.2827H127.847V69.6832H120.063V67.2827ZM143.803 58.4545V73H140.82V58.4545H143.803ZM132.034 73L136.594 65.3295L132.226 58.4545H136.012L139.279 64.4418H145.422L148.604 58.4545H152.375L148.114 65.3082L152.588 73H148.916L145.841 67.2827H138.831L135.678 73H132.034ZM154.422 73V58.4545H157.498V64.456H163.741V58.4545H166.809V73H163.741V66.9915H157.498V73H154.422ZM171.368 63.831H174.834C175.99 63.831 176.984 64.018 177.817 64.392C178.655 64.7614 179.302 65.2846 179.756 65.9616C180.211 66.6387 180.436 67.4366 180.431 68.3551C180.436 69.2689 180.211 70.0762 179.756 70.777C179.302 71.473 178.655 72.0175 177.817 72.4105C176.984 72.8035 175.99 73 174.834 73H169.401V58.4545H172.469V70.5284H174.834C175.388 70.5284 175.855 70.429 176.233 70.2301C176.612 70.0265 176.899 69.759 177.093 69.4276C177.292 69.0914 177.389 68.7244 177.384 68.3267C177.389 67.7491 177.171 67.2614 176.731 66.8636C176.295 66.4612 175.663 66.2599 174.834 66.2599H171.368V63.831ZM184.685 58.4545V73H181.617V58.4545H184.685ZM190.099 58.4545L193.032 63.4119H193.146L196.093 58.4545H199.566L195.127 65.7273L199.666 73H196.129L193.146 68.0355H193.032L190.049 73H186.526L191.079 65.7273L186.612 58.4545H190.099ZM73.524 97V82.4545H76.5993V88.456H82.8422V82.4545H85.9103V97H82.8422V90.9915H76.5993V97H73.524ZM101.812 89.7273C101.812 91.3134 101.512 92.6629 100.91 93.7756C100.314 94.8883 99.4993 95.7382 98.4672 96.3253C97.4397 96.9077 96.2844 97.1989 95.0012 97.1989C93.7086 97.1989 92.5486 96.9053 91.5211 96.3182C90.4937 95.7311 89.6816 94.8812 89.085 93.7685C88.4885 92.6558 88.1902 91.3087 88.1902 89.7273C88.1902 88.1411 88.4885 86.7917 89.085 85.679C89.6816 84.5663 90.4937 83.7187 91.5211 83.1364C92.5486 82.5492 93.7086 82.2557 95.0012 82.2557C96.2844 82.2557 97.4397 82.5492 98.4672 83.1364C99.4993 83.7187 100.314 84.5663 100.91 85.679C101.512 86.7917 101.812 88.1411 101.812 89.7273ZM98.6944 89.7273C98.6944 88.6998 98.5405 87.8333 98.2328 87.1278C97.9297 86.4223 97.5012 85.8873 96.9473 85.5227C96.3933 85.1581 95.7446 84.9759 95.0012 84.9759C94.2579 84.9759 93.6092 85.1581 93.0552 85.5227C92.5012 85.8873 92.0704 86.4223 91.7626 87.1278C91.4596 87.8333 91.3081 88.6998 91.3081 89.7273C91.3081 90.7547 91.4596 91.6212 91.7626 92.3267C92.0704 93.0322 92.5012 93.5672 93.0552 93.9318C93.6092 94.2964 94.2579 94.4787 95.0012 94.4787C95.7446 94.4787 96.3933 94.2964 96.9473 93.9318C97.5012 93.5672 97.9297 93.0322 98.2328 92.3267C98.5405 91.6212 98.6944 90.7547 98.6944 89.7273ZM116.924 87.5469H113.813C113.757 87.1444 113.641 86.7869 113.465 86.4744C113.29 86.1572 113.065 85.8873 112.791 85.6648C112.516 85.4422 112.199 85.2718 111.839 85.1534C111.484 85.035 111.098 84.9759 110.681 84.9759C109.928 84.9759 109.273 85.1629 108.714 85.5369C108.155 85.9062 107.722 86.446 107.414 87.1562C107.106 87.8617 106.953 88.7187 106.953 89.7273C106.953 90.7642 107.106 91.6354 107.414 92.3409C107.727 93.0464 108.162 93.5791 108.721 93.9389C109.28 94.2988 109.926 94.4787 110.66 94.4787C111.072 94.4787 111.453 94.4242 111.803 94.3153C112.159 94.2064 112.473 94.0478 112.748 93.8395C113.023 93.6264 113.25 93.3684 113.43 93.0653C113.615 92.7623 113.742 92.4167 113.813 92.0284L116.924 92.0426C116.844 92.7102 116.642 93.3542 116.32 93.9744C116.003 94.59 115.575 95.1416 115.035 95.6293C114.5 96.1122 113.861 96.4957 113.117 96.7798C112.379 97.0592 111.543 97.1989 110.61 97.1989C109.313 97.1989 108.153 96.9053 107.13 96.3182C106.112 95.7311 105.307 94.8812 104.715 93.7685C104.128 92.6558 103.835 91.3087 103.835 89.7273C103.835 88.1411 104.133 86.7917 104.73 85.679C105.326 84.5663 106.136 83.7187 107.159 83.1364C108.181 82.5492 109.332 82.2557 110.61 82.2557C111.453 82.2557 112.234 82.3741 112.954 82.6108C113.678 82.8475 114.32 83.1932 114.879 83.6477C115.437 84.0975 115.892 84.6491 116.242 85.3026C116.597 85.956 116.825 86.7041 116.924 87.5469ZM119.129 82.4545H122.198V91.6023H122.318L128.604 82.4545H131.296V97H128.22V87.8452H128.114L121.793 97H119.129V82.4545ZM133.282 84.9901V82.4545H145.229V84.9901H140.775V97H137.736V84.9901H133.282ZM147.196 97V82.4545H156.997V84.9901H150.271V88.456H156.493V90.9915H150.271V94.4645H157.025V97H147.196ZM158.654 97V94.5284L159.066 94.4929C159.596 94.4503 160.024 94.2491 160.351 93.8892C160.678 93.5246 160.922 92.9446 161.083 92.1491C161.248 91.349 161.355 90.2741 161.402 88.9247L161.644 82.4545H171.516V97H168.526V84.919H164.499L164.271 89.983C164.196 91.6117 164.002 92.9422 163.689 93.9744C163.381 95.0066 162.889 95.7689 162.212 96.2614C161.539 96.7538 160.619 97 159.449 97H158.654ZM174.051 97V82.4545H183.852V84.9901H177.127V88.456H183.348V90.9915H177.127V94.4645H183.881V97H174.051ZM186.297 82.4545H189.366V91.6023H189.486L195.772 82.4545H198.464V97H195.388V87.8452H195.282L188.961 97H186.297V82.4545ZM193.797 78.6477H195.907C195.902 79.5095 195.582 80.2031 194.948 80.7287C194.318 81.2543 193.466 81.517 192.391 81.517C191.312 81.517 190.457 81.2543 189.827 80.7287C189.198 80.2031 188.883 79.5095 188.883 78.6477H190.978C190.973 78.9744 191.077 79.268 191.29 79.5284C191.508 79.7888 191.875 79.919 192.391 79.919C192.893 79.919 193.253 79.7912 193.471 79.5355C193.689 79.2798 193.797 78.9839 193.797 78.6477Z" fill="black"/>
</svg>
