<svg width="759" height="411" viewBox="0 0 759 411" fill="none" xmlns="http://www.w3.org/2000/svg">
<rect x="60.1318" width="155.99" height="89.7716" rx="20" fill="#6819D0"/>
<rect x="42.559" y="251.806" width="158.886" height="42.5588" rx="15" fill="#6819D0"/>
<rect x="263.282" y="142.873" width="155.99" height="42.2808" rx="15" fill="white"/>
<rect y="367.424" width="42.5588" height="37.5936" rx="10" fill="#6819D0"/>
<rect x="68.0944" y="367.424" width="42.5588" height="37.5936" rx="10" fill="#6819D0"/>
<rect x="224.143" y="367.424" width="42.5588" height="37.5936" rx="10" fill="#6819D0"/>
<rect x="492.264" y="372.731" width="42.3985" height="37.4716" rx="10" fill="#FFA31A"/>
<rect x="560.282" y="372.731" width="42.3985" height="37.4716" rx="10" fill="#FFA31A"/>
<rect x="716.499" y="372.731" width="42.3985" height="37.4716" rx="10" fill="#FFA31A"/>
<path d="M218 47.1781L216 47.1781L216 43.1781L218 43.1781L218 47.1781ZM341.277 142.873L329.563 122.97L352.657 122.777L341.277 142.873ZM242.907 45.1781L242.913 47.1781L242.907 47.1781L242.907 45.1781ZM320.566 44.9454L320.572 46.9454L320.566 44.9454ZM218 43.1781L242.907 43.1781L242.907 47.1781L218 47.1781L218 43.1781ZM242.901 43.1781L320.56 42.9454L320.572 46.9454L242.913 47.1781L242.901 43.1781ZM342.625 64.7615L343.127 124.857L339.127 124.89L338.625 64.795L342.625 64.7615ZM320.56 42.9454C332.664 42.9091 342.524 52.6577 342.625 64.7615L338.625 64.795C338.542 54.8918 330.475 46.9157 320.572 46.9454L320.56 42.9454Z" fill="white"/>
<path d="M122.996 250L122.996 252L118.996 252L118.996 250L122.996 250ZM258.9 163.851L238.948 175.481L238.852 152.388L258.9 163.851ZM120.996 232.982L122.996 232.97L122.996 232.982L120.996 232.982ZM120.704 184.463L122.704 184.451L120.704 184.463ZM140.621 164.343L140.612 162.343L140.621 164.343ZM118.996 250L118.996 232.982L122.996 232.982L122.996 250L118.996 250ZM118.996 232.994L118.704 184.475L122.704 184.451L122.996 232.97L118.996 232.994ZM140.612 162.343L240.892 161.926L240.908 165.926L140.629 166.343L140.612 162.343ZM118.704 184.475C118.631 172.309 128.446 162.394 140.612 162.343L140.629 166.343C130.675 166.384 122.644 174.497 122.704 184.451L118.704 184.475Z" fill="white"/>
<rect x="523.474" y="114.199" width="189.387" height="99.3039" rx="20" fill="#FFA31A"/>
<rect x="513" y="257" width="209" height="42" rx="15" fill="#FFA31A"/>
<path d="M420.623 163.851L440.623 175.398L440.623 152.304L420.623 163.851ZM522.055 165.851C523.159 165.851 524.055 164.956 524.055 163.851C524.055 162.747 523.159 161.851 522.055 161.851L522.055 165.851ZM438.623 165.851L522.055 165.851L522.055 161.851L438.623 161.851L438.623 165.851Z" fill="white"/>
<path d="M622.068 213.503L610.521 233.503L633.615 233.503L622.068 213.503ZM624.068 256.786L624.068 231.503L620.068 231.503L620.068 256.786L624.068 256.786Z" fill="white"/>
<path d="M511.123 371V373H515.123V371H511.123ZM617.418 299.391L605.871 319.391H628.965L617.418 299.391ZM515.123 371V369.486H511.123V371H515.123ZM533.123 351.486H597.418V347.486H533.123V351.486ZM619.418 329.486V317.391H615.418V329.486H619.418ZM597.418 351.486C609.569 351.486 619.418 341.637 619.418 329.486H615.418C615.418 339.428 607.36 347.486 597.418 347.486V351.486ZM515.123 369.486C515.123 359.545 523.181 351.486 533.123 351.486V347.486C520.972 347.486 511.123 357.336 511.123 369.486H515.123Z" fill="white"/>
<path d="M617.418 299.391L605.871 319.391L628.965 319.391L617.418 299.391ZM579.708 367.442L579.708 372.731L583.708 372.731L583.708 367.442L579.708 367.442ZM615.418 317.391L615.418 331.631L619.418 331.631L619.418 317.391L615.418 317.391ZM615.418 331.631C615.418 340.398 608.324 347.512 599.558 347.537L599.569 351.537C610.54 351.506 619.418 342.603 619.418 331.631L615.418 331.631ZM583.708 367.442C583.708 358.675 590.802 351.561 599.569 351.537L599.558 347.537C588.586 347.567 579.708 356.47 579.708 367.442L583.708 367.442Z" fill="white"/>
<path d="M617.418 299.391L605.871 319.391H628.965L617.418 299.391ZM739.812 372.731V369.486H735.812V372.731H739.812ZM717.812 347.486H637.418V351.486H717.812V347.486ZM619.418 329.486V317.391H615.418V329.486H619.418ZM637.418 347.486C627.477 347.486 619.418 339.428 619.418 329.486H615.418C615.418 341.637 625.268 351.486 637.418 351.486V347.486ZM739.812 369.486C739.812 357.336 729.962 347.486 717.812 347.486V351.486C727.753 351.486 735.812 359.545 735.812 369.486H739.812Z" fill="white"/>
<path d="M18.5702 365.5V367.5H22.5702V365.5H18.5702ZM124.839 294.365L113.292 314.365H136.386L124.839 294.365ZM22.5702 365.5V364.269H18.5702V365.5H22.5702ZM40.5702 346.269H104.839V342.269H40.5702V346.269ZM126.839 324.269V312.365H122.839V324.269H126.839ZM104.839 346.269C116.99 346.269 126.839 336.419 126.839 324.269H122.839C122.839 334.21 114.78 342.269 104.839 342.269V346.269ZM22.5702 364.269C22.5702 354.328 30.6291 346.269 40.5702 346.269V342.269C28.4199 342.269 18.5702 352.119 18.5702 364.269H22.5702Z" fill="white"/>
<path d="M124.839 294.365L113.292 314.365L136.386 314.365L124.839 294.365ZM87.3737 362.102L87.3737 367.424L91.3737 367.424L91.3737 362.102L87.3737 362.102ZM122.839 312.365L122.839 326.536L126.839 326.536L126.839 312.365L122.839 312.365ZM122.839 326.536C122.839 335.235 115.8 342.294 107.101 342.319L107.112 346.319C118.016 346.288 126.839 337.44 126.839 326.536L122.839 326.536ZM91.3737 362.102C91.3737 353.402 98.4129 346.343 107.112 346.319L107.101 342.319C96.1969 342.349 87.3737 351.198 87.3737 362.102L91.3737 362.102Z" fill="white"/>
<path d="M124.839 294.365L113.292 314.365H136.386L124.839 294.365ZM247.423 367.424V364.269H243.423V367.424H247.423ZM225.423 342.269H144.839V346.269H225.423V342.269ZM126.839 324.269V312.365H122.839V324.269H126.839ZM144.839 342.269C134.898 342.269 126.839 334.21 126.839 324.269H122.839C122.839 336.419 132.689 346.269 144.839 346.269V342.269ZM247.423 364.269C247.423 352.119 237.573 342.269 225.423 342.269V346.269C235.364 346.269 243.423 354.328 243.423 364.269H247.423Z" fill="white"/>
<path d="M76.5299 38V25.4H86.6999V27.722H79.4279V30.314H82.9199C84.4439 30.314 85.6019 30.632 86.3939 31.268C87.1979 31.904 87.5999 32.828 87.5999 34.04C87.5999 35.288 87.1559 36.26 86.2679 36.956C85.3799 37.652 84.1259 38 82.5059 38H76.5299ZM79.4279 35.84H82.3439C83.0879 35.84 83.6579 35.696 84.0539 35.408C84.4499 35.108 84.6479 34.676 84.6479 34.112C84.6479 33.008 83.8799 32.456 82.3439 32.456H79.4279V35.84ZM95.3989 38V36.11L95.2189 35.696V32.312C95.2189 31.712 95.0329 31.244 94.6609 30.908C94.3009 30.572 93.7429 30.404 92.9869 30.404C92.4709 30.404 91.9609 30.488 91.4569 30.656C90.9649 30.812 90.5449 31.028 90.1969 31.304L89.1889 29.342C89.7169 28.97 90.3529 28.682 91.0969 28.478C91.8409 28.274 92.5969 28.172 93.3649 28.172C94.8409 28.172 95.9869 28.52 96.8029 29.216C97.6189 29.912 98.0269 30.998 98.0269 32.474V38H95.3989ZM92.4469 38.144C91.6909 38.144 91.0429 38.018 90.5029 37.766C89.9629 37.502 89.5489 37.148 89.2609 36.704C88.9729 36.26 88.8289 35.762 88.8289 35.21C88.8289 34.634 88.9669 34.13 89.2429 33.698C89.5309 33.266 89.9809 32.93 90.5929 32.69C91.2049 32.438 92.0029 32.312 92.9869 32.312H95.5609V33.95H93.2929C92.6329 33.95 92.1769 34.058 91.9249 34.274C91.6849 34.49 91.5649 34.76 91.5649 35.084C91.5649 35.444 91.7029 35.732 91.9789 35.948C92.2669 36.152 92.6569 36.254 93.1489 36.254C93.6169 36.254 94.0369 36.146 94.4089 35.93C94.7809 35.702 95.0509 35.372 95.2189 34.94L95.6509 36.236C95.4469 36.86 95.0749 37.334 94.5349 37.658C93.9949 37.982 93.2989 38.144 92.4469 38.144ZM103.654 38.18C102.91 38.18 102.166 38.102 101.422 37.946C100.69 37.79 100.012 37.556 99.3883 37.244L100.144 35.282C100.636 35.522 101.17 35.708 101.746 35.84C102.334 35.96 102.928 36.02 103.528 36.02C103.96 36.02 104.332 35.978 104.644 35.894C104.968 35.798 105.214 35.666 105.382 35.498C105.55 35.33 105.634 35.126 105.634 34.886C105.634 34.574 105.502 34.34 105.238 34.184C104.974 34.016 104.59 33.932 104.086 33.932H102.106V32.186H103.852C104.176 32.186 104.452 32.15 104.68 32.078C104.908 32.006 105.076 31.904 105.184 31.772C105.304 31.628 105.364 31.46 105.364 31.268C105.364 31.064 105.292 30.89 105.148 30.746C105.004 30.602 104.794 30.494 104.518 30.422C104.242 30.338 103.894 30.296 103.474 30.296C102.994 30.296 102.496 30.356 101.98 30.476C101.464 30.584 100.936 30.746 100.396 30.962L99.7123 29.018C100.348 28.754 100.978 28.544 101.602 28.388C102.226 28.232 102.844 28.148 103.456 28.136C104.356 28.112 105.166 28.208 105.886 28.424C106.606 28.64 107.17 28.952 107.578 29.36C107.998 29.768 108.208 30.266 108.208 30.854C108.208 31.322 108.064 31.742 107.776 32.114C107.5 32.486 107.116 32.78 106.624 32.996C106.132 33.2 105.58 33.302 104.968 33.302L105.04 32.744C106.108 32.744 106.948 32.96 107.56 33.392C108.172 33.812 108.478 34.388 108.478 35.12C108.478 35.744 108.262 36.29 107.83 36.758C107.41 37.214 106.834 37.568 106.102 37.82C105.382 38.06 104.566 38.18 103.654 38.18ZM116.282 38V36.11L116.102 35.696V32.312C116.102 31.712 115.916 31.244 115.544 30.908C115.184 30.572 114.626 30.404 113.87 30.404C113.354 30.404 112.844 30.488 112.34 30.656C111.848 30.812 111.428 31.028 111.08 31.304L110.072 29.342C110.6 28.97 111.236 28.682 111.98 28.478C112.724 28.274 113.48 28.172 114.248 28.172C115.724 28.172 116.87 28.52 117.686 29.216C118.502 29.912 118.91 30.998 118.91 32.474V38H116.282ZM113.33 38.144C112.574 38.144 111.926 38.018 111.386 37.766C110.846 37.502 110.432 37.148 110.144 36.704C109.856 36.26 109.712 35.762 109.712 35.21C109.712 34.634 109.85 34.13 110.126 33.698C110.414 33.266 110.864 32.93 111.476 32.69C112.088 32.438 112.886 32.312 113.87 32.312H116.444V33.95H114.176C113.516 33.95 113.06 34.058 112.808 34.274C112.568 34.49 112.448 34.76 112.448 35.084C112.448 35.444 112.586 35.732 112.862 35.948C113.15 36.152 113.54 36.254 114.032 36.254C114.5 36.254 114.92 36.146 115.292 35.93C115.664 35.702 115.934 35.372 116.102 34.94L116.534 36.236C116.33 36.86 115.958 37.334 115.418 37.658C114.878 37.982 114.182 38.144 113.33 38.144ZM135.015 36.704V27.776H130.695L130.641 29.612C130.605 30.392 130.551 31.13 130.479 31.826C130.419 32.522 130.323 33.158 130.191 33.734C130.059 34.298 129.885 34.778 129.669 35.174C129.465 35.57 129.207 35.852 128.895 36.02L125.781 35.624C126.213 35.636 126.567 35.486 126.843 35.174C127.131 34.862 127.359 34.424 127.527 33.86C127.695 33.284 127.815 32.612 127.887 31.844C127.971 31.076 128.031 30.242 128.067 29.342L128.211 25.4H137.895V36.704H135.015ZM125.367 40.61L125.385 35.624H139.659V40.61H136.959V38H128.067V40.61H125.367ZM147.202 38V36.11L147.022 35.696V32.312C147.022 31.712 146.836 31.244 146.464 30.908C146.104 30.572 145.546 30.404 144.79 30.404C144.274 30.404 143.764 30.488 143.26 30.656C142.768 30.812 142.348 31.028 142 31.304L140.992 29.342C141.52 28.97 142.156 28.682 142.9 28.478C143.644 28.274 144.4 28.172 145.168 28.172C146.644 28.172 147.79 28.52 148.606 29.216C149.422 29.912 149.83 30.998 149.83 32.474V38H147.202ZM144.25 38.144C143.494 38.144 142.846 38.018 142.306 37.766C141.766 37.502 141.352 37.148 141.064 36.704C140.776 36.26 140.632 35.762 140.632 35.21C140.632 34.634 140.77 34.13 141.046 33.698C141.334 33.266 141.784 32.93 142.396 32.69C143.008 32.438 143.806 32.312 144.79 32.312H147.364V33.95H145.096C144.436 33.95 143.98 34.058 143.728 34.274C143.488 34.49 143.368 34.76 143.368 35.084C143.368 35.444 143.506 35.732 143.782 35.948C144.07 36.152 144.46 36.254 144.952 36.254C145.42 36.254 145.84 36.146 146.212 35.93C146.584 35.702 146.854 35.372 147.022 34.94L147.454 36.236C147.25 36.86 146.878 37.334 146.338 37.658C145.798 37.982 145.102 38.144 144.25 38.144ZM152.269 38V28.316H155.059V32.096H159.271V28.316H162.079V38H159.271V34.382H155.059V38H152.269ZM164.767 38V28.316H167.557V32.096H171.769V28.316H174.577V38H171.769V34.382H167.557V38H164.767ZM187.237 38V28.316H190.027V38H187.237ZM182.359 31.412C183.631 31.424 184.585 31.712 185.221 32.276C185.869 32.828 186.193 33.614 186.193 34.634C186.193 35.702 185.827 36.536 185.095 37.136C184.363 37.724 183.325 38.018 181.981 38.018L177.265 38V28.316H180.055V31.412H182.359ZM181.729 36.02C182.269 36.032 182.683 35.918 182.971 35.678C183.259 35.438 183.403 35.078 183.403 34.598C183.403 34.118 183.259 33.776 182.971 33.572C182.683 33.356 182.269 33.242 181.729 33.23L180.055 33.212V36.02H181.729ZM191.438 38L195.776 32.312L195.722 33.86L191.564 28.316H194.714L197.342 31.934L196.154 31.97L198.872 28.316H201.86L197.684 33.806V32.294L202.004 38H198.818L196.064 34.148L197.234 34.31L194.498 38H191.438ZM106.207 64.128L97.6394 60.87V58.53L106.207 55.272V57.522L98.4854 60.33V59.07L106.207 61.878V64.128ZM114.319 66.144C113.503 66.144 112.789 65.964 112.177 65.604C111.565 65.244 111.085 64.698 110.737 63.966C110.401 63.222 110.233 62.286 110.233 61.158C110.233 60.018 110.395 59.082 110.719 58.35C111.043 57.618 111.511 57.072 112.123 56.712C112.735 56.352 113.467 56.172 114.319 56.172C115.231 56.172 116.047 56.382 116.767 56.802C117.499 57.21 118.075 57.786 118.495 58.53C118.927 59.274 119.143 60.15 119.143 61.158C119.143 62.178 118.927 63.06 118.495 63.804C118.075 64.548 117.499 65.124 116.767 65.532C116.047 65.94 115.231 66.144 114.319 66.144ZM108.595 69.492V56.316H111.277V58.296L111.223 61.176L111.403 64.038V69.492H108.595ZM113.833 63.84C114.301 63.84 114.715 63.732 115.075 63.516C115.447 63.3 115.741 62.994 115.957 62.598C116.185 62.19 116.299 61.71 116.299 61.158C116.299 60.594 116.185 60.114 115.957 59.718C115.741 59.322 115.447 59.016 115.075 58.8C114.715 58.584 114.301 58.476 113.833 58.476C113.365 58.476 112.945 58.584 112.573 58.8C112.201 59.016 111.907 59.322 111.691 59.718C111.475 60.114 111.367 60.594 111.367 61.158C111.367 61.71 111.475 62.19 111.691 62.598C111.907 62.994 112.201 63.3 112.573 63.516C112.945 63.732 113.365 63.84 113.833 63.84ZM125.577 69.636C124.665 69.636 123.783 69.522 122.931 69.294C122.091 69.078 121.389 68.748 120.825 68.304L121.941 66.288C122.349 66.624 122.865 66.888 123.489 67.08C124.125 67.284 124.749 67.386 125.361 67.386C126.357 67.386 127.077 67.164 127.521 66.72C127.977 66.276 128.205 65.616 128.205 64.74V63.282L128.385 60.852L128.349 58.404V56.316H131.013V64.38C131.013 66.18 130.545 67.506 129.609 68.358C128.673 69.21 127.329 69.636 125.577 69.636ZM125.145 65.532C124.245 65.532 123.429 65.34 122.697 64.956C121.977 64.56 121.395 64.014 120.951 63.318C120.519 62.61 120.303 61.788 120.303 60.852C120.303 59.904 120.519 59.082 120.951 58.386C121.395 57.678 121.977 57.132 122.697 56.748C123.429 56.364 124.245 56.172 125.145 56.172C125.961 56.172 126.681 56.34 127.305 56.676C127.929 57 128.415 57.51 128.763 58.206C129.111 58.89 129.285 59.772 129.285 60.852C129.285 61.92 129.111 62.802 128.763 63.498C128.415 64.182 127.929 64.692 127.305 65.028C126.681 65.364 125.961 65.532 125.145 65.532ZM125.703 63.228C126.195 63.228 126.633 63.132 127.017 62.94C127.401 62.736 127.701 62.454 127.917 62.094C128.133 61.734 128.241 61.32 128.241 60.852C128.241 60.372 128.133 59.958 127.917 59.61C127.701 59.25 127.401 58.974 127.017 58.782C126.633 58.578 126.195 58.476 125.703 58.476C125.211 58.476 124.773 58.578 124.389 58.782C124.005 58.974 123.699 59.25 123.471 59.61C123.255 59.958 123.147 60.372 123.147 60.852C123.147 61.32 123.255 61.734 123.471 62.094C123.699 62.454 124.005 62.736 124.389 62.94C124.773 63.132 125.211 63.228 125.703 63.228ZM137.806 66.216C136.798 66.216 135.832 66.084 134.908 65.82C133.984 65.544 133.24 65.19 132.676 64.758L133.666 62.562C134.206 62.946 134.842 63.264 135.574 63.516C136.318 63.756 137.068 63.876 137.824 63.876C138.4 63.876 138.862 63.822 139.21 63.714C139.57 63.594 139.834 63.432 140.002 63.228C140.17 63.024 140.254 62.79 140.254 62.526C140.254 62.19 140.122 61.926 139.858 61.734C139.594 61.53 139.246 61.368 138.814 61.248C138.382 61.116 137.902 60.996 137.374 60.888C136.858 60.768 136.336 60.624 135.808 60.456C135.292 60.288 134.818 60.072 134.386 59.808C133.954 59.544 133.6 59.196 133.324 58.764C133.06 58.332 132.928 57.78 132.928 57.108C132.928 56.388 133.12 55.734 133.504 55.146C133.9 54.546 134.488 54.072 135.268 53.724C136.06 53.364 137.05 53.184 138.238 53.184C139.03 53.184 139.81 53.28 140.578 53.472C141.346 53.652 142.024 53.928 142.612 54.3L141.712 56.514C141.124 56.178 140.536 55.932 139.948 55.776C139.36 55.608 138.784 55.524 138.22 55.524C137.656 55.524 137.194 55.59 136.834 55.722C136.474 55.854 136.216 56.028 136.06 56.244C135.904 56.448 135.826 56.688 135.826 56.964C135.826 57.288 135.958 57.552 136.222 57.756C136.486 57.948 136.834 58.104 137.266 58.224C137.698 58.344 138.172 58.464 138.688 58.584C139.216 58.704 139.738 58.842 140.254 58.998C140.782 59.154 141.262 59.364 141.694 59.628C142.126 59.892 142.474 60.24 142.738 60.672C143.014 61.104 143.152 61.65 143.152 62.31C143.152 63.018 142.954 63.666 142.558 64.254C142.162 64.842 141.568 65.316 140.776 65.676C139.996 66.036 139.006 66.216 137.806 66.216ZM151.246 66.216C150.262 66.216 149.344 66.054 148.492 65.73C147.652 65.406 146.92 64.95 146.296 64.362C145.684 63.774 145.204 63.084 144.856 62.292C144.52 61.5 144.352 60.636 144.352 59.7C144.352 58.764 144.52 57.9 144.856 57.108C145.204 56.316 145.69 55.626 146.314 55.038C146.938 54.45 147.67 53.994 148.51 53.67C149.35 53.346 150.262 53.184 151.246 53.184C152.242 53.184 153.154 53.346 153.982 53.67C154.822 53.994 155.548 54.45 156.16 55.038C156.784 55.614 157.27 56.298 157.618 57.09C157.966 57.882 158.14 58.752 158.14 59.7C158.14 60.636 157.966 61.506 157.618 62.31C157.27 63.102 156.784 63.792 156.16 64.38C155.548 64.956 154.822 65.406 153.982 65.73C153.154 66.054 152.242 66.216 151.246 66.216ZM155.368 68.898C154.876 68.898 154.408 68.844 153.964 68.736C153.532 68.628 153.1 68.454 152.668 68.214C152.248 67.974 151.804 67.65 151.336 67.242C150.88 66.834 150.382 66.33 149.842 65.73L152.902 64.956C153.226 65.4 153.526 65.754 153.802 66.018C154.078 66.282 154.342 66.468 154.594 66.576C154.858 66.684 155.134 66.738 155.422 66.738C156.19 66.738 156.874 66.426 157.474 65.802L158.77 67.35C157.918 68.382 156.784 68.898 155.368 68.898ZM151.246 63.732C151.81 63.732 152.326 63.636 152.794 63.444C153.274 63.252 153.694 62.976 154.054 62.616C154.414 62.256 154.69 61.83 154.882 61.338C155.086 60.834 155.188 60.288 155.188 59.7C155.188 59.1 155.086 58.554 154.882 58.062C154.69 57.57 154.414 57.144 154.054 56.784C153.694 56.424 153.274 56.148 152.794 55.956C152.326 55.764 151.81 55.668 151.246 55.668C150.682 55.668 150.16 55.764 149.68 55.956C149.2 56.148 148.78 56.424 148.42 56.784C148.072 57.144 147.796 57.57 147.592 58.062C147.4 58.554 147.304 59.1 147.304 59.7C147.304 60.288 147.4 60.834 147.592 61.338C147.796 61.83 148.072 62.256 148.42 62.616C148.78 62.976 149.2 63.252 149.68 63.444C150.16 63.636 150.682 63.732 151.246 63.732ZM160.332 66V53.4H163.248V63.624H169.566V66H160.332ZM170.817 64.128V61.878L178.539 59.07V60.33L170.817 57.522V55.272L179.385 58.53V60.87L170.817 64.128Z" fill="white"/>
<path d="M71.3323 279L67.4083 272.934L69.7663 271.512L74.6443 279H71.3323ZM63.1423 279V266.4H66.0403V279H63.1423ZM65.1943 273.924V271.494H69.5863V273.924H65.1943ZM70.0363 273.024L67.3543 272.7L71.4403 266.4H74.5183L70.0363 273.024ZM80.1897 279.144C79.1577 279.144 78.2397 278.928 77.4357 278.496C76.6437 278.064 76.0137 277.476 75.5457 276.732C75.0897 275.976 74.8617 275.118 74.8617 274.158C74.8617 273.186 75.0897 272.328 75.5457 271.584C76.0137 270.828 76.6437 270.24 77.4357 269.82C78.2397 269.388 79.1577 269.172 80.1897 269.172C81.2097 269.172 82.1217 269.388 82.9257 269.82C83.7297 270.24 84.3597 270.822 84.8157 271.566C85.2717 272.31 85.4997 273.174 85.4997 274.158C85.4997 275.118 85.2717 275.976 84.8157 276.732C84.3597 277.476 83.7297 278.064 82.9257 278.496C82.1217 278.928 81.2097 279.144 80.1897 279.144ZM80.1897 276.84C80.6577 276.84 81.0777 276.732 81.4497 276.516C81.8217 276.3 82.1157 275.994 82.3317 275.598C82.5477 275.19 82.6557 274.71 82.6557 274.158C82.6557 273.594 82.5477 273.114 82.3317 272.718C82.1157 272.322 81.8217 272.016 81.4497 271.8C81.0777 271.584 80.6577 271.476 80.1897 271.476C79.7217 271.476 79.3017 271.584 78.9297 271.8C78.5577 272.016 78.2577 272.322 78.0297 272.718C77.8137 273.114 77.7057 273.594 77.7057 274.158C77.7057 274.71 77.8137 275.19 78.0297 275.598C78.2577 275.994 78.5577 276.3 78.9297 276.516C79.3017 276.732 79.7217 276.84 80.1897 276.84ZM87.4311 279V269.316H90.2211V273.096H94.4331V269.316H97.2411V279H94.4331V275.382H90.2211V279H87.4311ZM101.999 279V270.972L102.629 271.62H98.7231V269.316H108.065V271.62H104.159L104.789 270.972V279H101.999ZM115.268 279.144C114.452 279.144 113.738 278.964 113.126 278.604C112.514 278.244 112.034 277.698 111.686 276.966C111.35 276.222 111.182 275.286 111.182 274.158C111.182 273.018 111.344 272.082 111.668 271.35C111.992 270.618 112.46 270.072 113.072 269.712C113.684 269.352 114.416 269.172 115.268 269.172C116.18 269.172 116.996 269.382 117.716 269.802C118.448 270.21 119.024 270.786 119.444 271.53C119.876 272.274 120.092 273.15 120.092 274.158C120.092 275.178 119.876 276.06 119.444 276.804C119.024 277.548 118.448 278.124 117.716 278.532C116.996 278.94 116.18 279.144 115.268 279.144ZM109.544 282.492V269.316H112.226V271.296L112.172 274.176L112.352 277.038V282.492H109.544ZM114.782 276.84C115.25 276.84 115.664 276.732 116.024 276.516C116.396 276.3 116.69 275.994 116.906 275.598C117.134 275.19 117.248 274.71 117.248 274.158C117.248 273.594 117.134 273.114 116.906 272.718C116.69 272.322 116.396 272.016 116.024 271.8C115.664 271.584 115.25 271.476 114.782 271.476C114.314 271.476 113.894 271.584 113.522 271.8C113.15 272.016 112.856 272.322 112.64 272.718C112.424 273.114 112.316 273.594 112.316 274.158C112.316 274.71 112.424 275.19 112.64 275.598C112.856 275.994 113.15 276.3 113.522 276.516C113.894 276.732 114.314 276.84 114.782 276.84ZM126.596 279.144C125.564 279.144 124.646 278.928 123.842 278.496C123.05 278.064 122.42 277.476 121.952 276.732C121.496 275.976 121.268 275.118 121.268 274.158C121.268 273.186 121.496 272.328 121.952 271.584C122.42 270.828 123.05 270.24 123.842 269.82C124.646 269.388 125.564 269.172 126.596 269.172C127.616 269.172 128.528 269.388 129.332 269.82C130.136 270.24 130.766 270.822 131.222 271.566C131.678 272.31 131.906 273.174 131.906 274.158C131.906 275.118 131.678 275.976 131.222 276.732C130.766 277.476 130.136 278.064 129.332 278.496C128.528 278.928 127.616 279.144 126.596 279.144ZM126.596 276.84C127.064 276.84 127.484 276.732 127.856 276.516C128.228 276.3 128.522 275.994 128.738 275.598C128.954 275.19 129.062 274.71 129.062 274.158C129.062 273.594 128.954 273.114 128.738 272.718C128.522 272.322 128.228 272.016 127.856 271.8C127.484 271.584 127.064 271.476 126.596 271.476C126.128 271.476 125.708 271.584 125.336 271.8C124.964 272.016 124.664 272.322 124.436 272.718C124.22 273.114 124.112 273.594 124.112 274.158C124.112 274.71 124.22 275.19 124.436 275.598C124.664 275.994 124.964 276.3 125.336 276.516C125.708 276.732 126.128 276.84 126.596 276.84ZM132.473 278.982L132.617 276.678C132.689 276.69 132.761 276.702 132.833 276.714C132.905 276.714 132.971 276.714 133.031 276.714C133.367 276.714 133.631 276.618 133.823 276.426C134.015 276.234 134.159 275.976 134.255 275.652C134.351 275.316 134.417 274.938 134.453 274.518C134.501 274.098 134.537 273.66 134.561 273.204L134.705 269.316H142.985V279H140.177V270.936L140.807 271.62H136.559L137.153 270.9L137.027 273.33C136.991 274.194 136.919 274.986 136.811 275.706C136.715 276.426 136.553 277.05 136.325 277.578C136.097 278.094 135.791 278.496 135.407 278.784C135.023 279.06 134.531 279.198 133.931 279.198C133.715 279.198 133.487 279.18 133.247 279.144C133.007 279.108 132.749 279.054 132.473 278.982ZM144.461 278.982L144.605 276.678C144.677 276.69 144.749 276.702 144.821 276.714C144.893 276.714 144.959 276.714 145.019 276.714C145.355 276.714 145.619 276.618 145.811 276.426C146.003 276.234 146.147 275.976 146.243 275.652C146.339 275.316 146.405 274.938 146.441 274.518C146.489 274.098 146.525 273.66 146.549 273.204L146.693 269.316H154.973V279H152.165V270.936L152.795 271.62H148.547L149.141 270.9L149.015 273.33C148.979 274.194 148.907 274.986 148.799 275.706C148.703 276.426 148.541 277.05 148.313 277.578C148.085 278.094 147.779 278.496 147.395 278.784C147.011 279.06 146.519 279.198 145.919 279.198C145.703 279.198 145.475 279.18 145.235 279.144C144.995 279.108 144.737 279.054 144.461 278.982ZM162.407 279.144C161.303 279.144 160.331 278.928 159.491 278.496C158.663 278.064 158.021 277.476 157.565 276.732C157.109 275.976 156.881 275.118 156.881 274.158C156.881 273.186 157.103 272.328 157.547 271.584C158.003 270.828 158.621 270.24 159.401 269.82C160.181 269.388 161.063 269.172 162.047 269.172C162.995 269.172 163.847 269.376 164.603 269.784C165.371 270.18 165.977 270.756 166.421 271.512C166.865 272.256 167.087 273.15 167.087 274.194C167.087 274.302 167.081 274.428 167.069 274.572C167.057 274.704 167.045 274.83 167.033 274.95H159.167V273.312H165.557L164.477 273.798C164.477 273.294 164.375 272.856 164.171 272.484C163.967 272.112 163.685 271.824 163.325 271.62C162.965 271.404 162.545 271.296 162.065 271.296C161.585 271.296 161.159 271.404 160.787 271.62C160.427 271.824 160.145 272.118 159.941 272.502C159.737 272.874 159.635 273.318 159.635 273.834V274.266C159.635 274.794 159.749 275.262 159.977 275.67C160.217 276.066 160.547 276.372 160.967 276.588C161.399 276.792 161.903 276.894 162.479 276.894C162.995 276.894 163.445 276.816 163.829 276.66C164.225 276.504 164.585 276.27 164.909 275.958L166.403 277.578C165.959 278.082 165.401 278.472 164.729 278.748C164.057 279.012 163.283 279.144 162.407 279.144ZM174.946 279.144C174.13 279.144 173.416 278.964 172.804 278.604C172.192 278.244 171.712 277.698 171.364 276.966C171.028 276.222 170.86 275.286 170.86 274.158C170.86 273.018 171.022 272.082 171.346 271.35C171.67 270.618 172.138 270.072 172.75 269.712C173.362 269.352 174.094 269.172 174.946 269.172C175.858 269.172 176.674 269.382 177.394 269.802C178.126 270.21 178.702 270.786 179.122 271.53C179.554 272.274 179.77 273.15 179.77 274.158C179.77 275.178 179.554 276.06 179.122 276.804C178.702 277.548 178.126 278.124 177.394 278.532C176.674 278.94 175.858 279.144 174.946 279.144ZM169.222 282.492V269.316H171.904V271.296L171.85 274.176L172.03 277.038V282.492H169.222ZM174.46 276.84C174.928 276.84 175.342 276.732 175.702 276.516C176.074 276.3 176.368 275.994 176.584 275.598C176.812 275.19 176.926 274.71 176.926 274.158C176.926 273.594 176.812 273.114 176.584 272.718C176.368 272.322 176.074 272.016 175.702 271.8C175.342 271.584 174.928 271.476 174.46 271.476C173.992 271.476 173.572 271.584 173.2 271.8C172.828 272.016 172.534 272.322 172.318 272.718C172.102 273.114 171.994 273.594 171.994 274.158C171.994 274.71 172.102 275.19 172.318 275.598C172.534 275.994 172.828 276.3 173.2 276.516C173.572 276.732 173.992 276.84 174.46 276.84Z" fill="white"/>
<path d="M17.2136 393.264C16.0256 393.264 14.9182 393.073 13.8916 392.692C12.8796 392.296 11.9996 391.739 11.2516 391.02C10.5036 390.301 9.91691 389.458 9.49158 388.49C9.08091 387.522 8.87558 386.459 8.87558 385.3C8.87558 384.141 9.08091 383.078 9.49158 382.11C9.91691 381.142 10.5036 380.299 11.2516 379.58C12.0142 378.861 12.9016 378.311 13.9136 377.93C14.9256 377.534 16.0329 377.336 17.2356 377.336C18.5702 377.336 19.7729 377.571 20.8436 378.04C21.9289 378.495 22.8382 379.169 23.5716 380.064L21.2836 382.176C20.7556 381.575 20.1689 381.127 19.5236 380.834C18.8782 380.526 18.1742 380.372 17.4116 380.372C16.6929 380.372 16.0329 380.489 15.4316 380.724C14.8302 380.959 14.3096 381.296 13.8696 381.736C13.4296 382.176 13.0849 382.697 12.8356 383.298C12.6009 383.899 12.4836 384.567 12.4836 385.3C12.4836 386.033 12.6009 386.701 12.8356 387.302C13.0849 387.903 13.4296 388.424 13.8696 388.864C14.3096 389.304 14.8302 389.641 15.4316 389.876C16.0329 390.111 16.6929 390.228 17.4116 390.228C18.1742 390.228 18.8782 390.081 19.5236 389.788C20.1689 389.48 20.7556 389.018 21.2836 388.402L23.5716 390.514C22.8382 391.409 21.9289 392.091 20.8436 392.56C19.7729 393.029 18.5629 393.264 17.2136 393.264ZM27.6012 393V378.92L29.1412 380.46H24.5212V377.6H31.1652V393H27.6012Z" fill="white"/>
<path d="M84.0222 393.235C82.8342 393.235 81.7268 393.044 80.7002 392.663C79.6882 392.267 78.8082 391.71 78.0602 390.991C77.3122 390.272 76.7255 389.429 76.3002 388.461C75.8895 387.493 75.6842 386.43 75.6842 385.271C75.6842 384.112 75.8895 383.049 76.3002 382.081C76.7255 381.113 77.3122 380.27 78.0602 379.551C78.8228 378.832 79.7102 378.282 80.7222 377.901C81.7342 377.505 82.8415 377.307 84.0442 377.307C85.3788 377.307 86.5815 377.542 87.6522 378.011C88.7375 378.466 89.6468 379.14 90.3802 380.035L88.0922 382.147C87.5642 381.546 86.9775 381.098 86.3322 380.805C85.6868 380.497 84.9828 380.343 84.2202 380.343C83.5015 380.343 82.8415 380.46 82.2402 380.695C81.6388 380.93 81.1182 381.267 80.6782 381.707C80.2382 382.147 79.8935 382.668 79.6442 383.269C79.4095 383.87 79.2922 384.538 79.2922 385.271C79.2922 386.004 79.4095 386.672 79.6442 387.273C79.8935 387.874 80.2382 388.395 80.6782 388.835C81.1182 389.275 81.6388 389.612 82.2402 389.847C82.8415 390.082 83.5015 390.199 84.2202 390.199C84.9828 390.199 85.6868 390.052 86.3322 389.759C86.9775 389.451 87.5642 388.989 88.0922 388.373L90.3802 390.485C89.6468 391.38 88.7375 392.062 87.6522 392.531C86.5815 393 85.3715 393.235 84.0222 393.235ZM91.6225 392.971V390.661L97.5625 385.051C98.0318 384.626 98.3765 384.244 98.5965 383.907C98.8165 383.57 98.9632 383.262 99.0365 382.983C99.1245 382.704 99.1685 382.448 99.1685 382.213C99.1685 381.597 98.9558 381.128 98.5305 380.805C98.1198 380.468 97.5112 380.299 96.7045 380.299C96.0592 380.299 95.4578 380.424 94.9005 380.673C94.3578 380.922 93.8958 381.311 93.5145 381.839L90.9185 380.167C91.5052 379.287 92.3265 378.59 93.3825 378.077C94.4385 377.564 95.6558 377.307 97.0345 377.307C98.1785 377.307 99.1758 377.498 100.026 377.879C100.892 378.246 101.559 378.766 102.028 379.441C102.512 380.116 102.754 380.922 102.754 381.861C102.754 382.36 102.688 382.858 102.556 383.357C102.439 383.841 102.19 384.354 101.808 384.897C101.442 385.44 100.899 386.048 100.18 386.723L95.2525 391.365L94.5705 390.067H103.26V392.971H91.6225Z" fill="white"/>
<path d="M238.504 393.235C237.316 393.235 236.208 393.044 235.182 392.663C234.17 392.267 233.29 391.71 232.542 390.991C231.794 390.272 231.207 389.429 230.782 388.461C230.371 387.493 230.166 386.43 230.166 385.271C230.166 384.112 230.371 383.049 230.782 382.081C231.207 381.113 231.794 380.27 232.542 379.551C233.304 378.832 234.192 378.282 235.204 377.901C236.216 377.505 237.323 377.307 238.526 377.307C239.86 377.307 241.063 377.542 242.134 378.011C243.219 378.466 244.128 379.14 244.862 380.035L242.574 382.147C242.046 381.546 241.459 381.098 240.814 380.805C240.168 380.497 239.464 380.343 238.702 380.343C237.983 380.343 237.323 380.46 236.722 380.695C236.12 380.93 235.6 381.267 235.16 381.707C234.72 382.147 234.375 382.668 234.126 383.269C233.891 383.87 233.774 384.538 233.774 385.271C233.774 386.004 233.891 386.672 234.126 387.273C234.375 387.874 234.72 388.395 235.16 388.835C235.6 389.275 236.12 389.612 236.722 389.847C237.323 390.082 237.983 390.199 238.702 390.199C239.464 390.199 240.168 390.052 240.814 389.759C241.459 389.451 242.046 388.989 242.574 388.373L244.862 390.485C244.128 391.38 243.219 392.062 242.134 392.531C241.063 393 239.853 393.235 238.504 393.235ZM254.22 380.959C255.159 380.959 255.995 381.15 256.728 381.531C257.476 381.898 258.063 382.47 258.488 383.247C258.914 384.01 259.126 384.992 259.126 386.195V392.971H255.694V386.723C255.694 385.77 255.482 385.066 255.056 384.611C254.646 384.156 254.059 383.929 253.296 383.929C252.754 383.929 252.262 384.046 251.822 384.281C251.397 384.501 251.06 384.846 250.81 385.315C250.576 385.784 250.458 386.386 250.458 387.119V392.971H247.026V381.135H250.304V384.413L249.688 383.423C250.114 382.631 250.722 382.022 251.514 381.597C252.306 381.172 253.208 380.959 254.22 380.959Z" fill="white"/>
<path d="M508.171 400.2C505.986 400.2 504.277 399.591 503.045 398.374C501.813 397.157 501.197 395.419 501.197 393.16V384.536H504.761V393.028C504.761 394.495 505.062 395.551 505.663 396.196C506.265 396.841 507.108 397.164 508.193 397.164C509.279 397.164 510.122 396.841 510.723 396.196C511.325 395.551 511.625 394.495 511.625 393.028V384.536H515.145V393.16C515.145 395.419 514.529 397.157 513.297 398.374C512.065 399.591 510.357 400.2 508.171 400.2ZM520.075 399.936V385.856L521.615 387.396H516.995V384.536H523.639V399.936H520.075Z" fill="black"/>
<path d="M575.148 400.2C572.963 400.2 571.254 399.591 570.022 398.374C568.79 397.157 568.174 395.419 568.174 393.16V384.536H571.738V393.028C571.738 394.495 572.039 395.551 572.64 396.196C573.241 396.841 574.085 397.164 575.17 397.164C576.255 397.164 577.099 396.841 577.7 396.196C578.301 395.551 578.602 394.495 578.602 393.028V384.536H582.122V393.16C582.122 395.419 581.506 397.157 580.274 398.374C579.042 399.591 577.333 400.2 575.148 400.2ZM584.544 399.936V397.626L590.484 392.016C590.953 391.591 591.298 391.209 591.518 390.872C591.738 390.535 591.884 390.227 591.958 389.948C592.046 389.669 592.09 389.413 592.09 389.178C592.09 388.562 591.877 388.093 591.452 387.77C591.041 387.433 590.432 387.264 589.626 387.264C588.98 387.264 588.379 387.389 587.822 387.638C587.279 387.887 586.817 388.276 586.436 388.804L583.84 387.132C584.426 386.252 585.248 385.555 586.304 385.042C587.36 384.529 588.577 384.272 589.956 384.272C591.1 384.272 592.097 384.463 592.948 384.844C593.813 385.211 594.48 385.731 594.95 386.406C595.434 387.081 595.676 387.887 595.676 388.826C595.676 389.325 595.61 389.823 595.478 390.322C595.36 390.806 595.111 391.319 594.73 391.862C594.363 392.405 593.82 393.013 593.102 393.688L588.174 398.33L587.492 397.032H596.182V399.936H584.544Z" fill="black"/>
<path d="M730.08 400.2C727.895 400.2 726.186 399.591 724.954 398.374C723.722 397.157 723.106 395.419 723.106 393.16V384.536H726.67V393.028C726.67 394.495 726.971 395.551 727.572 396.196C728.174 396.841 729.017 397.164 730.102 397.164C731.188 397.164 732.031 396.841 732.632 396.196C733.234 395.551 733.534 394.495 733.534 393.028V384.536H737.054V393.16C737.054 395.419 736.438 397.157 735.206 398.374C733.974 399.591 732.266 400.2 730.08 400.2ZM747.528 387.924C748.467 387.924 749.303 388.115 750.036 388.496C750.784 388.863 751.371 389.435 751.796 390.212C752.221 390.975 752.434 391.957 752.434 393.16V399.936H749.002V393.688C749.002 392.735 748.789 392.031 748.364 391.576C747.953 391.121 747.367 390.894 746.604 390.894C746.061 390.894 745.57 391.011 745.13 391.246C744.705 391.466 744.367 391.811 744.118 392.28C743.883 392.749 743.766 393.351 743.766 394.084V399.936H740.334V388.1H743.612V391.378L742.996 390.388C743.421 389.596 744.03 388.987 744.822 388.562C745.614 388.137 746.516 387.924 747.528 387.924Z" fill="black"/>
<path d="M599.25 138L595.128 125.4H598.152L601.734 136.56H600.222L603.966 125.4H606.666L610.266 136.56H608.808L612.48 125.4H615.27L611.148 138H608.016L604.83 128.208H605.658L602.382 138H599.25ZM619.94 130.476H626.006V132.744H619.94V130.476ZM620.156 135.66H627.014V138H617.258V125.4H626.78V127.74H620.156V135.66ZM629.695 138V125.4H635.851C637.435 125.4 638.623 125.7 639.415 126.3C640.219 126.9 640.621 127.692 640.621 128.676C640.621 129.336 640.459 129.912 640.135 130.404C639.811 130.884 639.367 131.256 638.803 131.52C638.239 131.784 637.591 131.916 636.859 131.916L637.201 131.178C637.993 131.178 638.695 131.31 639.307 131.574C639.919 131.826 640.393 132.204 640.729 132.708C641.077 133.212 641.251 133.83 641.251 134.562C641.251 135.642 640.825 136.488 639.973 137.1C639.121 137.7 637.867 138 636.211 138H629.695ZM632.593 135.804H635.995C636.751 135.804 637.321 135.684 637.705 135.444C638.101 135.192 638.299 134.796 638.299 134.256C638.299 133.728 638.101 133.338 637.705 133.086C637.321 132.822 636.751 132.69 635.995 132.69H632.377V130.566H635.491C636.199 130.566 636.739 130.446 637.111 130.206C637.495 129.954 637.687 129.576 637.687 129.072C637.687 128.58 637.495 128.214 637.111 127.974C636.739 127.722 636.199 127.596 635.491 127.596H632.593V135.804ZM643.26 134.058V131.808H648.354V134.058H643.26ZM558.923 158V148.316H568.553V158H565.745V149.99L566.375 150.62H561.083L561.713 149.99V158H558.923ZM577.312 158.144C576.496 158.144 575.782 157.964 575.17 157.604C574.558 157.244 574.078 156.698 573.73 155.966C573.394 155.222 573.226 154.286 573.226 153.158C573.226 152.018 573.388 151.082 573.712 150.35C574.036 149.618 574.504 149.072 575.116 148.712C575.728 148.352 576.46 148.172 577.312 148.172C578.224 148.172 579.04 148.382 579.76 148.802C580.492 149.21 581.068 149.786 581.488 150.53C581.92 151.274 582.136 152.15 582.136 153.158C582.136 154.178 581.92 155.06 581.488 155.804C581.068 156.548 580.492 157.124 579.76 157.532C579.04 157.94 578.224 158.144 577.312 158.144ZM571.588 161.492V148.316H574.27V150.296L574.216 153.176L574.396 156.038V161.492H571.588ZM576.826 155.84C577.294 155.84 577.708 155.732 578.068 155.516C578.44 155.3 578.734 154.994 578.95 154.598C579.178 154.19 579.292 153.71 579.292 153.158C579.292 152.594 579.178 152.114 578.95 151.718C578.734 151.322 578.44 151.016 578.068 150.8C577.708 150.584 577.294 150.476 576.826 150.476C576.358 150.476 575.938 150.584 575.566 150.8C575.194 151.016 574.9 151.322 574.684 151.718C574.468 152.114 574.36 152.594 574.36 153.158C574.36 153.71 574.468 154.19 574.684 154.598C574.9 154.994 575.194 155.3 575.566 155.516C575.938 155.732 576.358 155.84 576.826 155.84ZM584.464 158V148.316H587.254V154.076L591.97 148.316H594.544V158H591.754V152.24L587.056 158H584.464ZM596.379 157.982L596.523 155.678C596.595 155.69 596.667 155.702 596.739 155.714C596.811 155.714 596.877 155.714 596.937 155.714C597.273 155.714 597.537 155.618 597.729 155.426C597.921 155.234 598.065 154.976 598.161 154.652C598.257 154.316 598.323 153.938 598.359 153.518C598.407 153.098 598.443 152.66 598.467 152.204L598.611 148.316H606.891V158H604.083V149.936L604.713 150.62H600.465L601.059 149.9L600.933 152.33C600.897 153.194 600.825 153.986 600.717 154.706C600.621 155.426 600.459 156.05 600.231 156.578C600.003 157.094 599.697 157.496 599.313 157.784C598.929 158.06 598.437 158.198 597.837 158.198C597.621 158.198 597.393 158.18 597.153 158.144C596.913 158.108 596.655 158.054 596.379 157.982ZM614.487 158.144C613.455 158.144 612.537 157.928 611.733 157.496C610.941 157.064 610.311 156.476 609.843 155.732C609.387 154.976 609.159 154.118 609.159 153.158C609.159 152.186 609.387 151.328 609.843 150.584C610.311 149.828 610.941 149.24 611.733 148.82C612.537 148.388 613.455 148.172 614.487 148.172C615.507 148.172 616.419 148.388 617.223 148.82C618.027 149.24 618.657 149.822 619.113 150.566C619.569 151.31 619.797 152.174 619.797 153.158C619.797 154.118 619.569 154.976 619.113 155.732C618.657 156.476 618.027 157.064 617.223 157.496C616.419 157.928 615.507 158.144 614.487 158.144ZM614.487 155.84C614.955 155.84 615.375 155.732 615.747 155.516C616.119 155.3 616.413 154.994 616.629 154.598C616.845 154.19 616.953 153.71 616.953 153.158C616.953 152.594 616.845 152.114 616.629 151.718C616.413 151.322 616.119 151.016 615.747 150.8C615.375 150.584 614.955 150.476 614.487 150.476C614.019 150.476 613.599 150.584 613.227 150.8C612.855 151.016 612.555 151.322 612.327 151.718C612.111 152.114 612.003 152.594 612.003 153.158C612.003 153.71 612.111 154.19 612.327 154.598C612.555 154.994 612.855 155.3 613.227 155.516C613.599 155.732 614.019 155.84 614.487 155.84ZM633.436 158L630.862 153.41L633.13 152.06L636.766 158H633.436ZM629.206 154.328V152.078H632.572V154.328H629.206ZM633.418 153.482L630.772 153.194L633.562 148.316H636.532L633.418 153.482ZM623.86 158H620.548L624.166 152.06L626.434 153.41L623.86 158ZM630.034 158H627.262V148.316H630.034V158ZM628.09 154.328H624.742V152.078H628.09V154.328ZM623.878 153.482L620.764 148.316H623.734L626.506 153.194L623.878 153.482ZM643.02 158.144C641.916 158.144 640.944 157.928 640.104 157.496C639.276 157.064 638.634 156.476 638.178 155.732C637.722 154.976 637.494 154.118 637.494 153.158C637.494 152.186 637.716 151.328 638.16 150.584C638.616 149.828 639.234 149.24 640.014 148.82C640.794 148.388 641.676 148.172 642.66 148.172C643.608 148.172 644.46 148.376 645.216 148.784C645.984 149.18 646.59 149.756 647.034 150.512C647.478 151.256 647.7 152.15 647.7 153.194C647.7 153.302 647.694 153.428 647.682 153.572C647.67 153.704 647.658 153.83 647.646 153.95H639.78V152.312H646.17L645.09 152.798C645.09 152.294 644.988 151.856 644.784 151.484C644.58 151.112 644.298 150.824 643.938 150.62C643.578 150.404 643.158 150.296 642.678 150.296C642.198 150.296 641.772 150.404 641.4 150.62C641.04 150.824 640.758 151.118 640.554 151.502C640.35 151.874 640.248 152.318 640.248 152.834V153.266C640.248 153.794 640.362 154.262 640.59 154.67C640.83 155.066 641.16 155.372 641.58 155.588C642.012 155.792 642.516 155.894 643.092 155.894C643.608 155.894 644.058 155.816 644.442 155.66C644.838 155.504 645.198 155.27 645.522 154.958L647.016 156.578C646.572 157.082 646.014 157.472 645.342 157.748C644.67 158.012 643.896 158.144 643.02 158.144ZM650.213 158V148.316H653.003V152.096H657.215V148.316H660.023V158H657.215V154.382H653.003V158H650.213ZM663.071 158V148.316H665.861V154.076L670.577 148.316H673.151V158H670.361V152.24L665.663 158H663.071ZM680.944 158.144C679.84 158.144 678.868 157.928 678.028 157.496C677.2 157.064 676.558 156.476 676.102 155.732C675.646 154.976 675.418 154.118 675.418 153.158C675.418 152.186 675.64 151.328 676.084 150.584C676.54 149.828 677.158 149.24 677.938 148.82C678.718 148.388 679.6 148.172 680.584 148.172C681.532 148.172 682.384 148.376 683.14 148.784C683.908 149.18 684.514 149.756 684.958 150.512C685.402 151.256 685.624 152.15 685.624 153.194C685.624 153.302 685.618 153.428 685.606 153.572C685.594 153.704 685.582 153.83 685.57 153.95H677.704V152.312H684.094L683.014 152.798C683.014 152.294 682.912 151.856 682.708 151.484C682.504 151.112 682.222 150.824 681.862 150.62C681.502 150.404 681.082 150.296 680.602 150.296C680.122 150.296 679.696 150.404 679.324 150.62C678.964 150.824 678.682 151.118 678.478 151.502C678.274 151.874 678.172 152.318 678.172 152.834V153.266C678.172 153.794 678.286 154.262 678.514 154.67C678.754 155.066 679.084 155.372 679.504 155.588C679.936 155.792 680.44 155.894 681.016 155.894C681.532 155.894 681.982 155.816 682.366 155.66C682.762 155.504 683.122 155.27 683.446 154.958L684.94 156.578C684.496 157.082 683.938 157.472 683.266 157.748C682.594 158.012 681.82 158.144 680.944 158.144ZM559.787 176.128L551.219 172.87V170.53L559.787 167.272V169.522L552.065 172.33V171.07L559.787 173.878V176.128ZM565.433 171.07H571.481V173.41H565.433V171.07ZM565.649 178H562.733V165.4H572.255V167.74H565.649V178ZM574.215 178V168.316H576.897V171.052L576.519 170.26C576.807 169.576 577.269 169.06 577.905 168.712C578.541 168.352 579.315 168.172 580.227 168.172V170.764C580.107 170.752 579.999 170.746 579.903 170.746C579.807 170.734 579.705 170.728 579.597 170.728C578.829 170.728 578.205 170.95 577.725 171.394C577.257 171.826 577.023 172.504 577.023 173.428V178H574.215ZM586.794 178.144C585.762 178.144 584.844 177.928 584.04 177.496C583.248 177.064 582.618 176.476 582.15 175.732C581.694 174.976 581.466 174.118 581.466 173.158C581.466 172.186 581.694 171.328 582.15 170.584C582.618 169.828 583.248 169.24 584.04 168.82C584.844 168.388 585.762 168.172 586.794 168.172C587.814 168.172 588.726 168.388 589.53 168.82C590.334 169.24 590.964 169.822 591.42 170.566C591.876 171.31 592.104 172.174 592.104 173.158C592.104 174.118 591.876 174.976 591.42 175.732C590.964 176.476 590.334 177.064 589.53 177.496C588.726 177.928 587.814 178.144 586.794 178.144ZM586.794 175.84C587.262 175.84 587.682 175.732 588.054 175.516C588.426 175.3 588.72 174.994 588.936 174.598C589.152 174.19 589.26 173.71 589.26 173.158C589.26 172.594 589.152 172.114 588.936 171.718C588.72 171.322 588.426 171.016 588.054 170.8C587.682 170.584 587.262 170.476 586.794 170.476C586.326 170.476 585.906 170.584 585.534 170.8C585.162 171.016 584.862 171.322 584.634 171.718C584.418 172.114 584.31 172.594 584.31 173.158C584.31 173.71 584.418 174.19 584.634 174.598C584.862 174.994 585.162 175.3 585.534 175.516C585.906 175.732 586.326 175.84 586.794 175.84ZM600.227 168.172C600.995 168.172 601.679 168.328 602.279 168.64C602.891 168.94 603.371 169.408 603.719 170.044C604.067 170.668 604.241 171.472 604.241 172.456V178H601.433V172.888C601.433 172.108 601.259 171.532 600.911 171.16C600.575 170.788 600.095 170.602 599.471 170.602C599.027 170.602 598.625 170.698 598.265 170.89C597.917 171.07 597.641 171.352 597.437 171.736C597.245 172.12 597.149 172.612 597.149 173.212V178H594.341V168.316H597.023V170.998L596.519 170.188C596.867 169.54 597.365 169.042 598.013 168.694C598.661 168.346 599.399 168.172 600.227 168.172ZM611.107 178.144C609.967 178.144 609.079 177.856 608.443 177.28C607.807 176.692 607.489 175.822 607.489 174.67V166.174H610.297V174.634C610.297 175.042 610.405 175.36 610.621 175.588C610.837 175.804 611.131 175.912 611.503 175.912C611.947 175.912 612.325 175.792 612.637 175.552L613.393 177.532C613.105 177.736 612.757 177.892 612.349 178C611.953 178.096 611.539 178.144 611.107 178.144ZM605.995 170.692V168.532H612.709V170.692H605.995ZM624.945 178.216C624.021 178.216 623.199 178.066 622.479 177.766C621.759 177.466 621.189 177.058 620.769 176.542C620.349 176.026 620.139 175.432 620.139 174.76C620.139 174.136 620.277 173.578 620.553 173.086C620.829 172.582 621.267 172.114 621.867 171.682C622.467 171.238 623.229 170.806 624.153 170.386C624.825 170.074 625.353 169.798 625.737 169.558C626.121 169.318 626.391 169.09 626.547 168.874C626.703 168.646 626.781 168.418 626.781 168.19C626.781 167.878 626.673 167.626 626.457 167.434C626.253 167.242 625.947 167.146 625.539 167.146C625.107 167.146 624.771 167.254 624.531 167.47C624.291 167.686 624.171 167.962 624.171 168.298C624.171 168.478 624.207 168.658 624.279 168.838C624.351 169.006 624.489 169.204 624.693 169.432C624.897 169.648 625.185 169.93 625.557 170.278L632.199 176.434L630.669 178.216L623.343 171.412C622.923 171.028 622.587 170.668 622.335 170.332C622.083 169.996 621.897 169.666 621.777 169.342C621.669 169.018 621.615 168.682 621.615 168.334C621.615 167.722 621.777 167.182 622.101 166.714C622.425 166.246 622.881 165.886 623.469 165.634C624.057 165.37 624.747 165.238 625.539 165.238C626.271 165.238 626.901 165.358 627.429 165.598C627.969 165.826 628.389 166.156 628.689 166.588C629.001 167.02 629.157 167.536 629.157 168.136C629.157 168.664 629.025 169.15 628.761 169.594C628.497 170.026 628.083 170.434 627.519 170.818C626.967 171.202 626.241 171.592 625.341 171.988C624.729 172.264 624.243 172.534 623.883 172.798C623.535 173.05 623.283 173.308 623.127 173.572C622.971 173.836 622.893 174.13 622.893 174.454C622.893 174.754 622.983 175.024 623.163 175.264C623.355 175.504 623.619 175.69 623.955 175.822C624.291 175.954 624.687 176.02 625.143 176.02C625.875 176.02 626.547 175.852 627.159 175.516C627.771 175.168 628.287 174.658 628.707 173.986C629.139 173.302 629.445 172.474 629.625 171.502L631.875 172.204C631.623 173.428 631.173 174.49 630.525 175.39C629.877 176.29 629.079 176.986 628.131 177.478C627.183 177.97 626.121 178.216 624.945 178.216ZM639.898 178V165.4H646.054C647.638 165.4 648.826 165.7 649.618 166.3C650.422 166.9 650.824 167.692 650.824 168.676C650.824 169.336 650.662 169.912 650.338 170.404C650.014 170.884 649.57 171.256 649.006 171.52C648.442 171.784 647.794 171.916 647.062 171.916L647.404 171.178C648.196 171.178 648.898 171.31 649.51 171.574C650.122 171.826 650.596 172.204 650.932 172.708C651.28 173.212 651.454 173.83 651.454 174.562C651.454 175.642 651.028 176.488 650.176 177.1C649.324 177.7 648.07 178 646.414 178H639.898ZM642.796 175.804H646.198C646.954 175.804 647.524 175.684 647.908 175.444C648.304 175.192 648.502 174.796 648.502 174.256C648.502 173.728 648.304 173.338 647.908 173.086C647.524 172.822 646.954 172.69 646.198 172.69H642.58V170.566H645.694C646.402 170.566 646.942 170.446 647.314 170.206C647.698 169.954 647.89 169.576 647.89 169.072C647.89 168.58 647.698 168.214 647.314 167.974C646.942 167.722 646.402 167.596 645.694 167.596H642.796V175.804ZM659.764 178V176.11L659.584 175.696V172.312C659.584 171.712 659.398 171.244 659.026 170.908C658.666 170.572 658.108 170.404 657.352 170.404C656.836 170.404 656.326 170.488 655.822 170.656C655.33 170.812 654.91 171.028 654.562 171.304L653.554 169.342C654.082 168.97 654.718 168.682 655.462 168.478C656.206 168.274 656.962 168.172 657.73 168.172C659.206 168.172 660.352 168.52 661.168 169.216C661.984 169.912 662.392 170.998 662.392 172.474V178H659.764ZM656.812 178.144C656.056 178.144 655.408 178.018 654.868 177.766C654.328 177.502 653.914 177.148 653.626 176.704C653.338 176.26 653.194 175.762 653.194 175.21C653.194 174.634 653.332 174.13 653.608 173.698C653.896 173.266 654.346 172.93 654.958 172.69C655.57 172.438 656.368 172.312 657.352 172.312H659.926V173.95H657.658C656.998 173.95 656.542 174.058 656.29 174.274C656.05 174.49 655.93 174.76 655.93 175.084C655.93 175.444 656.068 175.732 656.344 175.948C656.632 176.152 657.022 176.254 657.514 176.254C657.982 176.254 658.402 176.146 658.774 175.93C659.146 175.702 659.416 175.372 659.584 174.94L660.016 176.236C659.812 176.86 659.44 177.334 658.9 177.658C658.36 177.982 657.664 178.144 656.812 178.144ZM670.043 178.144C668.999 178.144 668.069 177.934 667.253 177.514C666.437 177.082 665.795 176.488 665.327 175.732C664.871 174.976 664.643 174.118 664.643 173.158C664.643 172.186 664.871 171.328 665.327 170.584C665.795 169.828 666.437 169.24 667.253 168.82C668.069 168.388 668.999 168.172 670.043 168.172C671.063 168.172 671.951 168.388 672.707 168.82C673.463 169.24 674.021 169.846 674.381 170.638L672.203 171.808C671.951 171.352 671.633 171.016 671.249 170.8C670.877 170.584 670.469 170.476 670.025 170.476C669.545 170.476 669.113 170.584 668.729 170.8C668.345 171.016 668.039 171.322 667.811 171.718C667.595 172.114 667.487 172.594 667.487 173.158C667.487 173.722 667.595 174.202 667.811 174.598C668.039 174.994 668.345 175.3 668.729 175.516C669.113 175.732 669.545 175.84 670.025 175.84C670.469 175.84 670.877 175.738 671.249 175.534C671.633 175.318 671.951 174.976 672.203 174.508L674.381 175.696C674.021 176.476 673.463 177.082 672.707 177.514C671.951 177.934 671.063 178.144 670.043 178.144ZM678.627 176.02L678.699 172.6L683.217 168.316H686.565L682.227 172.726L680.769 173.914L678.627 176.02ZM676.305 178V164.644H679.113V178H676.305ZM683.523 178L680.247 173.932L682.011 171.754L686.925 178H683.523ZM687.713 174.058V171.808H692.807V174.058H687.713ZM604.007 198.144C602.903 198.144 601.931 197.928 601.091 197.496C600.263 197.064 599.621 196.476 599.165 195.732C598.709 194.976 598.481 194.118 598.481 193.158C598.481 192.186 598.703 191.328 599.147 190.584C599.603 189.828 600.221 189.24 601.001 188.82C601.781 188.388 602.663 188.172 603.647 188.172C604.595 188.172 605.447 188.376 606.203 188.784C606.971 189.18 607.577 189.756 608.021 190.512C608.465 191.256 608.687 192.15 608.687 193.194C608.687 193.302 608.681 193.428 608.669 193.572C608.657 193.704 608.645 193.83 608.633 193.95H600.767V192.312H607.157L606.077 192.798C606.077 192.294 605.975 191.856 605.771 191.484C605.567 191.112 605.285 190.824 604.925 190.62C604.565 190.404 604.145 190.296 603.665 190.296C603.185 190.296 602.759 190.404 602.387 190.62C602.027 190.824 601.745 191.118 601.541 191.502C601.337 191.874 601.235 192.318 601.235 192.834V193.266C601.235 193.794 601.349 194.262 601.577 194.67C601.817 195.066 602.147 195.372 602.567 195.588C602.999 195.792 603.503 195.894 604.079 195.894C604.595 195.894 605.045 195.816 605.429 195.66C605.825 195.504 606.185 195.27 606.509 194.958L608.003 196.578C607.559 197.082 607.001 197.472 606.329 197.748C605.657 198.012 604.883 198.144 604.007 198.144ZM616.803 188.172C617.571 188.172 618.255 188.328 618.855 188.64C619.467 188.94 619.947 189.408 620.295 190.044C620.643 190.668 620.817 191.472 620.817 192.456V198H618.009V192.888C618.009 192.108 617.835 191.532 617.487 191.16C617.151 190.788 616.671 190.602 616.047 190.602C615.603 190.602 615.201 190.698 614.841 190.89C614.493 191.07 614.217 191.352 614.013 191.736C613.821 192.12 613.725 192.612 613.725 193.212V198H610.917V188.316H613.599V190.998L613.095 190.188C613.443 189.54 613.941 189.042 614.589 188.694C615.237 188.346 615.975 188.172 616.803 188.172ZM627.95 198.144C627.038 198.144 626.216 197.94 625.484 197.532C624.752 197.112 624.17 196.53 623.738 195.786C623.318 195.042 623.108 194.166 623.108 193.158C623.108 192.138 623.318 191.256 623.738 190.512C624.17 189.768 624.752 189.192 625.484 188.784C626.216 188.376 627.038 188.172 627.95 188.172C628.766 188.172 629.48 188.352 630.092 188.712C630.704 189.072 631.178 189.618 631.514 190.35C631.85 191.082 632.018 192.018 632.018 193.158C632.018 194.286 631.856 195.222 631.532 195.966C631.208 196.698 630.74 197.244 630.128 197.604C629.528 197.964 628.802 198.144 627.95 198.144ZM628.436 195.84C628.892 195.84 629.306 195.732 629.678 195.516C630.05 195.3 630.344 194.994 630.56 194.598C630.788 194.19 630.902 193.71 630.902 193.158C630.902 192.594 630.788 192.114 630.56 191.718C630.344 191.322 630.05 191.016 629.678 190.8C629.306 190.584 628.892 190.476 628.436 190.476C627.968 190.476 627.548 190.584 627.176 190.8C626.804 191.016 626.504 191.322 626.276 191.718C626.06 192.114 625.952 192.594 625.952 193.158C625.952 193.71 626.06 194.19 626.276 194.598C626.504 194.994 626.804 195.3 627.176 195.516C627.548 195.732 627.968 195.84 628.436 195.84ZM630.974 198V196.02L631.028 193.14L630.848 190.278V184.644H633.656V198H630.974ZM636.435 196.128V193.878L644.157 191.07V192.33L636.435 189.522V187.272L645.003 190.53V192.87L636.435 196.128Z" fill="black"/>
<path d="M292.391 162V149.4H298.547C300.131 149.4 301.319 149.7 302.111 150.3C302.915 150.9 303.317 151.692 303.317 152.676C303.317 153.336 303.155 153.912 302.831 154.404C302.507 154.884 302.063 155.256 301.499 155.52C300.935 155.784 300.287 155.916 299.555 155.916L299.897 155.178C300.689 155.178 301.391 155.31 302.003 155.574C302.615 155.826 303.089 156.204 303.425 156.708C303.773 157.212 303.947 157.83 303.947 158.562C303.947 159.642 303.521 160.488 302.669 161.1C301.817 161.7 300.563 162 298.907 162H292.391ZM295.289 159.804H298.691C299.447 159.804 300.017 159.684 300.401 159.444C300.797 159.192 300.995 158.796 300.995 158.256C300.995 157.728 300.797 157.338 300.401 157.086C300.017 156.822 299.447 156.69 298.691 156.69H295.073V154.566H298.187C298.895 154.566 299.435 154.446 299.807 154.206C300.191 153.954 300.383 153.576 300.383 153.072C300.383 152.58 300.191 152.214 299.807 151.974C299.435 151.722 298.895 151.596 298.187 151.596H295.289V159.804ZM313.156 162V160.11L312.976 159.696V156.312C312.976 155.712 312.79 155.244 312.418 154.908C312.058 154.572 311.5 154.404 310.744 154.404C310.228 154.404 309.718 154.488 309.214 154.656C308.722 154.812 308.302 155.028 307.954 155.304L306.946 153.342C307.474 152.97 308.11 152.682 308.854 152.478C309.598 152.274 310.354 152.172 311.122 152.172C312.598 152.172 313.744 152.52 314.56 153.216C315.376 153.912 315.784 154.998 315.784 156.474V162H313.156ZM310.204 162.144C309.448 162.144 308.8 162.018 308.26 161.766C307.72 161.502 307.306 161.148 307.018 160.704C306.73 160.26 306.586 159.762 306.586 159.21C306.586 158.634 306.724 158.13 307 157.698C307.288 157.266 307.738 156.93 308.35 156.69C308.962 156.438 309.76 156.312 310.744 156.312H313.318V157.95H311.05C310.39 157.95 309.934 158.058 309.682 158.274C309.442 158.49 309.322 158.76 309.322 159.084C309.322 159.444 309.46 159.732 309.736 159.948C310.024 160.152 310.414 160.254 310.906 160.254C311.374 160.254 311.794 160.146 312.166 159.93C312.538 159.702 312.808 159.372 312.976 158.94L313.408 160.236C313.204 160.86 312.832 161.334 312.292 161.658C311.752 161.982 311.056 162.144 310.204 162.144ZM324.336 162.144C323.292 162.144 322.362 161.934 321.546 161.514C320.73 161.082 320.088 160.488 319.62 159.732C319.164 158.976 318.936 158.118 318.936 157.158C318.936 156.186 319.164 155.328 319.62 154.584C320.088 153.828 320.73 153.24 321.546 152.82C322.362 152.388 323.292 152.172 324.336 152.172C325.356 152.172 326.244 152.388 327 152.82C327.756 153.24 328.314 153.846 328.674 154.638L326.496 155.808C326.244 155.352 325.926 155.016 325.542 154.8C325.17 154.584 324.762 154.476 324.318 154.476C323.838 154.476 323.406 154.584 323.022 154.8C322.638 155.016 322.332 155.322 322.104 155.718C321.888 156.114 321.78 156.594 321.78 157.158C321.78 157.722 321.888 158.202 322.104 158.598C322.332 158.994 322.638 159.3 323.022 159.516C323.406 159.732 323.838 159.84 324.318 159.84C324.762 159.84 325.17 159.738 325.542 159.534C325.926 159.318 326.244 158.976 326.496 158.508L328.674 159.696C328.314 160.476 327.756 161.082 327 161.514C326.244 161.934 325.356 162.144 324.336 162.144ZM333.82 160.02L333.892 156.6L338.41 152.316H341.758L337.42 156.726L335.962 157.914L333.82 160.02ZM331.498 162V148.644H334.306V162H331.498ZM338.716 162L335.44 157.932L337.204 155.754L342.118 162H338.716ZM343.806 158.058V155.808H348.9V158.058H343.806ZM357.351 162.144C356.247 162.144 355.275 161.928 354.435 161.496C353.607 161.064 352.965 160.476 352.509 159.732C352.053 158.976 351.825 158.118 351.825 157.158C351.825 156.186 352.047 155.328 352.491 154.584C352.947 153.828 353.565 153.24 354.345 152.82C355.125 152.388 356.007 152.172 356.991 152.172C357.939 152.172 358.791 152.376 359.547 152.784C360.315 153.18 360.921 153.756 361.365 154.512C361.809 155.256 362.031 156.15 362.031 157.194C362.031 157.302 362.025 157.428 362.013 157.572C362.001 157.704 361.989 157.83 361.977 157.95H354.111V156.312H360.501L359.421 156.798C359.421 156.294 359.319 155.856 359.115 155.484C358.911 155.112 358.629 154.824 358.269 154.62C357.909 154.404 357.489 154.296 357.009 154.296C356.529 154.296 356.103 154.404 355.731 154.62C355.371 154.824 355.089 155.118 354.885 155.502C354.681 155.874 354.579 156.318 354.579 156.834V157.266C354.579 157.794 354.693 158.262 354.921 158.67C355.161 159.066 355.491 159.372 355.911 159.588C356.343 159.792 356.847 159.894 357.423 159.894C357.939 159.894 358.389 159.816 358.773 159.66C359.169 159.504 359.529 159.27 359.853 158.958L361.347 160.578C360.903 161.082 360.345 161.472 359.673 161.748C359.001 162.012 358.227 162.144 357.351 162.144ZM371.047 152.172C371.815 152.172 372.499 152.328 373.099 152.64C373.711 152.94 374.191 153.408 374.539 154.044C374.887 154.668 375.061 155.472 375.061 156.456V162H372.253V156.888C372.253 156.108 372.079 155.532 371.731 155.16C371.395 154.788 370.915 154.602 370.291 154.602C369.847 154.602 369.445 154.698 369.085 154.89C368.737 155.07 368.461 155.352 368.257 155.736C368.065 156.12 367.969 156.612 367.969 157.212V162H365.161V152.316H367.843V154.998L367.339 154.188C367.687 153.54 368.185 153.042 368.833 152.694C369.481 152.346 370.219 152.172 371.047 152.172ZM383.094 162.144C382.182 162.144 381.36 161.94 380.628 161.532C379.896 161.112 379.314 160.53 378.882 159.786C378.462 159.042 378.252 158.166 378.252 157.158C378.252 156.138 378.462 155.256 378.882 154.512C379.314 153.768 379.896 153.192 380.628 152.784C381.36 152.376 382.182 152.172 383.094 152.172C383.91 152.172 384.624 152.352 385.236 152.712C385.848 153.072 386.322 153.618 386.658 154.35C386.994 155.082 387.162 156.018 387.162 157.158C387.162 158.286 387 159.222 386.676 159.966C386.352 160.698 385.884 161.244 385.272 161.604C384.672 161.964 383.946 162.144 383.094 162.144ZM383.58 159.84C384.036 159.84 384.45 159.732 384.822 159.516C385.194 159.3 385.488 158.994 385.704 158.598C385.932 158.19 386.046 157.71 386.046 157.158C386.046 156.594 385.932 156.114 385.704 155.718C385.488 155.322 385.194 155.016 384.822 154.8C384.45 154.584 384.036 154.476 383.58 154.476C383.112 154.476 382.692 154.584 382.32 154.8C381.948 155.016 381.648 155.322 381.42 155.718C381.204 156.114 381.096 156.594 381.096 157.158C381.096 157.71 381.204 158.19 381.42 158.598C381.648 158.994 381.948 159.3 382.32 159.516C382.692 159.732 383.112 159.84 383.58 159.84ZM386.118 162V160.02L386.172 157.14L385.992 154.278V148.644H388.8V162H386.118ZM290.559 178.128L281.991 174.87V172.53L290.559 169.272V171.522L282.837 174.33V173.07L290.559 175.878V178.128ZM295.466 180.216C294.614 180.216 293.828 180.06 293.108 179.748C292.4 179.424 291.818 178.968 291.362 178.38L292.982 176.436C293.33 176.892 293.696 177.24 294.08 177.48C294.464 177.708 294.878 177.822 295.322 177.822C296.51 177.822 297.104 177.126 297.104 175.734V169.74H292.676V167.4H300.002V175.572C300.002 177.132 299.618 178.296 298.85 179.064C298.082 179.832 296.954 180.216 295.466 180.216ZM308.625 180V178.11L308.445 177.696V174.312C308.445 173.712 308.259 173.244 307.887 172.908C307.527 172.572 306.969 172.404 306.213 172.404C305.697 172.404 305.187 172.488 304.683 172.656C304.191 172.812 303.771 173.028 303.423 173.304L302.415 171.342C302.943 170.97 303.579 170.682 304.323 170.478C305.067 170.274 305.823 170.172 306.591 170.172C308.067 170.172 309.213 170.52 310.029 171.216C310.845 171.912 311.253 172.998 311.253 174.474V180H308.625ZM305.673 180.144C304.917 180.144 304.269 180.018 303.729 179.766C303.189 179.502 302.775 179.148 302.487 178.704C302.199 178.26 302.055 177.762 302.055 177.21C302.055 176.634 302.193 176.13 302.469 175.698C302.757 175.266 303.207 174.93 303.819 174.69C304.431 174.438 305.229 174.312 306.213 174.312H308.787V175.95H306.519C305.859 175.95 305.403 176.058 305.151 176.274C304.911 176.49 304.791 176.76 304.791 177.084C304.791 177.444 304.929 177.732 305.205 177.948C305.493 178.152 305.883 178.254 306.375 178.254C306.843 178.254 307.263 178.146 307.635 177.93C308.007 177.702 308.277 177.372 308.445 176.94L308.877 178.236C308.673 178.86 308.301 179.334 307.761 179.658C307.221 179.982 306.525 180.144 305.673 180.144ZM316.246 180L312.178 170.316H315.076L318.46 178.65H317.02L320.53 170.316H323.23L319.144 180H316.246ZM330 180V178.11L329.82 177.696V174.312C329.82 173.712 329.634 173.244 329.262 172.908C328.902 172.572 328.344 172.404 327.588 172.404C327.072 172.404 326.562 172.488 326.058 172.656C325.566 172.812 325.146 173.028 324.798 173.304L323.79 171.342C324.318 170.97 324.954 170.682 325.698 170.478C326.442 170.274 327.198 170.172 327.966 170.172C329.442 170.172 330.588 170.52 331.404 171.216C332.22 171.912 332.628 172.998 332.628 174.474V180H330ZM327.048 180.144C326.292 180.144 325.644 180.018 325.104 179.766C324.564 179.502 324.15 179.148 323.862 178.704C323.574 178.26 323.43 177.762 323.43 177.21C323.43 176.634 323.568 176.13 323.844 175.698C324.132 175.266 324.582 174.93 325.194 174.69C325.806 174.438 326.604 174.312 327.588 174.312H330.162V175.95H327.894C327.234 175.95 326.778 176.058 326.526 176.274C326.286 176.49 326.166 176.76 326.166 177.084C326.166 177.444 326.304 177.732 326.58 177.948C326.868 178.152 327.258 178.254 327.75 178.254C328.218 178.254 328.638 178.146 329.01 177.93C329.382 177.702 329.652 177.372 329.82 176.94L330.252 178.236C330.048 178.86 329.676 179.334 329.136 179.658C328.596 179.982 327.9 180.144 327.048 180.144ZM339.507 180.216C338.499 180.216 337.533 180.084 336.609 179.82C335.685 179.544 334.941 179.19 334.377 178.758L335.367 176.562C335.907 176.946 336.543 177.264 337.275 177.516C338.019 177.756 338.769 177.876 339.525 177.876C340.101 177.876 340.563 177.822 340.911 177.714C341.271 177.594 341.535 177.432 341.703 177.228C341.871 177.024 341.955 176.79 341.955 176.526C341.955 176.19 341.823 175.926 341.559 175.734C341.295 175.53 340.947 175.368 340.515 175.248C340.083 175.116 339.603 174.996 339.075 174.888C338.559 174.768 338.037 174.624 337.509 174.456C336.993 174.288 336.519 174.072 336.087 173.808C335.655 173.544 335.301 173.196 335.025 172.764C334.761 172.332 334.629 171.78 334.629 171.108C334.629 170.388 334.821 169.734 335.205 169.146C335.601 168.546 336.189 168.072 336.969 167.724C337.761 167.364 338.751 167.184 339.939 167.184C340.731 167.184 341.511 167.28 342.279 167.472C343.047 167.652 343.725 167.928 344.313 168.3L343.413 170.514C342.825 170.178 342.237 169.932 341.649 169.776C341.061 169.608 340.485 169.524 339.921 169.524C339.357 169.524 338.895 169.59 338.535 169.722C338.175 169.854 337.917 170.028 337.761 170.244C337.605 170.448 337.527 170.688 337.527 170.964C337.527 171.288 337.659 171.552 337.923 171.756C338.187 171.948 338.535 172.104 338.967 172.224C339.399 172.344 339.873 172.464 340.389 172.584C340.917 172.704 341.439 172.842 341.955 172.998C342.483 173.154 342.963 173.364 343.395 173.628C343.827 173.892 344.175 174.24 344.439 174.672C344.715 175.104 344.853 175.65 344.853 176.31C344.853 177.018 344.655 177.666 344.259 178.254C343.863 178.842 343.269 179.316 342.477 179.676C341.697 180.036 340.707 180.216 339.507 180.216ZM351.328 180.144C350.284 180.144 349.354 179.934 348.538 179.514C347.722 179.082 347.08 178.488 346.612 177.732C346.156 176.976 345.928 176.118 345.928 175.158C345.928 174.186 346.156 173.328 346.612 172.584C347.08 171.828 347.722 171.24 348.538 170.82C349.354 170.388 350.284 170.172 351.328 170.172C352.348 170.172 353.236 170.388 353.992 170.82C354.748 171.24 355.306 171.846 355.666 172.638L353.488 173.808C353.236 173.352 352.918 173.016 352.534 172.8C352.162 172.584 351.754 172.476 351.31 172.476C350.83 172.476 350.398 172.584 350.014 172.8C349.63 173.016 349.324 173.322 349.096 173.718C348.88 174.114 348.772 174.594 348.772 175.158C348.772 175.722 348.88 176.202 349.096 176.598C349.324 176.994 349.63 177.3 350.014 177.516C350.398 177.732 350.83 177.84 351.31 177.84C351.754 177.84 352.162 177.738 352.534 177.534C352.918 177.318 353.236 176.976 353.488 176.508L355.666 177.696C355.306 178.476 354.748 179.082 353.992 179.514C353.236 179.934 352.348 180.144 351.328 180.144ZM357.282 180V170.316H359.964V173.052L359.586 172.26C359.874 171.576 360.336 171.06 360.972 170.712C361.608 170.352 362.382 170.172 363.294 170.172V172.764C363.174 172.752 363.066 172.746 362.97 172.746C362.874 172.734 362.772 172.728 362.664 172.728C361.896 172.728 361.272 172.95 360.792 173.394C360.324 173.826 360.09 174.504 360.09 175.428V180H357.282ZM364.982 180V170.316H367.79V180H364.982ZM366.386 168.966C365.87 168.966 365.45 168.816 365.126 168.516C364.802 168.216 364.64 167.844 364.64 167.4C364.64 166.956 364.802 166.584 365.126 166.284C365.45 165.984 365.87 165.834 366.386 165.834C366.902 165.834 367.322 165.978 367.646 166.266C367.97 166.542 368.132 166.902 368.132 167.346C368.132 167.814 367.97 168.204 367.646 168.516C367.334 168.816 366.914 168.966 366.386 168.966ZM376.12 180.144C375.304 180.144 374.59 179.964 373.978 179.604C373.366 179.244 372.886 178.698 372.538 177.966C372.202 177.222 372.034 176.286 372.034 175.158C372.034 174.018 372.196 173.082 372.52 172.35C372.844 171.618 373.312 171.072 373.924 170.712C374.536 170.352 375.268 170.172 376.12 170.172C377.032 170.172 377.848 170.382 378.568 170.802C379.3 171.21 379.876 171.786 380.296 172.53C380.728 173.274 380.944 174.15 380.944 175.158C380.944 176.178 380.728 177.06 380.296 177.804C379.876 178.548 379.3 179.124 378.568 179.532C377.848 179.94 377.032 180.144 376.12 180.144ZM370.396 183.492V170.316H373.078V172.296L373.024 175.176L373.204 178.038V183.492H370.396ZM375.634 177.84C376.102 177.84 376.516 177.732 376.876 177.516C377.248 177.3 377.542 176.994 377.758 176.598C377.986 176.19 378.1 175.71 378.1 175.158C378.1 174.594 377.986 174.114 377.758 173.718C377.542 173.322 377.248 173.016 376.876 172.8C376.516 172.584 376.102 172.476 375.634 172.476C375.166 172.476 374.746 172.584 374.374 172.8C374.002 173.016 373.708 173.322 373.492 173.718C373.276 174.114 373.168 174.594 373.168 175.158C373.168 175.71 373.276 176.19 373.492 176.598C373.708 176.994 374.002 177.3 374.374 177.516C374.746 177.732 375.166 177.84 375.634 177.84ZM386.783 180.144C385.643 180.144 384.755 179.856 384.119 179.28C383.483 178.692 383.165 177.822 383.165 176.67V168.174H385.973V176.634C385.973 177.042 386.081 177.36 386.297 177.588C386.513 177.804 386.807 177.912 387.179 177.912C387.623 177.912 388.001 177.792 388.313 177.552L389.069 179.532C388.781 179.736 388.433 179.892 388.025 180C387.629 180.096 387.215 180.144 386.783 180.144ZM381.671 172.692V170.532H388.385V172.692H381.671ZM390.466 178.128V175.878L398.188 173.07V174.33L390.466 171.522V169.272L399.034 172.53V174.87L390.466 178.128Z" fill="black"/>
<rect x="634.836" y="386.576" width="9.93039" height="9.93039" fill="white"/>
<rect x="142.572" y="381.611" width="9.93039" height="9.93039" fill="white"/>
<rect x="653.987" y="386.576" width="9.93039" height="9.93039" fill="white"/>
<rect x="161.724" y="381.611" width="9.93039" height="9.93039" fill="white"/>
<rect x="673.138" y="386.576" width="9.93039" height="9.93039" fill="white"/>
<rect x="180.875" y="381.611" width="9.93039" height="9.93039" fill="white"/>
<path d="M577.55 267.84H582.926V269.92H577.55V267.84ZM577.742 274H575.15V262.8H583.614V264.88H577.742V274ZM585.356 274V265.392H587.74V267.824L587.404 267.12C587.66 266.512 588.071 266.053 588.636 265.744C589.201 265.424 589.889 265.264 590.7 265.264V267.568C590.593 267.557 590.497 267.552 590.412 267.552C590.327 267.541 590.236 267.536 590.14 267.536C589.457 267.536 588.903 267.733 588.476 268.128C588.06 268.512 587.852 269.115 587.852 269.936V274H585.356ZM596.538 274.128C595.62 274.128 594.804 273.936 594.09 273.552C593.386 273.168 592.826 272.645 592.41 271.984C592.004 271.312 591.802 270.549 591.802 269.696C591.802 268.832 592.004 268.069 592.41 267.408C592.826 266.736 593.386 266.213 594.09 265.84C594.804 265.456 595.62 265.264 596.538 265.264C597.444 265.264 598.255 265.456 598.97 265.84C599.684 266.213 600.244 266.731 600.65 267.392C601.055 268.053 601.258 268.821 601.258 269.696C601.258 270.549 601.055 271.312 600.65 271.984C600.244 272.645 599.684 273.168 598.97 273.552C598.255 273.936 597.444 274.128 596.538 274.128ZM596.538 272.08C596.954 272.08 597.327 271.984 597.658 271.792C597.988 271.6 598.25 271.328 598.442 270.976C598.634 270.613 598.73 270.187 598.73 269.696C598.73 269.195 598.634 268.768 598.442 268.416C598.25 268.064 597.988 267.792 597.658 267.6C597.327 267.408 596.954 267.312 596.538 267.312C596.122 267.312 595.748 267.408 595.418 267.6C595.087 267.792 594.82 268.064 594.618 268.416C594.426 268.768 594.33 269.195 594.33 269.696C594.33 270.187 594.426 270.613 594.618 270.976C594.82 271.328 595.087 271.6 595.418 271.792C595.748 271.984 596.122 272.08 596.538 272.08ZM608.478 265.264C609.161 265.264 609.769 265.403 610.302 265.68C610.846 265.947 611.273 266.363 611.582 266.928C611.891 267.483 612.046 268.197 612.046 269.072V274H609.55V269.456C609.55 268.763 609.395 268.251 609.086 267.92C608.787 267.589 608.361 267.424 607.806 267.424C607.411 267.424 607.054 267.509 606.734 267.68C606.425 267.84 606.179 268.091 605.998 268.432C605.827 268.773 605.742 269.211 605.742 269.744V274H603.246V265.392H605.63V267.776L605.182 267.056C605.491 266.48 605.934 266.037 606.51 265.728C607.086 265.419 607.742 265.264 608.478 265.264ZM618.149 274.128C617.135 274.128 616.346 273.872 615.781 273.36C615.215 272.837 614.933 272.064 614.933 271.04V263.488H617.429V271.008C617.429 271.371 617.525 271.653 617.717 271.856C617.909 272.048 618.17 272.144 618.501 272.144C618.895 272.144 619.231 272.037 619.509 271.824L620.181 273.584C619.925 273.765 619.615 273.904 619.253 274C618.901 274.085 618.533 274.128 618.149 274.128ZM613.605 267.504V265.584H619.573V267.504H613.605ZM621.425 270.496V268.496H625.953V270.496H621.425ZM632.666 274.128C631.684 274.128 630.82 273.936 630.074 273.552C629.338 273.168 628.767 272.645 628.362 271.984C627.956 271.312 627.754 270.549 627.754 269.696C627.754 268.832 627.951 268.069 628.346 267.408C628.751 266.736 629.3 266.213 629.994 265.84C630.687 265.456 631.471 265.264 632.346 265.264C633.188 265.264 633.946 265.445 634.618 265.808C635.3 266.16 635.839 266.672 636.234 267.344C636.628 268.005 636.826 268.8 636.826 269.728C636.826 269.824 636.82 269.936 636.81 270.064C636.799 270.181 636.788 270.293 636.778 270.4H629.786V268.944H635.466L634.506 269.376C634.506 268.928 634.415 268.539 634.234 268.208C634.052 267.877 633.802 267.621 633.482 267.44C633.162 267.248 632.788 267.152 632.362 267.152C631.935 267.152 631.556 267.248 631.226 267.44C630.906 267.621 630.655 267.883 630.474 268.224C630.292 268.555 630.202 268.949 630.202 269.408V269.792C630.202 270.261 630.303 270.677 630.506 271.04C630.719 271.392 631.012 271.664 631.386 271.856C631.77 272.037 632.218 272.128 632.73 272.128C633.188 272.128 633.588 272.059 633.93 271.92C634.282 271.781 634.602 271.573 634.89 271.296L636.218 272.736C635.823 273.184 635.327 273.531 634.73 273.776C634.132 274.011 633.444 274.128 632.666 274.128ZM644.039 265.264C644.722 265.264 645.33 265.403 645.863 265.68C646.407 265.947 646.834 266.363 647.143 266.928C647.453 267.483 647.607 268.197 647.607 269.072V274H645.111V269.456C645.111 268.763 644.957 268.251 644.647 267.92C644.349 267.589 643.922 267.424 643.367 267.424C642.973 267.424 642.615 267.509 642.295 267.68C641.986 267.84 641.741 268.091 641.559 268.432C641.389 268.773 641.303 269.211 641.303 269.744V274H638.807V265.392H641.191V267.776L640.743 267.056C641.053 266.48 641.495 266.037 642.071 265.728C642.647 265.419 643.303 265.264 644.039 265.264ZM653.948 274.128C653.138 274.128 652.407 273.947 651.756 273.584C651.106 273.211 650.588 272.693 650.204 272.032C649.831 271.371 649.644 270.592 649.644 269.696C649.644 268.789 649.831 268.005 650.204 267.344C650.588 266.683 651.106 266.171 651.756 265.808C652.407 265.445 653.138 265.264 653.948 265.264C654.674 265.264 655.308 265.424 655.852 265.744C656.396 266.064 656.818 266.549 657.116 267.2C657.415 267.851 657.564 268.683 657.564 269.696C657.564 270.699 657.42 271.531 657.132 272.192C656.844 272.843 656.428 273.328 655.884 273.648C655.351 273.968 654.706 274.128 653.948 274.128ZM654.38 272.08C654.786 272.08 655.154 271.984 655.484 271.792C655.815 271.6 656.076 271.328 656.268 270.976C656.471 270.613 656.572 270.187 656.572 269.696C656.572 269.195 656.471 268.768 656.268 268.416C656.076 268.064 655.815 267.792 655.484 267.6C655.154 267.408 654.786 267.312 654.38 267.312C653.964 267.312 653.591 267.408 653.26 267.6C652.93 267.792 652.663 268.064 652.46 268.416C652.268 268.768 652.172 269.195 652.172 269.696C652.172 270.187 652.268 270.613 652.46 270.976C652.663 271.328 652.93 271.6 653.26 271.792C653.591 271.984 653.964 272.08 654.38 272.08ZM656.636 274V272.24L656.684 269.68L656.524 267.136V262.128H659.02V274H656.636ZM525.646 292.336L518.03 289.44V287.36L525.646 284.464V286.464L518.782 288.96V287.84L525.646 290.336V292.336ZM535.945 282.8H538.537V294H535.945V282.8ZM530.857 294H528.265V282.8H530.857V294ZM536.137 289.408H530.665V287.216H536.137V289.408ZM543.826 294V284.912H540.242V282.8H550.002V284.912H546.418V294H543.826ZM551.717 294V282.8H553.861L558.629 290.704H557.493L562.181 282.8H564.309L564.341 294H561.909L561.893 286.528H562.341L558.597 292.816H557.429L553.605 286.528H554.149V294H551.717ZM567.318 294V282.8H569.91V291.888H575.526V294H567.318ZM577.171 296.464L578.227 292.624L578.579 294.064C578.12 294.064 577.742 293.931 577.443 293.664C577.155 293.397 577.011 293.029 577.011 292.56C577.011 292.091 577.16 291.717 577.459 291.44C577.758 291.163 578.126 291.024 578.563 291.024C579.011 291.024 579.379 291.168 579.667 291.456C579.955 291.733 580.099 292.101 580.099 292.56C580.099 292.699 580.088 292.837 580.067 292.976C580.046 293.104 580.003 293.264 579.939 293.456C579.886 293.637 579.795 293.872 579.667 294.16L578.755 296.464H577.171ZM592.498 294.192C591.634 294.192 590.828 294.053 590.082 293.776C589.346 293.488 588.706 293.083 588.162 292.56C587.618 292.037 587.191 291.424 586.882 290.72C586.583 290.016 586.434 289.243 586.434 288.4C586.434 287.557 586.583 286.784 586.882 286.08C587.191 285.376 587.618 284.763 588.162 284.24C588.716 283.717 589.362 283.317 590.098 283.04C590.834 282.752 591.639 282.608 592.514 282.608C593.484 282.608 594.359 282.779 595.138 283.12C595.927 283.451 596.588 283.941 597.122 284.592L595.458 286.128C595.074 285.691 594.647 285.365 594.178 285.152C593.708 284.928 593.196 284.816 592.642 284.816C592.119 284.816 591.639 284.901 591.202 285.072C590.764 285.243 590.386 285.488 590.066 285.808C589.746 286.128 589.495 286.507 589.314 286.944C589.143 287.381 589.058 287.867 589.058 288.4C589.058 288.933 589.143 289.419 589.314 289.856C589.495 290.293 589.746 290.672 590.066 290.992C590.386 291.312 590.764 291.557 591.202 291.728C591.639 291.899 592.119 291.984 592.642 291.984C593.196 291.984 593.708 291.877 594.178 291.664C594.647 291.44 595.074 291.104 595.458 290.656L597.122 292.192C596.588 292.843 595.927 293.339 595.138 293.68C594.359 294.021 593.479 294.192 592.498 294.192ZM602.81 294.192C601.914 294.192 601.055 294.075 600.234 293.84C599.412 293.595 598.751 293.28 598.25 292.896L599.13 290.944C599.61 291.285 600.175 291.568 600.826 291.792C601.487 292.005 602.154 292.112 602.826 292.112C603.338 292.112 603.748 292.064 604.058 291.968C604.378 291.861 604.612 291.717 604.762 291.536C604.911 291.355 604.986 291.147 604.986 290.912C604.986 290.613 604.868 290.379 604.634 290.208C604.399 290.027 604.09 289.883 603.706 289.776C603.322 289.659 602.895 289.552 602.426 289.456C601.967 289.349 601.503 289.221 601.034 289.072C600.575 288.923 600.154 288.731 599.77 288.496C599.386 288.261 599.071 287.952 598.826 287.568C598.591 287.184 598.474 286.693 598.474 286.096C598.474 285.456 598.644 284.875 598.986 284.352C599.338 283.819 599.86 283.397 600.554 283.088C601.258 282.768 602.138 282.608 603.194 282.608C603.898 282.608 604.591 282.693 605.274 282.864C605.956 283.024 606.559 283.269 607.082 283.6L606.282 285.568C605.759 285.269 605.236 285.051 604.714 284.912C604.191 284.763 603.679 284.688 603.178 284.688C602.676 284.688 602.266 284.747 601.946 284.864C601.626 284.981 601.396 285.136 601.258 285.328C601.119 285.509 601.05 285.723 601.05 285.968C601.05 286.256 601.167 286.491 601.402 286.672C601.636 286.843 601.946 286.981 602.33 287.088C602.714 287.195 603.135 287.301 603.594 287.408C604.063 287.515 604.527 287.637 604.986 287.776C605.455 287.915 605.882 288.101 606.266 288.336C606.65 288.571 606.959 288.88 607.194 289.264C607.439 289.648 607.562 290.133 607.562 290.72C607.562 291.349 607.386 291.925 607.034 292.448C606.682 292.971 606.154 293.392 605.45 293.712C604.756 294.032 603.876 294.192 602.81 294.192ZM613.333 294.192C612.437 294.192 611.578 294.075 610.757 293.84C609.935 293.595 609.274 293.28 608.773 292.896L609.653 290.944C610.133 291.285 610.698 291.568 611.349 291.792C612.01 292.005 612.677 292.112 613.349 292.112C613.861 292.112 614.271 292.064 614.581 291.968C614.901 291.861 615.135 291.717 615.285 291.536C615.434 291.355 615.509 291.147 615.509 290.912C615.509 290.613 615.391 290.379 615.157 290.208C614.922 290.027 614.613 289.883 614.229 289.776C613.845 289.659 613.418 289.552 612.949 289.456C612.49 289.349 612.026 289.221 611.557 289.072C611.098 288.923 610.677 288.731 610.293 288.496C609.909 288.261 609.594 287.952 609.349 287.568C609.114 287.184 608.997 286.693 608.997 286.096C608.997 285.456 609.167 284.875 609.509 284.352C609.861 283.819 610.383 283.397 611.077 283.088C611.781 282.768 612.661 282.608 613.717 282.608C614.421 282.608 615.114 282.693 615.797 282.864C616.479 283.024 617.082 283.269 617.605 283.6L616.805 285.568C616.282 285.269 615.759 285.051 615.237 284.912C614.714 284.763 614.202 284.688 613.701 284.688C613.199 284.688 612.789 284.747 612.469 284.864C612.149 284.981 611.919 285.136 611.781 285.328C611.642 285.509 611.573 285.723 611.573 285.968C611.573 286.256 611.69 286.491 611.925 286.672C612.159 286.843 612.469 286.981 612.853 287.088C613.237 287.195 613.658 287.301 614.117 287.408C614.586 287.515 615.05 287.637 615.509 287.776C615.978 287.915 616.405 288.101 616.789 288.336C617.173 288.571 617.482 288.88 617.717 289.264C617.962 289.648 618.085 290.133 618.085 290.72C618.085 291.349 617.909 291.925 617.557 292.448C617.205 292.971 616.677 293.392 615.973 293.712C615.279 294.032 614.399 294.192 613.333 294.192ZM619.88 296.464L620.936 292.624L621.288 294.064C620.83 294.064 620.451 293.931 620.152 293.664C619.864 293.397 619.72 293.029 619.72 292.56C619.72 292.091 619.87 291.717 620.168 291.44C620.467 291.163 620.835 291.024 621.272 291.024C621.72 291.024 622.088 291.168 622.376 291.456C622.664 291.733 622.808 292.101 622.808 292.56C622.808 292.699 622.798 292.837 622.776 292.976C622.755 293.104 622.712 293.264 622.648 293.456C622.595 293.637 622.504 293.872 622.376 294.16L621.464 296.464H619.88ZM631.911 294.192C631.154 294.192 630.455 294.053 629.815 293.776C629.186 293.488 628.668 293.083 628.263 292.56L629.703 290.832C630.012 291.237 630.338 291.547 630.679 291.76C631.02 291.963 631.388 292.064 631.783 292.064C632.839 292.064 633.367 291.445 633.367 290.208V284.88H629.431V282.8H635.943V290.064C635.943 291.451 635.602 292.485 634.919 293.168C634.236 293.851 633.234 294.192 631.911 294.192ZM642.503 294.192C641.607 294.192 640.749 294.075 639.927 293.84C639.106 293.595 638.445 293.28 637.943 292.896L638.823 290.944C639.303 291.285 639.869 291.568 640.519 291.792C641.181 292.005 641.847 292.112 642.519 292.112C643.031 292.112 643.442 292.064 643.751 291.968C644.071 291.861 644.306 291.717 644.455 291.536C644.605 291.355 644.679 291.147 644.679 290.912C644.679 290.613 644.562 290.379 644.327 290.208C644.093 290.027 643.783 289.883 643.399 289.776C643.015 289.659 642.589 289.552 642.119 289.456C641.661 289.349 641.197 289.221 640.727 289.072C640.269 288.923 639.847 288.731 639.463 288.496C639.079 288.261 638.765 287.952 638.519 287.568C638.285 287.184 638.167 286.693 638.167 286.096C638.167 285.456 638.338 284.875 638.679 284.352C639.031 283.819 639.554 283.397 640.247 283.088C640.951 282.768 641.831 282.608 642.887 282.608C643.591 282.608 644.285 282.693 644.967 282.864C645.65 283.024 646.253 283.269 646.775 283.6L645.975 285.568C645.453 285.269 644.93 285.051 644.407 284.912C643.885 284.763 643.373 284.688 642.871 284.688C642.37 284.688 641.959 284.747 641.639 284.864C641.319 284.981 641.09 285.136 640.951 285.328C640.813 285.509 640.743 285.723 640.743 285.968C640.743 286.256 640.861 286.491 641.095 286.672C641.33 286.843 641.639 286.981 642.023 287.088C642.407 287.195 642.829 287.301 643.287 287.408C643.757 287.515 644.221 287.637 644.679 287.776C645.149 287.915 645.575 288.101 645.959 288.336C646.343 288.571 646.653 288.88 646.887 289.264C647.133 289.648 647.255 290.133 647.255 290.72C647.255 291.349 647.079 291.925 646.727 292.448C646.375 292.971 645.847 293.392 645.143 293.712C644.45 294.032 643.57 294.192 642.503 294.192ZM649.051 296.464L650.107 292.624L650.459 294.064C650 294.064 649.622 293.931 649.323 293.664C649.035 293.397 648.891 293.029 648.891 292.56C648.891 292.091 649.04 291.717 649.339 291.44C649.638 291.163 650.006 291.024 650.443 291.024C650.891 291.024 651.259 291.168 651.547 291.456C651.835 291.733 651.979 292.101 651.979 292.56C651.979 292.699 651.968 292.837 651.947 292.976C651.926 293.104 651.883 293.264 651.819 293.456C651.766 293.637 651.675 293.872 651.547 294.16L650.635 296.464H649.051ZM659.018 294V282.8H663.866C664.868 282.8 665.732 282.965 666.458 283.296C667.183 283.616 667.743 284.08 668.138 284.688C668.532 285.296 668.73 286.021 668.73 286.864C668.73 287.696 668.532 288.416 668.138 289.024C667.743 289.621 667.183 290.08 666.458 290.4C665.732 290.72 664.868 290.88 663.866 290.88H660.458L661.61 289.744V294H659.018ZM666.138 294L663.338 289.936H666.106L668.938 294H666.138ZM661.61 290.032L660.458 288.816H663.722C664.522 288.816 665.119 288.645 665.514 288.304C665.908 287.952 666.106 287.472 666.106 286.864C666.106 286.245 665.908 285.765 665.514 285.424C665.119 285.083 664.522 284.912 663.722 284.912H660.458L661.61 283.68V290.032ZM675.199 294.128C674.218 294.128 673.354 293.936 672.607 293.552C671.871 293.168 671.301 292.645 670.895 291.984C670.49 291.312 670.287 290.549 670.287 289.696C670.287 288.832 670.485 288.069 670.879 287.408C671.285 286.736 671.834 286.213 672.527 285.84C673.221 285.456 674.005 285.264 674.879 285.264C675.722 285.264 676.479 285.445 677.151 285.808C677.834 286.16 678.373 286.672 678.767 287.344C679.162 288.005 679.359 288.8 679.359 289.728C679.359 289.824 679.354 289.936 679.343 290.064C679.333 290.181 679.322 290.293 679.311 290.4H672.319V288.944H677.999L677.039 289.376C677.039 288.928 676.949 288.539 676.767 288.208C676.586 287.877 676.335 287.621 676.015 287.44C675.695 287.248 675.322 287.152 674.895 287.152C674.469 287.152 674.09 287.248 673.759 287.44C673.439 287.621 673.189 287.883 673.007 288.224C672.826 288.555 672.735 288.949 672.735 289.408V289.792C672.735 290.261 672.837 290.677 673.039 291.04C673.253 291.392 673.546 291.664 673.919 291.856C674.303 292.037 674.751 292.128 675.263 292.128C675.722 292.128 676.122 292.059 676.463 291.92C676.815 291.781 677.135 291.573 677.423 291.296L678.751 292.736C678.357 293.184 677.861 293.531 677.263 293.776C676.666 294.011 675.978 294.128 675.199 294.128ZM686.387 294V292.32L686.227 291.952V288.944C686.227 288.411 686.061 287.995 685.731 287.696C685.411 287.397 684.915 287.248 684.243 287.248C683.784 287.248 683.331 287.323 682.883 287.472C682.445 287.611 682.072 287.803 681.763 288.048L680.867 286.304C681.336 285.973 681.901 285.717 682.563 285.536C683.224 285.355 683.896 285.264 684.579 285.264C685.891 285.264 686.909 285.573 687.635 286.192C688.36 286.811 688.723 287.776 688.723 289.088V294H686.387ZM683.763 294.128C683.091 294.128 682.515 294.016 682.035 293.792C681.555 293.557 681.187 293.243 680.931 292.848C680.675 292.453 680.547 292.011 680.547 291.52C680.547 291.008 680.669 290.56 680.915 290.176C681.171 289.792 681.571 289.493 682.115 289.28C682.659 289.056 683.368 288.944 684.243 288.944H686.531V290.4H684.515C683.928 290.4 683.523 290.496 683.299 290.688C683.085 290.88 682.979 291.12 682.979 291.408C682.979 291.728 683.101 291.984 683.347 292.176C683.603 292.357 683.949 292.448 684.387 292.448C684.803 292.448 685.176 292.352 685.507 292.16C685.837 291.957 686.077 291.664 686.227 291.28L686.611 292.432C686.429 292.987 686.099 293.408 685.619 293.696C685.139 293.984 684.52 294.128 683.763 294.128ZM695.524 294.128C694.596 294.128 693.77 293.941 693.044 293.568C692.319 293.184 691.748 292.656 691.332 291.984C690.927 291.312 690.724 290.549 690.724 289.696C690.724 288.832 690.927 288.069 691.332 287.408C691.748 286.736 692.319 286.213 693.044 285.84C693.77 285.456 694.596 285.264 695.524 285.264C696.431 285.264 697.22 285.456 697.892 285.84C698.564 286.213 699.06 286.752 699.38 287.456L697.444 288.496C697.22 288.091 696.938 287.792 696.596 287.6C696.266 287.408 695.903 287.312 695.508 287.312C695.082 287.312 694.698 287.408 694.356 287.6C694.015 287.792 693.743 288.064 693.54 288.416C693.348 288.768 693.252 289.195 693.252 289.696C693.252 290.197 693.348 290.624 693.54 290.976C693.743 291.328 694.015 291.6 694.356 291.792C694.698 291.984 695.082 292.08 695.508 292.08C695.903 292.08 696.266 291.989 696.596 291.808C696.938 291.616 697.22 291.312 697.444 290.896L699.38 291.952C699.06 292.645 698.564 293.184 697.892 293.568C697.22 293.941 696.431 294.128 695.524 294.128ZM704.782 294.128C703.769 294.128 702.98 293.872 702.414 293.36C701.849 292.837 701.566 292.064 701.566 291.04V283.488H704.062V291.008C704.062 291.371 704.158 291.653 704.35 291.856C704.542 292.048 704.804 292.144 705.134 292.144C705.529 292.144 705.865 292.037 706.142 291.824L706.814 293.584C706.558 293.765 706.249 293.904 705.886 294C705.534 294.085 705.166 294.128 704.782 294.128ZM700.238 287.504V285.584H706.206V287.504H700.238ZM708.375 292.336V290.336L715.239 287.84V288.96L708.375 286.464V284.464L715.991 287.36V289.44L708.375 292.336Z" fill="black"/>
</svg>
