<svg width="1249" height="588" viewBox="0 0 1249 588" fill="none" xmlns="http://www.w3.org/2000/svg">
<path d="M1 4.15479H1247.48" stroke="white" stroke-width="4"/>
<path d="M2.03906 102.293L1245.25 102.218" stroke="white" stroke-width="4"/>
<path d="M2.03906 198.076L1246.55 198.525" stroke="white" stroke-width="4"/>
<path d="M3.07715 295H1248.52" stroke="white" stroke-width="4"/>
<line x1="3.07715" y1="392.859" x2="1248.52" y2="392.859" stroke="white" stroke-width="4"/>
<line x1="3.07715" y1="489.167" x2="1247.73" y2="489.167" stroke="white" stroke-width="4"/>
<line x1="4.11621" y1="585.474" x2="1244.36" y2="585.474" stroke="white" stroke-width="4"/>
<path d="M3.13379 3.11621L2.03927 587.923" stroke="white" stroke-width="4"/>
<path d="M572.539 4.15527L572.539 586.884" stroke="white" stroke-width="4"/>
<path d="M932.606 6.23242L932.606 584.806" stroke="white" stroke-width="4"/>
<path d="M1246.43 0L1246.43 587.403" stroke="white" stroke-width="4"/>
<path d="M1054.36 259V254.568L1064.71 244.98C1065.59 244.128 1066.33 243.361 1066.93 242.679C1067.54 241.997 1067.99 241.33 1068.31 240.676C1068.62 240.013 1068.78 239.298 1068.78 238.531C1068.78 237.679 1068.58 236.945 1068.19 236.33C1067.8 235.705 1067.27 235.226 1066.6 234.895C1065.93 234.554 1065.17 234.384 1064.32 234.384C1063.43 234.384 1062.65 234.563 1061.99 234.923C1061.32 235.283 1060.81 235.799 1060.45 236.472C1060.09 237.144 1059.91 237.944 1059.91 238.872H1054.07C1054.07 236.969 1054.5 235.316 1055.37 233.915C1056.23 232.513 1057.44 231.429 1058.99 230.662C1060.54 229.895 1062.33 229.511 1064.36 229.511C1066.44 229.511 1068.25 229.881 1069.8 230.619C1071.35 231.348 1072.56 232.362 1073.42 233.659C1074.28 234.956 1074.71 236.443 1074.71 238.119C1074.71 239.218 1074.5 240.302 1074.06 241.372C1073.63 242.442 1072.87 243.631 1071.77 244.938C1070.67 246.235 1069.13 247.793 1067.13 249.611L1062.88 253.773V253.972H1075.1V259H1054.36ZM1090.18 259.398C1088.17 259.398 1086.38 259.028 1084.81 258.29C1083.25 257.551 1082.01 256.533 1081.09 255.236C1080.17 253.938 1079.69 252.452 1079.65 250.776H1085.62C1085.68 251.902 1086.16 252.816 1087.04 253.517C1087.92 254.218 1088.97 254.568 1090.18 254.568C1091.14 254.568 1092 254.355 1092.74 253.929C1093.48 253.493 1094.07 252.892 1094.48 252.125C1094.91 251.348 1095.12 250.458 1095.12 249.455C1095.12 248.432 1094.9 247.532 1094.47 246.756C1094.04 245.979 1093.45 245.373 1092.69 244.938C1091.93 244.502 1091.07 244.279 1090.09 244.27C1089.24 244.27 1088.41 244.445 1087.61 244.795C1086.81 245.146 1086.19 245.624 1085.75 246.23L1080.28 245.25L1081.66 229.909H1099.44V234.938H1086.73L1085.97 242.224H1086.14C1086.66 241.505 1087.43 240.908 1088.46 240.435C1089.49 239.961 1090.65 239.724 1091.93 239.724C1093.68 239.724 1095.24 240.136 1096.61 240.96C1097.99 241.784 1099.07 242.916 1099.87 244.355C1100.66 245.785 1101.05 247.433 1101.04 249.298C1101.05 251.259 1100.6 253.001 1099.68 254.526C1098.77 256.041 1097.5 257.234 1095.86 258.105C1094.23 258.967 1092.34 259.398 1090.18 259.398ZM1116.74 259.639C1114.3 259.63 1112.2 259.028 1110.43 257.835C1108.68 256.642 1107.33 254.914 1106.39 252.651C1105.45 250.387 1104.98 247.665 1104.99 244.483C1104.99 241.311 1105.46 238.607 1106.4 236.372C1107.35 234.137 1108.7 232.437 1110.45 231.273C1112.21 230.098 1114.31 229.511 1116.74 229.511C1119.17 229.511 1121.27 230.098 1123.02 231.273C1124.78 232.447 1126.13 234.152 1127.08 236.386C1128.03 238.612 1128.5 241.311 1128.49 244.483C1128.49 247.674 1128.01 250.402 1127.07 252.665C1126.13 254.928 1124.79 256.656 1123.03 257.849C1121.28 259.043 1119.18 259.639 1116.74 259.639ZM1116.74 254.54C1118.41 254.54 1119.74 253.702 1120.73 252.026C1121.73 250.349 1122.22 247.835 1122.21 244.483C1122.21 242.277 1121.98 240.439 1121.53 238.972C1121.08 237.504 1120.45 236.401 1119.62 235.662C1118.81 234.923 1117.85 234.554 1116.74 234.554C1115.08 234.554 1113.76 235.383 1112.76 237.04C1111.77 238.697 1111.27 241.178 1111.26 244.483C1111.26 246.718 1111.48 248.583 1111.93 250.08C1112.38 251.566 1113.02 252.684 1113.84 253.432C1114.67 254.17 1115.63 254.54 1116.74 254.54Z" fill="white"/>
<path d="M1067.01 327.909V357H1060.86V333.747H1060.69L1054.03 337.923V332.469L1061.23 327.909H1067.01ZM1084.68 357.398C1082.56 357.398 1080.67 357.033 1079.01 356.304C1077.37 355.565 1076.06 354.552 1075.11 353.264C1074.16 351.967 1073.67 350.471 1073.64 348.776H1079.84C1079.88 349.486 1080.11 350.111 1080.53 350.651C1080.97 351.181 1081.55 351.593 1082.27 351.886C1082.99 352.18 1083.8 352.327 1084.7 352.327C1085.63 352.327 1086.46 352.161 1087.18 351.83C1087.9 351.498 1088.46 351.039 1088.87 350.452C1089.28 349.865 1089.48 349.187 1089.48 348.42C1089.48 347.644 1089.26 346.957 1088.83 346.361C1088.4 345.755 1087.79 345.281 1086.98 344.94C1086.19 344.599 1085.24 344.429 1084.14 344.429H1081.43V339.912H1084.14C1085.07 339.912 1085.89 339.751 1086.6 339.429C1087.32 339.107 1087.88 338.662 1088.27 338.094C1088.67 337.516 1088.87 336.844 1088.87 336.077C1088.87 335.348 1088.7 334.708 1088.35 334.159C1088 333.6 1087.52 333.165 1086.9 332.852C1086.28 332.54 1085.56 332.384 1084.74 332.384C1083.9 332.384 1083.14 332.535 1082.45 332.838C1081.76 333.132 1081.21 333.553 1080.79 334.102C1080.37 334.652 1080.15 335.295 1080.12 336.034H1074.23C1074.25 334.358 1074.73 332.881 1075.66 331.602C1076.59 330.324 1077.84 329.325 1079.41 328.605C1080.99 327.876 1082.78 327.511 1084.77 327.511C1086.77 327.511 1088.53 327.876 1090.04 328.605C1091.54 329.334 1092.71 330.319 1093.54 331.56C1094.39 332.791 1094.8 334.173 1094.79 335.707C1094.8 337.336 1094.3 338.695 1093.27 339.784C1092.26 340.873 1090.94 341.564 1089.31 341.858V342.085C1091.45 342.36 1093.08 343.103 1094.2 344.315C1095.33 345.518 1095.88 347.024 1095.87 348.832C1095.88 350.49 1095.41 351.962 1094.44 353.25C1093.48 354.538 1092.16 355.551 1090.48 356.29C1088.79 357.028 1086.86 357.398 1084.68 357.398ZM1110.92 357.398C1108.91 357.398 1107.12 357.028 1105.55 356.29C1103.99 355.551 1102.75 354.533 1101.83 353.236C1100.91 351.938 1100.43 350.452 1100.39 348.776H1106.36C1106.43 349.902 1106.9 350.816 1107.78 351.517C1108.66 352.218 1109.71 352.568 1110.92 352.568C1111.89 352.568 1112.74 352.355 1113.48 351.929C1114.23 351.493 1114.81 350.892 1115.22 350.125C1115.65 349.348 1115.86 348.458 1115.86 347.455C1115.86 346.432 1115.65 345.532 1115.21 344.756C1114.78 343.979 1114.19 343.373 1113.43 342.938C1112.68 342.502 1111.81 342.279 1110.84 342.27C1109.98 342.27 1109.15 342.445 1108.35 342.795C1107.55 343.146 1106.93 343.624 1106.49 344.23L1101.02 343.25L1102.4 327.909H1120.18V332.938H1107.47L1106.72 340.224H1106.89C1107.4 339.505 1108.17 338.908 1109.2 338.435C1110.23 337.961 1111.39 337.724 1112.67 337.724C1114.42 337.724 1115.98 338.136 1117.36 338.96C1118.73 339.784 1119.81 340.916 1120.61 342.355C1121.4 343.785 1121.8 345.433 1121.79 347.298C1121.8 349.259 1121.34 351.001 1120.42 352.526C1119.51 354.041 1118.24 355.234 1116.6 356.105C1114.97 356.967 1113.08 357.398 1110.92 357.398Z" fill="white"/>
<path d="M157.31 70.2495V41.1586H163.46V53.1614H175.946V41.1586H182.082V70.2495H175.946V58.2325H163.46V70.2495H157.31ZM193.261 70.6614C191.869 70.6614 190.629 70.42 189.54 69.937C188.451 69.4446 187.589 68.7202 186.955 67.7637C186.33 66.7978 186.017 65.5952 186.017 64.1558C186.017 62.9436 186.24 61.9256 186.685 61.1018C187.13 60.2779 187.736 59.615 188.503 59.1131C189.27 58.6113 190.141 58.2325 191.116 57.9768C192.101 57.7211 193.134 57.5412 194.213 57.437C195.482 57.3044 196.505 57.1813 197.281 57.0677C198.058 56.9446 198.621 56.7647 198.972 56.5279C199.322 56.2912 199.497 55.9408 199.497 55.4768V55.3916C199.497 54.4919 199.213 53.7959 198.645 53.3035C198.086 52.8111 197.291 52.5649 196.259 52.5649C195.17 52.5649 194.303 52.8063 193.659 53.2893C193.015 53.7628 192.589 54.3594 192.381 55.0791L186.784 54.6245C187.068 53.2988 187.627 52.1529 188.46 51.187C189.294 50.2116 190.368 49.4635 191.685 48.9427C193.01 48.4124 194.545 48.1472 196.287 48.1472C197.499 48.1472 198.659 48.2893 199.767 48.5734C200.884 48.8575 201.874 49.2978 202.736 49.8944C203.607 50.491 204.294 51.258 204.795 52.1955C205.297 53.1236 205.548 54.2363 205.548 55.5336V70.2495H199.81V67.2239H199.639C199.289 67.9058 198.82 68.5071 198.233 69.0279C197.646 69.5393 196.94 69.9417 196.116 70.2353C195.293 70.5194 194.341 70.6614 193.261 70.6614ZM194.994 66.4853C195.884 66.4853 196.67 66.3101 197.352 65.9597C198.034 65.5999 198.569 65.1169 198.957 64.5109C199.346 63.9048 199.54 63.2183 199.54 62.4512V60.1359C199.35 60.259 199.09 60.3726 198.759 60.4768C198.437 60.5715 198.072 60.6614 197.665 60.7467C197.258 60.8224 196.85 60.8935 196.443 60.9597C196.036 61.0166 195.667 61.0686 195.335 61.116C194.625 61.2202 194.005 61.3859 193.474 61.6131C192.944 61.8404 192.532 62.1482 192.239 62.5364C191.945 62.9152 191.798 63.3887 191.798 63.9569C191.798 64.7808 192.097 65.4105 192.693 65.8461C193.299 66.2722 194.066 66.4853 194.994 66.4853ZM216.024 62.2666L223.879 48.4313H229.845V70.2495H224.078V56.3717L216.251 70.2495H210.243V48.4313H216.024V62.2666ZM247.594 63.5592L253.503 48.4313H258.105L249.597 70.2495H245.577L237.267 48.4313H241.855L247.594 63.5592ZM240.477 48.4313V70.2495H234.696V48.4313H240.477ZM255.009 70.2495V48.4313H260.719V70.2495H255.009ZM275.342 70.6756C273.098 70.6756 271.166 70.2211 269.547 69.312C267.937 68.3935 266.696 67.0961 265.825 65.42C264.954 63.7344 264.518 61.741 264.518 59.4399C264.518 57.1955 264.954 55.2258 265.825 53.5308C266.696 51.8357 267.923 50.5147 269.504 49.5677C271.095 48.6207 272.961 48.1472 275.101 48.1472C276.54 48.1472 277.88 48.3792 279.121 48.8433C280.371 49.2978 281.46 49.9844 282.388 50.9029C283.325 51.8215 284.054 52.9768 284.575 54.3688C285.096 55.7514 285.357 57.3707 285.357 59.2268V60.8887H266.933V57.1387H279.661C279.661 56.2675 279.471 55.4957 279.092 54.8234C278.714 54.151 278.188 53.6255 277.516 53.2467C276.853 52.8584 276.081 52.6643 275.2 52.6643C274.282 52.6643 273.467 52.8774 272.757 53.3035C272.056 53.7202 271.507 54.2836 271.109 54.9938C270.712 55.6946 270.508 56.4758 270.499 57.3376V60.9029C270.499 61.9825 270.697 62.9152 271.095 63.7012C271.502 64.4872 272.075 65.0933 272.814 65.5194C273.553 65.9455 274.429 66.1586 275.442 66.1586C276.114 66.1586 276.73 66.0639 277.288 65.8745C277.847 65.6851 278.325 65.401 278.723 65.0222C279.121 64.6435 279.424 64.1794 279.632 63.6302L285.229 63.9995C284.945 65.3442 284.362 66.5185 283.482 67.5222C282.61 68.5166 281.483 69.2931 280.101 69.8518C278.728 70.401 277.142 70.6756 275.342 70.6756ZM304.49 56.9256V61.6842H293.098V56.9256H304.49ZM295.087 48.4313V70.2495H289.305V48.4313H295.087ZM308.283 48.4313V70.2495H302.544V48.4313H308.283ZM322.835 70.6756C320.629 70.6756 318.721 70.2069 317.111 69.2694C315.51 68.3224 314.275 67.0061 313.403 65.3205C312.532 63.6255 312.097 61.6605 312.097 59.4256C312.097 57.1719 312.532 55.2022 313.403 53.5166C314.275 51.8215 315.51 50.5052 317.111 49.5677C318.721 48.6207 320.629 48.1472 322.835 48.1472C325.042 48.1472 326.945 48.6207 328.545 49.5677C330.155 50.5052 331.396 51.8215 332.267 53.5166C333.138 55.2022 333.574 57.1719 333.574 59.4256C333.574 61.6605 333.138 63.6255 332.267 65.3205C331.396 67.0061 330.155 68.3224 328.545 69.2694C326.945 70.2069 325.042 70.6756 322.835 70.6756ZM322.864 65.9881C323.867 65.9881 324.705 65.7041 325.378 65.1359C326.05 64.5582 326.557 63.7722 326.898 62.7779C327.248 61.7836 327.423 60.652 327.423 59.383C327.423 58.1141 327.248 56.9825 326.898 55.9881C326.557 54.9938 326.05 54.2078 325.378 53.6302C324.705 53.0525 323.867 52.7637 322.864 52.7637C321.85 52.7637 320.998 53.0525 320.307 53.6302C319.625 54.2078 319.109 54.9938 318.759 55.9881C318.418 56.9825 318.247 58.1141 318.247 59.383C318.247 60.652 318.418 61.7836 318.759 62.7779C319.109 63.7722 319.625 64.5582 320.307 65.1359C320.998 65.7041 321.85 65.9881 322.864 65.9881ZM337.509 70.2495V48.4313H346.812C349.502 48.4313 351.628 48.9427 353.19 49.9654C354.753 50.9881 355.534 52.4417 355.534 54.3262C355.534 55.5099 355.094 56.4948 354.213 57.2808C353.332 58.0667 352.111 58.597 350.548 58.8717C351.855 58.9664 352.968 59.2647 353.886 59.7666C354.814 60.259 355.52 60.8982 356.003 61.6842C356.495 62.4702 356.741 63.3414 356.741 64.2978C356.741 65.5383 356.41 66.6037 355.747 67.4938C355.094 68.384 354.133 69.0658 352.864 69.5393C351.604 70.0128 350.065 70.2495 348.247 70.2495H337.509ZM343.148 65.7183H348.247C349.09 65.7183 349.748 65.5194 350.222 65.1217C350.705 64.7145 350.946 64.1605 350.946 63.4597C350.946 62.6832 350.705 62.0724 350.222 61.6274C349.748 61.1823 349.09 60.9597 348.247 60.9597H343.148V65.7183ZM343.148 57.4086H346.94C347.546 57.4086 348.063 57.3234 348.489 57.1529C348.924 56.973 349.256 56.7173 349.483 56.3859C349.72 56.0544 349.838 55.6614 349.838 55.2069C349.838 54.5345 349.568 54.009 349.028 53.6302C348.489 53.2514 347.75 53.062 346.812 53.062H343.148V57.4086ZM366.777 70.6614C365.385 70.6614 364.144 70.42 363.055 69.937C361.966 69.4446 361.105 68.7202 360.47 67.7637C359.845 66.7978 359.533 65.5952 359.533 64.1558C359.533 62.9436 359.755 61.9256 360.2 61.1018C360.645 60.2779 361.251 59.615 362.018 59.1131C362.786 58.6113 363.657 58.2325 364.632 57.9768C365.617 57.7211 366.649 57.5412 367.729 57.437C368.998 57.3044 370.02 57.1813 370.797 57.0677C371.573 56.9446 372.137 56.7647 372.487 56.5279C372.838 56.2912 373.013 55.9408 373.013 55.4768V55.3916C373.013 54.4919 372.729 53.7959 372.161 53.3035C371.602 52.8111 370.806 52.5649 369.774 52.5649C368.685 52.5649 367.819 52.8063 367.175 53.2893C366.531 53.7628 366.105 54.3594 365.896 55.0791L360.3 54.6245C360.584 53.2988 361.143 52.1529 361.976 51.187C362.809 50.2116 363.884 49.4635 365.2 48.9427C366.526 48.4124 368.06 48.1472 369.803 48.1472C371.015 48.1472 372.175 48.2893 373.283 48.5734C374.4 48.8575 375.39 49.2978 376.251 49.8944C377.123 50.491 377.809 51.258 378.311 52.1955C378.813 53.1236 379.064 54.2363 379.064 55.5336V70.2495H373.325V67.2239H373.155C372.804 67.9058 372.336 68.5071 371.749 69.0279C371.161 69.5393 370.456 69.9417 369.632 70.2353C368.808 70.5194 367.857 70.6614 366.777 70.6614ZM368.51 66.4853C369.4 66.4853 370.186 66.3101 370.868 65.9597C371.55 65.5999 372.085 65.1169 372.473 64.5109C372.861 63.9048 373.055 63.2183 373.055 62.4512V60.1359C372.866 60.259 372.606 60.3726 372.274 60.4768C371.952 60.5715 371.588 60.6614 371.18 60.7467C370.773 60.8224 370.366 60.8935 369.959 60.9597C369.552 61.0166 369.182 61.0686 368.851 61.116C368.141 61.2202 367.52 61.3859 366.99 61.6131C366.46 61.8404 366.048 62.1482 365.754 62.5364C365.461 62.9152 365.314 63.3887 365.314 63.9569C365.314 64.7808 365.612 65.4105 366.209 65.8461C366.815 66.2722 367.582 66.4853 368.51 66.4853ZM398.943 56.9256V61.6842H387.551V56.9256H398.943ZM389.54 48.4313V70.2495H383.759V48.4313H389.54ZM402.736 48.4313V70.2495H396.997V48.4313H402.736ZM413.212 62.2666L421.067 48.4313H427.033V70.2495H421.266V56.3717L413.439 70.2495H407.43V48.4313H413.212V62.2666ZM441.827 70.6756C439.582 70.6756 437.651 70.2211 436.031 69.312C434.421 68.3935 433.181 67.0961 432.31 65.42C431.438 63.7344 431.003 61.741 431.003 59.4399C431.003 57.1955 431.438 55.2258 432.31 53.5308C433.181 51.8357 434.407 50.5147 435.989 49.5677C437.58 48.6207 439.445 48.1472 441.585 48.1472C443.025 48.1472 444.365 48.3792 445.605 48.8433C446.855 49.2978 447.944 49.9844 448.872 50.9029C449.81 51.8215 450.539 52.9768 451.06 54.3688C451.58 55.7514 451.841 57.3707 451.841 59.2268V60.8887H433.418V57.1387H446.145C446.145 56.2675 445.955 55.4957 445.577 54.8234C445.198 54.151 444.672 53.6255 444 53.2467C443.337 52.8584 442.565 52.6643 441.685 52.6643C440.766 52.6643 439.952 52.8774 439.241 53.3035C438.541 53.7202 437.991 54.2836 437.594 54.9938C437.196 55.6946 436.992 56.4758 436.983 57.3376V60.9029C436.983 61.9825 437.182 62.9152 437.58 63.7012C437.987 64.4872 438.56 65.0933 439.298 65.5194C440.037 65.9455 440.913 66.1586 441.926 66.1586C442.598 66.1586 443.214 66.0639 443.773 65.8745C444.331 65.6851 444.81 65.401 445.207 65.0222C445.605 64.6435 445.908 64.1794 446.116 63.6302L451.713 63.9995C451.429 65.3442 450.847 66.5185 449.966 67.5222C449.095 68.5166 447.968 69.2931 446.585 69.8518C445.212 70.401 443.626 70.6756 441.827 70.6756Z" fill="white"/>
<path d="M676.548 70.2495L667.201 57.8489H665.099V70.2495H658.948V41.1586H665.099V52.7779H666.335L675.994 41.1586H683.65L672.301 54.6529L684.176 70.2495H676.548ZM695.411 70.6756C693.205 70.6756 691.297 70.2069 689.687 69.2694C688.087 68.3224 686.851 67.0061 685.98 65.3205C685.108 63.6255 684.673 61.6605 684.673 59.4256C684.673 57.1719 685.108 55.2022 685.98 53.5166C686.851 51.8215 688.087 50.5052 689.687 49.5677C691.297 48.6207 693.205 48.1472 695.411 48.1472C697.618 48.1472 699.521 48.6207 701.122 49.5677C702.731 50.5052 703.972 51.8215 704.843 53.5166C705.714 55.2022 706.15 57.1719 706.15 59.4256C706.15 61.6605 705.714 63.6255 704.843 65.3205C703.972 67.0061 702.731 68.3224 701.122 69.2694C699.521 70.2069 697.618 70.6756 695.411 70.6756ZM695.44 65.9881C696.444 65.9881 697.282 65.7041 697.954 65.1359C698.626 64.5582 699.133 63.7722 699.474 62.7779C699.824 61.7836 699.999 60.652 699.999 59.383C699.999 58.1141 699.824 56.9825 699.474 55.9881C699.133 54.9938 698.626 54.2078 697.954 53.6302C697.282 53.0525 696.444 52.7637 695.44 52.7637C694.427 52.7637 693.574 53.0525 692.883 53.6302C692.201 54.2078 691.685 54.9938 691.335 55.9881C690.994 56.9825 690.823 58.1141 690.823 59.383C690.823 60.652 690.994 61.7836 691.335 62.7779C691.685 63.7722 692.201 64.5582 692.883 65.1359C693.574 65.7041 694.427 65.9881 695.44 65.9881ZM708.806 70.2495L708.778 65.4484H709.502C710.014 65.4484 710.454 65.3253 710.823 65.0791C711.202 64.8234 711.515 64.4114 711.761 63.8433C712.007 63.2751 712.201 62.5222 712.343 61.5847C712.485 60.6378 712.58 59.473 712.627 58.0904L712.982 48.4313H729.573V70.2495H723.806V53.1899H718.423L718.082 59.8518C717.997 61.6794 717.774 63.2514 717.414 64.5677C717.064 65.884 716.576 66.9635 715.951 67.8063C715.326 68.6397 714.573 69.2552 713.693 69.6529C712.812 70.0506 711.789 70.2495 710.624 70.2495H708.806ZM747.858 55.9029V60.7041H734.591V55.9029H747.858ZM753.014 70.2495V48.4313H762.318C765.008 48.4313 767.134 48.9427 768.696 49.9654C770.259 50.9881 771.04 52.4417 771.04 54.3262C771.04 55.5099 770.6 56.4948 769.719 57.2808C768.838 58.0667 767.617 58.597 766.054 58.8717C767.361 58.9664 768.474 59.2647 769.392 59.7666C770.32 60.259 771.026 60.8982 771.509 61.6842C772.001 62.4702 772.247 63.3414 772.247 64.2978C772.247 65.5383 771.916 66.6037 771.253 67.4938C770.6 68.384 769.638 69.0658 768.369 69.5393C767.11 70.0128 765.571 70.2495 763.753 70.2495H753.014ZM758.654 65.7183H763.753C764.596 65.7183 765.254 65.5194 765.727 65.1217C766.21 64.7145 766.452 64.1605 766.452 63.4597C766.452 62.6832 766.21 62.0724 765.727 61.6274C765.254 61.1823 764.596 60.9597 763.753 60.9597H758.654V65.7183ZM758.654 57.4086H762.446C763.052 57.4086 763.568 57.3234 763.994 57.1529C764.43 56.973 764.762 56.7173 764.989 56.3859C765.226 56.0544 765.344 55.6614 765.344 55.2069C765.344 54.5345 765.074 54.009 764.534 53.6302C763.994 53.2514 763.256 53.062 762.318 53.062H758.654V57.4086ZM785.919 70.6756C783.713 70.6756 781.805 70.2069 780.195 69.2694C778.594 68.3224 777.359 67.0061 776.487 65.3205C775.616 63.6255 775.181 61.6605 775.181 59.4256C775.181 57.1719 775.616 55.2022 776.487 53.5166C777.359 51.8215 778.594 50.5052 780.195 49.5677C781.805 48.6207 783.713 48.1472 785.919 48.1472C788.126 48.1472 790.029 48.6207 791.629 49.5677C793.239 50.5052 794.48 51.8215 795.351 53.5166C796.222 55.2022 796.658 57.1719 796.658 59.4256C796.658 61.6605 796.222 63.6255 795.351 65.3205C794.48 67.0061 793.239 68.3224 791.629 69.2694C790.029 70.2069 788.126 70.6756 785.919 70.6756ZM785.948 65.9881C786.951 65.9881 787.789 65.7041 788.462 65.1359C789.134 64.5582 789.641 63.7722 789.982 62.7779C790.332 61.7836 790.507 60.652 790.507 59.383C790.507 58.1141 790.332 56.9825 789.982 55.9881C789.641 54.9938 789.134 54.2078 788.462 53.6302C787.789 53.0525 786.951 52.7637 785.948 52.7637C784.934 52.7637 784.082 53.0525 783.391 53.6302C782.709 54.2078 782.193 54.9938 781.843 55.9881C781.502 56.9825 781.331 58.1141 781.331 59.383C781.331 60.652 781.502 61.7836 781.843 62.7779C782.193 63.7722 782.709 64.5582 783.391 65.1359C784.082 65.7041 784.934 65.9881 785.948 65.9881ZM801.928 58.5876C801.928 55.0649 802.396 51.8215 803.334 48.8575C804.281 45.8935 805.725 43.1472 807.666 40.6188H813.448C812.709 41.5563 812.022 42.7022 811.388 44.0563C810.753 45.401 810.2 46.8783 809.726 48.4881C809.253 50.098 808.883 51.7647 808.618 53.4881C808.353 55.2022 808.22 56.902 808.22 58.5876C808.22 60.8319 808.448 63.0999 808.902 65.3916C809.366 67.6738 809.991 69.795 810.777 71.7552C811.573 73.7154 812.463 75.3205 813.448 76.5705H807.666C805.725 74.0421 804.281 71.2959 803.334 68.3319C802.396 65.3679 801.928 62.1198 801.928 58.5876ZM816.96 48.4313H822.741V65.4484H828.892V48.4313H834.673V65.4484H840.823V48.4313H846.605V70.2495H816.96V48.4313ZM849.105 53.1899V48.4313H868.877V53.1899H861.846V70.2495H856.079V53.1899H849.105ZM882.744 58.5876C882.744 62.1198 882.271 65.3679 881.324 68.3319C880.387 71.2959 878.947 74.0421 877.006 76.5705H871.225C871.963 75.633 872.65 74.4872 873.284 73.133C873.919 71.7789 874.473 70.3016 874.946 68.7012C875.42 67.0914 875.789 65.4247 876.054 63.7012C876.319 61.9777 876.452 60.2732 876.452 58.5876C876.452 56.3433 876.22 54.08 875.756 51.7978C875.301 49.5061 874.676 47.3849 873.881 45.4342C873.095 43.4739 872.209 41.8688 871.225 40.6188H877.006C878.947 43.1472 880.387 45.8935 881.324 48.8575C882.271 51.8215 882.744 55.0649 882.744 58.5876Z" fill="white"/>
<path d="M1006.92 60.0535L1006.57 71.8433H1000.72V64.9683H998.671V60.0535H1006.92ZM978.899 64.9683V35.8774H984.808V60.0251H996.91V35.8774H1002.89V64.9683H978.899ZM1020.49 65.3944C1018.24 65.3944 1016.31 64.9399 1014.69 64.0308C1013.08 63.1122 1011.84 61.8149 1010.97 60.1387C1010.1 58.4531 1009.66 56.4597 1009.66 54.1586C1009.66 51.9143 1010.1 49.9446 1010.97 48.2495C1011.84 46.5544 1013.07 45.2334 1014.65 44.2864C1016.24 43.3395 1018.1 42.866 1020.24 42.866C1021.68 42.866 1023.02 43.098 1024.26 43.562C1025.51 44.0166 1026.6 44.7031 1027.53 45.6217C1028.47 46.5402 1029.2 47.6955 1029.72 49.0876C1030.24 50.4702 1030.5 52.0895 1030.5 53.9455V55.6075H1012.08V51.8575H1024.8C1024.8 50.9863 1024.61 50.2145 1024.24 49.5421C1023.86 48.8698 1023.33 48.3442 1022.66 47.9654C1022 47.5772 1021.22 47.383 1020.34 47.383C1019.43 47.383 1018.61 47.5961 1017.9 48.0222C1017.2 48.4389 1016.65 49.0024 1016.25 49.7126C1015.86 50.4133 1015.65 51.1946 1015.64 52.0563V55.6217C1015.64 56.7012 1015.84 57.634 1016.24 58.42C1016.65 59.206 1017.22 59.812 1017.96 60.2381C1018.7 60.6643 1019.57 60.8774 1020.59 60.8774C1021.26 60.8774 1021.87 60.7827 1022.43 60.5933C1022.99 60.4039 1023.47 60.1198 1023.87 59.741C1024.26 59.3622 1024.57 58.8982 1024.78 58.3489L1030.37 58.7183C1030.09 60.063 1029.51 61.2372 1028.63 62.241C1027.75 63.2353 1026.63 64.0118 1025.24 64.5705C1023.87 65.1198 1022.29 65.3944 1020.49 65.3944ZM1049.63 51.6444V56.4029H1038.24V51.6444H1049.63ZM1040.23 43.1501V64.9683H1034.45V43.1501H1040.23ZM1053.43 43.1501V64.9683H1047.69V43.1501H1053.43ZM1064.34 65.3802C1062.95 65.3802 1061.71 65.1387 1060.62 64.6558C1059.53 64.1633 1058.67 63.4389 1058.04 62.4825C1057.41 61.5166 1057.1 60.3139 1057.1 58.8745C1057.1 57.6624 1057.32 56.6444 1057.77 55.8205C1058.21 54.9967 1058.82 54.3338 1059.58 53.8319C1060.35 53.33 1061.22 52.9512 1062.2 52.6955C1063.18 52.4399 1064.21 52.2599 1065.29 52.1558C1066.56 52.0232 1067.59 51.9001 1068.36 51.7864C1069.14 51.6633 1069.7 51.4834 1070.05 51.2467C1070.4 51.0099 1070.58 50.6595 1070.58 50.1955V50.1103C1070.58 49.2107 1070.29 48.5147 1069.73 48.0222C1069.17 47.5298 1068.37 47.2836 1067.34 47.2836C1066.25 47.2836 1065.38 47.5251 1064.74 48.008C1064.1 48.4815 1063.67 49.0781 1063.46 49.7978L1057.87 49.3433C1058.15 48.0175 1058.71 46.8717 1059.54 45.9058C1060.37 44.9304 1061.45 44.1823 1062.77 43.6614C1064.09 43.1311 1065.63 42.866 1067.37 42.866C1068.58 42.866 1069.74 43.008 1070.85 43.2921C1071.97 43.5762 1072.96 44.0166 1073.82 44.6131C1074.69 45.2097 1075.37 45.9768 1075.88 46.9143C1076.38 47.8423 1076.63 48.955 1076.63 50.2524V64.9683H1070.89V61.9427H1070.72C1070.37 62.6245 1069.9 63.2258 1069.31 63.7467C1068.73 64.258 1068.02 64.6605 1067.2 64.9541C1066.37 65.2381 1065.42 65.3802 1064.34 65.3802ZM1066.08 61.2041C1066.97 61.2041 1067.75 61.0289 1068.43 60.6785C1069.12 60.3186 1069.65 59.8357 1070.04 59.2296C1070.43 58.6236 1070.62 57.937 1070.62 57.17V54.8546C1070.43 54.9777 1070.17 55.0914 1069.84 55.1955C1069.52 55.2902 1069.15 55.3802 1068.75 55.4654C1068.34 55.5412 1067.93 55.6122 1067.52 55.6785C1067.12 55.7353 1066.75 55.7874 1066.42 55.8347C1065.71 55.9389 1065.09 56.1046 1064.56 56.3319C1064.03 56.5592 1063.61 56.8669 1063.32 57.2552C1063.03 57.634 1062.88 58.1075 1062.88 58.6756C1062.88 59.4995 1063.18 60.1292 1063.77 60.5649C1064.38 60.991 1065.15 61.2041 1066.08 61.2041ZM1091.92 53.3063C1091.92 49.7836 1092.39 46.5402 1093.32 43.5762C1094.27 40.6122 1095.71 37.866 1097.66 35.3376H1103.44C1102.7 36.2751 1102.01 37.4209 1101.38 38.7751C1100.74 40.1198 1100.19 41.597 1099.72 43.2069C1099.24 44.8167 1098.87 46.4834 1098.61 48.2069C1098.34 49.9209 1098.21 51.6207 1098.21 53.3063C1098.21 55.5506 1098.44 57.8186 1098.89 60.1103C1099.36 62.3925 1099.98 64.5137 1100.77 66.4739C1101.56 68.4342 1102.45 70.0393 1103.44 71.2893H1097.66C1095.71 68.7609 1094.27 66.0147 1093.32 63.0506C1092.39 60.0866 1091.92 56.8385 1091.92 53.3063ZM1106.95 73.1501V43.1501H1112.91V46.8149H1113.18C1113.45 46.2277 1113.83 45.6311 1114.34 45.0251C1114.85 44.4095 1115.51 43.8982 1116.32 43.491C1117.15 43.0743 1118.17 42.866 1119.39 42.866C1120.98 42.866 1122.45 43.2827 1123.8 44.116C1125.14 44.9399 1126.22 46.1851 1127.02 47.8518C1127.82 49.509 1128.23 51.5876 1128.23 54.0876C1128.23 56.5213 1127.83 58.5762 1127.05 60.2524C1126.27 61.919 1125.21 63.1832 1123.87 64.045C1122.53 64.8972 1121.04 65.3234 1119.38 65.3234C1118.2 65.3234 1117.2 65.1292 1116.38 64.741C1115.57 64.3527 1114.9 63.865 1114.38 63.2779C1113.86 62.6813 1113.46 62.08 1113.18 61.4739H1113V73.1501H1106.95ZM1112.87 54.0592C1112.87 55.3565 1113.05 56.4881 1113.41 57.4541C1113.77 58.42 1114.29 59.1728 1114.97 59.7126C1115.66 60.2429 1116.48 60.508 1117.46 60.508C1118.45 60.508 1119.28 60.2381 1119.96 59.6984C1120.64 59.1491 1121.16 58.3916 1121.51 57.4256C1121.87 56.4503 1122.05 55.3281 1122.05 54.0592C1122.05 52.7997 1121.87 51.6917 1121.52 50.7353C1121.17 49.7789 1120.66 49.0308 1119.97 48.491C1119.29 47.9512 1118.45 47.6813 1117.46 47.6813C1116.48 47.6813 1115.64 47.9417 1114.96 48.4626C1114.29 48.9834 1113.77 49.722 1113.41 50.6785C1113.05 51.6349 1112.87 52.7618 1112.87 54.0592ZM1135.29 73.1501C1134.53 73.1501 1133.81 73.0885 1133.14 72.9654C1132.47 72.8518 1131.92 72.705 1131.49 72.5251L1132.85 68.008C1133.56 68.2258 1134.2 68.3442 1134.77 68.3631C1135.35 68.3821 1135.84 68.2495 1136.26 67.9654C1136.69 67.6813 1137.03 67.1984 1137.3 66.5166L1137.65 65.5933L1129.83 43.1501H1136.19L1140.71 59.1728H1140.93L1145.49 43.1501H1151.9L1143.42 67.3262C1143.01 68.5005 1142.46 69.5232 1141.76 70.3944C1141.07 71.2751 1140.19 71.9522 1139.13 72.4256C1138.07 72.9086 1136.79 73.1501 1135.29 73.1501ZM1173.14 35.1387L1174.98 39.0876C1174.37 39.5989 1173.68 39.9777 1172.94 40.2239C1172.19 40.4607 1171.29 40.6169 1170.25 40.6927C1169.22 40.7685 1167.96 40.8205 1166.47 40.8489C1164.79 40.8679 1163.41 41.1378 1162.35 41.6586C1161.29 42.1794 1160.49 42.9986 1159.94 44.116C1159.39 45.2239 1159.03 46.6728 1158.86 48.4626H1159.07C1159.73 47.1274 1160.64 46.0952 1161.83 45.366C1163.02 44.6368 1164.49 44.2722 1166.25 44.2722C1168.1 44.2722 1169.73 44.6794 1171.12 45.4938C1172.52 46.3082 1173.61 47.4777 1174.39 49.0024C1175.16 50.527 1175.55 52.3546 1175.55 54.4853C1175.55 56.7012 1175.11 58.6283 1174.24 60.2666C1173.38 61.8953 1172.15 63.1595 1170.56 64.0592C1168.97 64.9493 1167.08 65.3944 1164.88 65.3944C1162.68 65.3944 1160.77 64.9304 1159.17 64.0024C1157.58 63.0743 1156.35 61.706 1155.48 59.8972C1154.62 58.0885 1154.19 55.8631 1154.19 53.2211V51.4313C1154.19 46.1756 1155.21 42.2789 1157.25 39.741C1159.3 37.2031 1162.31 35.9152 1166.27 35.8774C1167.35 35.8584 1168.33 35.8537 1169.2 35.8631C1170.07 35.8726 1170.83 35.83 1171.49 35.7353C1172.15 35.6406 1172.7 35.4417 1173.14 35.1387ZM1164.91 60.7069C1165.84 60.7069 1166.63 60.4654 1167.3 59.9825C1167.97 59.4995 1168.49 58.8082 1168.85 57.9086C1169.21 57.009 1169.4 55.9342 1169.4 54.6842C1169.4 53.4436 1169.21 52.3925 1168.85 51.5308C1168.49 50.6595 1167.97 49.9967 1167.3 49.5421C1166.62 49.0876 1165.82 48.8603 1164.88 48.8603C1164.18 48.8603 1163.55 48.9881 1162.99 49.2438C1162.43 49.4995 1161.96 49.8783 1161.56 50.3802C1161.17 50.8726 1160.87 51.4834 1160.65 52.2126C1160.44 52.9323 1160.34 53.7561 1160.34 54.6842C1160.34 56.5497 1160.74 58.0222 1161.54 59.1018C1162.36 60.1719 1163.48 60.7069 1164.91 60.7069ZM1183.1 65.3376C1182.17 65.3376 1181.36 65.0061 1180.69 64.3433C1180.03 63.6709 1179.69 62.866 1179.69 61.9285C1179.69 61.0005 1180.03 60.205 1180.69 59.5421C1181.36 58.8792 1182.17 58.5478 1183.1 58.5478C1184.01 58.5478 1184.81 58.8792 1185.49 59.5421C1186.17 60.205 1186.51 61.0005 1186.51 61.9285C1186.51 62.5535 1186.35 63.1264 1186.03 63.6472C1185.72 64.1586 1185.3 64.5705 1184.79 64.883C1184.28 65.1861 1183.72 65.3376 1183.1 65.3376ZM1201.68 53.3063C1201.68 56.8385 1201.21 60.0866 1200.26 63.0506C1199.32 66.0147 1197.88 68.7609 1195.94 71.2893H1190.16C1190.9 70.3518 1191.58 69.206 1192.22 67.8518C1192.85 66.4976 1193.41 65.0203 1193.88 63.42C1194.35 61.8101 1194.72 60.1435 1194.99 58.42C1195.25 56.6965 1195.39 54.9919 1195.39 53.3063C1195.39 51.062 1195.15 48.7988 1194.69 46.5166C1194.24 44.2249 1193.61 42.1037 1192.82 40.1529C1192.03 38.1927 1191.14 36.5876 1190.16 35.3376H1195.94C1197.88 37.866 1199.32 40.6122 1200.26 43.5762C1201.21 46.5402 1201.68 49.7836 1201.68 53.3063Z" fill="white"/>
<path d="M716.513 527.173H722.649V545.468H722.891L735.462 527.173H740.845V556.264H734.695V537.954H734.482L721.839 556.264H716.513V527.173ZM744.677 539.204V534.445H764.45V539.204H757.418V556.264H751.651V539.204H744.677ZM777.195 556.69C774.988 556.69 773.08 556.221 771.47 555.284C769.87 554.337 768.634 553.02 767.763 551.335C766.892 549.64 766.456 547.675 766.456 545.44C766.456 543.186 766.892 541.216 767.763 539.531C768.634 537.836 769.87 536.519 771.47 535.582C773.08 534.635 774.988 534.161 777.195 534.161C779.401 534.161 781.304 534.635 782.905 535.582C784.515 536.519 785.755 537.836 786.626 539.531C787.498 541.216 787.933 543.186 787.933 545.44C787.933 547.675 787.498 549.64 786.626 551.335C785.755 553.02 784.515 554.337 782.905 555.284C781.304 556.221 779.401 556.69 777.195 556.69ZM777.223 552.002C778.227 552.002 779.065 551.718 779.737 551.15C780.41 550.572 780.916 549.786 781.257 548.792C781.607 547.798 781.783 546.666 781.783 545.397C781.783 544.128 781.607 542.997 781.257 542.002C780.916 541.008 780.41 540.222 779.737 539.644C779.065 539.067 778.227 538.778 777.223 538.778C776.21 538.778 775.357 539.067 774.666 539.644C773.984 540.222 773.468 541.008 773.118 542.002C772.777 542.997 772.607 544.128 772.607 545.397C772.607 546.666 772.777 547.798 773.118 548.792C773.468 549.786 773.984 550.572 774.666 551.15C775.357 551.718 776.21 552.002 777.223 552.002ZM806.811 534.445V539.204H797.749V556.264H791.868V534.445H806.811ZM814.038 556.633C813.1 556.633 812.295 556.302 811.623 555.639C810.96 554.966 810.629 554.161 810.629 553.224C810.629 552.296 810.96 551.5 811.623 550.838C812.295 550.175 813.1 549.843 814.038 549.843C814.947 549.843 815.742 550.175 816.424 550.838C817.106 551.5 817.447 552.296 817.447 553.224C817.447 553.849 817.286 554.422 816.964 554.943C816.651 555.454 816.239 555.866 815.728 556.178C815.217 556.481 814.653 556.633 814.038 556.633ZM814.038 541.349C813.1 541.349 812.295 541.017 811.623 540.355C810.96 539.692 810.629 538.887 810.629 537.94C810.629 537.012 810.96 536.221 811.623 535.568C812.295 534.905 813.1 534.573 814.038 534.573C814.947 534.573 815.742 534.905 816.424 535.568C817.106 536.221 817.447 537.012 817.447 537.94C817.447 538.574 817.286 539.152 816.964 539.673C816.651 540.184 816.239 540.591 815.728 540.894C815.217 541.197 814.653 541.349 814.038 541.349Z" fill="white"/>
<path d="M190.756 137.818V164H187.585V140.631H174.392V164H171.222V137.818H190.756ZM195.003 164V161.188H195.719C196.307 161.188 196.797 161.072 197.189 160.842C197.581 160.604 197.897 160.19 198.135 159.602C198.382 159.006 198.57 158.179 198.698 157.122C198.834 156.057 198.932 154.702 198.992 153.057L199.35 144.364H212.441V164H209.424V147.176H202.213L201.907 154.182C201.838 155.793 201.694 157.212 201.472 158.439C201.259 159.658 200.931 160.68 200.488 161.507C200.053 162.334 199.473 162.956 198.749 163.374C198.025 163.791 197.117 164 196.026 164H195.003ZM223.755 164.46C222.51 164.46 221.381 164.226 220.367 163.757C219.353 163.28 218.547 162.594 217.951 161.699C217.354 160.795 217.056 159.705 217.056 158.426C217.056 157.301 217.277 156.389 217.721 155.69C218.164 154.983 218.756 154.429 219.498 154.028C220.239 153.628 221.057 153.33 221.952 153.134C222.855 152.929 223.763 152.767 224.675 152.648C225.868 152.494 226.836 152.379 227.577 152.303C228.327 152.217 228.873 152.077 229.213 151.881C229.563 151.685 229.738 151.344 229.738 150.858V150.756C229.738 149.494 229.392 148.514 228.702 147.815C228.02 147.116 226.985 146.767 225.596 146.767C224.155 146.767 223.026 147.082 222.208 147.713C221.39 148.344 220.814 149.017 220.482 149.733L217.618 148.71C218.13 147.517 218.811 146.588 219.664 145.923C220.525 145.25 221.462 144.781 222.476 144.517C223.499 144.244 224.505 144.108 225.493 144.108C226.124 144.108 226.848 144.185 227.667 144.338C228.493 144.483 229.29 144.786 230.057 145.246C230.833 145.706 231.476 146.401 231.988 147.33C232.499 148.259 232.755 149.503 232.755 151.062V164H229.738V161.341H229.584C229.38 161.767 229.039 162.223 228.561 162.709C228.084 163.195 227.449 163.608 226.657 163.949C225.864 164.29 224.897 164.46 223.755 164.46ZM224.215 161.75C225.408 161.75 226.414 161.516 227.232 161.047C228.059 160.578 228.681 159.973 229.098 159.232C229.525 158.49 229.738 157.71 229.738 156.892V154.131C229.61 154.284 229.328 154.425 228.894 154.553C228.468 154.672 227.973 154.778 227.411 154.872C226.857 154.957 226.316 155.034 225.787 155.102C225.267 155.162 224.846 155.213 224.522 155.256C223.738 155.358 223.005 155.524 222.323 155.754C221.65 155.976 221.104 156.312 220.686 156.764C220.277 157.207 220.073 157.812 220.073 158.58C220.073 159.628 220.461 160.42 221.236 160.957C222.02 161.486 223.013 161.75 224.215 161.75ZM235.589 147.176V144.364H251.544V147.176H245.101V164H242.084V147.176H235.589ZM260.704 164.46C259.46 164.46 258.33 164.226 257.316 163.757C256.302 163.28 255.496 162.594 254.9 161.699C254.303 160.795 254.005 159.705 254.005 158.426C254.005 157.301 254.227 156.389 254.67 155.69C255.113 154.983 255.705 154.429 256.447 154.028C257.188 153.628 258.006 153.33 258.901 153.134C259.805 152.929 260.712 152.767 261.624 152.648C262.817 152.494 263.785 152.379 264.526 152.303C265.276 152.217 265.822 152.077 266.163 151.881C266.512 151.685 266.687 151.344 266.687 150.858V150.756C266.687 149.494 266.342 148.514 265.651 147.815C264.969 147.116 263.934 146.767 262.545 146.767C261.104 146.767 259.975 147.082 259.157 147.713C258.339 148.344 257.763 149.017 257.431 149.733L254.567 148.71C255.079 147.517 255.761 146.588 256.613 145.923C257.474 145.25 258.411 144.781 259.425 144.517C260.448 144.244 261.454 144.108 262.442 144.108C263.073 144.108 263.798 144.185 264.616 144.338C265.442 144.483 266.239 144.786 267.006 145.246C267.782 145.706 268.425 146.401 268.937 147.33C269.448 148.259 269.704 149.503 269.704 151.062V164H266.687V161.341H266.533C266.329 161.767 265.988 162.223 265.511 162.709C265.033 163.195 264.398 163.608 263.606 163.949C262.813 164.29 261.846 164.46 260.704 164.46ZM261.164 161.75C262.357 161.75 263.363 161.516 264.181 161.047C265.008 160.578 265.63 159.973 266.048 159.232C266.474 158.49 266.687 157.71 266.687 156.892V154.131C266.559 154.284 266.278 154.425 265.843 154.553C265.417 154.672 264.923 154.778 264.36 154.872C263.806 154.957 263.265 155.034 262.737 155.102C262.217 155.162 261.795 155.213 261.471 155.256C260.687 155.358 259.954 155.524 259.272 155.754C258.599 155.976 258.053 156.312 257.636 156.764C257.227 157.207 257.022 157.812 257.022 158.58C257.022 159.628 257.41 160.42 258.185 160.957C258.969 161.486 259.962 161.75 261.164 161.75ZM285.745 164V137.818H301.546V140.631H288.915V149.477H300.728V152.29H288.915V161.188H301.75V164H285.745ZM321.578 144.364C321.425 143.068 320.803 142.062 319.712 141.347C318.621 140.631 317.283 140.273 315.698 140.273C314.539 140.273 313.525 140.46 312.655 140.835C311.794 141.21 311.121 141.726 310.635 142.382C310.158 143.038 309.919 143.784 309.919 144.619C309.919 145.318 310.086 145.919 310.418 146.422C310.759 146.916 311.194 147.33 311.722 147.662C312.25 147.986 312.804 148.254 313.384 148.467C313.963 148.672 314.496 148.838 314.982 148.966L317.641 149.682C318.323 149.861 319.081 150.108 319.917 150.423C320.76 150.739 321.566 151.169 322.333 151.714C323.108 152.251 323.748 152.942 324.25 153.786C324.753 154.629 325.005 155.665 325.005 156.892C325.005 158.307 324.634 159.585 323.892 160.727C323.159 161.869 322.086 162.777 320.671 163.45C319.265 164.124 317.556 164.46 315.544 164.46C313.669 164.46 312.046 164.158 310.674 163.553C309.31 162.947 308.236 162.104 307.452 161.021C306.676 159.939 306.238 158.682 306.135 157.25H309.408C309.493 158.239 309.826 159.057 310.405 159.705C310.993 160.344 311.735 160.821 312.63 161.136C313.533 161.443 314.505 161.597 315.544 161.597C316.755 161.597 317.841 161.401 318.804 161.009C319.767 160.608 320.53 160.054 321.093 159.347C321.655 158.631 321.936 157.795 321.936 156.841C321.936 155.972 321.694 155.264 321.208 154.719C320.722 154.173 320.083 153.73 319.29 153.389C318.498 153.048 317.641 152.75 316.721 152.494L313.499 151.574C311.453 150.986 309.834 150.146 308.641 149.055C307.448 147.964 306.851 146.537 306.851 144.773C306.851 143.307 307.248 142.028 308.04 140.938C308.841 139.838 309.915 138.986 311.262 138.381C312.617 137.767 314.13 137.46 315.8 137.46C317.488 137.46 318.988 137.763 320.3 138.368C321.613 138.964 322.652 139.783 323.419 140.822C324.195 141.862 324.604 143.043 324.647 144.364H321.578ZM330.217 164V137.818H339.064C341.118 137.818 342.797 138.189 344.101 138.93C345.413 139.663 346.385 140.656 347.016 141.909C347.646 143.162 347.962 144.56 347.962 146.102C347.962 147.645 347.646 149.047 347.016 150.308C346.393 151.57 345.43 152.575 344.126 153.325C342.822 154.067 341.152 154.438 339.115 154.438H332.774V151.625H339.013C340.419 151.625 341.548 151.382 342.401 150.896C343.253 150.411 343.871 149.754 344.254 148.928C344.646 148.092 344.842 147.151 344.842 146.102C344.842 145.054 344.646 144.116 344.254 143.29C343.871 142.463 343.249 141.815 342.388 141.347C341.527 140.869 340.385 140.631 338.962 140.631H333.388V164H330.217ZM360.995 164.358C359.239 164.358 357.688 164.047 356.342 163.425C355.004 162.794 353.96 161.929 353.21 160.83C352.46 159.722 352.089 158.46 352.097 157.045C352.089 155.937 352.306 154.915 352.749 153.977C353.192 153.031 353.798 152.243 354.565 151.612C355.34 150.973 356.205 150.568 357.16 150.398V150.244C355.907 149.92 354.91 149.217 354.168 148.135C353.427 147.044 353.06 145.804 353.069 144.415C353.06 143.085 353.397 141.896 354.079 140.848C354.761 139.8 355.698 138.973 356.891 138.368C358.093 137.763 359.461 137.46 360.995 137.46C362.512 137.46 363.867 137.763 365.06 138.368C366.254 138.973 367.191 139.8 367.873 140.848C368.563 141.896 368.913 143.085 368.921 144.415C368.913 145.804 368.533 147.044 367.783 148.135C367.042 149.217 366.058 149.92 364.83 150.244V150.398C365.776 150.568 366.629 150.973 367.387 151.612C368.146 152.243 368.751 153.031 369.202 153.977C369.654 154.915 369.884 155.937 369.893 157.045C369.884 158.46 369.501 159.722 368.742 160.83C367.992 161.929 366.948 162.794 365.61 163.425C364.281 164.047 362.742 164.358 360.995 164.358ZM360.995 161.545C362.18 161.545 363.202 161.354 364.063 160.97C364.924 160.587 365.589 160.045 366.058 159.347C366.526 158.648 366.765 157.83 366.773 156.892C366.765 155.903 366.509 155.03 366.006 154.271C365.504 153.513 364.817 152.916 363.948 152.482C363.087 152.047 362.103 151.83 360.995 151.83C359.879 151.83 358.881 152.047 358.004 152.482C357.134 152.916 356.448 153.513 355.945 154.271C355.451 155.03 355.208 155.903 355.217 156.892C355.208 157.83 355.434 158.648 355.894 159.347C356.363 160.045 357.032 160.587 357.901 160.97C358.771 161.354 359.802 161.545 360.995 161.545ZM360.995 149.119C361.933 149.119 362.763 148.932 363.488 148.557C364.221 148.182 364.796 147.658 365.214 146.984C365.631 146.311 365.844 145.523 365.853 144.619C365.844 143.733 365.636 142.962 365.227 142.305C364.817 141.641 364.251 141.129 363.526 140.771C362.802 140.405 361.958 140.222 360.995 140.222C360.015 140.222 359.158 140.405 358.425 140.771C357.692 141.129 357.126 141.641 356.725 142.305C356.325 142.962 356.129 143.733 356.137 144.619C356.129 145.523 356.329 146.311 356.738 146.984C357.156 147.658 357.731 148.182 358.464 148.557C359.197 148.932 360.04 149.119 360.995 149.119ZM374.792 164V161.699L383.434 152.239C384.449 151.131 385.284 150.168 385.94 149.349C386.596 148.523 387.082 147.747 387.397 147.023C387.721 146.29 387.883 145.523 387.883 144.722C387.883 143.801 387.662 143.004 387.218 142.331C386.784 141.658 386.187 141.138 385.429 140.771C384.67 140.405 383.818 140.222 382.872 140.222C381.866 140.222 380.988 140.43 380.238 140.848C379.497 141.257 378.922 141.832 378.512 142.574C378.112 143.315 377.912 144.185 377.912 145.182H374.895C374.895 143.648 375.248 142.301 375.956 141.142C376.663 139.983 377.626 139.08 378.845 138.432C380.072 137.784 381.449 137.46 382.974 137.46C384.508 137.46 385.868 137.784 387.052 138.432C388.237 139.08 389.166 139.953 389.839 141.053C390.512 142.152 390.849 143.375 390.849 144.722C390.849 145.685 390.674 146.626 390.325 147.547C389.984 148.459 389.387 149.477 388.535 150.602C387.691 151.719 386.52 153.082 385.02 154.693L379.139 160.983V161.188H391.309V164H374.792ZM405.282 164.358C404.208 164.341 403.135 164.136 402.061 163.744C400.987 163.352 400.007 162.692 399.12 161.763C398.234 160.825 397.522 159.56 396.985 157.966C396.449 156.364 396.18 154.352 396.18 151.932C396.18 149.614 396.397 147.56 396.832 145.77C397.267 143.972 397.897 142.459 398.724 141.232C399.551 139.996 400.548 139.058 401.716 138.419C402.892 137.78 404.217 137.46 405.691 137.46C407.157 137.46 408.461 137.754 409.603 138.342C410.754 138.922 411.691 139.732 412.416 140.771C413.14 141.811 413.609 143.009 413.822 144.364H410.703C410.413 143.187 409.85 142.212 409.015 141.436C408.18 140.661 407.072 140.273 405.691 140.273C403.663 140.273 402.065 141.155 400.897 142.919C399.738 144.683 399.154 147.159 399.146 150.347H399.35C399.828 149.622 400.395 149.004 401.051 148.493C401.716 147.973 402.449 147.572 403.25 147.291C404.051 147.01 404.899 146.869 405.794 146.869C407.294 146.869 408.666 147.244 409.91 147.994C411.154 148.736 412.152 149.763 412.902 151.075C413.652 152.379 414.027 153.875 414.027 155.562C414.027 157.182 413.664 158.665 412.94 160.011C412.216 161.349 411.197 162.415 409.885 163.207C408.581 163.991 407.047 164.375 405.282 164.358ZM405.282 161.545C406.356 161.545 407.319 161.277 408.172 160.74C409.032 160.203 409.71 159.483 410.204 158.58C410.707 157.676 410.958 156.67 410.958 155.562C410.958 154.48 410.716 153.496 410.23 152.609C409.752 151.714 409.092 151.003 408.248 150.474C407.413 149.946 406.458 149.682 405.385 149.682C404.575 149.682 403.821 149.844 403.122 150.168C402.423 150.483 401.809 150.918 401.281 151.472C400.761 152.026 400.352 152.661 400.054 153.376C399.755 154.084 399.606 154.83 399.606 155.614C399.606 156.653 399.849 157.625 400.335 158.528C400.829 159.432 401.502 160.161 402.355 160.714C403.216 161.268 404.191 161.545 405.282 161.545ZM427.747 164.358C426.673 164.341 425.599 164.136 424.526 163.744C423.452 163.352 422.472 162.692 421.585 161.763C420.699 160.825 419.987 159.56 419.45 157.966C418.913 156.364 418.645 154.352 418.645 151.932C418.645 149.614 418.862 147.56 419.297 145.77C419.732 143.972 420.362 142.459 421.189 141.232C422.016 139.996 423.013 139.058 424.18 138.419C425.357 137.78 426.682 137.46 428.156 137.46C429.622 137.46 430.926 137.754 432.068 138.342C433.219 138.922 434.156 139.732 434.881 140.771C435.605 141.811 436.074 143.009 436.287 144.364H433.168C432.878 143.187 432.315 142.212 431.48 141.436C430.645 140.661 429.537 140.273 428.156 140.273C426.128 140.273 424.53 141.155 423.362 142.919C422.203 144.683 421.619 147.159 421.611 150.347H421.815C422.293 149.622 422.859 149.004 423.516 148.493C424.18 147.973 424.913 147.572 425.714 147.291C426.516 147.01 427.364 146.869 428.259 146.869C429.759 146.869 431.131 147.244 432.375 147.994C433.619 148.736 434.616 149.763 435.366 151.075C436.116 152.379 436.491 153.875 436.491 155.562C436.491 157.182 436.129 158.665 435.405 160.011C434.68 161.349 433.662 162.415 432.349 163.207C431.045 163.991 429.511 164.375 427.747 164.358ZM427.747 161.545C428.821 161.545 429.784 161.277 430.636 160.74C431.497 160.203 432.175 159.483 432.669 158.58C433.172 157.676 433.423 156.67 433.423 155.562C433.423 154.48 433.18 153.496 432.695 152.609C432.217 151.714 431.557 151.003 430.713 150.474C429.878 149.946 428.923 149.682 427.849 149.682C427.04 149.682 426.286 149.844 425.587 150.168C424.888 150.483 424.274 150.918 423.746 151.472C423.226 152.026 422.817 152.661 422.518 153.376C422.22 154.084 422.071 154.83 422.071 155.614C422.071 156.653 422.314 157.625 422.8 158.528C423.294 159.432 423.967 160.161 424.82 160.714C425.68 161.268 426.656 161.545 427.747 161.545Z" fill="white"/>
<path d="M134.17 259V232.818H143.017C145.063 232.818 146.741 233.168 148.054 233.866C149.366 234.557 150.338 235.507 150.969 236.717C151.599 237.928 151.915 239.304 151.915 240.847C151.915 242.389 151.599 243.757 150.969 244.95C150.338 246.143 149.371 247.081 148.067 247.763C146.763 248.436 145.097 248.773 143.068 248.773H135.909V245.909H142.966C144.364 245.909 145.489 245.705 146.341 245.295C147.202 244.886 147.824 244.307 148.207 243.557C148.599 242.798 148.795 241.895 148.795 240.847C148.795 239.798 148.599 238.882 148.207 238.098C147.815 237.314 147.189 236.709 146.328 236.283C145.467 235.848 144.33 235.631 142.915 235.631H137.341V259H134.17ZM146.494 247.239L152.938 259H149.256L142.915 247.239H146.494ZM157.198 259V232.818H172.897V235.631H160.368V244.477H171.721V247.29H160.368V259H157.198ZM181.497 232.818V259H178.327V232.818H181.497ZM195.934 259H187.854V232.818H196.292C198.831 232.818 201.005 233.342 202.811 234.391C204.618 235.43 206.003 236.926 206.966 238.878C207.929 240.821 208.411 243.148 208.411 245.858C208.411 248.585 207.925 250.933 206.953 252.902C205.982 254.862 204.567 256.371 202.709 257.428C200.851 258.476 198.593 259 195.934 259ZM191.025 256.188H195.729C197.894 256.188 199.688 255.77 201.111 254.935C202.534 254.099 203.596 252.911 204.294 251.368C204.993 249.825 205.343 247.989 205.343 245.858C205.343 243.744 204.998 241.925 204.307 240.399C203.617 238.865 202.586 237.689 201.213 236.871C199.841 236.044 198.132 235.631 196.087 235.631H191.025V256.188ZM234.184 254.909L241.036 239.364H243.9L235.411 259H232.956L224.621 239.364H227.434L234.184 254.909ZM226.462 239.364V259H223.445V239.364H226.462ZM241.905 259V239.364H244.922V259H241.905ZM258.422 259.409C256.65 259.409 255.094 258.987 253.756 258.143C252.426 257.3 251.387 256.119 250.637 254.602C249.895 253.085 249.525 251.312 249.525 249.284C249.525 247.239 249.895 245.453 250.637 243.928C251.387 242.402 252.426 241.217 253.756 240.374C255.094 239.53 256.65 239.108 258.422 239.108C260.195 239.108 261.746 239.53 263.076 240.374C264.414 241.217 265.453 242.402 266.195 243.928C266.945 245.453 267.32 247.239 267.32 249.284C267.32 251.312 266.945 253.085 266.195 254.602C265.453 256.119 264.414 257.3 263.076 258.143C261.746 258.987 260.195 259.409 258.422 259.409ZM258.422 256.699C259.769 256.699 260.877 256.354 261.746 255.663C262.615 254.973 263.259 254.065 263.676 252.94C264.094 251.815 264.303 250.597 264.303 249.284C264.303 247.972 264.094 246.749 263.676 245.615C263.259 244.482 262.615 243.565 261.746 242.866C260.877 242.168 259.769 241.818 258.422 241.818C257.076 241.818 255.968 242.168 255.098 242.866C254.229 243.565 253.586 244.482 253.168 245.615C252.75 246.749 252.542 247.972 252.542 249.284C252.542 250.597 252.75 251.815 253.168 252.94C253.586 254.065 254.229 254.973 255.098 255.663C255.968 256.354 257.076 256.699 258.422 256.699ZM269.829 264.625V256.188H271.465C271.866 255.77 272.211 255.318 272.501 254.832C272.79 254.347 273.042 253.771 273.255 253.107C273.477 252.433 273.664 251.615 273.817 250.652C273.971 249.68 274.107 248.509 274.227 247.136L274.891 239.364H287.369V256.188H290.386V264.625H287.369V259H272.846V264.625H269.829ZM274.891 256.188H284.352V242.176H277.704L277.192 247.136C276.979 249.19 276.715 250.984 276.4 252.518C276.085 254.053 275.582 255.276 274.891 256.188ZM296.333 266.364C295.822 266.364 295.366 266.321 294.966 266.236C294.565 266.159 294.288 266.082 294.135 266.006L294.902 263.347C295.635 263.534 296.282 263.602 296.845 263.551C297.407 263.5 297.906 263.249 298.341 262.797C298.784 262.354 299.189 261.634 299.555 260.636L300.118 259.102L292.856 239.364H296.129L301.549 255.011H301.754L307.174 239.364H310.447L302.112 261.864C301.737 262.878 301.272 263.717 300.718 264.382C300.164 265.055 299.521 265.554 298.788 265.878C298.064 266.202 297.245 266.364 296.333 266.364ZM311.038 259V256.188H311.754C312.342 256.188 312.832 256.072 313.224 255.842C313.616 255.604 313.932 255.19 314.17 254.602C314.418 254.006 314.605 253.179 314.733 252.122C314.869 251.057 314.967 249.702 315.027 248.057L315.385 239.364H328.476V259H325.459V242.176H318.249L317.942 249.182C317.874 250.793 317.729 252.212 317.507 253.439C317.294 254.658 316.966 255.68 316.523 256.507C316.088 257.334 315.509 257.956 314.784 258.374C314.06 258.791 313.152 259 312.061 259H311.038ZM336.619 246.472H342.244C344.545 246.472 346.305 247.055 347.524 248.223C348.743 249.391 349.352 250.869 349.352 252.659C349.352 253.835 349.08 254.905 348.534 255.868C347.989 256.822 347.188 257.585 346.131 258.156C345.074 258.719 343.778 259 342.244 259H334.011V239.364H337.028V256.188H342.244C343.438 256.188 344.418 255.872 345.185 255.241C345.952 254.611 346.335 253.801 346.335 252.812C346.335 251.773 345.952 250.925 345.185 250.268C344.418 249.612 343.438 249.284 342.244 249.284H336.619V246.472ZM364.479 259V232.818H373.326C375.371 232.818 377.05 233.168 378.363 233.866C379.675 234.557 380.647 235.507 381.277 236.717C381.908 237.928 382.223 239.304 382.223 240.847C382.223 242.389 381.908 243.757 381.277 244.95C380.647 246.143 379.679 247.081 378.375 247.763C377.071 248.436 375.405 248.773 373.377 248.773H366.218V245.909H373.275C374.672 245.909 375.797 245.705 376.65 245.295C377.51 244.886 378.132 244.307 378.516 243.557C378.908 242.798 379.104 241.895 379.104 240.847C379.104 239.798 378.908 238.882 378.516 238.098C378.124 237.314 377.498 236.709 376.637 236.283C375.776 235.848 374.638 235.631 373.223 235.631H367.65V259H364.479ZM376.803 247.239L383.246 259H379.564L373.223 247.239H376.803ZM408.575 241H405.404C405.217 240.088 404.888 239.287 404.42 238.597C403.96 237.906 403.397 237.327 402.732 236.858C402.076 236.381 401.347 236.023 400.546 235.784C399.745 235.545 398.91 235.426 398.04 235.426C396.455 235.426 395.019 235.827 393.732 236.628C392.454 237.429 391.435 238.609 390.677 240.169C389.927 241.729 389.552 243.642 389.552 245.909C389.552 248.176 389.927 250.089 390.677 251.649C391.435 253.209 392.454 254.389 393.732 255.19C395.019 255.991 396.455 256.392 398.04 256.392C398.91 256.392 399.745 256.273 400.546 256.034C401.347 255.795 402.076 255.442 402.732 254.973C403.397 254.496 403.96 253.912 404.42 253.222C404.888 252.523 405.217 251.722 405.404 250.818H408.575C408.336 252.156 407.901 253.354 407.271 254.411C406.64 255.467 405.856 256.366 404.918 257.108C403.981 257.841 402.928 258.399 401.761 258.783C400.602 259.166 399.362 259.358 398.04 259.358C395.808 259.358 393.822 258.812 392.083 257.722C390.344 256.631 388.977 255.08 387.979 253.068C386.982 251.057 386.484 248.67 386.484 245.909C386.484 243.148 386.982 240.761 387.979 238.75C388.977 236.739 390.344 235.188 392.083 234.097C393.822 233.006 395.808 232.46 398.04 232.46C399.362 232.46 400.602 232.652 401.761 233.036C402.928 233.419 403.981 233.982 404.918 234.723C405.856 235.456 406.64 236.351 407.271 237.408C407.901 238.456 408.336 239.653 408.575 241ZM421.419 259.358C419.919 259.358 418.569 259.06 417.367 258.463C416.165 257.866 415.202 257.048 414.478 256.009C413.753 254.969 413.357 253.784 413.289 252.455H416.357C416.476 253.639 417.013 254.619 417.968 255.395C418.931 256.162 420.081 256.545 421.419 256.545C422.493 256.545 423.448 256.294 424.283 255.791C425.127 255.288 425.787 254.598 426.265 253.72C426.75 252.834 426.993 251.832 426.993 250.716C426.993 249.574 426.742 248.555 426.239 247.661C425.745 246.757 425.063 246.045 424.194 245.526C423.324 245.006 422.331 244.741 421.215 244.733C420.414 244.724 419.591 244.848 418.748 245.104C417.904 245.351 417.209 245.67 416.664 246.062L413.698 245.705L415.283 232.818H428.885V235.631H417.942L417.022 243.352H417.175C417.712 242.926 418.385 242.572 419.195 242.291C420.005 242.01 420.848 241.869 421.726 241.869C423.328 241.869 424.756 242.253 426.009 243.02C427.27 243.778 428.259 244.818 428.975 246.139C429.699 247.46 430.061 248.969 430.061 250.665C430.061 252.335 429.686 253.827 428.936 255.139C428.195 256.443 427.172 257.474 425.868 258.233C424.564 258.983 423.081 259.358 421.419 259.358ZM435.14 259V256.699L443.782 247.239C444.796 246.131 445.631 245.168 446.288 244.349C446.944 243.523 447.43 242.747 447.745 242.023C448.069 241.29 448.231 240.523 448.231 239.722C448.231 238.801 448.009 238.004 447.566 237.331C447.131 236.658 446.535 236.138 445.776 235.771C445.018 235.405 444.165 235.222 443.219 235.222C442.214 235.222 441.336 235.43 440.586 235.848C439.844 236.257 439.269 236.832 438.86 237.574C438.46 238.315 438.259 239.185 438.259 240.182H435.242C435.242 238.648 435.596 237.301 436.303 236.142C437.011 234.983 437.974 234.08 439.192 233.432C440.42 232.784 441.796 232.46 443.322 232.46C444.856 232.46 446.215 232.784 447.4 233.432C448.585 234.08 449.513 234.953 450.187 236.053C450.86 237.152 451.197 238.375 451.197 239.722C451.197 240.685 451.022 241.626 450.673 242.547C450.332 243.459 449.735 244.477 448.883 245.602C448.039 246.719 446.867 248.082 445.367 249.693L439.487 255.983V256.188H451.657V259H435.14ZM456.937 259V256.699L465.579 247.239C466.593 246.131 467.428 245.168 468.085 244.349C468.741 243.523 469.227 242.747 469.542 242.023C469.866 241.29 470.028 240.523 470.028 239.722C470.028 238.801 469.806 238.004 469.363 237.331C468.928 236.658 468.332 236.138 467.573 235.771C466.815 235.405 465.962 235.222 465.016 235.222C464.011 235.222 463.133 235.43 462.383 235.848C461.641 236.257 461.066 236.832 460.657 237.574C460.256 238.315 460.056 239.185 460.056 240.182H457.039C457.039 238.648 457.393 237.301 458.1 236.142C458.808 234.983 459.771 234.08 460.989 233.432C462.217 232.784 463.593 232.46 465.119 232.46C466.653 232.46 468.012 232.784 469.197 233.432C470.381 234.08 471.31 234.953 471.984 236.053C472.657 237.152 472.994 238.375 472.994 239.722C472.994 240.685 472.819 241.626 472.469 242.547C472.129 243.459 471.532 244.477 470.68 245.602C469.836 246.719 468.664 248.082 467.164 249.693L461.283 255.983V256.188H473.454V259H456.937Z" fill="white"/>
<path d="M130.756 326.818V353H127.585V329.631H114.392V353H111.222V326.818H130.756ZM136.742 360.364V333.364H139.657V336.483H140.015C140.236 336.142 140.543 335.707 140.935 335.179C141.336 334.642 141.907 334.165 142.648 333.747C143.398 333.321 144.412 333.108 145.691 333.108C147.344 333.108 148.801 333.521 150.063 334.348C151.324 335.175 152.309 336.347 153.016 337.864C153.723 339.381 154.077 341.17 154.077 343.233C154.077 345.312 153.723 347.115 153.016 348.641C152.309 350.158 151.328 351.334 150.076 352.169C148.823 352.996 147.378 353.409 145.742 353.409C144.48 353.409 143.471 353.2 142.712 352.783C141.953 352.357 141.37 351.875 140.961 351.338C140.551 350.793 140.236 350.341 140.015 349.983H139.759V360.364H136.742ZM139.708 343.182C139.708 344.665 139.925 345.973 140.36 347.107C140.794 348.232 141.429 349.114 142.265 349.753C143.1 350.384 144.123 350.699 145.333 350.699C146.594 350.699 147.647 350.366 148.49 349.702C149.343 349.028 149.982 348.125 150.408 346.991C150.843 345.849 151.06 344.58 151.06 343.182C151.06 341.801 150.847 340.557 150.421 339.449C150.003 338.332 149.368 337.45 148.516 336.803C147.672 336.146 146.611 335.818 145.333 335.818C144.105 335.818 143.074 336.129 142.239 336.751C141.404 337.365 140.773 338.226 140.347 339.334C139.921 340.433 139.708 341.716 139.708 343.182ZM166.657 353.409C164.884 353.409 163.328 352.987 161.99 352.143C160.661 351.3 159.621 350.119 158.871 348.602C158.13 347.085 157.759 345.312 157.759 343.284C157.759 341.239 158.13 339.453 158.871 337.928C159.621 336.402 160.661 335.217 161.99 334.374C163.328 333.53 164.884 333.108 166.657 333.108C168.429 333.108 169.98 333.53 171.31 334.374C172.648 335.217 173.688 336.402 174.429 337.928C175.179 339.453 175.554 341.239 175.554 343.284C175.554 345.312 175.179 347.085 174.429 348.602C173.688 350.119 172.648 351.3 171.31 352.143C169.98 352.987 168.429 353.409 166.657 353.409ZM166.657 350.699C168.003 350.699 169.111 350.354 169.98 349.663C170.85 348.973 171.493 348.065 171.911 346.94C172.328 345.815 172.537 344.597 172.537 343.284C172.537 341.972 172.328 340.749 171.911 339.615C171.493 338.482 170.85 337.565 169.98 336.866C169.111 336.168 168.003 335.818 166.657 335.818C165.31 335.818 164.202 336.168 163.333 336.866C162.463 337.565 161.82 338.482 161.402 339.615C160.985 340.749 160.776 341.972 160.776 343.284C160.776 344.597 160.985 345.815 161.402 346.94C161.82 348.065 162.463 348.973 163.333 349.663C164.202 350.354 165.31 350.699 166.657 350.699ZM180.16 353V333.364H188.188C190.302 333.364 191.981 333.841 193.225 334.795C194.469 335.75 195.092 337.011 195.092 338.58C195.092 339.773 194.738 340.697 194.031 341.354C193.323 342.001 192.415 342.44 191.308 342.67C192.032 342.773 192.735 343.028 193.417 343.438C194.107 343.847 194.678 344.409 195.13 345.125C195.582 345.832 195.808 346.702 195.808 347.733C195.808 348.739 195.552 349.638 195.04 350.43C194.529 351.223 193.796 351.849 192.842 352.31C191.887 352.77 190.745 353 189.415 353H180.16ZM183.023 350.239H189.415C190.455 350.239 191.269 349.991 191.857 349.497C192.445 349.003 192.739 348.33 192.739 347.477C192.739 346.463 192.445 345.666 191.857 345.087C191.269 344.499 190.455 344.205 189.415 344.205H183.023V350.239ZM183.023 341.597H188.188C188.998 341.597 189.692 341.486 190.272 341.264C190.852 341.034 191.295 340.71 191.602 340.293C191.917 339.866 192.075 339.364 192.075 338.784C192.075 337.957 191.729 337.31 191.039 336.841C190.349 336.364 189.398 336.125 188.188 336.125H183.023V341.597ZM208.352 353.409C206.579 353.409 205.024 352.987 203.686 352.143C202.356 351.3 201.316 350.119 200.566 348.602C199.825 347.085 199.454 345.312 199.454 343.284C199.454 341.239 199.825 339.453 200.566 337.928C201.316 336.402 202.356 335.217 203.686 334.374C205.024 333.53 206.579 333.108 208.352 333.108C210.125 333.108 211.676 333.53 213.005 334.374C214.343 335.217 215.383 336.402 216.125 337.928C216.875 339.453 217.25 341.239 217.25 343.284C217.25 345.312 216.875 347.085 216.125 348.602C215.383 350.119 214.343 351.3 213.005 352.143C211.676 352.987 210.125 353.409 208.352 353.409ZM208.352 350.699C209.699 350.699 210.806 350.354 211.676 349.663C212.545 348.973 213.189 348.065 213.606 346.94C214.024 345.815 214.233 344.597 214.233 343.284C214.233 341.972 214.024 340.749 213.606 339.615C213.189 338.482 212.545 337.565 211.676 336.866C210.806 336.168 209.699 335.818 208.352 335.818C207.005 335.818 205.897 336.168 205.028 336.866C204.159 337.565 203.515 338.482 203.098 339.615C202.68 340.749 202.471 341.972 202.471 343.284C202.471 344.597 202.68 345.815 203.098 346.94C203.515 348.065 204.159 348.973 205.028 349.663C205.897 350.354 207.005 350.699 208.352 350.699ZM219.759 358.625V350.188H221.395C221.795 349.77 222.141 349.318 222.43 348.832C222.72 348.347 222.972 347.771 223.185 347.107C223.406 346.433 223.594 345.615 223.747 344.652C223.901 343.68 224.037 342.509 224.156 341.136L224.821 333.364H237.298V350.188H240.315V358.625H237.298V353H222.776V358.625H219.759ZM224.821 350.188H234.281V336.176H227.634L227.122 341.136C226.909 343.19 226.645 344.984 226.33 346.518C226.014 348.053 225.511 349.276 224.821 350.188ZM250.098 353.46C248.854 353.46 247.725 353.226 246.711 352.757C245.696 352.28 244.891 351.594 244.294 350.699C243.698 349.795 243.4 348.705 243.4 347.426C243.4 346.301 243.621 345.389 244.064 344.69C244.507 343.983 245.1 343.429 245.841 343.028C246.583 342.628 247.401 342.33 248.296 342.134C249.199 341.929 250.107 341.767 251.019 341.648C252.212 341.494 253.179 341.379 253.921 341.303C254.671 341.217 255.216 341.077 255.557 340.881C255.907 340.685 256.081 340.344 256.081 339.858V339.756C256.081 338.494 255.736 337.514 255.046 336.815C254.364 336.116 253.328 335.767 251.939 335.767C250.499 335.767 249.37 336.082 248.551 336.713C247.733 337.344 247.158 338.017 246.826 338.733L243.962 337.71C244.473 336.517 245.155 335.588 246.007 334.923C246.868 334.25 247.806 333.781 248.82 333.517C249.843 333.244 250.848 333.108 251.837 333.108C252.468 333.108 253.192 333.185 254.01 333.338C254.837 333.483 255.634 333.786 256.401 334.246C257.176 334.706 257.82 335.401 258.331 336.33C258.843 337.259 259.098 338.503 259.098 340.062V353H256.081V350.341H255.928C255.723 350.767 255.382 351.223 254.905 351.709C254.428 352.195 253.793 352.608 253 352.949C252.208 353.29 251.24 353.46 250.098 353.46ZM250.559 350.75C251.752 350.75 252.757 350.516 253.576 350.047C254.402 349.578 255.025 348.973 255.442 348.232C255.868 347.49 256.081 346.71 256.081 345.892V343.131C255.953 343.284 255.672 343.425 255.238 343.553C254.811 343.672 254.317 343.778 253.755 343.872C253.201 343.957 252.659 344.034 252.131 344.102C251.611 344.162 251.189 344.213 250.865 344.256C250.081 344.358 249.348 344.524 248.667 344.754C247.993 344.976 247.448 345.312 247.03 345.764C246.621 346.207 246.417 346.812 246.417 347.58C246.417 348.628 246.804 349.42 247.58 349.957C248.364 350.486 249.357 350.75 250.559 350.75ZM285.98 340.369V343.182H274.526V340.369H285.98ZM301.414 353V333.364H316.857V353H313.84V336.176H304.431V353H301.414ZM330.6 353.409C328.708 353.409 327.076 352.991 325.703 352.156C324.34 351.312 323.287 350.136 322.546 348.628C321.813 347.111 321.446 345.347 321.446 343.335C321.446 341.324 321.813 339.551 322.546 338.017C323.287 336.474 324.319 335.273 325.64 334.412C326.969 333.543 328.52 333.108 330.293 333.108C331.316 333.108 332.326 333.278 333.323 333.619C334.32 333.96 335.228 334.514 336.046 335.281C336.864 336.04 337.516 337.045 338.002 338.298C338.488 339.551 338.73 341.094 338.73 342.926V344.205H323.594V341.597H335.662C335.662 340.489 335.441 339.5 334.998 338.631C334.563 337.761 333.941 337.075 333.131 336.572C332.33 336.07 331.384 335.818 330.293 335.818C329.091 335.818 328.051 336.116 327.174 336.713C326.304 337.301 325.635 338.068 325.167 339.014C324.698 339.96 324.463 340.974 324.463 342.057V343.795C324.463 345.278 324.719 346.536 325.23 347.567C325.75 348.589 326.471 349.369 327.391 349.906C328.311 350.435 329.381 350.699 330.6 350.699C331.392 350.699 332.108 350.588 332.748 350.366C333.395 350.136 333.953 349.795 334.422 349.344C334.891 348.884 335.253 348.312 335.509 347.631L338.424 348.449C338.117 349.438 337.601 350.307 336.877 351.057C336.152 351.798 335.257 352.378 334.192 352.795C333.127 353.205 331.929 353.409 330.6 353.409ZM343.32 360.364V333.364H346.235V336.483H346.593C346.814 336.142 347.121 335.707 347.513 335.179C347.914 334.642 348.485 334.165 349.226 333.747C349.976 333.321 350.99 333.108 352.269 333.108C353.922 333.108 355.38 333.521 356.641 334.348C357.902 335.175 358.887 336.347 359.594 337.864C360.301 339.381 360.655 341.17 360.655 343.233C360.655 345.312 360.301 347.115 359.594 348.641C358.887 350.158 357.907 351.334 356.654 352.169C355.401 352.996 353.956 353.409 352.32 353.409C351.059 353.409 350.049 353.2 349.29 352.783C348.532 352.357 347.948 351.875 347.539 351.338C347.13 350.793 346.814 350.341 346.593 349.983H346.337V360.364H343.32ZM346.286 343.182C346.286 344.665 346.503 345.973 346.938 347.107C347.373 348.232 348.007 349.114 348.843 349.753C349.678 350.384 350.701 350.699 351.911 350.699C353.172 350.699 354.225 350.366 355.069 349.702C355.921 349.028 356.56 348.125 356.986 346.991C357.421 345.849 357.638 344.58 357.638 343.182C357.638 341.801 357.425 340.557 356.999 339.449C356.581 338.332 355.946 337.45 355.094 336.803C354.25 336.146 353.189 335.818 351.911 335.818C350.684 335.818 349.652 336.129 348.817 336.751C347.982 337.365 347.351 338.226 346.925 339.334C346.499 340.433 346.286 341.716 346.286 343.182ZM373.49 353.409C371.598 353.409 369.966 352.991 368.594 352.156C367.23 351.312 366.178 350.136 365.436 348.628C364.703 347.111 364.337 345.347 364.337 343.335C364.337 341.324 364.703 339.551 365.436 338.017C366.178 336.474 367.209 335.273 368.53 334.412C369.86 333.543 371.411 333.108 373.184 333.108C374.206 333.108 375.216 333.278 376.213 333.619C377.211 333.96 378.118 334.514 378.936 335.281C379.755 336.04 380.407 337.045 380.892 338.298C381.378 339.551 381.621 341.094 381.621 342.926V344.205H366.485V341.597H378.553C378.553 340.489 378.331 339.5 377.888 338.631C377.453 337.761 376.831 337.075 376.022 336.572C375.221 336.07 374.275 335.818 373.184 335.818C371.982 335.818 370.942 336.116 370.064 336.713C369.195 337.301 368.526 338.068 368.057 339.014C367.588 339.96 367.354 340.974 367.354 342.057V343.795C367.354 345.278 367.61 346.536 368.121 347.567C368.641 348.589 369.361 349.369 370.282 349.906C371.202 350.435 372.272 350.699 373.49 350.699C374.283 350.699 374.999 350.588 375.638 350.366C376.286 350.136 376.844 349.795 377.313 349.344C377.782 348.884 378.144 348.312 378.4 347.631L381.314 348.449C381.007 349.438 380.492 350.307 379.767 351.057C379.043 351.798 378.148 352.378 377.083 352.795C376.017 353.205 374.82 353.409 373.49 353.409ZM396.949 348.909L403.801 333.364H406.665L398.176 353H395.722L387.387 333.364H390.199L396.949 348.909ZM389.228 333.364V353H386.211V333.364H389.228ZM404.671 353V333.364H407.688V353H404.671ZM415.819 340.472H421.444C423.745 340.472 425.505 341.055 426.723 342.223C427.942 343.391 428.551 344.869 428.551 346.659C428.551 347.835 428.279 348.905 427.733 349.868C427.188 350.822 426.387 351.585 425.33 352.156C424.273 352.719 422.978 353 421.444 353H413.211V333.364H416.228V350.188H421.444C422.637 350.188 423.617 349.872 424.384 349.241C425.151 348.611 425.534 347.801 425.534 346.812C425.534 345.773 425.151 344.925 424.384 344.268C423.617 343.612 422.637 343.284 421.444 343.284H415.819V340.472ZM431.671 353V333.364H434.688V353H431.671ZM455.347 333.364V353H452.33V333.364H455.347ZM454.171 342.722V345.534C453.489 345.79 452.811 346.016 452.138 346.212C451.465 346.399 450.757 346.548 450.016 346.659C449.275 346.761 448.461 346.812 447.574 346.812C445.35 346.812 443.564 346.212 442.218 345.01C440.88 343.808 440.211 342.006 440.211 339.602V333.312H443.228V339.602C443.228 340.608 443.419 341.435 443.803 342.082C444.186 342.73 444.706 343.212 445.363 343.527C446.019 343.842 446.756 344 447.574 344C448.853 344 450.007 343.885 451.039 343.655C452.078 343.416 453.123 343.105 454.171 342.722ZM460.882 353V333.364H463.9V341.903H465.894L472.951 333.364H476.837L468.911 342.824L476.939 353H473.053L466.61 344.716H463.9V353H460.882ZM483.235 348.551L492.696 333.364H496.173V353H493.156V337.812L483.747 353H480.218V333.364H483.235V348.551Z" fill="white"/>
<path d="M109.756 429.818V456H106.585V432.631H93.392V456H90.2216V429.818H109.756ZM115.742 463.364V436.364H118.657V439.483H119.015C119.236 439.142 119.543 438.707 119.935 438.179C120.336 437.642 120.907 437.165 121.648 436.747C122.398 436.321 123.412 436.108 124.691 436.108C126.344 436.108 127.801 436.521 129.063 437.348C130.324 438.175 131.309 439.347 132.016 440.864C132.723 442.381 133.077 444.17 133.077 446.233C133.077 448.312 132.723 450.115 132.016 451.641C131.309 453.158 130.328 454.334 129.076 455.169C127.823 455.996 126.378 456.409 124.742 456.409C123.48 456.409 122.471 456.2 121.712 455.783C120.953 455.357 120.37 454.875 119.961 454.338C119.551 453.793 119.236 453.341 119.015 452.983H118.759V463.364H115.742ZM118.708 446.182C118.708 447.665 118.925 448.973 119.36 450.107C119.794 451.232 120.429 452.114 121.265 452.753C122.1 453.384 123.123 453.699 124.333 453.699C125.594 453.699 126.647 453.366 127.49 452.702C128.343 452.028 128.982 451.125 129.408 449.991C129.843 448.849 130.06 447.58 130.06 446.182C130.06 444.801 129.847 443.557 129.421 442.449C129.003 441.332 128.368 440.45 127.516 439.803C126.672 439.146 125.611 438.818 124.333 438.818C123.105 438.818 122.074 439.129 121.239 439.751C120.404 440.365 119.773 441.226 119.347 442.334C118.921 443.433 118.708 444.716 118.708 446.182ZM145.657 456.409C143.884 456.409 142.328 455.987 140.99 455.143C139.661 454.3 138.621 453.119 137.871 451.602C137.13 450.085 136.759 448.312 136.759 446.284C136.759 444.239 137.13 442.453 137.871 440.928C138.621 439.402 139.661 438.217 140.99 437.374C142.328 436.53 143.884 436.108 145.657 436.108C147.429 436.108 148.98 436.53 150.31 437.374C151.648 438.217 152.688 439.402 153.429 440.928C154.179 442.453 154.554 444.239 154.554 446.284C154.554 448.312 154.179 450.085 153.429 451.602C152.688 453.119 151.648 454.3 150.31 455.143C148.98 455.987 147.429 456.409 145.657 456.409ZM145.657 453.699C147.003 453.699 148.111 453.354 148.98 452.663C149.85 451.973 150.493 451.065 150.911 449.94C151.328 448.815 151.537 447.597 151.537 446.284C151.537 444.972 151.328 443.749 150.911 442.615C150.493 441.482 149.85 440.565 148.98 439.866C148.111 439.168 147.003 438.818 145.657 438.818C144.31 438.818 143.202 439.168 142.333 439.866C141.463 440.565 140.82 441.482 140.402 442.615C139.985 443.749 139.776 444.972 139.776 446.284C139.776 447.597 139.985 448.815 140.402 449.94C140.82 451.065 141.463 451.973 142.333 452.663C143.202 453.354 144.31 453.699 145.657 453.699ZM159.16 456V436.364H167.188C169.302 436.364 170.981 436.841 172.225 437.795C173.469 438.75 174.092 440.011 174.092 441.58C174.092 442.773 173.738 443.697 173.031 444.354C172.323 445.001 171.415 445.44 170.308 445.67C171.032 445.773 171.735 446.028 172.417 446.438C173.107 446.847 173.678 447.409 174.13 448.125C174.582 448.832 174.808 449.702 174.808 450.733C174.808 451.739 174.552 452.638 174.04 453.43C173.529 454.223 172.796 454.849 171.842 455.31C170.887 455.77 169.745 456 168.415 456H159.16ZM162.023 453.239H168.415C169.455 453.239 170.269 452.991 170.857 452.497C171.445 452.003 171.739 451.33 171.739 450.477C171.739 449.463 171.445 448.666 170.857 448.087C170.269 447.499 169.455 447.205 168.415 447.205H162.023V453.239ZM162.023 444.597H167.188C167.998 444.597 168.692 444.486 169.272 444.264C169.852 444.034 170.295 443.71 170.602 443.293C170.917 442.866 171.075 442.364 171.075 441.784C171.075 440.957 170.729 440.31 170.039 439.841C169.349 439.364 168.398 439.125 167.188 439.125H162.023V444.597ZM187.352 456.409C185.579 456.409 184.024 455.987 182.686 455.143C181.356 454.3 180.316 453.119 179.566 451.602C178.825 450.085 178.454 448.312 178.454 446.284C178.454 444.239 178.825 442.453 179.566 440.928C180.316 439.402 181.356 438.217 182.686 437.374C184.024 436.53 185.579 436.108 187.352 436.108C189.125 436.108 190.676 436.53 192.005 437.374C193.343 438.217 194.383 439.402 195.125 440.928C195.875 442.453 196.25 444.239 196.25 446.284C196.25 448.312 195.875 450.085 195.125 451.602C194.383 453.119 193.343 454.3 192.005 455.143C190.676 455.987 189.125 456.409 187.352 456.409ZM187.352 453.699C188.699 453.699 189.806 453.354 190.676 452.663C191.545 451.973 192.189 451.065 192.606 449.94C193.024 448.815 193.233 447.597 193.233 446.284C193.233 444.972 193.024 443.749 192.606 442.615C192.189 441.482 191.545 440.565 190.676 439.866C189.806 439.168 188.699 438.818 187.352 438.818C186.005 438.818 184.897 439.168 184.028 439.866C183.159 440.565 182.515 441.482 182.098 442.615C181.68 443.749 181.471 444.972 181.471 446.284C181.471 447.597 181.68 448.815 182.098 449.94C182.515 451.065 183.159 451.973 184.028 452.663C184.897 453.354 186.005 453.699 187.352 453.699ZM198.759 461.625V453.188H200.395C200.795 452.77 201.141 452.318 201.43 451.832C201.72 451.347 201.972 450.771 202.185 450.107C202.406 449.433 202.594 448.615 202.747 447.652C202.901 446.68 203.037 445.509 203.156 444.136L203.821 436.364H216.298V453.188H219.315V461.625H216.298V456H201.776V461.625H198.759ZM203.821 453.188H213.281V439.176H206.634L206.122 444.136C205.909 446.19 205.645 447.984 205.33 449.518C205.014 451.053 204.511 452.276 203.821 453.188ZM251.036 429.818H254.206V447.153C254.206 448.943 253.784 450.541 252.941 451.947C252.105 453.345 250.925 454.449 249.4 455.259C247.874 456.06 246.084 456.46 244.03 456.46C241.976 456.46 240.186 456.06 238.661 455.259C237.135 454.449 235.951 453.345 235.107 451.947C234.272 450.541 233.854 448.943 233.854 447.153V429.818H237.025V446.898C237.025 448.176 237.306 449.314 237.868 450.311C238.431 451.3 239.232 452.08 240.272 452.651C241.32 453.213 242.573 453.494 244.03 453.494C245.488 453.494 246.74 453.213 247.789 452.651C248.837 452.08 249.638 451.3 250.192 450.311C250.755 449.314 251.036 448.176 251.036 446.898V429.818ZM274.856 436.364C274.702 435.068 274.08 434.062 272.989 433.347C271.898 432.631 270.56 432.273 268.975 432.273C267.816 432.273 266.802 432.46 265.933 432.835C265.072 433.21 264.398 433.726 263.913 434.382C263.435 435.038 263.197 435.784 263.197 436.619C263.197 437.318 263.363 437.919 263.695 438.422C264.036 438.916 264.471 439.33 264.999 439.662C265.528 439.986 266.082 440.254 266.661 440.467C267.241 440.672 267.773 440.838 268.259 440.966L270.918 441.682C271.6 441.861 272.359 442.108 273.194 442.423C274.038 442.739 274.843 443.169 275.61 443.714C276.386 444.251 277.025 444.942 277.528 445.786C278.031 446.629 278.282 447.665 278.282 448.892C278.282 450.307 277.911 451.585 277.17 452.727C276.437 453.869 275.363 454.777 273.948 455.45C272.542 456.124 270.833 456.46 268.822 456.46C266.947 456.46 265.323 456.158 263.951 455.553C262.587 454.947 261.513 454.104 260.729 453.021C259.954 451.939 259.515 450.682 259.413 449.25H262.685C262.771 450.239 263.103 451.057 263.683 451.705C264.271 452.344 265.012 452.821 265.907 453.136C266.81 453.443 267.782 453.597 268.822 453.597C270.032 453.597 271.119 453.401 272.082 453.009C273.045 452.608 273.808 452.054 274.37 451.347C274.933 450.631 275.214 449.795 275.214 448.841C275.214 447.972 274.971 447.264 274.485 446.719C273.999 446.173 273.36 445.73 272.567 445.389C271.775 445.048 270.918 444.75 269.998 444.494L266.776 443.574C264.731 442.986 263.112 442.146 261.918 441.055C260.725 439.964 260.129 438.537 260.129 436.773C260.129 435.307 260.525 434.028 261.317 432.938C262.119 431.838 263.192 430.986 264.539 430.381C265.894 429.767 267.407 429.46 269.077 429.46C270.765 429.46 272.265 429.763 273.577 430.368C274.89 430.964 275.93 431.783 276.697 432.822C277.472 433.862 277.881 435.043 277.924 436.364H274.856ZM283.495 456V429.818H292.648C294.472 429.818 295.976 430.134 297.161 430.764C298.346 431.386 299.228 432.226 299.807 433.283C300.387 434.331 300.676 435.494 300.676 436.773C300.676 437.898 300.476 438.827 300.076 439.56C299.684 440.293 299.164 440.872 298.516 441.298C297.877 441.724 297.182 442.04 296.432 442.244V442.5C297.233 442.551 298.039 442.832 298.848 443.344C299.658 443.855 300.336 444.588 300.881 445.543C301.426 446.497 301.699 447.665 301.699 449.045C301.699 450.358 301.401 451.538 300.804 452.587C300.208 453.635 299.266 454.466 297.979 455.08C296.692 455.693 295.017 456 292.955 456H283.495ZM286.665 453.188H292.955C295.026 453.188 296.496 452.787 297.365 451.986C298.243 451.176 298.682 450.196 298.682 449.045C298.682 448.159 298.456 447.341 298.005 446.591C297.553 445.832 296.909 445.227 296.074 444.776C295.239 444.315 294.25 444.085 293.108 444.085H286.665V453.188ZM286.665 441.324H292.546C293.5 441.324 294.361 441.136 295.128 440.761C295.904 440.386 296.517 439.858 296.969 439.176C297.429 438.494 297.659 437.693 297.659 436.773C297.659 435.622 297.259 434.646 296.458 433.845C295.657 433.036 294.387 432.631 292.648 432.631H286.665V441.324ZM331.863 441.503V444.315H313.863V441.503H331.863ZM362.341 429.818H365.511V447.153C365.511 448.943 365.089 450.541 364.245 451.947C363.41 453.345 362.23 454.449 360.704 455.259C359.179 456.06 357.389 456.46 355.335 456.46C353.281 456.46 351.491 456.06 349.966 455.259C348.44 454.449 347.255 453.345 346.412 451.947C345.576 450.541 345.159 448.943 345.159 447.153V429.818H348.329V446.898C348.329 448.176 348.61 449.314 349.173 450.311C349.735 451.3 350.537 452.08 351.576 452.651C352.625 453.213 353.877 453.494 355.335 453.494C356.792 453.494 358.045 453.213 359.093 452.651C360.142 452.08 360.943 451.3 361.497 450.311C362.059 449.314 362.341 448.176 362.341 446.898V429.818ZM386.161 436.364C386.007 435.068 385.385 434.062 384.294 433.347C383.203 432.631 381.865 432.273 380.28 432.273C379.121 432.273 378.107 432.46 377.237 432.835C376.376 433.21 375.703 433.726 375.217 434.382C374.74 435.038 374.501 435.784 374.501 436.619C374.501 437.318 374.668 437.919 375 438.422C375.341 438.916 375.776 439.33 376.304 439.662C376.832 439.986 377.386 440.254 377.966 440.467C378.545 440.672 379.078 440.838 379.564 440.966L382.223 441.682C382.905 441.861 383.663 442.108 384.499 442.423C385.342 442.739 386.148 443.169 386.915 443.714C387.69 444.251 388.33 444.942 388.832 445.786C389.335 446.629 389.587 447.665 389.587 448.892C389.587 450.307 389.216 451.585 388.474 452.727C387.741 453.869 386.668 454.777 385.253 455.45C383.847 456.124 382.138 456.46 380.126 456.46C378.251 456.46 376.628 456.158 375.256 455.553C373.892 454.947 372.818 454.104 372.034 453.021C371.259 451.939 370.82 450.682 370.717 449.25H373.99C374.075 450.239 374.408 451.057 374.987 451.705C375.575 452.344 376.317 452.821 377.212 453.136C378.115 453.443 379.087 453.597 380.126 453.597C381.337 453.597 382.423 453.401 383.386 453.009C384.349 452.608 385.112 452.054 385.675 451.347C386.237 450.631 386.518 449.795 386.518 448.841C386.518 447.972 386.276 447.264 385.79 446.719C385.304 446.173 384.665 445.73 383.872 445.389C383.08 445.048 382.223 444.75 381.303 444.494L378.081 443.574C376.036 442.986 374.416 442.146 373.223 441.055C372.03 439.964 371.433 438.537 371.433 436.773C371.433 435.307 371.83 434.028 372.622 432.938C373.423 431.838 374.497 430.986 375.844 430.381C377.199 429.767 378.712 429.46 380.382 429.46C382.07 429.46 383.57 429.763 384.882 430.368C386.195 430.964 387.234 431.783 388.001 432.822C388.777 433.862 389.186 435.043 389.229 436.364H386.161ZM394.799 456V429.818H403.953C405.777 429.818 407.281 430.134 408.466 430.764C409.65 431.386 410.532 432.226 411.112 433.283C411.691 434.331 411.981 435.494 411.981 436.773C411.981 437.898 411.781 438.827 411.38 439.56C410.988 440.293 410.468 440.872 409.821 441.298C409.181 441.724 408.487 442.04 407.737 442.244V442.5C408.538 442.551 409.343 442.832 410.153 443.344C410.963 443.855 411.64 444.588 412.186 445.543C412.731 446.497 413.004 447.665 413.004 449.045C413.004 450.358 412.706 451.538 412.109 452.587C411.512 453.635 410.571 454.466 409.284 455.08C407.997 455.693 406.322 456 404.26 456H394.799ZM397.97 453.188H404.26C406.331 453.188 407.801 452.787 408.67 451.986C409.548 451.176 409.987 450.196 409.987 449.045C409.987 448.159 409.761 447.341 409.309 446.591C408.858 445.832 408.214 445.227 407.379 444.776C406.544 444.315 405.555 444.085 404.413 444.085H397.97V453.188ZM397.97 441.324H403.85C404.805 441.324 405.666 441.136 406.433 440.761C407.208 440.386 407.822 439.858 408.274 439.176C408.734 438.494 408.964 437.693 408.964 436.773C408.964 435.622 408.564 434.646 407.762 433.845C406.961 433.036 405.691 432.631 403.953 432.631H397.97V441.324ZM427.929 456V436.364H430.844V439.432H431.1C431.509 438.384 432.169 437.57 433.081 436.99C433.993 436.402 435.088 436.108 436.367 436.108C437.662 436.108 438.74 436.402 439.601 436.99C440.471 437.57 441.148 438.384 441.634 439.432H441.838C442.341 438.418 443.096 437.612 444.101 437.016C445.107 436.411 446.313 436.108 447.719 436.108C449.475 436.108 450.911 436.658 452.027 437.757C453.144 438.848 453.702 440.548 453.702 442.858V456H450.685V442.858C450.685 441.409 450.289 440.374 449.496 439.751C448.703 439.129 447.77 438.818 446.696 438.818C445.316 438.818 444.246 439.236 443.488 440.071C442.729 440.898 442.35 441.946 442.35 443.216V456H439.282V442.551C439.282 441.435 438.919 440.536 438.195 439.854C437.471 439.163 436.537 438.818 435.395 438.818C434.611 438.818 433.878 439.027 433.196 439.445C432.523 439.862 431.978 440.442 431.56 441.183C431.151 441.916 430.946 442.764 430.946 443.727V456H427.929ZM459.218 456V436.364H462.235V456H459.218ZM460.752 433.091C460.164 433.091 459.657 432.891 459.231 432.49C458.814 432.089 458.605 431.608 458.605 431.045C458.605 430.483 458.814 430.001 459.231 429.601C459.657 429.2 460.164 429 460.752 429C461.341 429 461.843 429.2 462.261 429.601C462.687 430.001 462.9 430.483 462.9 431.045C462.9 431.608 462.687 432.089 462.261 432.49C461.843 432.891 461.341 433.091 460.752 433.091ZM475.739 456.409C473.898 456.409 472.313 455.974 470.983 455.105C469.653 454.236 468.631 453.038 467.915 451.513C467.199 449.987 466.841 448.244 466.841 446.284C466.841 444.29 467.207 442.53 467.94 441.004C468.682 439.47 469.713 438.273 471.034 437.412C472.364 436.543 473.915 436.108 475.688 436.108C477.068 436.108 478.312 436.364 479.42 436.875C480.528 437.386 481.436 438.102 482.143 439.023C482.851 439.943 483.29 441.017 483.46 442.244H480.443C480.213 441.349 479.702 440.557 478.909 439.866C478.125 439.168 477.068 438.818 475.739 438.818C474.563 438.818 473.531 439.125 472.645 439.739C471.767 440.344 471.081 441.2 470.587 442.308C470.101 443.408 469.858 444.699 469.858 446.182C469.858 447.699 470.097 449.02 470.574 450.145C471.06 451.27 471.741 452.143 472.619 452.766C473.506 453.388 474.545 453.699 475.739 453.699C476.523 453.699 477.234 453.562 477.874 453.29C478.513 453.017 479.054 452.625 479.497 452.114C479.94 451.602 480.256 450.989 480.443 450.273H483.46C483.29 451.432 482.868 452.476 482.195 453.405C481.53 454.325 480.648 455.058 479.548 455.604C478.457 456.141 477.188 456.409 475.739 456.409ZM487.871 456V436.364H490.786V439.33H490.99C491.348 438.358 491.996 437.57 492.933 436.964C493.871 436.359 494.928 436.057 496.104 436.057C496.325 436.057 496.602 436.061 496.935 436.07C497.267 436.078 497.518 436.091 497.689 436.108V439.176C497.587 439.151 497.352 439.112 496.986 439.061C496.628 439.001 496.249 438.972 495.848 438.972C494.893 438.972 494.041 439.172 493.291 439.572C492.55 439.964 491.962 440.51 491.527 441.209C491.101 441.899 490.888 442.687 490.888 443.574V456H487.871ZM508.645 456.409C506.872 456.409 505.317 455.987 503.979 455.143C502.649 454.3 501.609 453.119 500.859 451.602C500.118 450.085 499.747 448.312 499.747 446.284C499.747 444.239 500.118 442.453 500.859 440.928C501.609 439.402 502.649 438.217 503.979 437.374C505.317 436.53 506.872 436.108 508.645 436.108C510.418 436.108 511.969 436.53 513.298 437.374C514.636 438.217 515.676 439.402 516.418 440.928C517.168 442.453 517.543 444.239 517.543 446.284C517.543 448.312 517.168 450.085 516.418 451.602C515.676 453.119 514.636 454.3 513.298 455.143C511.969 455.987 510.418 456.409 508.645 456.409ZM508.645 453.699C509.991 453.699 511.099 453.354 511.969 452.663C512.838 451.973 513.482 451.065 513.899 449.94C514.317 448.815 514.526 447.597 514.526 446.284C514.526 444.972 514.317 443.749 513.899 442.615C513.482 441.482 512.838 440.565 511.969 439.866C511.099 439.168 509.991 438.818 508.645 438.818C507.298 438.818 506.19 439.168 505.321 439.866C504.452 440.565 503.808 441.482 503.391 442.615C502.973 443.749 502.764 444.972 502.764 446.284C502.764 447.597 502.973 448.815 503.391 449.94C503.808 451.065 504.452 451.973 505.321 452.663C506.19 453.354 507.298 453.699 508.645 453.699Z" fill="white"/>
<path d="M766.014 135.909V165H759.864V141.747H759.693L753.031 145.923V140.469L760.233 135.909H766.014Z" fill="white"/>
<path d="M765.014 234.909V264H758.864V240.747H758.693L752.031 244.923V239.469L759.233 234.909H765.014Z" fill="white"/>
<path d="M735.358 358V353.568L745.713 343.98C746.594 343.128 747.332 342.361 747.929 341.679C748.535 340.997 748.994 340.33 749.307 339.676C749.619 339.013 749.776 338.298 749.776 337.531C749.776 336.679 749.581 335.945 749.193 335.33C748.805 334.705 748.275 334.226 747.602 333.895C746.93 333.554 746.168 333.384 745.315 333.384C744.425 333.384 743.649 333.563 742.986 333.923C742.323 334.283 741.812 334.799 741.452 335.472C741.092 336.144 740.912 336.944 740.912 337.872H735.074C735.074 335.969 735.505 334.316 736.366 332.915C737.228 331.513 738.436 330.429 739.989 329.662C741.542 328.895 743.331 328.511 745.358 328.511C747.441 328.511 749.255 328.881 750.798 329.619C752.351 330.348 753.559 331.362 754.42 332.659C755.282 333.956 755.713 335.443 755.713 337.119C755.713 338.218 755.495 339.302 755.06 340.372C754.634 341.442 753.871 342.631 752.773 343.938C751.674 345.235 750.126 346.793 748.128 348.611L743.881 352.773V352.972H756.097V358H735.358ZM771.96 358.639C769.516 358.63 767.414 358.028 765.653 356.835C763.901 355.642 762.551 353.914 761.604 351.651C760.667 349.387 760.203 346.665 760.212 343.483C760.212 340.311 760.681 337.607 761.619 335.372C762.566 333.137 763.915 331.437 765.667 330.273C767.428 329.098 769.526 328.511 771.96 328.511C774.393 328.511 776.486 329.098 778.238 330.273C779.999 331.447 781.353 333.152 782.3 335.386C783.247 337.612 783.716 340.311 783.707 343.483C783.707 346.674 783.233 349.402 782.286 351.665C781.349 353.928 780.004 355.656 778.252 356.849C776.5 358.043 774.403 358.639 771.96 358.639ZM771.96 353.54C773.626 353.54 774.957 352.702 775.951 351.026C776.945 349.349 777.438 346.835 777.428 343.483C777.428 341.277 777.201 339.439 776.746 337.972C776.301 336.504 775.667 335.401 774.843 334.662C774.029 333.923 773.067 333.554 771.96 333.554C770.302 333.554 768.977 334.383 767.982 336.04C766.988 337.697 766.486 340.178 766.477 343.483C766.477 345.718 766.699 347.583 767.144 349.08C767.599 350.566 768.238 351.684 769.062 352.432C769.886 353.17 770.852 353.54 771.96 353.54Z" fill="white"/>
<path d="M765.014 425.909V455H758.864V431.747H758.693L752.031 435.923V430.469L759.233 425.909H765.014Z" fill="white"/>
<path d="M1057.92 159.886V155.043L1070.06 135.909H1074.24V142.614H1071.77L1064.11 154.73V154.957H1081.37V159.886H1057.92ZM1071.88 165V158.409L1071.99 156.264V135.909H1077.76V165H1071.88ZM1097.73 135.909V165H1091.58V141.747H1091.41L1084.75 145.923V140.469L1091.95 135.909H1097.73ZM1104.65 165V160.568L1115 150.98C1115.88 150.128 1116.62 149.361 1117.22 148.679C1117.82 147.997 1118.28 147.33 1118.6 146.676C1118.91 146.013 1119.06 145.298 1119.06 144.531C1119.06 143.679 1118.87 142.945 1118.48 142.33C1118.09 141.705 1117.56 141.226 1116.89 140.895C1116.22 140.554 1115.46 140.384 1114.6 140.384C1113.71 140.384 1112.94 140.563 1112.27 140.923C1111.61 141.283 1111.1 141.799 1110.74 142.472C1110.38 143.144 1110.2 143.944 1110.2 144.872H1104.36C1104.36 142.969 1104.79 141.316 1105.66 139.915C1106.52 138.513 1107.72 137.429 1109.28 136.662C1110.83 135.895 1112.62 135.511 1114.65 135.511C1116.73 135.511 1118.54 135.881 1120.09 136.619C1121.64 137.348 1122.85 138.362 1123.71 139.659C1124.57 140.956 1125 142.443 1125 144.119C1125 145.218 1124.78 146.302 1124.35 147.372C1123.92 148.442 1123.16 149.631 1122.06 150.938C1120.96 152.235 1119.42 153.793 1117.42 155.611L1113.17 159.773V159.972H1125.39V165H1104.65Z" fill="white"/>
<path d="M1067.01 424.909V454H1060.86V430.747H1060.69L1054.03 434.923V429.469L1061.23 424.909H1067.01ZM1084.55 454.398C1082.55 454.398 1080.76 454.028 1079.18 453.29C1077.62 452.551 1076.38 451.533 1075.46 450.236C1074.54 448.938 1074.07 447.452 1074.03 445.776H1079.99C1080.06 446.902 1080.53 447.816 1081.41 448.517C1082.29 449.218 1083.34 449.568 1084.55 449.568C1085.52 449.568 1086.37 449.355 1087.11 448.929C1087.86 448.493 1088.44 447.892 1088.86 447.125C1089.28 446.348 1089.5 445.458 1089.5 444.455C1089.5 443.432 1089.28 442.532 1088.84 441.756C1088.42 440.979 1087.83 440.373 1087.07 439.938C1086.31 439.502 1085.44 439.279 1084.47 439.27C1083.62 439.27 1082.79 439.445 1081.98 439.795C1081.19 440.146 1080.57 440.624 1080.12 441.23L1074.65 440.25L1076.03 424.909H1093.81V429.938H1081.1L1080.35 437.224H1080.52C1081.03 436.505 1081.8 435.908 1082.83 435.435C1083.87 434.961 1085.02 434.724 1086.3 434.724C1088.05 434.724 1089.61 435.136 1090.99 435.96C1092.36 436.784 1093.45 437.916 1094.24 439.355C1095.04 440.785 1095.43 442.433 1095.42 444.298C1095.43 446.259 1094.97 448.001 1094.06 449.526C1093.15 451.041 1091.87 452.234 1090.24 453.105C1088.61 453.967 1086.71 454.398 1084.55 454.398ZM1110.87 454.398C1109.38 454.388 1107.93 454.137 1106.54 453.645C1105.16 453.152 1103.92 452.352 1102.82 451.244C1101.72 450.136 1100.85 448.669 1100.21 446.841C1099.57 445.013 1099.25 442.769 1099.25 440.108C1099.26 437.665 1099.54 435.482 1100.09 433.56C1100.65 431.628 1101.45 429.99 1102.48 428.645C1103.52 427.3 1104.77 426.277 1106.22 425.577C1107.66 424.866 1109.29 424.511 1111.09 424.511C1113.03 424.511 1114.74 424.89 1116.23 425.648C1117.72 426.396 1118.91 427.414 1119.81 428.702C1120.72 429.99 1121.27 431.434 1121.46 433.034H1115.39C1115.15 432.021 1114.66 431.225 1113.9 430.648C1113.14 430.07 1112.2 429.781 1111.09 429.781C1109.19 429.781 1107.75 430.605 1106.77 432.253C1105.79 433.901 1105.3 436.14 1105.28 438.972H1105.48C1105.91 438.11 1106.5 437.376 1107.24 436.77C1107.99 436.154 1108.83 435.686 1109.78 435.364C1110.74 435.032 1111.75 434.866 1112.81 434.866C1114.53 434.866 1116.06 435.274 1117.41 436.088C1118.75 436.893 1119.81 438.001 1120.59 439.412C1121.37 440.823 1121.75 442.437 1121.75 444.256C1121.75 446.225 1121.3 447.977 1120.38 449.511C1119.47 451.045 1118.19 452.248 1116.56 453.119C1114.93 453.981 1113.03 454.407 1110.87 454.398ZM1110.85 449.568C1111.79 449.568 1112.64 449.341 1113.39 448.886C1114.14 448.432 1114.72 447.816 1115.15 447.04C1115.58 446.263 1115.79 445.392 1115.79 444.426C1115.79 443.46 1115.58 442.594 1115.15 441.827C1114.73 441.06 1114.16 440.449 1113.42 439.994C1112.68 439.54 1111.84 439.312 1110.89 439.312C1110.18 439.312 1109.52 439.445 1108.91 439.71C1108.32 439.975 1107.79 440.345 1107.34 440.818C1106.89 441.292 1106.54 441.841 1106.29 442.466C1106.03 443.081 1105.9 443.74 1105.9 444.44C1105.9 445.378 1106.12 446.235 1106.54 447.011C1106.98 447.788 1107.56 448.408 1108.3 448.872C1109.05 449.336 1109.9 449.568 1110.85 449.568Z" fill="white"/>
<path d="M1058.11 526.511C1059.6 526.511 1061.04 526.762 1062.42 527.264C1063.82 527.766 1065.06 528.566 1066.15 529.665C1067.24 530.763 1068.11 532.222 1068.75 534.04C1069.39 535.848 1069.72 538.069 1069.73 540.702C1069.73 543.173 1069.45 545.38 1068.89 547.321C1068.34 549.253 1067.55 550.896 1066.52 552.25C1065.48 553.604 1064.24 554.636 1062.78 555.347C1061.32 556.047 1059.69 556.398 1057.89 556.398C1055.95 556.398 1054.24 556.024 1052.75 555.276C1051.26 554.518 1050.07 553.491 1049.16 552.193C1048.26 550.886 1047.71 549.419 1047.52 547.79H1053.59C1053.83 548.85 1054.32 549.674 1055.08 550.261C1055.84 550.839 1056.78 551.128 1057.89 551.128C1059.79 551.128 1061.23 550.304 1062.21 548.656C1063.2 546.999 1063.69 544.731 1063.7 541.852H1063.5C1063.07 542.705 1062.48 543.438 1061.74 544.054C1061 544.66 1060.16 545.129 1059.2 545.46C1058.25 545.792 1057.24 545.957 1056.17 545.957C1054.46 545.957 1052.93 545.555 1051.59 544.75C1050.24 543.945 1049.18 542.837 1048.4 541.426C1047.63 540.015 1047.24 538.405 1047.24 536.597C1047.23 534.646 1047.68 532.908 1048.59 531.384C1049.5 529.859 1050.77 528.666 1052.4 527.804C1054.03 526.933 1055.94 526.502 1058.11 526.511ZM1058.15 531.341C1057.19 531.341 1056.34 531.568 1055.59 532.023C1054.85 532.477 1054.27 533.088 1053.83 533.855C1053.4 534.622 1053.2 535.479 1053.21 536.426C1053.21 537.383 1053.41 538.244 1053.83 539.011C1054.26 539.769 1054.83 540.375 1055.56 540.83C1056.3 541.275 1057.15 541.497 1058.09 541.497C1058.8 541.497 1059.46 541.365 1060.07 541.099C1060.67 540.834 1061.2 540.47 1061.64 540.006C1062.1 539.532 1062.45 538.988 1062.71 538.372C1062.96 537.757 1063.09 537.103 1063.09 536.412C1063.08 535.493 1062.86 534.651 1062.44 533.884C1062.01 533.116 1061.43 532.501 1060.68 532.037C1059.93 531.573 1059.09 531.341 1058.15 531.341ZM1085.61 556.398C1083.6 556.398 1081.81 556.028 1080.24 555.29C1078.68 554.551 1077.44 553.533 1076.52 552.236C1075.6 550.938 1075.12 549.452 1075.09 547.776H1081.05C1081.12 548.902 1081.59 549.816 1082.47 550.517C1083.35 551.218 1084.4 551.568 1085.61 551.568C1086.58 551.568 1087.43 551.355 1088.17 550.929C1088.92 550.493 1089.5 549.892 1089.92 549.125C1090.34 548.348 1090.56 547.458 1090.56 546.455C1090.56 545.432 1090.34 544.532 1089.9 543.756C1089.48 542.979 1088.88 542.373 1088.13 541.938C1087.37 541.502 1086.5 541.279 1085.53 541.27C1084.67 541.27 1083.85 541.445 1083.04 541.795C1082.25 542.146 1081.63 542.624 1081.18 543.23L1075.71 542.25L1077.09 526.909H1094.87V531.938H1082.16L1081.41 539.224H1081.58C1082.09 538.505 1082.86 537.908 1083.89 537.435C1084.93 536.961 1086.08 536.724 1087.36 536.724C1089.11 536.724 1090.67 537.136 1092.05 537.96C1093.42 538.784 1094.5 539.916 1095.3 541.355C1096.09 542.785 1096.49 544.433 1096.48 546.298C1096.49 548.259 1096.03 550.001 1095.11 551.526C1094.21 553.041 1092.93 554.234 1091.29 555.105C1089.66 555.967 1087.77 556.398 1085.61 556.398ZM1112.52 556.398C1110.4 556.398 1108.51 556.033 1106.85 555.304C1105.21 554.565 1103.9 553.552 1102.95 552.264C1102 550.967 1101.51 549.471 1101.48 547.776H1107.68C1107.72 548.486 1107.95 549.111 1108.37 549.651C1108.81 550.181 1109.39 550.593 1110.11 550.886C1110.83 551.18 1111.64 551.327 1112.54 551.327C1113.47 551.327 1114.3 551.161 1115.02 550.83C1115.74 550.498 1116.3 550.039 1116.71 549.452C1117.12 548.865 1117.32 548.187 1117.32 547.42C1117.32 546.644 1117.1 545.957 1116.67 545.361C1116.24 544.755 1115.63 544.281 1114.82 543.94C1114.03 543.599 1113.08 543.429 1111.98 543.429H1109.27V538.912H1111.98C1112.91 538.912 1113.73 538.751 1114.44 538.429C1115.16 538.107 1115.72 537.662 1116.11 537.094C1116.51 536.516 1116.71 535.844 1116.71 535.077C1116.71 534.348 1116.54 533.708 1116.19 533.159C1115.84 532.6 1115.36 532.165 1114.74 531.852C1114.12 531.54 1113.4 531.384 1112.58 531.384C1111.74 531.384 1110.98 531.535 1110.29 531.838C1109.6 532.132 1109.05 532.553 1108.63 533.102C1108.21 533.652 1107.99 534.295 1107.96 535.034H1102.07C1102.09 533.358 1102.57 531.881 1103.5 530.602C1104.43 529.324 1105.68 528.325 1107.25 527.605C1108.83 526.876 1110.62 526.511 1112.61 526.511C1114.61 526.511 1116.37 526.876 1117.88 527.605C1119.38 528.334 1120.55 529.319 1121.38 530.56C1122.23 531.791 1122.64 533.173 1122.63 534.707C1122.64 536.336 1122.14 537.695 1121.11 538.784C1120.1 539.873 1118.78 540.564 1117.15 540.858V541.085C1119.29 541.36 1120.92 542.103 1122.04 543.315C1123.16 544.518 1123.72 546.024 1123.71 547.832C1123.72 549.49 1123.25 550.962 1122.28 552.25C1121.32 553.538 1120 554.551 1118.32 555.29C1116.63 556.028 1114.7 556.398 1112.52 556.398Z" fill="white"/>
</svg>
