<svg width="369" height="161" viewBox="0 0 369 161" fill="none" xmlns="http://www.w3.org/2000/svg">
<path d="M26.752 62.768C23.296 62.768 20.0747 62.2133 17.088 61.104C14.144 59.952 11.584 58.3307 9.408 56.24C7.232 54.1493 5.52533 51.696 4.288 48.88C3.09333 46.064 2.496 42.9707 2.496 39.6C2.496 36.2293 3.09333 33.136 4.288 30.32C5.52533 27.504 7.232 25.0507 9.408 22.96C11.6267 20.8693 14.208 19.2693 17.152 18.16C20.096 17.008 23.3173 16.432 26.816 16.432C30.6987 16.432 34.1973 17.1147 37.312 18.48C40.4693 19.8027 43.1147 21.7653 45.248 24.368L38.592 30.512C37.056 28.7627 35.3493 27.4613 33.472 26.608C31.5947 25.712 29.5467 25.264 27.328 25.264C25.2373 25.264 23.3173 25.6053 21.568 26.288C19.8187 26.9707 18.304 27.952 17.024 29.232C15.744 30.512 14.7413 32.0267 14.016 33.776C13.3333 35.5253 12.992 37.4667 12.992 39.6C12.992 41.7333 13.3333 43.6747 14.016 45.424C14.7413 47.1733 15.744 48.688 17.024 49.968C18.304 51.248 19.8187 52.2293 21.568 52.912C23.3173 53.5947 25.2373 53.936 27.328 53.936C29.5467 53.936 31.5947 53.5093 33.472 52.656C35.3493 51.76 37.056 50.416 38.592 48.624L45.248 54.768C43.1147 57.3707 40.4693 59.3547 37.312 60.72C34.1973 62.0853 30.6773 62.768 26.752 62.768ZM61.232 62V23.28L63.6 25.648H46.96V17.2H85.808V25.648H69.168L71.472 23.28V62H61.232ZM85.012 62L104.98 17.2H115.22L135.252 62H124.372L107.988 22.448H112.084L95.636 62H85.012ZM94.996 52.4L97.748 44.528H120.788L123.604 52.4H94.996ZM141.193 62V17.2H160.585C164.596 17.2 168.052 17.8613 170.953 19.184C173.854 20.464 176.094 22.32 177.673 24.752C179.252 27.184 180.041 30.0853 180.041 33.456C180.041 36.784 179.252 39.664 177.673 42.096C176.094 44.528 173.854 46.4053 170.953 47.728C168.052 49.008 164.596 49.648 160.585 49.648H146.953L151.561 44.976V62H141.193ZM151.561 46.128L146.953 41.2H160.009C163.209 41.2 165.598 40.5173 167.177 39.152C168.756 37.7867 169.545 35.888 169.545 33.456C169.545 30.9813 168.756 29.0613 167.177 27.696C165.598 26.3307 163.209 25.648 160.009 25.648H146.953L151.561 20.72V46.128ZM195.357 62V23.28L197.725 25.648H181.085V17.2H219.933V25.648H203.293L205.597 23.28V62H195.357ZM226.042 53.552C228.516 54.2773 230.586 54.4907 232.25 54.192C233.956 53.8507 235.471 52.656 236.794 50.608L238.97 47.344L239.93 46.256L254.778 17.2H264.954L245.882 52.656C244.175 55.856 242.148 58.3093 239.802 60.016C237.498 61.7227 234.959 62.6827 232.186 62.896C229.412 63.152 226.532 62.6613 223.546 61.424L226.042 53.552ZM239.738 54.896L219.514 17.2H230.586L245.434 47.28L239.738 54.896ZM279.417 35.248H300.985V43.312H279.417V35.248ZM280.185 53.68H304.569V62H269.881V17.2H303.737V25.52H280.185V53.68ZM312.943 62V17.2H321.519L340.591 48.816H336.047L354.799 17.2H363.375L363.439 62H353.711L353.647 32.112H355.503L340.463 57.264H335.855L320.495 32.112H322.671V62H312.943Z" fill="white"/>
<rect x="61" y="90" width="252" height="71" rx="20" fill="#F9A400"/>
<path d="M85.6 140.32C83.7867 140.32 82.2 139.92 80.84 139.12C79.48 138.32 78.4133 137.107 77.64 135.48C76.8933 133.827 76.52 131.747 76.52 129.24C76.52 126.707 76.88 124.627 77.6 123C78.32 121.373 79.36 120.16 80.72 119.36C82.08 118.56 83.7067 118.16 85.6 118.16C87.6267 118.16 89.44 118.627 91.04 119.56C92.6667 120.467 93.9467 121.747 94.88 123.4C95.84 125.053 96.32 127 96.32 129.24C96.32 131.507 95.84 133.467 94.88 135.12C93.9467 136.773 92.6667 138.053 91.04 138.96C89.44 139.867 87.6267 140.32 85.6 140.32ZM72.88 147.76V118.48H78.84V122.88L78.72 129.28L79.12 135.64V147.76H72.88ZM84.52 135.2C85.56 135.2 86.48 134.96 87.28 134.48C88.1067 134 88.76 133.32 89.24 132.44C89.7467 131.533 90 130.467 90 129.24C90 127.987 89.7467 126.92 89.24 126.04C88.76 125.16 88.1067 124.48 87.28 124C86.48 123.52 85.56 123.28 84.52 123.28C83.48 123.28 82.5467 123.52 81.72 124C80.8933 124.48 80.24 125.16 79.76 126.04C79.28 126.92 79.04 127.987 79.04 129.24C79.04 130.467 79.28 131.533 79.76 132.44C80.24 133.32 80.8933 134 81.72 134.48C82.5467 134.96 83.48 135.2 84.52 135.2ZM100.497 140V118.48H106.457V124.56L105.617 122.8C106.257 121.28 107.284 120.133 108.697 119.36C110.111 118.56 111.831 118.16 113.857 118.16V123.92C113.591 123.893 113.351 123.88 113.137 123.88C112.924 123.853 112.697 123.84 112.457 123.84C110.751 123.84 109.364 124.333 108.297 125.32C107.257 126.28 106.737 127.787 106.737 129.84V140H100.497ZM127.651 140.32C125.358 140.32 123.318 139.84 121.531 138.88C119.771 137.92 118.371 136.613 117.331 134.96C116.318 133.28 115.811 131.373 115.811 129.24C115.811 127.08 116.318 125.173 117.331 123.52C118.371 121.84 119.771 120.533 121.531 119.6C123.318 118.64 125.358 118.16 127.651 118.16C129.918 118.16 131.945 118.64 133.731 119.6C135.518 120.533 136.918 121.827 137.931 123.48C138.945 125.133 139.451 127.053 139.451 129.24C139.451 131.373 138.945 133.28 137.931 134.96C136.918 136.613 135.518 137.92 133.731 138.88C131.945 139.84 129.918 140.32 127.651 140.32ZM127.651 135.2C128.691 135.2 129.625 134.96 130.451 134.48C131.278 134 131.931 133.32 132.411 132.44C132.891 131.533 133.131 130.467 133.131 129.24C133.131 127.987 132.891 126.92 132.411 126.04C131.931 125.16 131.278 124.48 130.451 124C129.625 123.52 128.691 123.28 127.651 123.28C126.611 123.28 125.678 123.52 124.851 124C124.025 124.48 123.358 125.16 122.851 126.04C122.371 126.92 122.131 127.987 122.131 129.24C122.131 130.467 122.371 131.533 122.851 132.44C123.358 133.32 124.025 134 124.851 134.48C125.678 134.96 126.611 135.2 127.651 135.2ZM152.862 140.32C150.836 140.32 149.009 139.867 147.382 138.96C145.756 138.027 144.462 136.733 143.502 135.08C142.569 133.427 142.102 131.48 142.102 129.24C142.102 126.973 142.569 125.013 143.502 123.36C144.462 121.707 145.756 120.427 147.382 119.52C149.009 118.613 150.836 118.16 152.862 118.16C154.676 118.16 156.262 118.56 157.622 119.36C158.982 120.16 160.036 121.373 160.782 123C161.529 124.627 161.902 126.707 161.902 129.24C161.902 131.747 161.542 133.827 160.822 135.48C160.102 137.107 159.062 138.32 157.702 139.12C156.369 139.92 154.756 140.32 152.862 140.32ZM153.942 135.2C154.956 135.2 155.876 134.96 156.702 134.48C157.529 134 158.182 133.32 158.662 132.44C159.169 131.533 159.422 130.467 159.422 129.24C159.422 127.987 159.169 126.92 158.662 126.04C158.182 125.16 157.529 124.48 156.702 124C155.876 123.52 154.956 123.28 153.942 123.28C152.902 123.28 151.969 123.52 151.142 124C150.316 124.48 149.649 125.16 149.142 126.04C148.662 126.92 148.422 127.987 148.422 129.24C148.422 130.467 148.662 131.533 149.142 132.44C149.649 133.32 150.316 134 151.142 134.48C151.969 134.96 152.902 135.2 153.942 135.2ZM159.582 140V135.6L159.702 129.2L159.302 122.84V110.32H165.542V140H159.582ZM180.398 140.32C178.611 140.32 177.011 139.973 175.598 139.28C174.211 138.587 173.131 137.533 172.358 136.12C171.584 134.68 171.198 132.853 171.198 130.64V118.48H177.438V129.72C177.438 131.507 177.811 132.827 178.558 133.68C179.331 134.507 180.411 134.92 181.798 134.92C182.758 134.92 183.611 134.72 184.358 134.32C185.104 133.893 185.691 133.253 186.118 132.4C186.544 131.52 186.758 130.427 186.758 129.12V118.48H192.998V140H187.078V134.08L188.158 135.8C187.438 137.293 186.371 138.427 184.958 139.2C183.571 139.947 182.051 140.32 180.398 140.32ZM209.178 140.32C206.858 140.32 204.792 139.853 202.978 138.92C201.165 137.96 199.738 136.64 198.698 134.96C197.685 133.28 197.178 131.373 197.178 129.24C197.178 127.08 197.685 125.173 198.698 123.52C199.738 121.84 201.165 120.533 202.978 119.6C204.792 118.64 206.858 118.16 209.178 118.16C211.445 118.16 213.418 118.64 215.098 119.6C216.778 120.533 218.018 121.88 218.818 123.64L213.978 126.24C213.418 125.227 212.712 124.48 211.858 124C211.032 123.52 210.125 123.28 209.138 123.28C208.072 123.28 207.112 123.52 206.258 124C205.405 124.48 204.725 125.16 204.218 126.04C203.738 126.92 203.498 127.987 203.498 129.24C203.498 130.493 203.738 131.56 204.218 132.44C204.725 133.32 205.405 134 206.258 134.48C207.112 134.96 208.072 135.2 209.138 135.2C210.125 135.2 211.032 134.973 211.858 134.52C212.712 134.04 213.418 133.28 213.978 132.24L218.818 134.88C218.018 136.613 216.778 137.96 215.098 138.92C213.418 139.853 211.445 140.32 209.178 140.32ZM231.524 140.32C228.99 140.32 227.017 139.68 225.604 138.4C224.19 137.093 223.484 135.16 223.484 132.6V113.72H229.724V132.52C229.724 133.427 229.964 134.133 230.444 134.64C230.924 135.12 231.577 135.36 232.404 135.36C233.39 135.36 234.23 135.093 234.924 134.56L236.604 138.96C235.964 139.413 235.19 139.76 234.284 140C233.404 140.213 232.484 140.32 231.524 140.32ZM220.164 123.76V118.96H235.084V123.76H220.164ZM240.107 140V118.48H246.347V140H240.107ZM243.227 115.48C242.08 115.48 241.147 115.147 240.427 114.48C239.707 113.813 239.347 112.987 239.347 112C239.347 111.013 239.707 110.187 240.427 109.52C241.147 108.853 242.08 108.52 243.227 108.52C244.373 108.52 245.307 108.84 246.027 109.48C246.747 110.093 247.107 110.893 247.107 111.88C247.107 112.92 246.747 113.787 246.027 114.48C245.333 115.147 244.4 115.48 243.227 115.48ZM262.378 140.32C260.084 140.32 258.044 139.84 256.258 138.88C254.498 137.92 253.098 136.613 252.058 134.96C251.044 133.28 250.538 131.373 250.538 129.24C250.538 127.08 251.044 125.173 252.058 123.52C253.098 121.84 254.498 120.533 256.258 119.6C258.044 118.64 260.084 118.16 262.378 118.16C264.644 118.16 266.671 118.64 268.458 119.6C270.244 120.533 271.644 121.827 272.658 123.48C273.671 125.133 274.178 127.053 274.178 129.24C274.178 131.373 273.671 133.28 272.658 134.96C271.644 136.613 270.244 137.92 268.458 138.88C266.671 139.84 264.644 140.32 262.378 140.32ZM262.378 135.2C263.418 135.2 264.351 134.96 265.178 134.48C266.004 134 266.658 133.32 267.138 132.44C267.618 131.533 267.858 130.467 267.858 129.24C267.858 127.987 267.618 126.92 267.138 126.04C266.658 125.16 266.004 124.48 265.178 124C264.351 123.52 263.418 123.28 262.378 123.28C261.338 123.28 260.404 123.52 259.578 124C258.751 124.48 258.084 125.16 257.578 126.04C257.098 126.92 256.858 127.987 256.858 129.24C256.858 130.467 257.098 131.533 257.578 132.44C258.084 133.32 258.751 134 259.578 134.48C260.404 134.96 261.338 135.2 262.378 135.2ZM291.429 118.16C293.135 118.16 294.655 118.507 295.989 119.2C297.349 119.867 298.415 120.907 299.189 122.32C299.962 123.707 300.349 125.493 300.349 127.68V140H294.109V128.64C294.109 126.907 293.722 125.627 292.949 124.8C292.202 123.973 291.135 123.56 289.749 123.56C288.762 123.56 287.869 123.773 287.069 124.2C286.295 124.6 285.682 125.227 285.229 126.08C284.802 126.933 284.589 128.027 284.589 129.36V140H278.349V118.48H284.309V124.44L283.189 122.64C283.962 121.2 285.069 120.093 286.509 119.32C287.949 118.547 289.589 118.16 291.429 118.16Z" fill="black"/>
</svg>
