<svg width="1066" height="165" viewBox="0 0 1066 165" fill="none" xmlns="http://www.w3.org/2000/svg">
<rect width="312" height="165" rx="25" fill="#FFA31A"/>
<rect x="377" width="312" height="165" rx="25" fill="#FFA31A"/>
<rect x="754" width="312" height="165" rx="25" fill="#FFA31A"/>
<path d="M124.119 55.5455V31.5455H128.892V34.4773H129.108C129.32 34.0076 129.627 33.5303 130.028 33.0455C130.438 32.553 130.968 32.1439 131.619 31.8182C132.278 31.4848 133.097 31.3182 134.074 31.3182C135.347 31.3182 136.521 31.6515 137.597 32.3182C138.672 32.9773 139.532 33.9735 140.176 35.3068C140.82 36.6326 141.142 38.2955 141.142 40.2955C141.142 42.2424 140.828 43.8864 140.199 45.2273C139.578 46.5606 138.729 47.572 137.653 48.2614C136.585 48.9432 135.388 49.2841 134.062 49.2841C133.123 49.2841 132.324 49.1288 131.665 48.8182C131.013 48.5076 130.479 48.1174 130.062 47.6477C129.646 47.1705 129.328 46.6894 129.108 46.2045H128.96V55.5455H124.119ZM128.858 40.2727C128.858 41.3106 129.002 42.2159 129.29 42.9886C129.578 43.7614 129.994 44.3636 130.54 44.7955C131.085 45.2197 131.748 45.4318 132.528 45.4318C133.316 45.4318 133.983 45.2159 134.528 44.7841C135.074 44.3447 135.487 43.7386 135.767 42.9659C136.055 42.1856 136.199 41.2879 136.199 40.2727C136.199 39.2652 136.059 38.3788 135.778 37.6136C135.498 36.8485 135.085 36.25 134.54 35.8182C133.994 35.3864 133.324 35.1705 132.528 35.1705C131.741 35.1705 131.074 35.3788 130.528 35.7955C129.991 36.2121 129.578 36.803 129.29 37.5682C129.002 38.3333 128.858 39.2348 128.858 40.2727ZM154.597 49V35.3409H151.324C150.438 35.3409 149.763 35.5455 149.301 35.9545C148.839 36.3636 148.612 36.8485 148.619 37.4091C148.612 37.9773 148.831 38.4583 149.278 38.8523C149.733 39.2386 150.4 39.4318 151.278 39.4318H156.21V42.7045H151.278C149.786 42.7045 148.494 42.4773 147.403 42.0227C146.312 41.5682 145.472 40.9356 144.881 40.125C144.29 39.3068 143.998 38.3561 144.006 37.2727C143.998 36.1364 144.29 35.1402 144.881 34.2841C145.472 33.4205 146.316 32.75 147.415 32.2727C148.521 31.7879 149.824 31.5455 151.324 31.5455H159.108V49H154.597ZM143.506 49L148.358 39.9091H152.983L148.142 49H143.506ZM161.506 54.1136V45.1591H162.847C163.233 44.9167 163.544 44.5303 163.778 44C164.021 43.4697 164.218 42.8447 164.369 42.125C164.528 41.4053 164.65 40.6288 164.733 39.7955C164.824 38.9545 164.903 38.1061 164.972 37.25L165.426 31.5455H178.812V45.1591H181.517V54.1136H176.903V49H166.233V54.1136H161.506ZM167.665 45.1591H174.244V35.2727H169.54L169.358 37.25C169.229 39.1136 169.044 40.697 168.801 42C168.559 43.2955 168.18 44.3485 167.665 45.1591ZM21.8807 64.1364L23.358 67.2955C22.8655 67.7045 22.3201 68.0076 21.7216 68.2045C21.1231 68.3939 20.4072 68.5189 19.5739 68.5795C18.7481 68.6402 17.7405 68.6818 16.5511 68.7045C15.2027 68.7197 14.1042 68.9356 13.2557 69.3523C12.4072 69.7689 11.7633 70.4242 11.3239 71.3182C10.8845 72.2045 10.5966 73.3636 10.4602 74.7955H10.6307C11.1534 73.7273 11.8883 72.9015 12.8352 72.3182C13.7898 71.7348 14.9678 71.4432 16.3693 71.4432C17.8542 71.4432 19.1534 71.7689 20.267 72.4205C21.3883 73.072 22.2595 74.0076 22.8807 75.2273C23.5019 76.447 23.8125 77.9091 23.8125 79.6136C23.8125 81.3864 23.464 82.928 22.767 84.2386C22.0777 85.5417 21.0966 86.553 19.8239 87.2727C18.5511 87.9848 17.036 88.3409 15.2784 88.3409C13.5133 88.3409 11.9905 87.9697 10.7102 87.2273C9.4375 86.4848 8.45265 85.3902 7.75568 83.9432C7.06629 82.4962 6.72159 80.7159 6.72159 78.6023V77.1705C6.72159 72.9659 7.53977 69.8485 9.17614 67.8182C10.8125 65.7879 13.2178 64.7576 16.392 64.7273C17.2557 64.7121 18.036 64.7083 18.733 64.7159C19.4299 64.7235 20.0398 64.6894 20.5625 64.6136C21.0928 64.5379 21.5322 64.3788 21.8807 64.1364ZM15.3011 84.5909C16.0436 84.5909 16.6799 84.3977 17.2102 84.0114C17.7481 83.625 18.161 83.072 18.4489 82.3523C18.7443 81.6326 18.892 80.7727 18.892 79.7727C18.892 78.7803 18.7443 77.9394 18.4489 77.25C18.161 76.553 17.7481 76.0227 17.2102 75.6591C16.6723 75.2955 16.0284 75.1136 15.2784 75.1136C14.7178 75.1136 14.214 75.2159 13.767 75.4205C13.3201 75.625 12.9375 75.928 12.6193 76.3295C12.3087 76.7235 12.0663 77.2121 11.892 77.7955C11.7254 78.3712 11.642 79.0303 11.642 79.7727C11.642 81.2652 11.964 82.4432 12.608 83.3068C13.2595 84.1629 14.1572 84.5909 15.3011 84.5909ZM36.6733 77.4432V81.2841H27.2074V77.4432H36.6733ZM30.946 70.5455V88H26.1165V70.5455H30.946ZM41.9006 88.3409C40.1733 88.3409 38.6809 87.9545 37.4233 87.1818C36.1657 86.4091 35.196 85.3409 34.5142 83.9773C33.84 82.6136 33.5028 81.0492 33.5028 79.2841C33.5028 77.5189 33.84 75.9621 34.5142 74.6136C35.196 73.2652 36.1657 72.2121 37.4233 71.4545C38.6809 70.697 40.1733 70.3182 41.9006 70.3182C43.6354 70.3182 45.1278 70.697 46.3778 71.4545C47.6354 72.2121 48.6013 73.2652 49.2756 74.6136C49.9574 75.9621 50.2983 77.5189 50.2983 79.2841C50.2983 81.0492 49.9574 82.6136 49.2756 83.9773C48.6013 85.3409 47.6354 86.4091 46.3778 87.1818C45.1278 87.9545 43.6354 88.3409 41.9006 88.3409ZM41.9006 84.4318C42.8021 84.4318 43.5294 84.2121 44.0824 83.7727C44.6354 83.3258 45.0407 82.7159 45.2983 81.9432C45.5559 81.1629 45.6847 80.2765 45.6847 79.2841C45.6847 78.2917 45.5559 77.4129 45.2983 76.6477C45.0407 75.875 44.6354 75.2689 44.0824 74.8295C43.5294 74.3902 42.8021 74.1705 41.9006 74.1705C41.0066 74.1705 40.2794 74.3902 39.7188 74.8295C39.1581 75.2614 38.7453 75.8598 38.4801 76.625C38.2225 77.3902 38.0938 78.2765 38.0938 79.2841C38.0938 80.2841 38.2225 81.1705 38.4801 81.9432C38.7453 82.7159 39.1581 83.3258 39.7188 83.7727C40.2794 84.2121 41.0066 84.4318 41.9006 84.4318ZM53.5881 94.5455V70.5455H58.3608V73.4773H58.5767C58.7888 73.0076 59.0956 72.5303 59.4972 72.0455C59.9063 71.553 60.4366 71.1439 61.0881 70.8182C61.7472 70.4848 62.5653 70.3182 63.5426 70.3182C64.8153 70.3182 65.9896 70.6515 67.0653 71.3182C68.1411 71.9773 69.0009 72.9735 69.6449 74.3068C70.2888 75.6326 70.6108 77.2955 70.6108 79.2955C70.6108 81.2424 70.2964 82.8864 69.6676 84.2273C69.0464 85.5606 68.1979 86.572 67.1222 87.2614C66.054 87.9432 64.857 88.2841 63.5312 88.2841C62.5919 88.2841 61.7926 88.1288 61.1335 87.8182C60.482 87.5076 59.9479 87.1174 59.5312 86.6477C59.1146 86.1705 58.7964 85.6894 58.5767 85.2045H58.429V94.5455H53.5881ZM58.3267 79.2727C58.3267 80.3106 58.4706 81.2159 58.7585 81.9886C59.0464 82.7614 59.4631 83.3636 60.0085 83.7955C60.554 84.2197 61.2169 84.4318 61.9972 84.4318C62.785 84.4318 63.4517 84.2159 63.9972 83.7841C64.5426 83.3447 64.9555 82.7386 65.2358 81.9659C65.5237 81.1856 65.6676 80.2879 65.6676 79.2727C65.6676 78.2652 65.5275 77.3788 65.2472 76.6136C64.9669 75.8485 64.554 75.25 64.0085 74.8182C63.4631 74.3864 62.7926 74.1705 61.9972 74.1705C61.2093 74.1705 60.5426 74.3788 59.9972 74.7955C59.4593 75.2121 59.0464 75.803 58.7585 76.5682C58.4706 77.3333 58.3267 78.2348 58.3267 79.2727ZM81.7244 88.3409C79.9593 88.3409 78.4328 87.9659 77.1449 87.2159C75.8646 86.4583 74.8759 85.4053 74.179 84.0568C73.482 82.7008 73.1335 81.1288 73.1335 79.3409C73.1335 77.5379 73.482 75.9621 74.179 74.6136C74.8759 73.2576 75.8646 72.2045 77.1449 71.4545C78.4328 70.697 79.9593 70.3182 81.7244 70.3182C83.4896 70.3182 85.0123 70.697 86.2926 71.4545C87.5805 72.2045 88.5729 73.2576 89.2699 74.6136C89.9669 75.9621 90.3153 77.5379 90.3153 79.3409C90.3153 81.1288 89.9669 82.7008 89.2699 84.0568C88.5729 85.4053 87.5805 86.4583 86.2926 87.2159C85.0123 87.9659 83.4896 88.3409 81.7244 88.3409ZM81.7472 84.5909C82.5502 84.5909 83.2206 84.3636 83.7585 83.9091C84.2964 83.447 84.7017 82.8182 84.9744 82.0227C85.2547 81.2273 85.3949 80.322 85.3949 79.3068C85.3949 78.2917 85.2547 77.3864 84.9744 76.5909C84.7017 75.7955 84.2964 75.1667 83.7585 74.7045C83.2206 74.2424 82.5502 74.0114 81.7472 74.0114C80.9366 74.0114 80.2547 74.2424 79.7017 74.7045C79.1563 75.1667 78.7434 75.7955 78.4631 76.5909C78.1903 77.3864 78.054 78.2917 78.054 79.3068C78.054 80.322 78.1903 81.2273 78.4631 82.0227C78.7434 82.8182 79.1563 83.447 79.7017 83.9091C80.2547 84.3636 80.9366 84.5909 81.7472 84.5909ZM93.4631 88V70.5455H98.304V77.3182H99.6676L104.418 70.5455H110.099L103.929 79.2045L110.168 88H104.418L100.111 81.8068H98.304V88H93.4631ZM112.213 94.5455V70.5455H116.986V73.4773H117.202C117.414 73.0076 117.721 72.5303 118.122 72.0455C118.531 71.553 119.062 71.1439 119.713 70.8182C120.372 70.4848 121.19 70.3182 122.168 70.3182C123.44 70.3182 124.615 70.6515 125.69 71.3182C126.766 71.9773 127.626 72.9735 128.27 74.3068C128.914 75.6326 129.236 77.2955 129.236 79.2955C129.236 81.2424 128.921 82.8864 128.293 84.2273C127.671 85.5606 126.823 86.572 125.747 87.2614C124.679 87.9432 123.482 88.2841 122.156 88.2841C121.217 88.2841 120.418 88.1288 119.759 87.8182C119.107 87.5076 118.573 87.1174 118.156 86.6477C117.74 86.1705 117.421 85.6894 117.202 85.2045H117.054V94.5455H112.213ZM116.952 79.2727C116.952 80.3106 117.096 81.2159 117.384 81.9886C117.671 82.7614 118.088 83.3636 118.634 83.7955C119.179 84.2197 119.842 84.4318 120.622 84.4318C121.41 84.4318 122.077 84.2159 122.622 83.7841C123.168 83.3447 123.58 82.7386 123.861 81.9659C124.149 81.1856 124.293 80.2879 124.293 79.2727C124.293 78.2652 124.152 77.3788 123.872 76.6136C123.592 75.8485 123.179 75.25 122.634 74.8182C122.088 74.3864 121.418 74.1705 120.622 74.1705C119.834 74.1705 119.168 74.3788 118.622 74.7955C118.084 75.2121 117.671 75.803 117.384 76.5682C117.096 77.3333 116.952 78.2348 116.952 79.2727ZM137.44 88.3295C136.327 88.3295 135.334 88.1364 134.463 87.75C133.592 87.3561 132.902 86.7765 132.395 86.0114C131.895 85.2386 131.645 84.2765 131.645 83.125C131.645 82.1553 131.823 81.3409 132.179 80.6818C132.535 80.0227 133.02 79.4924 133.634 79.0909C134.247 78.6894 134.944 78.3864 135.724 78.1818C136.512 77.9773 137.338 77.8333 138.202 77.75C139.217 77.6439 140.035 77.5455 140.656 77.4545C141.277 77.3561 141.728 77.2121 142.009 77.0227C142.289 76.8333 142.429 76.553 142.429 76.1818V76.1136C142.429 75.3939 142.202 74.8371 141.747 74.4432C141.3 74.0492 140.664 73.8523 139.838 73.8523C138.967 73.8523 138.274 74.0455 137.759 74.4318C137.243 74.8106 136.902 75.2879 136.736 75.8636L132.259 75.5C132.486 74.4394 132.933 73.5227 133.599 72.75C134.266 71.9697 135.126 71.3712 136.179 70.9545C137.24 70.5303 138.467 70.3182 139.861 70.3182C140.83 70.3182 141.759 70.4318 142.645 70.6591C143.539 70.8864 144.33 71.2386 145.02 71.7159C145.717 72.1932 146.266 72.8068 146.668 73.5568C147.069 74.2992 147.27 75.1894 147.27 76.2273V88H142.679V85.5795H142.543C142.262 86.125 141.887 86.6061 141.418 87.0227C140.948 87.4318 140.384 87.7538 139.724 87.9886C139.065 88.2159 138.304 88.3295 137.44 88.3295ZM138.827 84.9886C139.539 84.9886 140.168 84.8485 140.713 84.5682C141.259 84.2803 141.687 83.8939 141.997 83.4091C142.308 82.9242 142.463 82.375 142.463 81.7614V79.9091C142.312 80.0076 142.103 80.0985 141.838 80.1818C141.58 80.2576 141.289 80.3295 140.963 80.3977C140.637 80.4583 140.312 80.5152 139.986 80.5682C139.66 80.6136 139.365 80.6553 139.099 80.6932C138.531 80.7765 138.035 80.9091 137.611 81.0909C137.187 81.2727 136.857 81.5189 136.622 81.8295C136.387 82.1326 136.27 82.5114 136.27 82.9659C136.27 83.625 136.509 84.1288 136.986 84.4773C137.471 84.8182 138.084 84.9886 138.827 84.9886ZM149.273 74.3523V70.5455H165.091V74.3523H159.466V88H154.852V74.3523H149.273ZM172.651 81.6136L178.935 70.5455H183.707V88H179.094V76.8977L172.832 88H168.026V70.5455H172.651V81.6136ZM202.736 70.5455V88H198.145V70.5455H202.736ZM200.497 78.2045V82.0227C200.126 82.1894 199.664 82.3485 199.111 82.5C198.558 82.6439 197.978 82.7614 197.372 82.8523C196.766 82.9432 196.198 82.9886 195.668 82.9886C193.16 82.9886 191.187 82.4735 189.747 81.4432C188.308 80.4053 187.588 78.75 187.588 76.4773V70.5227H192.156V76.4773C192.156 77.1515 192.27 77.6856 192.497 78.0795C192.732 78.4735 193.103 78.7576 193.611 78.9318C194.126 79.0985 194.812 79.1818 195.668 79.1818C196.463 79.1818 197.243 79.0985 198.009 78.9318C198.774 78.7652 199.603 78.5227 200.497 78.2045ZM214.449 88.3409C212.653 88.3409 211.108 87.9773 209.812 87.25C208.525 86.5152 207.532 85.4773 206.835 84.1364C206.138 82.7879 205.79 81.1932 205.79 79.3523C205.79 77.5568 206.138 75.9811 206.835 74.625C207.532 73.2689 208.513 72.2121 209.778 71.4545C211.051 70.697 212.544 70.3182 214.256 70.3182C215.407 70.3182 216.479 70.5038 217.472 70.875C218.472 71.2386 219.343 71.7879 220.085 72.5227C220.835 73.2576 221.419 74.1818 221.835 75.2955C222.252 76.4015 222.46 77.697 222.46 79.1818V80.5114H207.722V77.5114H217.903C217.903 76.8144 217.752 76.197 217.449 75.6591C217.146 75.1212 216.725 74.7008 216.188 74.3977C215.657 74.0871 215.04 73.9318 214.335 73.9318C213.6 73.9318 212.949 74.1023 212.381 74.4432C211.82 74.7765 211.381 75.2273 211.062 75.7955C210.744 76.3561 210.581 76.9811 210.574 77.6705V80.5227C210.574 81.3864 210.733 82.1326 211.051 82.7614C211.377 83.3902 211.835 83.875 212.426 84.2159C213.017 84.5568 213.718 84.7273 214.528 84.7273C215.066 84.7273 215.559 84.6515 216.006 84.5C216.453 84.3485 216.835 84.1212 217.153 83.8182C217.472 83.5152 217.714 83.1439 217.881 82.7045L222.358 83C222.131 84.0758 221.665 85.0152 220.96 85.8182C220.263 86.6136 219.362 87.2348 218.256 87.6818C217.157 88.1212 215.888 88.3409 214.449 88.3409ZM233.506 88.3409C231.718 88.3409 230.18 87.9621 228.892 87.2045C227.612 86.4394 226.627 85.3788 225.938 84.0227C225.256 82.6667 224.915 81.1061 224.915 79.3409C224.915 77.553 225.259 75.9848 225.949 74.6364C226.646 73.2803 227.634 72.2235 228.915 71.4659C230.195 70.7008 231.718 70.3182 233.483 70.3182C235.006 70.3182 236.339 70.5947 237.483 71.1477C238.627 71.7008 239.532 72.4773 240.199 73.4773C240.866 74.4773 241.233 75.6515 241.301 77H236.733C236.604 76.1288 236.263 75.428 235.71 74.8977C235.165 74.3598 234.449 74.0909 233.562 74.0909C232.812 74.0909 232.157 74.2955 231.597 74.7045C231.044 75.1061 230.612 75.6932 230.301 76.4659C229.991 77.2386 229.835 78.1742 229.835 79.2727C229.835 80.3864 229.987 81.3333 230.29 82.1136C230.6 82.8939 231.036 83.4886 231.597 83.8977C232.157 84.3068 232.812 84.5114 233.562 84.5114C234.116 84.5114 234.612 84.3977 235.051 84.1705C235.498 83.9432 235.866 83.6136 236.153 83.1818C236.449 82.7424 236.642 82.2159 236.733 81.6023H241.301C241.225 82.9356 240.862 84.1098 240.21 85.125C239.566 86.1326 238.676 86.9205 237.54 87.4886C236.403 88.0568 235.059 88.3409 233.506 88.3409ZM244.401 88V70.5455H249.241V77.3182H250.605L255.355 70.5455H261.037L254.866 79.2045L261.105 88H255.355L251.048 81.8068H249.241V88H244.401ZM267.776 81.6136L274.06 70.5455H278.832V88H274.219V76.8977L267.957 88H263.151V70.5455H267.776V81.6136ZM286.759 70.5455L289.963 76.6477L293.247 70.5455H298.213L293.156 79.2727L298.349 88H293.406L289.963 81.9659L286.577 88H281.577L286.759 79.2727L281.759 70.5455H286.759ZM80.9787 127V109.545H88.4219C90.5734 109.545 92.2741 109.955 93.5241 110.773C94.7741 111.591 95.3991 112.754 95.3991 114.261C95.3991 115.208 95.0469 115.996 94.3423 116.625C93.6378 117.254 92.6605 117.678 91.4105 117.898C92.456 117.973 93.3461 118.212 94.081 118.614C94.8234 119.008 95.3878 119.519 95.7741 120.148C96.1681 120.777 96.3651 121.473 96.3651 122.239C96.3651 123.231 96.0999 124.083 95.5696 124.795C95.0469 125.508 94.2779 126.053 93.2628 126.432C92.2552 126.811 91.0241 127 89.5696 127H80.9787ZM85.4901 123.375H89.5696C90.2438 123.375 90.7704 123.216 91.1491 122.898C91.5355 122.572 91.7287 122.129 91.7287 121.568C91.7287 120.947 91.5355 120.458 91.1491 120.102C90.7704 119.746 90.2438 119.568 89.5696 119.568H85.4901V123.375ZM85.4901 116.727H88.5241C89.009 116.727 89.4219 116.659 89.7628 116.523C90.1113 116.379 90.3764 116.174 90.5582 115.909C90.7476 115.644 90.8423 115.33 90.8423 114.966C90.8423 114.428 90.6264 114.008 90.1946 113.705C89.7628 113.402 89.1719 113.25 88.4219 113.25H85.4901V116.727ZM107.303 127.341C105.537 127.341 104.011 126.966 102.723 126.216C101.443 125.458 100.454 124.405 99.7571 123.057C99.0601 121.701 98.7116 120.129 98.7116 118.341C98.7116 116.538 99.0601 114.962 99.7571 113.614C100.454 112.258 101.443 111.205 102.723 110.455C104.011 109.697 105.537 109.318 107.303 109.318C109.068 109.318 110.59 109.697 111.871 110.455C113.159 111.205 114.151 112.258 114.848 113.614C115.545 114.962 115.893 116.538 115.893 118.341C115.893 120.129 115.545 121.701 114.848 123.057C114.151 124.405 113.159 125.458 111.871 126.216C110.59 126.966 109.068 127.341 107.303 127.341ZM107.325 123.591C108.128 123.591 108.799 123.364 109.337 122.909C109.875 122.447 110.28 121.818 110.553 121.023C110.833 120.227 110.973 119.322 110.973 118.307C110.973 117.292 110.833 116.386 110.553 115.591C110.28 114.795 109.875 114.167 109.337 113.705C108.799 113.242 108.128 113.011 107.325 113.011C106.515 113.011 105.833 113.242 105.28 113.705C104.734 114.167 104.321 114.795 104.041 115.591C103.768 116.386 103.632 117.292 103.632 118.307C103.632 119.322 103.768 120.227 104.041 121.023C104.321 121.818 104.734 122.447 105.28 122.909C105.833 123.364 106.515 123.591 107.325 123.591ZM119.041 127V109.545H134.303V127H129.678V113.352H123.609V127H119.041ZM138.166 133.545V109.545H142.939V112.477H143.155C143.367 112.008 143.674 111.53 144.075 111.045C144.484 110.553 145.015 110.144 145.666 109.818C146.325 109.485 147.143 109.318 148.121 109.318C149.393 109.318 150.568 109.652 151.643 110.318C152.719 110.977 153.579 111.973 154.223 113.307C154.867 114.633 155.189 116.295 155.189 118.295C155.189 120.242 154.875 121.886 154.246 123.227C153.625 124.561 152.776 125.572 151.7 126.261C150.632 126.943 149.435 127.284 148.109 127.284C147.17 127.284 146.371 127.129 145.712 126.818C145.06 126.508 144.526 126.117 144.109 125.648C143.693 125.17 143.375 124.689 143.155 124.205H143.007V133.545H138.166ZM142.905 118.273C142.905 119.311 143.049 120.216 143.337 120.989C143.625 121.761 144.041 122.364 144.587 122.795C145.132 123.22 145.795 123.432 146.575 123.432C147.363 123.432 148.03 123.216 148.575 122.784C149.121 122.345 149.534 121.739 149.814 120.966C150.102 120.186 150.246 119.288 150.246 118.273C150.246 117.265 150.106 116.379 149.825 115.614C149.545 114.848 149.132 114.25 148.587 113.818C148.041 113.386 147.371 113.17 146.575 113.17C145.787 113.17 145.121 113.379 144.575 113.795C144.037 114.212 143.625 114.803 143.337 115.568C143.049 116.333 142.905 117.235 142.905 118.273ZM166.303 127.341C164.537 127.341 163.011 126.966 161.723 126.216C160.443 125.458 159.454 124.405 158.757 123.057C158.06 121.701 157.712 120.129 157.712 118.341C157.712 116.538 158.06 114.962 158.757 113.614C159.454 112.258 160.443 111.205 161.723 110.455C163.011 109.697 164.537 109.318 166.303 109.318C168.068 109.318 169.59 109.697 170.871 110.455C172.159 111.205 173.151 112.258 173.848 113.614C174.545 114.962 174.893 116.538 174.893 118.341C174.893 120.129 174.545 121.701 173.848 123.057C173.151 124.405 172.159 125.458 170.871 126.216C169.59 126.966 168.068 127.341 166.303 127.341ZM166.325 123.591C167.128 123.591 167.799 123.364 168.337 122.909C168.875 122.447 169.28 121.818 169.553 121.023C169.833 120.227 169.973 119.322 169.973 118.307C169.973 117.292 169.833 116.386 169.553 115.591C169.28 114.795 168.875 114.167 168.337 113.705C167.799 113.242 167.128 113.011 166.325 113.011C165.515 113.011 164.833 113.242 164.28 113.705C163.734 114.167 163.321 114.795 163.041 115.591C162.768 116.386 162.632 117.292 162.632 118.307C162.632 119.322 162.768 120.227 163.041 121.023C163.321 121.818 163.734 122.447 164.28 122.909C164.833 123.364 165.515 123.591 166.325 123.591ZM185.928 127.341C184.14 127.341 182.602 126.962 181.314 126.205C180.034 125.439 179.049 124.379 178.359 123.023C177.678 121.667 177.337 120.106 177.337 118.341C177.337 116.553 177.681 114.985 178.371 113.636C179.068 112.28 180.056 111.223 181.337 110.466C182.617 109.701 184.14 109.318 185.905 109.318C187.428 109.318 188.761 109.595 189.905 110.148C191.049 110.701 191.954 111.477 192.621 112.477C193.287 113.477 193.655 114.652 193.723 116H189.155C189.026 115.129 188.685 114.428 188.132 113.898C187.587 113.36 186.871 113.091 185.984 113.091C185.234 113.091 184.579 113.295 184.018 113.705C183.465 114.106 183.034 114.693 182.723 115.466C182.412 116.239 182.257 117.174 182.257 118.273C182.257 119.386 182.409 120.333 182.712 121.114C183.022 121.894 183.458 122.489 184.018 122.898C184.579 123.307 185.234 123.511 185.984 123.511C186.537 123.511 187.034 123.398 187.473 123.17C187.92 122.943 188.287 122.614 188.575 122.182C188.871 121.742 189.064 121.216 189.155 120.602H193.723C193.647 121.936 193.284 123.11 192.632 124.125C191.988 125.133 191.098 125.92 189.962 126.489C188.825 127.057 187.481 127.341 185.928 127.341ZM204.709 127.341C202.944 127.341 201.417 126.966 200.129 126.216C198.849 125.458 197.86 124.405 197.163 123.057C196.466 121.701 196.118 120.129 196.118 118.341C196.118 116.538 196.466 114.962 197.163 113.614C197.86 112.258 198.849 111.205 200.129 110.455C201.417 109.697 202.944 109.318 204.709 109.318C206.474 109.318 207.997 109.697 209.277 110.455C210.565 111.205 211.557 112.258 212.254 113.614C212.951 114.962 213.3 116.538 213.3 118.341C213.3 120.129 212.951 121.701 212.254 123.057C211.557 124.405 210.565 125.458 209.277 126.216C207.997 126.966 206.474 127.341 204.709 127.341ZM204.732 123.591C205.535 123.591 206.205 123.364 206.743 122.909C207.281 122.447 207.686 121.818 207.959 121.023C208.239 120.227 208.379 119.322 208.379 118.307C208.379 117.292 208.239 116.386 207.959 115.591C207.686 114.795 207.281 114.167 206.743 113.705C206.205 113.242 205.535 113.011 204.732 113.011C203.921 113.011 203.239 113.242 202.686 113.705C202.141 114.167 201.728 114.795 201.447 115.591C201.175 116.386 201.038 117.292 201.038 118.307C201.038 119.322 201.175 120.227 201.447 121.023C201.728 121.818 202.141 122.447 202.686 122.909C203.239 123.364 203.921 123.591 204.732 123.591ZM216.447 127V109.545H223.891C226.042 109.545 227.743 109.955 228.993 110.773C230.243 111.591 230.868 112.754 230.868 114.261C230.868 115.208 230.516 115.996 229.811 116.625C229.107 117.254 228.129 117.678 226.879 117.898C227.925 117.973 228.815 118.212 229.55 118.614C230.292 119.008 230.857 119.519 231.243 120.148C231.637 120.777 231.834 121.473 231.834 122.239C231.834 123.231 231.569 124.083 231.038 124.795C230.516 125.508 229.747 126.053 228.732 126.432C227.724 126.811 226.493 127 225.038 127H216.447ZM220.959 123.375H225.038C225.713 123.375 226.239 123.216 226.618 122.898C227.004 122.572 227.197 122.129 227.197 121.568C227.197 120.947 227.004 120.458 226.618 120.102C226.239 119.746 225.713 119.568 225.038 119.568H220.959V123.375ZM220.959 116.727H223.993C224.478 116.727 224.891 116.659 225.232 116.523C225.58 116.379 225.845 116.174 226.027 115.909C226.216 115.644 226.311 115.33 226.311 114.966C226.311 114.428 226.095 114.008 225.663 113.705C225.232 113.402 224.641 113.25 223.891 113.25H220.959V116.727Z" fill="black"/>
<path d="M415.885 48.6136L422.169 37.5455H426.942V55H422.328V43.8977L416.067 55H411.26V37.5455H415.885V48.6136ZM438.709 55.3409C436.921 55.3409 435.383 54.9621 434.095 54.2045C432.815 53.4394 431.83 52.3788 431.141 51.0227C430.459 49.6667 430.118 48.1061 430.118 46.3409C430.118 44.553 430.463 42.9848 431.152 41.6364C431.849 40.2803 432.838 39.2235 434.118 38.4659C435.398 37.7008 436.921 37.3182 438.686 37.3182C440.209 37.3182 441.542 37.5947 442.686 38.1477C443.83 38.7008 444.735 39.4773 445.402 40.4773C446.069 41.4773 446.436 42.6515 446.504 44H441.936C441.807 43.1288 441.466 42.428 440.913 41.8977C440.368 41.3598 439.652 41.0909 438.766 41.0909C438.016 41.0909 437.36 41.2955 436.8 41.7045C436.247 42.1061 435.815 42.6932 435.504 43.4659C435.194 44.2386 435.038 45.1742 435.038 46.2727C435.038 47.3864 435.19 48.3333 435.493 49.1136C435.804 49.8939 436.239 50.4886 436.8 50.8977C437.36 51.3068 438.016 51.5114 438.766 51.5114C439.319 51.5114 439.815 51.3977 440.254 51.1705C440.701 50.9432 441.069 50.6136 441.357 50.1818C441.652 49.7424 441.845 49.2159 441.936 48.6023H446.504C446.429 49.9356 446.065 51.1098 445.413 52.125C444.769 53.1326 443.879 53.9205 442.743 54.4886C441.607 55.0568 440.262 55.3409 438.709 55.3409ZM449.604 55V37.5455H464.865V55H460.24V41.3523H454.172V55H449.604ZM476.615 55.3409C474.85 55.3409 473.323 54.9659 472.036 54.2159C470.755 53.4583 469.767 52.4053 469.07 51.0568C468.373 49.7008 468.024 48.1288 468.024 46.3409C468.024 44.5379 468.373 42.9621 469.07 41.6136C469.767 40.2576 470.755 39.2045 472.036 38.4545C473.323 37.697 474.85 37.3182 476.615 37.3182C478.38 37.3182 479.903 37.697 481.183 38.4545C482.471 39.2045 483.464 40.2576 484.161 41.6136C484.857 42.9621 485.206 44.5379 485.206 46.3409C485.206 48.1288 484.857 49.7008 484.161 51.0568C483.464 52.4053 482.471 53.4583 481.183 54.2159C479.903 54.9659 478.38 55.3409 476.615 55.3409ZM476.638 51.5909C477.441 51.5909 478.111 51.3636 478.649 50.9091C479.187 50.447 479.592 49.8182 479.865 49.0227C480.145 48.2273 480.286 47.322 480.286 46.3068C480.286 45.2917 480.145 44.3864 479.865 43.5909C479.592 42.7955 479.187 42.1667 478.649 41.7045C478.111 41.2424 477.441 41.0114 476.638 41.0114C475.827 41.0114 475.145 41.2424 474.592 41.7045C474.047 42.1667 473.634 42.7955 473.354 43.5909C473.081 44.3864 472.945 45.2917 472.945 46.3068C472.945 47.322 473.081 48.2273 473.354 49.0227C473.634 49.8182 474.047 50.447 474.592 50.9091C475.145 51.3636 475.827 51.5909 476.638 51.5909ZM487.331 55L487.308 51.1591H487.888C488.297 51.1591 488.649 51.0606 488.945 50.8636C489.248 50.6591 489.498 50.3295 489.695 49.875C489.892 49.4205 490.047 48.8182 490.161 48.0682C490.274 47.3106 490.35 46.3788 490.388 45.2727L490.672 37.5455H503.945V55H499.331V41.3523H495.024L494.751 46.6818C494.683 48.1439 494.505 49.4015 494.217 50.4545C493.937 51.5076 493.547 52.3712 493.047 53.0455C492.547 53.7121 491.945 54.2045 491.24 54.5227C490.536 54.8409 489.717 55 488.786 55H487.331ZM510.732 42.9091H515.947C518.258 42.9091 520.061 43.4621 521.357 44.5682C522.652 45.6667 523.3 47.1364 523.3 48.9773C523.3 50.1742 523.008 51.2273 522.425 52.1364C521.841 53.0379 521 53.7424 519.902 54.25C518.804 54.75 517.485 55 515.947 55H507.697V37.5455H512.322V51.1932H515.947C516.758 51.1932 517.425 50.9886 517.947 50.5795C518.47 50.1705 518.735 49.6477 518.743 49.0114C518.735 48.3371 518.47 47.7879 517.947 47.3636C517.425 46.9318 516.758 46.7159 515.947 46.7159H510.732V42.9091ZM525.612 50.0568H530.305C530.328 50.6326 530.586 51.0871 531.078 51.4205C531.571 51.7538 532.207 51.9205 532.987 51.9205C533.775 51.9205 534.438 51.7386 534.976 51.375C535.514 51.0038 535.783 50.4735 535.783 49.7841C535.783 49.3598 535.677 48.9924 535.464 48.6818C535.252 48.3636 534.957 48.1136 534.578 47.9318C534.199 47.75 533.76 47.6591 533.26 47.6591H530.749V44.4886H533.26C534.01 44.4886 534.586 44.3144 534.987 43.9659C535.396 43.6174 535.601 43.1818 535.601 42.6591C535.601 42.0682 535.389 41.5947 534.964 41.2386C534.548 40.875 533.983 40.6932 533.271 40.6932C532.552 40.6932 531.953 40.8561 531.476 41.1818C531.006 41.5 530.764 41.9167 530.749 42.4318H526.078C526.093 41.3864 526.408 40.4811 527.021 39.7159C527.643 38.9508 528.476 38.3598 529.521 37.9432C530.574 37.5265 531.752 37.3182 533.055 37.3182C534.48 37.3182 535.707 37.5189 536.737 37.9205C537.775 38.3144 538.571 38.8788 539.124 39.6136C539.684 40.3485 539.964 41.2235 539.964 42.2386C539.964 43.1629 539.661 43.9356 539.055 44.5568C538.449 45.178 537.601 45.6212 536.51 45.8864V46.0682C537.23 46.1136 537.881 46.3068 538.464 46.6477C539.048 46.9886 539.514 47.4583 539.862 48.0568C540.211 48.6477 540.385 49.3485 540.385 50.1591C540.385 51.2424 540.067 52.1705 539.43 52.9432C538.802 53.7159 537.93 54.3106 536.817 54.7273C535.711 55.1364 534.442 55.3409 533.01 55.3409C531.616 55.3409 530.366 55.1402 529.26 54.7386C528.161 54.3295 527.286 53.7311 526.635 52.9432C525.991 52.1553 525.65 51.1932 525.612 50.0568ZM551.24 55.3409C549.475 55.3409 547.948 54.9659 546.661 54.2159C545.38 53.4583 544.392 52.4053 543.695 51.0568C542.998 49.7008 542.649 48.1288 542.649 46.3409C542.649 44.5379 542.998 42.9621 543.695 41.6136C544.392 40.2576 545.38 39.2045 546.661 38.4545C547.948 37.697 549.475 37.3182 551.24 37.3182C553.005 37.3182 554.528 37.697 555.808 38.4545C557.096 39.2045 558.089 40.2576 558.786 41.6136C559.482 42.9621 559.831 44.5379 559.831 46.3409C559.831 48.1288 559.482 49.7008 558.786 51.0568C558.089 52.4053 557.096 53.4583 555.808 54.2159C554.528 54.9659 553.005 55.3409 551.24 55.3409ZM551.263 51.5909C552.066 51.5909 552.736 51.3636 553.274 50.9091C553.812 50.447 554.217 49.8182 554.49 49.0227C554.77 48.2273 554.911 47.322 554.911 46.3068C554.911 45.2917 554.77 44.3864 554.49 43.5909C554.217 42.7955 553.812 42.1667 553.274 41.7045C552.736 41.2424 552.066 41.0114 551.263 41.0114C550.452 41.0114 549.77 41.2424 549.217 41.7045C548.672 42.1667 548.259 42.7955 547.979 43.5909C547.706 44.3864 547.57 45.2917 547.57 46.3068C547.57 47.322 547.706 48.2273 547.979 49.0227C548.259 49.8182 548.672 50.447 549.217 50.9091C549.77 51.3636 550.452 51.5909 551.263 51.5909ZM562.979 55V37.5455H570.422C572.573 37.5455 574.274 37.9545 575.524 38.7727C576.774 39.5909 577.399 40.7538 577.399 42.2614C577.399 43.2083 577.047 43.9962 576.342 44.625C575.638 45.2538 574.661 45.678 573.411 45.8977C574.456 45.9735 575.346 46.2121 576.081 46.6136C576.823 47.0076 577.388 47.5189 577.774 48.1477C578.168 48.7765 578.365 49.4735 578.365 50.2386C578.365 51.2311 578.1 52.0833 577.57 52.7955C577.047 53.5076 576.278 54.053 575.263 54.4318C574.255 54.8106 573.024 55 571.57 55H562.979ZM567.49 51.375H571.57C572.244 51.375 572.77 51.2159 573.149 50.8977C573.536 50.572 573.729 50.1288 573.729 49.5682C573.729 48.947 573.536 48.4583 573.149 48.1023C572.77 47.7462 572.244 47.5682 571.57 47.5682H567.49V51.375ZM567.49 44.7273H570.524C571.009 44.7273 571.422 44.6591 571.763 44.5227C572.111 44.3788 572.376 44.1742 572.558 43.9091C572.748 43.6439 572.842 43.3295 572.842 42.9659C572.842 42.428 572.626 42.0076 572.195 41.7045C571.763 41.4015 571.172 41.25 570.422 41.25H567.49V44.7273ZM586.393 55.3295C585.28 55.3295 584.287 55.1364 583.416 54.75C582.545 54.3561 581.856 53.7765 581.348 53.0114C580.848 52.2386 580.598 51.2765 580.598 50.125C580.598 49.1553 580.776 48.3409 581.132 47.6818C581.488 47.0227 581.973 46.4924 582.587 46.0909C583.2 45.6894 583.897 45.3864 584.678 45.1818C585.465 44.9773 586.291 44.8333 587.155 44.75C588.17 44.6439 588.988 44.5455 589.609 44.4545C590.231 44.3561 590.681 44.2121 590.962 44.0227C591.242 43.8333 591.382 43.553 591.382 43.1818V43.1136C591.382 42.3939 591.155 41.8371 590.7 41.4432C590.253 41.0492 589.617 40.8523 588.791 40.8523C587.92 40.8523 587.227 41.0455 586.712 41.4318C586.196 41.8106 585.856 42.2879 585.689 42.8636L581.212 42.5C581.439 41.4394 581.886 40.5227 582.553 39.75C583.219 38.9697 584.079 38.3712 585.132 37.9545C586.193 37.5303 587.42 37.3182 588.814 37.3182C589.784 37.3182 590.712 37.4318 591.598 37.6591C592.492 37.8864 593.284 38.2386 593.973 38.7159C594.67 39.1932 595.219 39.8068 595.621 40.5568C596.022 41.2992 596.223 42.1894 596.223 43.2273V55H591.632V52.5795H591.496C591.215 53.125 590.84 53.6061 590.371 54.0227C589.901 54.4318 589.337 54.7538 588.678 54.9886C588.018 55.2159 587.257 55.3295 586.393 55.3295ZM587.78 51.9886C588.492 51.9886 589.121 51.8485 589.666 51.5682C590.212 51.2803 590.64 50.8939 590.95 50.4091C591.261 49.9242 591.416 49.375 591.416 48.7614V46.9091C591.265 47.0076 591.056 47.0985 590.791 47.1818C590.534 47.2576 590.242 47.3295 589.916 47.3977C589.59 47.4583 589.265 47.5152 588.939 47.5682C588.613 47.6136 588.318 47.6553 588.053 47.6932C587.484 47.7765 586.988 47.9091 586.564 48.0909C586.14 48.2727 585.81 48.5189 585.575 48.8295C585.34 49.1326 585.223 49.5114 585.223 49.9659C585.223 50.625 585.462 51.1288 585.939 51.4773C586.424 51.8182 587.037 51.9886 587.78 51.9886ZM612.126 44.3409V48.1477H603.013V44.3409H612.126ZM604.604 37.5455V55H599.979V37.5455H604.604ZM615.161 37.5455V55H610.57V37.5455H615.161ZM623.541 48.6136L629.825 37.5455H634.598V55H629.984V43.8977L623.723 55H618.916V37.5455H623.541V48.6136ZM646.433 55.3409C644.638 55.3409 643.092 54.9773 641.797 54.25C640.509 53.5152 639.517 52.4773 638.82 51.1364C638.123 49.7879 637.774 48.1932 637.774 46.3523C637.774 44.5568 638.123 42.9811 638.82 41.625C639.517 40.2689 640.498 39.2121 641.763 38.4545C643.036 37.697 644.528 37.3182 646.24 37.3182C647.392 37.3182 648.464 37.5038 649.456 37.875C650.456 38.2386 651.327 38.7879 652.07 39.5227C652.82 40.2576 653.403 41.1818 653.82 42.2955C654.236 43.4015 654.445 44.697 654.445 46.1818V47.5114H639.706V44.5114H649.888C649.888 43.8144 649.736 43.197 649.433 42.6591C649.13 42.1212 648.71 41.7008 648.172 41.3977C647.642 41.0871 647.024 40.9318 646.32 40.9318C645.585 40.9318 644.933 41.1023 644.365 41.4432C643.804 41.7765 643.365 42.2273 643.047 42.7955C642.729 43.3561 642.566 43.9811 642.558 44.6705V47.5227C642.558 48.3864 642.717 49.1326 643.036 49.7614C643.361 50.3902 643.82 50.875 644.411 51.2159C645.001 51.5568 645.702 51.7273 646.513 51.7273C647.051 51.7273 647.543 51.6515 647.99 51.5C648.437 51.3485 648.82 51.1212 649.138 50.8182C649.456 50.5152 649.698 50.1439 649.865 49.7045L654.342 50C654.115 51.0758 653.649 52.0152 652.945 52.8182C652.248 53.6136 651.346 54.2348 650.24 54.6818C649.142 55.1212 647.873 55.3409 646.433 55.3409ZM462.381 70.1364L463.858 73.2955C463.366 73.7045 462.82 74.0076 462.222 74.2045C461.623 74.3939 460.907 74.5189 460.074 74.5795C459.248 74.6402 458.241 74.6818 457.051 74.7045C455.703 74.7197 454.604 74.9356 453.756 75.3523C452.907 75.7689 452.263 76.4242 451.824 77.3182C451.384 78.2045 451.097 79.3636 450.96 80.7955H451.131C451.653 79.7273 452.388 78.9015 453.335 78.3182C454.29 77.7348 455.468 77.4432 456.869 77.4432C458.354 77.4432 459.653 77.7689 460.767 78.4205C461.888 79.072 462.759 80.0076 463.381 81.2273C464.002 82.447 464.312 83.9091 464.312 85.6136C464.312 87.3864 463.964 88.928 463.267 90.2386C462.578 91.5417 461.597 92.553 460.324 93.2727C459.051 93.9848 457.536 94.3409 455.778 94.3409C454.013 94.3409 452.491 93.9697 451.21 93.2273C449.938 92.4848 448.953 91.3902 448.256 89.9432C447.566 88.4962 447.222 86.7159 447.222 84.6023V83.1705C447.222 78.9659 448.04 75.8485 449.676 73.8182C451.313 71.7879 453.718 70.7576 456.892 70.7273C457.756 70.7121 458.536 70.7083 459.233 70.7159C459.93 70.7235 460.54 70.6894 461.062 70.6136C461.593 70.5379 462.032 70.3788 462.381 70.1364ZM455.801 90.5909C456.544 90.5909 457.18 90.3977 457.71 90.0114C458.248 89.625 458.661 89.072 458.949 88.3523C459.244 87.6326 459.392 86.7727 459.392 85.7727C459.392 84.7803 459.244 83.9394 458.949 83.25C458.661 82.553 458.248 82.0227 457.71 81.6591C457.172 81.2955 456.528 81.1136 455.778 81.1136C455.218 81.1136 454.714 81.2159 454.267 81.4205C453.82 81.625 453.438 81.928 453.119 82.3295C452.809 82.7235 452.566 83.2121 452.392 83.7955C452.225 84.3712 452.142 85.0303 452.142 85.7727C452.142 87.2652 452.464 88.4432 453.108 89.3068C453.759 90.1629 454.657 90.5909 455.801 90.5909ZM470.514 100.545C469.901 100.545 469.325 100.496 468.787 100.398C468.257 100.307 467.817 100.189 467.469 100.045L468.56 96.4318C469.128 96.6061 469.639 96.7008 470.094 96.7159C470.556 96.7311 470.954 96.625 471.287 96.3977C471.628 96.1705 471.904 95.7841 472.116 95.2386L472.401 94.5L466.139 76.5455H471.23L474.844 89.3636H475.026L478.673 76.5455H483.798L477.014 95.8864C476.688 96.8258 476.245 97.6439 475.685 98.3409C475.132 99.0455 474.431 99.5871 473.582 99.9659C472.734 100.352 471.711 100.545 470.514 100.545ZM496.594 88.6477L501.321 76.5455H505.003L498.196 94H494.98L488.332 76.5455H492.003L496.594 88.6477ZM490.901 76.5455V94H486.276V76.5455H490.901ZM502.526 94V76.5455H507.094V94H502.526ZM515.815 94.3295C514.702 94.3295 513.709 94.1364 512.838 93.75C511.967 93.3561 511.277 92.7765 510.77 92.0114C510.27 91.2386 510.02 90.2765 510.02 89.125C510.02 88.1553 510.198 87.3409 510.554 86.6818C510.91 86.0227 511.395 85.4924 512.009 85.0909C512.622 84.6894 513.319 84.3864 514.099 84.1818C514.887 83.9773 515.713 83.8333 516.577 83.75C517.592 83.6439 518.41 83.5455 519.031 83.4545C519.652 83.3561 520.103 83.2121 520.384 83.0227C520.664 82.8333 520.804 82.553 520.804 82.1818V82.1136C520.804 81.3939 520.577 80.8371 520.122 80.4432C519.675 80.0492 519.039 79.8523 518.213 79.8523C517.342 79.8523 516.649 80.0455 516.134 80.4318C515.618 80.8106 515.277 81.2879 515.111 81.8636L510.634 81.5C510.861 80.4394 511.308 79.5227 511.974 78.75C512.641 77.9697 513.501 77.3712 514.554 76.9545C515.615 76.5303 516.842 76.3182 518.236 76.3182C519.205 76.3182 520.134 76.4318 521.02 76.6591C521.914 76.8864 522.705 77.2386 523.395 77.7159C524.092 78.1932 524.641 78.8068 525.043 79.5568C525.444 80.2992 525.645 81.1894 525.645 82.2273V94H521.054V91.5795H520.918C520.637 92.125 520.262 92.6061 519.793 93.0227C519.323 93.4318 518.759 93.7538 518.099 93.9886C517.44 94.2159 516.679 94.3295 515.815 94.3295ZM517.202 90.9886C517.914 90.9886 518.543 90.8485 519.088 90.5682C519.634 90.2803 520.062 89.8939 520.372 89.4091C520.683 88.9242 520.838 88.375 520.838 87.7614V85.9091C520.687 86.0076 520.478 86.0985 520.213 86.1818C519.955 86.2576 519.664 86.3295 519.338 86.3977C519.012 86.4583 518.687 86.5152 518.361 86.5682C518.035 86.6136 517.74 86.6553 517.474 86.6932C516.906 86.7765 516.41 86.9091 515.986 87.0909C515.562 87.2727 515.232 87.5189 514.997 87.8295C514.762 88.1326 514.645 88.5114 514.645 88.9659C514.645 89.625 514.884 90.1288 515.361 90.4773C515.846 90.8182 516.459 90.9886 517.202 90.9886ZM528.264 94L534.366 84.9205L528.298 76.5455H533.821L538.355 83.375H539.105V76.5455H543.946V83.375H544.673L549.207 76.5455H554.73L548.673 84.9205L554.764 94H549.116L544.628 87.1818H543.946V94H539.105V87.1818H538.423L533.912 94H528.264ZM569.642 83.3409V87.1477H560.528V83.3409H569.642ZM562.119 76.5455V94H557.494V76.5455H562.119ZM572.676 76.5455V94H568.085V76.5455H572.676ZM579.466 81.9091H584.682C586.992 81.9091 588.795 82.4621 590.091 83.5682C591.386 84.6667 592.034 86.1364 592.034 87.9773C592.034 89.1742 591.742 90.2273 591.159 91.1364C590.576 92.0379 589.735 92.7424 588.636 93.25C587.538 93.75 586.22 94 584.682 94H576.432V76.5455H581.057V90.1932H584.682C585.492 90.1932 586.159 89.9886 586.682 89.5795C587.205 89.1705 587.47 88.6477 587.477 88.0114C587.47 87.3371 587.205 86.7879 586.682 86.3636C586.159 85.9318 585.492 85.7159 584.682 85.7159H579.466V81.9091ZM593.909 94V76.5455H598.75V94H593.909ZM606.665 76.5455L609.869 82.6477L613.153 76.5455H618.119L613.062 85.2727L618.256 94H613.312L609.869 87.9659L606.483 94H601.483L606.665 85.2727L601.665 76.5455H606.665ZM461.361 122.341V126.148H452.247V122.341H461.361ZM453.838 115.545V133H449.213V115.545H453.838ZM464.395 115.545V133H459.804V115.545H464.395ZM476.037 133.341C474.272 133.341 472.745 132.966 471.457 132.216C470.177 131.458 469.188 130.405 468.491 129.057C467.795 127.701 467.446 126.129 467.446 124.341C467.446 122.538 467.795 120.962 468.491 119.614C469.188 118.258 470.177 117.205 471.457 116.455C472.745 115.697 474.272 115.318 476.037 115.318C477.802 115.318 479.325 115.697 480.605 116.455C481.893 117.205 482.885 118.258 483.582 119.614C484.279 120.962 484.628 122.538 484.628 124.341C484.628 126.129 484.279 127.701 483.582 129.057C482.885 130.405 481.893 131.458 480.605 132.216C479.325 132.966 477.802 133.341 476.037 133.341ZM476.06 129.591C476.863 129.591 477.533 129.364 478.071 128.909C478.609 128.447 479.014 127.818 479.287 127.023C479.567 126.227 479.707 125.322 479.707 124.307C479.707 123.292 479.567 122.386 479.287 121.591C479.014 120.795 478.609 120.167 478.071 119.705C477.533 119.242 476.863 119.011 476.06 119.011C475.249 119.011 474.567 119.242 474.014 119.705C473.469 120.167 473.056 120.795 472.776 121.591C472.503 122.386 472.366 123.292 472.366 124.307C472.366 125.322 472.503 126.227 472.776 127.023C473.056 127.818 473.469 128.447 474.014 128.909C474.567 129.364 475.249 129.591 476.06 129.591ZM495.662 133.341C493.874 133.341 492.336 132.962 491.048 132.205C489.768 131.439 488.783 130.379 488.094 129.023C487.412 127.667 487.071 126.106 487.071 124.341C487.071 122.553 487.416 120.985 488.105 119.636C488.802 118.28 489.791 117.223 491.071 116.466C492.351 115.701 493.874 115.318 495.639 115.318C497.162 115.318 498.495 115.595 499.639 116.148C500.783 116.701 501.688 117.477 502.355 118.477C503.022 119.477 503.389 120.652 503.457 122H498.889C498.76 121.129 498.42 120.428 497.866 119.898C497.321 119.36 496.605 119.091 495.719 119.091C494.969 119.091 494.313 119.295 493.753 119.705C493.2 120.106 492.768 120.693 492.457 121.466C492.147 122.239 491.991 123.174 491.991 124.273C491.991 125.386 492.143 126.333 492.446 127.114C492.757 127.894 493.192 128.489 493.753 128.898C494.313 129.307 494.969 129.511 495.719 129.511C496.272 129.511 496.768 129.398 497.207 129.17C497.654 128.943 498.022 128.614 498.31 128.182C498.605 127.742 498.798 127.216 498.889 126.602H503.457C503.382 127.936 503.018 129.11 502.366 130.125C501.723 131.133 500.832 131.92 499.696 132.489C498.56 133.057 497.215 133.341 495.662 133.341ZM511.182 126.614L517.466 115.545H522.239V133H517.625V121.898L511.364 133H506.557V115.545H511.182V126.614ZM524.366 119.352V115.545H540.185V119.352H534.56V133H529.946V119.352H524.366ZM550.449 133.341C548.653 133.341 547.108 132.977 545.812 132.25C544.525 131.515 543.532 130.477 542.835 129.136C542.138 127.788 541.79 126.193 541.79 124.352C541.79 122.557 542.138 120.981 542.835 119.625C543.532 118.269 544.513 117.212 545.778 116.455C547.051 115.697 548.544 115.318 550.256 115.318C551.407 115.318 552.479 115.504 553.472 115.875C554.472 116.239 555.343 116.788 556.085 117.523C556.835 118.258 557.419 119.182 557.835 120.295C558.252 121.402 558.46 122.697 558.46 124.182V125.511H543.722V122.511H553.903C553.903 121.814 553.752 121.197 553.449 120.659C553.146 120.121 552.725 119.701 552.188 119.398C551.657 119.087 551.04 118.932 550.335 118.932C549.6 118.932 548.949 119.102 548.381 119.443C547.82 119.777 547.381 120.227 547.062 120.795C546.744 121.356 546.581 121.981 546.574 122.67V125.523C546.574 126.386 546.733 127.133 547.051 127.761C547.377 128.39 547.835 128.875 548.426 129.216C549.017 129.557 549.718 129.727 550.528 129.727C551.066 129.727 551.559 129.652 552.006 129.5C552.453 129.348 552.835 129.121 553.153 128.818C553.472 128.515 553.714 128.144 553.881 127.705L558.358 128C558.131 129.076 557.665 130.015 556.96 130.818C556.263 131.614 555.362 132.235 554.256 132.682C553.157 133.121 551.888 133.341 550.449 133.341ZM560.597 133L560.574 129.159H561.153C561.563 129.159 561.915 129.061 562.21 128.864C562.513 128.659 562.763 128.33 562.96 127.875C563.157 127.42 563.313 126.818 563.426 126.068C563.54 125.311 563.616 124.379 563.653 123.273L563.938 115.545H577.21V133H572.597V119.352H568.29L568.017 124.682C567.949 126.144 567.771 127.402 567.483 128.455C567.203 129.508 566.812 130.371 566.312 131.045C565.812 131.712 565.21 132.205 564.506 132.523C563.801 132.841 562.983 133 562.051 133H560.597ZM588.918 133.341C587.122 133.341 585.577 132.977 584.281 132.25C582.993 131.515 582.001 130.477 581.304 129.136C580.607 127.788 580.259 126.193 580.259 124.352C580.259 122.557 580.607 120.981 581.304 119.625C582.001 118.269 582.982 117.212 584.247 116.455C585.52 115.697 587.012 115.318 588.724 115.318C589.876 115.318 590.948 115.504 591.94 115.875C592.94 116.239 593.812 116.788 594.554 117.523C595.304 118.258 595.887 119.182 596.304 120.295C596.721 121.402 596.929 122.697 596.929 124.182V125.511H582.19V122.511H592.372C592.372 121.814 592.221 121.197 591.918 120.659C591.615 120.121 591.194 119.701 590.656 119.398C590.126 119.087 589.509 118.932 588.804 118.932C588.069 118.932 587.418 119.102 586.849 119.443C586.289 119.777 585.849 120.227 585.531 120.795C585.213 121.356 585.05 121.981 585.043 122.67V125.523C585.043 126.386 585.202 127.133 585.52 127.761C585.846 128.39 586.304 128.875 586.895 129.216C587.486 129.557 588.187 129.727 588.997 129.727C589.535 129.727 590.027 129.652 590.474 129.5C590.921 129.348 591.304 129.121 591.622 128.818C591.94 128.515 592.183 128.144 592.349 127.705L596.827 128C596.599 129.076 596.134 130.015 595.429 130.818C594.732 131.614 593.83 132.235 592.724 132.682C591.626 133.121 590.357 133.341 588.918 133.341ZM604.713 126.614L610.997 115.545H615.77V133H611.156V121.898L604.895 133H600.088V115.545H604.713V126.614ZM610.168 109.455H613.543C613.535 110.833 613.024 111.943 612.009 112.784C611.001 113.625 609.637 114.045 607.918 114.045C606.19 114.045 604.823 113.625 603.815 112.784C602.808 111.943 602.304 110.833 602.304 109.455H605.656C605.649 109.977 605.815 110.447 606.156 110.864C606.505 111.28 607.092 111.489 607.918 111.489C608.721 111.489 609.296 111.284 609.645 110.875C609.993 110.466 610.168 109.992 610.168 109.455Z" fill="black"/>
<path d="M812.849 36.3409C811.084 36.3409 809.558 35.9659 808.27 35.2159C806.99 34.4583 806.001 33.4053 805.304 32.0568C804.607 30.7008 804.259 29.1288 804.259 27.3409C804.259 25.5379 804.607 23.9621 805.304 22.6136C806.001 21.2576 806.99 20.2045 808.27 19.4545C809.558 18.697 811.084 18.3182 812.849 18.3182C814.615 18.3182 816.137 18.697 817.418 19.4545C818.705 20.2045 819.698 21.2576 820.395 22.6136C821.092 23.9621 821.44 25.5379 821.44 27.3409C821.44 29.1288 821.092 30.7008 820.395 32.0568C819.698 33.4053 818.705 34.4583 817.418 35.2159C816.137 35.9659 814.615 36.3409 812.849 36.3409ZM812.872 32.5909C813.675 32.5909 814.346 32.3636 814.884 31.9091C815.421 31.447 815.827 30.8182 816.099 30.0227C816.38 29.2273 816.52 28.322 816.52 27.3068C816.52 26.2917 816.38 25.3864 816.099 24.5909C815.827 23.7955 815.421 23.1667 814.884 22.7045C814.346 22.2424 813.675 22.0114 812.872 22.0114C812.062 22.0114 811.38 22.2424 810.827 22.7045C810.281 23.1667 809.868 23.7955 809.588 24.5909C809.315 25.3864 809.179 26.2917 809.179 27.3068C809.179 28.322 809.315 29.2273 809.588 30.0227C809.868 30.8182 810.281 31.447 810.827 31.9091C811.38 32.3636 812.062 32.5909 812.872 32.5909ZM824.588 36V18.5455H839.849V36H835.224V22.3523H829.156V36H824.588ZM841.96 22.3523V18.5455H857.778V22.3523H852.153V36H847.54V22.3523H841.96ZM865.338 29.6136L871.622 18.5455H876.395V36H871.781V24.8977L865.52 36H860.713V18.5455H865.338V29.6136ZM890.594 30.6477L895.321 18.5455H899.003L892.196 36H888.98L882.332 18.5455H886.003L890.594 30.6477ZM884.901 18.5455V36H880.276V18.5455H884.901ZM896.526 36V18.5455H901.094V36H896.526ZM909.463 29.6136L915.747 18.5455H920.52V36H915.906V24.8977L909.645 36H904.838V18.5455H909.463V29.6136ZM923.503 31.0568H928.196C928.219 31.6326 928.476 32.0871 928.969 32.4205C929.461 32.7538 930.098 32.9205 930.878 32.9205C931.666 32.9205 932.329 32.7386 932.866 32.375C933.404 32.0038 933.673 31.4735 933.673 30.7841C933.673 30.3598 933.567 29.9924 933.355 29.6818C933.143 29.3636 932.848 29.1136 932.469 28.9318C932.09 28.75 931.651 28.6591 931.151 28.6591H928.639V25.4886H931.151C931.901 25.4886 932.476 25.3144 932.878 24.9659C933.287 24.6174 933.491 24.1818 933.491 23.6591C933.491 23.0682 933.279 22.5947 932.855 22.2386C932.438 21.875 931.874 21.6932 931.162 21.6932C930.442 21.6932 929.844 21.8561 929.366 22.1818C928.897 22.5 928.654 22.9167 928.639 23.4318H923.969C923.984 22.3864 924.298 21.4811 924.912 20.7159C925.533 19.9508 926.366 19.3598 927.412 18.9432C928.465 18.5265 929.643 18.3182 930.946 18.3182C932.37 18.3182 933.598 18.5189 934.628 18.9205C935.666 19.3144 936.461 19.8788 937.014 20.6136C937.575 21.3485 937.855 22.2235 937.855 23.2386C937.855 24.1629 937.552 24.9356 936.946 25.5568C936.34 26.178 935.491 26.6212 934.401 26.8864V27.0682C935.12 27.1136 935.772 27.3068 936.355 27.6477C936.938 27.9886 937.404 28.4583 937.753 29.0568C938.101 29.6477 938.276 30.3485 938.276 31.1591C938.276 32.2424 937.957 33.1705 937.321 33.9432C936.692 34.7159 935.821 35.3106 934.707 35.7273C933.601 36.1364 932.332 36.3409 930.901 36.3409C929.507 36.3409 928.257 36.1402 927.151 35.7386C926.052 35.3295 925.177 34.7311 924.526 33.9432C923.882 33.1553 923.541 32.1932 923.503 31.0568ZM946.222 36.3295C945.108 36.3295 944.116 36.1364 943.244 35.75C942.373 35.3561 941.684 34.7765 941.176 34.0114C940.676 33.2386 940.426 32.2765 940.426 31.125C940.426 30.1553 940.604 29.3409 940.96 28.6818C941.316 28.0227 941.801 27.4924 942.415 27.0909C943.028 26.6894 943.725 26.3864 944.506 26.1818C945.294 25.9773 946.119 25.8333 946.983 25.75C947.998 25.6439 948.816 25.5455 949.438 25.4545C950.059 25.3561 950.509 25.2121 950.79 25.0227C951.07 24.8333 951.21 24.553 951.21 24.1818V24.1136C951.21 23.3939 950.983 22.8371 950.528 22.4432C950.081 22.0492 949.445 21.8523 948.619 21.8523C947.748 21.8523 947.055 22.0455 946.54 22.4318C946.025 22.8106 945.684 23.2879 945.517 23.8636L941.04 23.5C941.267 22.4394 941.714 21.5227 942.381 20.75C943.047 19.9697 943.907 19.3712 944.96 18.9545C946.021 18.5303 947.248 18.3182 948.642 18.3182C949.612 18.3182 950.54 18.4318 951.426 18.6591C952.32 18.8864 953.112 19.2386 953.801 19.7159C954.498 20.1932 955.047 20.8068 955.449 21.5568C955.85 22.2992 956.051 23.1894 956.051 24.2273V36H951.46V33.5795H951.324C951.044 34.125 950.669 34.6061 950.199 35.0227C949.729 35.4318 949.165 35.7538 948.506 35.9886C947.847 36.2159 947.085 36.3295 946.222 36.3295ZM947.608 32.9886C948.32 32.9886 948.949 32.8485 949.494 32.5682C950.04 32.2803 950.468 31.8939 950.778 31.4091C951.089 30.9242 951.244 30.375 951.244 29.7614V27.9091C951.093 28.0076 950.884 28.0985 950.619 28.1818C950.362 28.2576 950.07 28.3295 949.744 28.3977C949.419 28.4583 949.093 28.5152 948.767 28.5682C948.441 28.6136 948.146 28.6553 947.881 28.6932C947.313 28.7765 946.816 28.9091 946.392 29.0909C945.968 29.2727 945.638 29.5189 945.403 29.8295C945.169 30.1326 945.051 30.5114 945.051 30.9659C945.051 31.625 945.29 32.1288 945.767 32.4773C946.252 32.8182 946.866 32.9886 947.608 32.9886ZM975.068 18.5455V32.6591H977.852V41.6136H973.148V36H959.807V18.5455H964.432V32.1932H970.5V18.5455H975.068ZM985.463 29.6136L991.747 18.5455H996.52V36H991.906V24.8977L985.645 36H980.838V18.5455H985.463V29.6136ZM1010.63 36V22.3409H1007.36C1006.47 22.3409 1005.79 22.5455 1005.33 22.9545C1004.87 23.3636 1004.64 23.8485 1004.65 24.4091C1004.64 24.9773 1004.86 25.4583 1005.31 25.8523C1005.76 26.2386 1006.43 26.4318 1007.31 26.4318H1012.24V29.7045H1007.31C1005.82 29.7045 1004.53 29.4773 1003.43 29.0227C1002.34 28.5682 1001.5 27.9356 1000.91 27.125C1000.32 26.3068 1000.03 25.3561 1000.04 24.2727C1000.03 23.1364 1000.32 22.1402 1000.91 21.2841C1001.5 20.4205 1002.35 19.75 1003.45 19.2727C1004.55 18.7879 1005.86 18.5455 1007.36 18.5455H1015.14V36H1010.63ZM999.537 36L1004.39 26.9091H1009.01L1004.17 36H999.537ZM793.697 68.6136L799.982 57.5455H804.754V75H800.141V63.8977L793.879 75H789.072V57.5455H793.697V68.6136ZM816.521 75.3409C814.733 75.3409 813.196 74.9621 811.908 74.2045C810.627 73.4394 809.643 72.3788 808.953 71.0227C808.271 69.6667 807.93 68.1061 807.93 66.3409C807.93 64.553 808.275 62.9848 808.964 61.6364C809.661 60.2803 810.65 59.2235 811.93 58.4659C813.211 57.7008 814.733 57.3182 816.499 57.3182C818.021 57.3182 819.355 57.5947 820.499 58.1477C821.643 58.7008 822.548 59.4773 823.214 60.4773C823.881 61.4773 824.249 62.6515 824.317 64H819.749C819.62 63.1288 819.279 62.428 818.726 61.8977C818.18 61.3598 817.464 61.0909 816.578 61.0909C815.828 61.0909 815.173 61.2955 814.612 61.7045C814.059 62.1061 813.627 62.6932 813.317 63.4659C813.006 64.2386 812.851 65.1742 812.851 66.2727C812.851 67.3864 813.002 68.3333 813.305 69.1136C813.616 69.8939 814.052 70.4886 814.612 70.8977C815.173 71.3068 815.828 71.5114 816.578 71.5114C817.131 71.5114 817.627 71.3977 818.067 71.1705C818.514 70.9432 818.881 70.6136 819.169 70.1818C819.464 69.7424 819.658 69.2159 819.749 68.6023H824.317C824.241 69.9356 823.877 71.1098 823.226 72.125C822.582 73.1326 821.692 73.9205 820.555 74.4886C819.419 75.0568 818.074 75.3409 816.521 75.3409ZM827.416 75V57.5455H842.678V75H838.053V61.3523H831.984V75H827.416ZM854.428 75.3409C852.662 75.3409 851.136 74.9659 849.848 74.2159C848.568 73.4583 847.579 72.4053 846.882 71.0568C846.185 69.7008 845.837 68.1288 845.837 66.3409C845.837 64.5379 846.185 62.9621 846.882 61.6136C847.579 60.2576 848.568 59.2045 849.848 58.4545C851.136 57.697 852.662 57.3182 854.428 57.3182C856.193 57.3182 857.715 57.697 858.996 58.4545C860.284 59.2045 861.276 60.2576 861.973 61.6136C862.67 62.9621 863.018 64.5379 863.018 66.3409C863.018 68.1288 862.67 69.7008 861.973 71.0568C861.276 72.4053 860.284 73.4583 858.996 74.2159C857.715 74.9659 856.193 75.3409 854.428 75.3409ZM854.45 71.5909C855.253 71.5909 855.924 71.3636 856.462 70.9091C857 70.447 857.405 69.8182 857.678 69.0227C857.958 68.2273 858.098 67.322 858.098 66.3068C858.098 65.2917 857.958 64.3864 857.678 63.5909C857.405 62.7955 857 62.1667 856.462 61.7045C855.924 61.2424 855.253 61.0114 854.45 61.0114C853.64 61.0114 852.958 61.2424 852.405 61.7045C851.859 62.1667 851.446 62.7955 851.166 63.5909C850.893 64.3864 850.757 65.2917 850.757 66.3068C850.757 67.322 850.893 68.2273 851.166 69.0227C851.446 69.8182 851.859 70.447 852.405 70.9091C852.958 71.3636 853.64 71.5909 854.45 71.5909ZM865.143 75L865.121 71.1591H865.7C866.109 71.1591 866.462 71.0606 866.757 70.8636C867.06 70.6591 867.31 70.3295 867.507 69.875C867.704 69.4205 867.859 68.8182 867.973 68.0682C868.087 67.3106 868.162 66.3788 868.2 65.2727L868.484 57.5455H881.757V75H877.143V61.3523H872.837L872.564 66.6818C872.496 68.1439 872.318 69.4015 872.03 70.4545C871.75 71.5076 871.359 72.3712 870.859 73.0455C870.359 73.7121 869.757 74.2045 869.053 74.5227C868.348 74.8409 867.53 75 866.598 75H865.143ZM888.544 62.9091H893.76C896.071 62.9091 897.874 63.4621 899.169 64.5682C900.464 65.6667 901.112 67.1364 901.112 68.9773C901.112 70.1742 900.821 71.2273 900.237 72.1364C899.654 73.0379 898.813 73.7424 897.714 74.25C896.616 74.75 895.298 75 893.76 75H885.51V57.5455H890.135V71.1932H893.76C894.571 71.1932 895.237 70.9886 895.76 70.5795C896.283 70.1705 896.548 69.6477 896.555 69.0114C896.548 68.3371 896.283 67.7879 895.76 67.3636C895.237 66.9318 894.571 66.7159 893.76 66.7159H888.544V62.9091ZM903.425 70.0568H908.118C908.141 70.6326 908.398 71.0871 908.891 71.4205C909.383 71.7538 910.019 71.9205 910.8 71.9205C911.588 71.9205 912.25 71.7386 912.788 71.375C913.326 71.0038 913.595 70.4735 913.595 69.7841C913.595 69.3598 913.489 68.9924 913.277 68.6818C913.065 68.3636 912.769 68.1136 912.391 67.9318C912.012 67.75 911.572 67.6591 911.072 67.6591H908.561V64.4886H911.072C911.822 64.4886 912.398 64.3144 912.8 63.9659C913.209 63.6174 913.413 63.1818 913.413 62.6591C913.413 62.0682 913.201 61.5947 912.777 61.2386C912.36 60.875 911.796 60.6932 911.084 60.6932C910.364 60.6932 909.766 60.8561 909.288 61.1818C908.819 61.5 908.576 61.9167 908.561 62.4318H903.891C903.906 61.3864 904.22 60.4811 904.834 59.7159C905.455 58.9508 906.288 58.3598 907.334 57.9432C908.387 57.5265 909.565 57.3182 910.868 57.3182C912.292 57.3182 913.519 57.5189 914.55 57.9205C915.588 58.3144 916.383 58.8788 916.936 59.6136C917.497 60.3485 917.777 61.2235 917.777 62.2386C917.777 63.1629 917.474 63.9356 916.868 64.5568C916.262 65.178 915.413 65.6212 914.322 65.8864V66.0682C915.042 66.1136 915.694 66.3068 916.277 66.6477C916.86 66.9886 917.326 67.4583 917.675 68.0568C918.023 68.6477 918.197 69.3485 918.197 70.1591C918.197 71.2424 917.879 72.1705 917.243 72.9432C916.614 73.7159 915.743 74.3106 914.629 74.7273C913.523 75.1364 912.254 75.3409 910.822 75.3409C909.429 75.3409 908.179 75.1402 907.072 74.7386C905.974 74.3295 905.099 73.7311 904.447 72.9432C903.804 72.1553 903.463 71.1932 903.425 70.0568ZM929.053 75.3409C927.287 75.3409 925.761 74.9659 924.473 74.2159C923.193 73.4583 922.204 72.4053 921.507 71.0568C920.81 69.7008 920.462 68.1288 920.462 66.3409C920.462 64.5379 920.81 62.9621 921.507 61.6136C922.204 60.2576 923.193 59.2045 924.473 58.4545C925.761 57.697 927.287 57.3182 929.053 57.3182C930.818 57.3182 932.34 57.697 933.621 58.4545C934.909 59.2045 935.901 60.2576 936.598 61.6136C937.295 62.9621 937.643 64.5379 937.643 66.3409C937.643 68.1288 937.295 69.7008 936.598 71.0568C935.901 72.4053 934.909 73.4583 933.621 74.2159C932.34 74.9659 930.818 75.3409 929.053 75.3409ZM929.075 71.5909C929.878 71.5909 930.549 71.3636 931.087 70.9091C931.625 70.447 932.03 69.8182 932.303 69.0227C932.583 68.2273 932.723 67.322 932.723 66.3068C932.723 65.2917 932.583 64.3864 932.303 63.5909C932.03 62.7955 931.625 62.1667 931.087 61.7045C930.549 61.2424 929.878 61.0114 929.075 61.0114C928.265 61.0114 927.583 61.2424 927.03 61.7045C926.484 62.1667 926.071 62.7955 925.791 63.5909C925.518 64.3864 925.382 65.2917 925.382 66.3068C925.382 67.322 925.518 68.2273 925.791 69.0227C926.071 69.8182 926.484 70.447 927.03 70.9091C927.583 71.3636 928.265 71.5909 929.075 71.5909ZM940.791 75V57.5455H948.234C950.386 57.5455 952.087 57.9545 953.337 58.7727C954.587 59.5909 955.212 60.7538 955.212 62.2614C955.212 63.2083 954.859 63.9962 954.155 64.625C953.45 65.2538 952.473 65.678 951.223 65.8977C952.268 65.9735 953.159 66.2121 953.893 66.6136C954.636 67.0076 955.2 67.5189 955.587 68.1477C955.981 68.7765 956.178 69.4735 956.178 70.2386C956.178 71.2311 955.912 72.0833 955.382 72.7955C954.859 73.5076 954.09 74.053 953.075 74.4318C952.068 74.8106 950.837 75 949.382 75H940.791ZM945.303 71.375H949.382C950.056 71.375 950.583 71.2159 950.962 70.8977C951.348 70.572 951.541 70.1288 951.541 69.5682C951.541 68.947 951.348 68.4583 950.962 68.1023C950.583 67.7462 950.056 67.5682 949.382 67.5682H945.303V71.375ZM945.303 64.7273H948.337C948.821 64.7273 949.234 64.6591 949.575 64.5227C949.924 64.3788 950.189 64.1742 950.371 63.9091C950.56 63.6439 950.655 63.3295 950.655 62.9659C950.655 62.428 950.439 62.0076 950.007 61.7045C949.575 61.4015 948.984 61.25 948.234 61.25H945.303V64.7273ZM964.206 75.3295C963.092 75.3295 962.1 75.1364 961.229 74.75C960.357 74.3561 959.668 73.7765 959.161 73.0114C958.661 72.2386 958.411 71.2765 958.411 70.125C958.411 69.1553 958.589 68.3409 958.945 67.6818C959.301 67.0227 959.786 66.4924 960.399 66.0909C961.013 65.6894 961.71 65.3864 962.49 65.1818C963.278 64.9773 964.104 64.8333 964.967 64.75C965.982 64.6439 966.801 64.5455 967.422 64.4545C968.043 64.3561 968.494 64.2121 968.774 64.0227C969.054 63.8333 969.195 63.553 969.195 63.1818V63.1136C969.195 62.3939 968.967 61.8371 968.513 61.4432C968.066 61.0492 967.429 60.8523 966.604 60.8523C965.732 60.8523 965.039 61.0455 964.524 61.4318C964.009 61.8106 963.668 62.2879 963.501 62.8636L959.024 62.5C959.251 61.4394 959.698 60.5227 960.365 59.75C961.032 58.9697 961.892 58.3712 962.945 57.9545C964.005 57.5303 965.232 57.3182 966.626 57.3182C967.596 57.3182 968.524 57.4318 969.411 57.6591C970.304 57.8864 971.096 58.2386 971.786 58.7159C972.482 59.1932 973.032 59.8068 973.433 60.5568C973.835 61.2992 974.036 62.1894 974.036 63.2273V75H969.445V72.5795H969.308C969.028 73.125 968.653 73.6061 968.183 74.0227C967.714 74.4318 967.149 74.7538 966.49 74.9886C965.831 75.2159 965.07 75.3295 964.206 75.3295ZM965.592 71.9886C966.304 71.9886 966.933 71.8485 967.479 71.5682C968.024 71.2803 968.452 70.8939 968.763 70.4091C969.073 69.9242 969.229 69.375 969.229 68.7614V66.9091C969.077 67.0076 968.869 67.0985 968.604 67.1818C968.346 67.2576 968.054 67.3295 967.729 67.3977C967.403 67.4583 967.077 67.5152 966.751 67.5682C966.426 67.6136 966.13 67.6553 965.865 67.6932C965.297 67.7765 964.801 67.9091 964.376 68.0909C963.952 68.2727 963.623 68.5189 963.388 68.8295C963.153 69.1326 963.036 69.5114 963.036 69.9659C963.036 70.625 963.274 71.1288 963.751 71.4773C964.236 71.8182 964.85 71.9886 965.592 71.9886ZM989.939 64.3409V68.1477H980.825V64.3409H989.939ZM982.416 57.5455V75H977.791V57.5455H982.416ZM992.973 57.5455V75H988.382V57.5455H992.973ZM1001.35 68.6136L1007.64 57.5455H1012.41V75H1007.8V63.8977L1001.54 75H996.729V57.5455H1001.35V68.6136ZM1026.52 75V61.3409H1023.25C1022.36 61.3409 1021.69 61.5455 1021.22 61.9545C1020.76 62.3636 1020.53 62.8485 1020.54 63.4091C1020.53 63.9773 1020.75 64.4583 1021.2 64.8523C1021.65 65.2386 1022.32 65.4318 1023.2 65.4318H1028.13V68.7045H1023.2C1021.71 68.7045 1020.42 68.4773 1019.33 68.0227C1018.23 67.5682 1017.39 66.9356 1016.8 66.125C1016.21 65.3068 1015.92 64.3561 1015.93 63.2727C1015.92 62.1364 1016.21 61.1402 1016.8 60.2841C1017.39 59.4205 1018.24 58.75 1019.34 58.2727C1020.44 57.7879 1021.75 57.5455 1023.25 57.5455H1031.03V75H1026.52ZM1015.43 75L1020.28 65.9091H1024.9L1020.06 75H1015.43ZM805.611 96.5455V114H801.02V96.5455H805.611ZM803.372 104.205V108.023C803.001 108.189 802.539 108.348 801.986 108.5C801.433 108.644 800.853 108.761 800.247 108.852C799.641 108.943 799.073 108.989 798.543 108.989C796.035 108.989 794.062 108.473 792.622 107.443C791.183 106.405 790.463 104.75 790.463 102.477V96.5227H795.031V102.477C795.031 103.152 795.145 103.686 795.372 104.08C795.607 104.473 795.978 104.758 796.486 104.932C797.001 105.098 797.687 105.182 798.543 105.182C799.338 105.182 800.118 105.098 800.884 104.932C801.649 104.765 802.478 104.523 803.372 104.205ZM817.324 114.341C815.528 114.341 813.983 113.977 812.688 113.25C811.4 112.515 810.407 111.477 809.71 110.136C809.013 108.788 808.665 107.193 808.665 105.352C808.665 103.557 809.013 101.981 809.71 100.625C810.407 99.2689 811.388 98.2121 812.653 97.4545C813.926 96.697 815.419 96.3182 817.131 96.3182C818.282 96.3182 819.354 96.5038 820.347 96.875C821.347 97.2386 822.218 97.7879 822.96 98.5227C823.71 99.2576 824.294 100.182 824.71 101.295C825.127 102.402 825.335 103.697 825.335 105.182V106.511H810.597V103.511H820.778C820.778 102.814 820.627 102.197 820.324 101.659C820.021 101.121 819.6 100.701 819.062 100.398C818.532 100.087 817.915 99.9318 817.21 99.9318C816.475 99.9318 815.824 100.102 815.256 100.443C814.695 100.777 814.256 101.227 813.938 101.795C813.619 102.356 813.456 102.981 813.449 103.67V106.523C813.449 107.386 813.608 108.133 813.926 108.761C814.252 109.39 814.71 109.875 815.301 110.216C815.892 110.557 816.593 110.727 817.403 110.727C817.941 110.727 818.434 110.652 818.881 110.5C819.328 110.348 819.71 110.121 820.028 109.818C820.347 109.515 820.589 109.144 820.756 108.705L825.233 109C825.006 110.076 824.54 111.015 823.835 111.818C823.138 112.614 822.237 113.235 821.131 113.682C820.032 114.121 818.763 114.341 817.324 114.341ZM827.472 114L827.449 110.159H828.028C828.438 110.159 828.79 110.061 829.085 109.864C829.388 109.659 829.638 109.33 829.835 108.875C830.032 108.42 830.188 107.818 830.301 107.068C830.415 106.311 830.491 105.379 830.528 104.273L830.812 96.5455H844.085V114H839.472V100.352H835.165L834.892 105.682C834.824 107.144 834.646 108.402 834.358 109.455C834.078 110.508 833.688 111.371 833.188 112.045C832.688 112.712 832.085 113.205 831.381 113.523C830.676 113.841 829.858 114 828.926 114H827.472ZM855.724 114.341C853.959 114.341 852.433 113.966 851.145 113.216C849.865 112.458 848.876 111.405 848.179 110.057C847.482 108.701 847.134 107.129 847.134 105.341C847.134 103.538 847.482 101.962 848.179 100.614C848.876 99.2576 849.865 98.2045 851.145 97.4545C852.433 96.697 853.959 96.3182 855.724 96.3182C857.49 96.3182 859.012 96.697 860.293 97.4545C861.58 98.2045 862.573 99.2576 863.27 100.614C863.967 101.962 864.315 103.538 864.315 105.341C864.315 107.129 863.967 108.701 863.27 110.057C862.573 111.405 861.58 112.458 860.293 113.216C859.012 113.966 857.49 114.341 855.724 114.341ZM855.747 110.591C856.55 110.591 857.221 110.364 857.759 109.909C858.296 109.447 858.702 108.818 858.974 108.023C859.255 107.227 859.395 106.322 859.395 105.307C859.395 104.292 859.255 103.386 858.974 102.591C858.702 101.795 858.296 101.167 857.759 100.705C857.221 100.242 856.55 100.011 855.747 100.011C854.937 100.011 854.255 100.242 853.702 100.705C853.156 101.167 852.743 101.795 852.463 102.591C852.19 103.386 852.054 104.292 852.054 105.307C852.054 106.322 852.19 107.227 852.463 108.023C852.743 108.818 853.156 109.447 853.702 109.909C854.255 110.364 854.937 110.591 855.747 110.591ZM867.463 114V96.5455H874.906C877.058 96.5455 878.759 96.9545 880.009 97.7727C881.259 98.5909 881.884 99.7538 881.884 101.261C881.884 102.208 881.531 102.996 880.827 103.625C880.122 104.254 879.145 104.678 877.895 104.898C878.94 104.973 879.83 105.212 880.565 105.614C881.308 106.008 881.872 106.519 882.259 107.148C882.652 107.777 882.849 108.473 882.849 109.239C882.849 110.231 882.584 111.083 882.054 111.795C881.531 112.508 880.762 113.053 879.747 113.432C878.74 113.811 877.509 114 876.054 114H867.463ZM871.974 110.375H876.054C876.728 110.375 877.255 110.216 877.634 109.898C878.02 109.572 878.213 109.129 878.213 108.568C878.213 107.947 878.02 107.458 877.634 107.102C877.255 106.746 876.728 106.568 876.054 106.568H871.974V110.375ZM871.974 103.727H875.009C875.493 103.727 875.906 103.659 876.247 103.523C876.596 103.379 876.861 103.174 877.043 102.909C877.232 102.644 877.327 102.33 877.327 101.966C877.327 101.428 877.111 101.008 876.679 100.705C876.247 100.402 875.656 100.25 874.906 100.25H871.974V103.727ZM893.855 114.341C892.06 114.341 890.514 113.977 889.219 113.25C887.931 112.515 886.938 111.477 886.241 110.136C885.545 108.788 885.196 107.193 885.196 105.352C885.196 103.557 885.545 101.981 886.241 100.625C886.938 99.2689 887.92 98.2121 889.185 97.4545C890.457 96.697 891.95 96.3182 893.662 96.3182C894.813 96.3182 895.885 96.5038 896.878 96.875C897.878 97.2386 898.749 97.7879 899.491 98.5227C900.241 99.2576 900.825 100.182 901.241 101.295C901.658 102.402 901.866 103.697 901.866 105.182V106.511H887.128V103.511H897.31C897.31 102.814 897.158 102.197 896.855 101.659C896.552 101.121 896.132 100.701 895.594 100.398C895.063 100.087 894.446 99.9318 893.741 99.9318C893.007 99.9318 892.355 100.102 891.787 100.443C891.226 100.777 890.787 101.227 890.469 101.795C890.151 102.356 889.988 102.981 889.98 103.67V106.523C889.98 107.386 890.139 108.133 890.457 108.761C890.783 109.39 891.241 109.875 891.832 110.216C892.423 110.557 893.124 110.727 893.935 110.727C894.473 110.727 894.965 110.652 895.412 110.5C895.859 110.348 896.241 110.121 896.56 109.818C896.878 109.515 897.12 109.144 897.287 108.705L901.764 109C901.537 110.076 901.071 111.015 900.366 111.818C899.67 112.614 898.768 113.235 897.662 113.682C896.563 114.121 895.295 114.341 893.855 114.341ZM920.173 96.5455V114H915.582V96.5455H920.173ZM917.935 104.205V108.023C917.563 108.189 917.101 108.348 916.548 108.5C915.995 108.644 915.416 108.761 914.81 108.852C914.204 108.943 913.635 108.989 913.105 108.989C910.598 108.989 908.624 108.473 907.185 107.443C905.745 106.405 905.026 104.75 905.026 102.477V96.5227H909.594V102.477C909.594 103.152 909.707 103.686 909.935 104.08C910.17 104.473 910.541 104.758 911.048 104.932C911.563 105.098 912.249 105.182 913.105 105.182C913.901 105.182 914.681 105.098 915.446 104.932C916.211 104.765 917.041 104.523 917.935 104.205ZM931.886 114.341C930.091 114.341 928.545 113.977 927.25 113.25C925.962 112.515 924.97 111.477 924.273 110.136C923.576 108.788 923.227 107.193 923.227 105.352C923.227 103.557 923.576 101.981 924.273 100.625C924.97 99.2689 925.951 98.2121 927.216 97.4545C928.489 96.697 929.981 96.3182 931.693 96.3182C932.845 96.3182 933.917 96.5038 934.909 96.875C935.909 97.2386 936.78 97.7879 937.523 98.5227C938.273 99.2576 938.856 100.182 939.273 101.295C939.689 102.402 939.898 103.697 939.898 105.182V106.511H925.159V103.511H935.341C935.341 102.814 935.189 102.197 934.886 101.659C934.583 101.121 934.163 100.701 933.625 100.398C933.095 100.087 932.477 99.9318 931.773 99.9318C931.038 99.9318 930.386 100.102 929.818 100.443C929.258 100.777 928.818 101.227 928.5 101.795C928.182 102.356 928.019 102.981 928.011 103.67V106.523C928.011 107.386 928.17 108.133 928.489 108.761C928.814 109.39 929.273 109.875 929.864 110.216C930.455 110.557 931.155 110.727 931.966 110.727C932.504 110.727 932.996 110.652 933.443 110.5C933.89 110.348 934.273 110.121 934.591 109.818C934.909 109.515 935.152 109.144 935.318 108.705L939.795 109C939.568 110.076 939.102 111.015 938.398 111.818C937.701 112.614 936.799 113.235 935.693 113.682C934.595 114.121 933.326 114.341 931.886 114.341ZM950.943 114.341C949.155 114.341 947.617 113.962 946.33 113.205C945.049 112.439 944.064 111.379 943.375 110.023C942.693 108.667 942.352 107.106 942.352 105.341C942.352 103.553 942.697 101.985 943.386 100.636C944.083 99.2803 945.072 98.2235 946.352 97.4659C947.633 96.7008 949.155 96.3182 950.92 96.3182C952.443 96.3182 953.777 96.5947 954.92 97.1477C956.064 97.7008 956.97 98.4773 957.636 99.4773C958.303 100.477 958.67 101.652 958.739 103H954.17C954.042 102.129 953.701 101.428 953.148 100.898C952.602 100.36 951.886 100.091 951 100.091C950.25 100.091 949.595 100.295 949.034 100.705C948.481 101.106 948.049 101.693 947.739 102.466C947.428 103.239 947.273 104.174 947.273 105.273C947.273 106.386 947.424 107.333 947.727 108.114C948.038 108.894 948.473 109.489 949.034 109.898C949.595 110.307 950.25 110.511 951 110.511C951.553 110.511 952.049 110.398 952.489 110.17C952.936 109.943 953.303 109.614 953.591 109.182C953.886 108.742 954.08 108.216 954.17 107.602H958.739C958.663 108.936 958.299 110.11 957.648 111.125C957.004 112.133 956.114 112.92 954.977 113.489C953.841 114.057 952.496 114.341 950.943 114.341ZM961.838 114V96.5455H966.679V103.318H968.043L972.793 96.5455H978.474L972.304 105.205L978.543 114H972.793L968.486 107.807H966.679V114H961.838ZM987.756 114.341C985.991 114.341 984.464 113.966 983.176 113.216C981.896 112.458 980.907 111.405 980.21 110.057C979.513 108.701 979.165 107.129 979.165 105.341C979.165 103.538 979.513 101.962 980.21 100.614C980.907 99.2576 981.896 98.2045 983.176 97.4545C984.464 96.697 985.991 96.3182 987.756 96.3182C989.521 96.3182 991.044 96.697 992.324 97.4545C993.612 98.2045 994.604 99.2576 995.301 100.614C995.998 101.962 996.347 103.538 996.347 105.341C996.347 107.129 995.998 108.701 995.301 110.057C994.604 111.405 993.612 112.458 992.324 113.216C991.044 113.966 989.521 114.341 987.756 114.341ZM987.778 110.591C988.581 110.591 989.252 110.364 989.79 109.909C990.328 109.447 990.733 108.818 991.006 108.023C991.286 107.227 991.426 106.322 991.426 105.307C991.426 104.292 991.286 103.386 991.006 102.591C990.733 101.795 990.328 101.167 989.79 100.705C989.252 100.242 988.581 100.011 987.778 100.011C986.968 100.011 986.286 100.242 985.733 100.705C985.188 101.167 984.775 101.795 984.494 102.591C984.222 103.386 984.085 104.292 984.085 105.307C984.085 106.322 984.222 107.227 984.494 108.023C984.775 108.818 985.188 109.447 985.733 109.909C986.286 110.364 986.968 110.591 987.778 110.591ZM1011.45 96.5455V100.352H1004.2V114H999.494V96.5455H1011.45ZM1021.66 114.341C1019.9 114.341 1018.37 113.966 1017.08 113.216C1015.8 112.458 1014.81 111.405 1014.12 110.057C1013.42 108.701 1013.07 107.129 1013.07 105.341C1013.07 103.538 1013.42 101.962 1014.12 100.614C1014.81 99.2576 1015.8 98.2045 1017.08 97.4545C1018.37 96.697 1019.9 96.3182 1021.66 96.3182C1023.43 96.3182 1024.95 96.697 1026.23 97.4545C1027.52 98.2045 1028.51 99.2576 1029.21 100.614C1029.9 101.962 1030.25 103.538 1030.25 105.341C1030.25 107.129 1029.9 108.701 1029.21 110.057C1028.51 111.405 1027.52 112.458 1026.23 113.216C1024.95 113.966 1023.43 114.341 1021.66 114.341ZM1021.68 110.591C1022.49 110.591 1023.16 110.364 1023.7 109.909C1024.23 109.447 1024.64 108.818 1024.91 108.023C1025.19 107.227 1025.33 106.322 1025.33 105.307C1025.33 104.292 1025.19 103.386 1024.91 102.591C1024.64 101.795 1024.23 101.167 1023.7 100.705C1023.16 100.242 1022.49 100.011 1021.68 100.011C1020.87 100.011 1020.19 100.242 1019.64 100.705C1019.09 101.167 1018.68 101.795 1018.4 102.591C1018.13 103.386 1017.99 104.292 1017.99 105.307C1017.99 106.322 1018.13 107.227 1018.4 108.023C1018.68 108.818 1019.09 109.447 1019.64 109.909C1020.19 110.364 1020.87 110.591 1021.68 110.591ZM844.682 159.545V135.545H849.455V138.477H849.67C849.883 138.008 850.189 137.53 850.591 137.045C851 136.553 851.53 136.144 852.182 135.818C852.841 135.485 853.659 135.318 854.636 135.318C855.909 135.318 857.083 135.652 858.159 136.318C859.235 136.977 860.095 137.973 860.739 139.307C861.383 140.633 861.705 142.295 861.705 144.295C861.705 146.242 861.39 147.886 860.761 149.227C860.14 150.561 859.292 151.572 858.216 152.261C857.148 152.943 855.951 153.284 854.625 153.284C853.686 153.284 852.886 153.129 852.227 152.818C851.576 152.508 851.042 152.117 850.625 151.648C850.208 151.17 849.89 150.689 849.67 150.205H849.523V159.545H844.682ZM849.42 144.273C849.42 145.311 849.564 146.216 849.852 146.989C850.14 147.761 850.557 148.364 851.102 148.795C851.648 149.22 852.311 149.432 853.091 149.432C853.879 149.432 854.545 149.216 855.091 148.784C855.636 148.345 856.049 147.739 856.33 146.966C856.617 146.186 856.761 145.288 856.761 144.273C856.761 143.265 856.621 142.379 856.341 141.614C856.061 140.848 855.648 140.25 855.102 139.818C854.557 139.386 853.886 139.17 853.091 139.17C852.303 139.17 851.636 139.379 851.091 139.795C850.553 140.212 850.14 140.803 849.852 141.568C849.564 142.333 849.42 143.235 849.42 144.273ZM872.886 153.341C871.091 153.341 869.545 152.977 868.25 152.25C866.962 151.515 865.97 150.477 865.273 149.136C864.576 147.788 864.227 146.193 864.227 144.352C864.227 142.557 864.576 140.981 865.273 139.625C865.97 138.269 866.951 137.212 868.216 136.455C869.489 135.697 870.981 135.318 872.693 135.318C873.845 135.318 874.917 135.504 875.909 135.875C876.909 136.239 877.78 136.788 878.523 137.523C879.273 138.258 879.856 139.182 880.273 140.295C880.689 141.402 880.898 142.697 880.898 144.182V145.511H866.159V142.511H876.341C876.341 141.814 876.189 141.197 875.886 140.659C875.583 140.121 875.163 139.701 874.625 139.398C874.095 139.087 873.477 138.932 872.773 138.932C872.038 138.932 871.386 139.102 870.818 139.443C870.258 139.777 869.818 140.227 869.5 140.795C869.182 141.356 869.019 141.981 869.011 142.67V145.523C869.011 146.386 869.17 147.133 869.489 147.761C869.814 148.39 870.273 148.875 870.864 149.216C871.455 149.557 872.155 149.727 872.966 149.727C873.504 149.727 873.996 149.652 874.443 149.5C874.89 149.348 875.273 149.121 875.591 148.818C875.909 148.515 876.152 148.144 876.318 147.705L880.795 148C880.568 149.076 880.102 150.015 879.398 150.818C878.701 151.614 877.799 152.235 876.693 152.682C875.595 153.121 874.326 153.341 872.886 153.341ZM891.943 153.341C890.155 153.341 888.617 152.962 887.33 152.205C886.049 151.439 885.064 150.379 884.375 149.023C883.693 147.667 883.352 146.106 883.352 144.341C883.352 142.553 883.697 140.985 884.386 139.636C885.083 138.28 886.072 137.223 887.352 136.466C888.633 135.701 890.155 135.318 891.92 135.318C893.443 135.318 894.777 135.595 895.92 136.148C897.064 136.701 897.97 137.477 898.636 138.477C899.303 139.477 899.67 140.652 899.739 142H895.17C895.042 141.129 894.701 140.428 894.148 139.898C893.602 139.36 892.886 139.091 892 139.091C891.25 139.091 890.595 139.295 890.034 139.705C889.481 140.106 889.049 140.693 888.739 141.466C888.428 142.239 888.273 143.174 888.273 144.273C888.273 145.386 888.424 146.333 888.727 147.114C889.038 147.894 889.473 148.489 890.034 148.898C890.595 149.307 891.25 149.511 892 149.511C892.553 149.511 893.049 149.398 893.489 149.17C893.936 148.943 894.303 148.614 894.591 148.182C894.886 147.742 895.08 147.216 895.17 146.602H899.739C899.663 147.936 899.299 149.11 898.648 150.125C898.004 151.133 897.114 151.92 895.977 152.489C894.841 153.057 893.496 153.341 891.943 153.341ZM905.827 159.545C905.213 159.545 904.637 159.496 904.099 159.398C903.569 159.307 903.13 159.189 902.781 159.045L903.872 155.432C904.44 155.606 904.952 155.701 905.406 155.716C905.868 155.731 906.266 155.625 906.599 155.398C906.94 155.17 907.217 154.784 907.429 154.239L907.713 153.5L901.452 135.545H906.543L910.156 148.364H910.338L913.986 135.545H919.111L912.327 154.886C912.001 155.826 911.558 156.644 910.997 157.341C910.444 158.045 909.743 158.587 908.895 158.966C908.046 159.352 907.024 159.545 905.827 159.545ZM921.588 159.545V135.545H926.361V138.477H926.577C926.789 138.008 927.096 137.53 927.497 137.045C927.906 136.553 928.437 136.144 929.088 135.818C929.747 135.485 930.565 135.318 931.543 135.318C932.815 135.318 933.99 135.652 935.065 136.318C936.141 136.977 937.001 137.973 937.645 139.307C938.289 140.633 938.611 142.295 938.611 144.295C938.611 146.242 938.296 147.886 937.668 149.227C937.046 150.561 936.198 151.572 935.122 152.261C934.054 152.943 932.857 153.284 931.531 153.284C930.592 153.284 929.793 153.129 929.134 152.818C928.482 152.508 927.948 152.117 927.531 151.648C927.115 151.17 926.796 150.689 926.577 150.205H926.429V159.545H921.588ZM926.327 144.273C926.327 145.311 926.471 146.216 926.759 146.989C927.046 147.761 927.463 148.364 928.009 148.795C928.554 149.22 929.217 149.432 929.997 149.432C930.785 149.432 931.452 149.216 931.997 148.784C932.543 148.345 932.955 147.739 933.236 146.966C933.524 146.186 933.668 145.288 933.668 144.273C933.668 143.265 933.527 142.379 933.247 141.614C932.967 140.848 932.554 140.25 932.009 139.818C931.463 139.386 930.793 139.17 929.997 139.17C929.209 139.17 928.543 139.379 927.997 139.795C927.459 140.212 927.046 140.803 926.759 141.568C926.471 142.333 926.327 143.235 926.327 144.273ZM949.724 153.341C947.937 153.341 946.399 152.962 945.111 152.205C943.83 151.439 942.846 150.379 942.156 149.023C941.474 147.667 941.134 146.106 941.134 144.341C941.134 142.553 941.478 140.985 942.168 139.636C942.865 138.28 943.853 137.223 945.134 136.466C946.414 135.701 947.937 135.318 949.702 135.318C951.224 135.318 952.558 135.595 953.702 136.148C954.846 136.701 955.751 137.477 956.418 138.477C957.084 139.477 957.452 140.652 957.52 142H952.952C952.823 141.129 952.482 140.428 951.929 139.898C951.384 139.36 950.668 139.091 949.781 139.091C949.031 139.091 948.376 139.295 947.815 139.705C947.262 140.106 946.83 140.693 946.52 141.466C946.209 142.239 946.054 143.174 946.054 144.273C946.054 145.386 946.205 146.333 946.509 147.114C946.819 147.894 947.255 148.489 947.815 148.898C948.376 149.307 949.031 149.511 949.781 149.511C950.334 149.511 950.83 149.398 951.27 149.17C951.717 148.943 952.084 148.614 952.372 148.182C952.668 147.742 952.861 147.216 952.952 146.602H957.52C957.444 147.936 957.08 149.11 956.429 150.125C955.785 151.133 954.895 151.92 953.759 152.489C952.622 153.057 951.277 153.341 949.724 153.341ZM965.597 153.33C964.483 153.33 963.491 153.136 962.619 152.75C961.748 152.356 961.059 151.777 960.551 151.011C960.051 150.239 959.801 149.277 959.801 148.125C959.801 147.155 959.979 146.341 960.335 145.682C960.691 145.023 961.176 144.492 961.79 144.091C962.403 143.689 963.1 143.386 963.881 143.182C964.669 142.977 965.494 142.833 966.358 142.75C967.373 142.644 968.191 142.545 968.812 142.455C969.434 142.356 969.884 142.212 970.165 142.023C970.445 141.833 970.585 141.553 970.585 141.182V141.114C970.585 140.394 970.358 139.837 969.903 139.443C969.456 139.049 968.82 138.852 967.994 138.852C967.123 138.852 966.43 139.045 965.915 139.432C965.4 139.811 965.059 140.288 964.892 140.864L960.415 140.5C960.642 139.439 961.089 138.523 961.756 137.75C962.422 136.97 963.282 136.371 964.335 135.955C965.396 135.53 966.623 135.318 968.017 135.318C968.987 135.318 969.915 135.432 970.801 135.659C971.695 135.886 972.487 136.239 973.176 136.716C973.873 137.193 974.422 137.807 974.824 138.557C975.225 139.299 975.426 140.189 975.426 141.227V153H970.835V150.58H970.699C970.419 151.125 970.044 151.606 969.574 152.023C969.104 152.432 968.54 152.754 967.881 152.989C967.222 153.216 966.46 153.33 965.597 153.33ZM966.983 149.989C967.695 149.989 968.324 149.848 968.869 149.568C969.415 149.28 969.843 148.894 970.153 148.409C970.464 147.924 970.619 147.375 970.619 146.761V144.909C970.468 145.008 970.259 145.098 969.994 145.182C969.737 145.258 969.445 145.33 969.119 145.398C968.794 145.458 968.468 145.515 968.142 145.568C967.816 145.614 967.521 145.655 967.256 145.693C966.688 145.777 966.191 145.909 965.767 146.091C965.343 146.273 965.013 146.519 964.778 146.83C964.544 147.133 964.426 147.511 964.426 147.966C964.426 148.625 964.665 149.129 965.142 149.477C965.627 149.818 966.241 149.989 966.983 149.989Z" fill="black"/>
</svg>
